<?xml version="1.0" encoding="utf-8"?>
<!-- Generator: Fusion 360, Shaper Origin Export Add-In, Version 1.6.10  -->
<svg xmlns="http://www.w3.org/2000/svg" xmlns:xlink="http://www.w3.org/1999/xlink" xmlns:shaper="http://www.shapertools.com/namespaces/shaper" shaper:fusionaddin="version:1.6.10" width="11.5075678cm" height="9.0752962cm" version="1.1" x="0cm" y="0cm" viewBox="0 0 11.5075678 9.0752962" enable-background="new 0 0 11.5075678 9.0752962" xml:space="preserve"><path d="M-5.2343483,6.208932 L-5.364139,6.8032516 A0.47625,0.47625 192.3191448 0,0 -4.898855,7.3811128 L5.261145,7.3811128 A0.47625,0.47625 90 0,0 5.4248841,6.4576452 L2.9707808,5.5591283 A0.3175,0.3175 110.1091124 0,1 2.7624402,5.2609832 L2.7624402,1.8610776 A0.3175,0.3175 180 0,1 2.7825668,1.7498333 L3.0533991,1.025856 A0.3175,0.3175 20.5103009 0,0 2.9855732,0.6952621 L0.8429662,-1.5469578 A0.47625,0.47625 316.3014004 0,0 0.3236217,-1.6608565 L-5.569355,0.6677837 A0.3175,0.3175 248.4382895 0,0 -5.7674595,1.0044851 L-5.1975693,5.3356511 A2.54,2.54 352.5041424 0,1 -5.2343483,6.208932z" transform="matrix(1,0,0,-1,5.7701728,7.3811128)" fill="rgb(0,0,0)" shaper:cutDepth="0.003175" stroke-linecap="round" stroke-linejoin="round" /><path d="M-4.9700728,5.7890658 a0.1524,0.1524 0 1,1 0.3048,0 a0.1524,0.1524 0 1,1 -0.3048,0z" transform="matrix(1,0,0,-1,5.7701728,7.3811128)" fill="rgb(255,255,255)" stroke="rgb(0,0,0)" stroke-width="0.0010cm" stroke-linecap="round" stroke-linejoin="round" shaper:cutDepth="0.003175" /><path d="M-5.113855,6.9048628 a0.215,0.215 0 1,1 0.43,0 a0.215,0.215 0 1,1 -0.43,0z" transform="matrix(1,0,0,-1,5.7701728,7.3811128)" fill="rgb(255,255,255)" stroke="rgb(0,0,0)" stroke-width="0.0010cm" stroke-linecap="round" stroke-linejoin="round" shaper:cutDepth="0.003175" /><path d="M5.077122,6.9048628 a0.184023,0.184023 0 1,1 0.368046,0 a0.184023,0.184023 0 1,1 -0.368046,0z" transform="matrix(1,0,0,-1,5.7701728,7.3811128)" fill="rgb(255,255,255)" stroke="rgb(0,0,0)" stroke-width="0.0010cm" stroke-linecap="round" stroke-linejoin="round" shaper:cutDepth="0.003175" /><path d="M0.283645,-1.2179334 a0.215,0.215 0 1,1 0.43,0 a0.215,0.215 0 1,1 -0.43,0z" transform="matrix(1,0,0,-1,5.7701728,7.3811128)" fill="rgb(255,255,255)" stroke="rgb(0,0,0)" stroke-width="0.0010cm" stroke-linecap="round" stroke-linejoin="round" shaper:cutDepth="0.003175" /><path d="M2.6499272,0.9630658 a0.1524,0.1524 0 1,1 0.3048,0 a0.1524,0.1524 0 1,1 -0.3048,0z" transform="matrix(1,0,0,-1,5.7701728,7.3811128)" fill="rgb(255,255,255)" stroke="rgb(0,0,0)" stroke-width="0.0010cm" stroke-linecap="round" stroke-linejoin="round" shaper:cutDepth="0.003175" /><path d="M-5.6050728,0.9630658 a0.1524,0.1524 0 1,1 0.3048,0 a0.1524,0.1524 0 1,1 -0.3048,0z" transform="matrix(1,0,0,-1,5.7701728,7.3811128)" fill="rgb(255,255,255)" stroke="rgb(0,0,0)" stroke-width="0.0010cm" stroke-linecap="round" stroke-linejoin="round" shaper:cutDepth="0.003175" /><path d="M1.6537145,1.1305949 A0.4023809,0.4023809 270 0,0 1.2925838,1.3555076 A0.3175,0.3175 26.1705886 0,1 1.0076323,1.5329758 L-4.7437128,1.5329758 A0.3175,0.3175 270 0,0 -5.0612128,1.8504758 L-5.0612128,5.1754758 A0.3175,0.3175 180 0,0 -4.7437128,5.4929758 L1.8712872,5.4929758 A0.3175,0.3175 90 0,0 2.1887872,5.1754758 L2.1887872,2.179058 A0.3175,0.3175 180 0,1 2.3662554,1.8941065 A0.4023809,0.4023809 63.8294114 0,0 2.1887872,1.1305949 L1.6537145,1.1305949z" transform="matrix(1,0,0,-1,5.7701728,7.3811128)" fill="rgb(255,255,255)" stroke="rgb(0,0,0)" stroke-width="0.0010cm" stroke-linecap="round" stroke-linejoin="round" shaper:cutDepth="0.003175" /><path d="M2.5229272,5.7890658 a0.1524,0.1524 0 1,1 0.3048,0 a0.1524,0.1524 0 1,1 -0.3048,0z" transform="matrix(1,0,0,-1,5.7701728,7.3811128)" fill="rgb(255,255,255)" stroke="rgb(0,0,0)" stroke-width="0.0010cm" stroke-linecap="round" stroke-linejoin="round" shaper:cutDepth="0.003175" /></svg>