  0
SECTION
  2
HEADER
  9
$ACADVER
  1
AC1032
  9
$ACADMAINTVER
 90
       55
  9
$DWGCODEPAGE
  3
ANSI_1252
  9
$LASTSAVEDBY
  1
rhenr
  9
$REQUIREDVERSIONS
160
                 0
  9
$INSBASE
 10
0.0
 20
0.0
 30
0.0
  9
$EXTMIN
 10
-3.84375
 20
0.0
 30
0.0
  9
$EXTMAX
 10
3.84375
 20
1.77
 30
0.0
  9
$LIMMIN
 10
0.0
 20
0.0
  9
$LIMMAX
 10
12.0
 20
9.0
  9
$ORTHOMODE
 70
     0
  9
$REGENMODE
 70
     1
  9
$FILLMODE
 70
     1
  9
$QTEXTMODE
 70
     0
  9
$MIRRTEXT
 70
     1
  9
$LTSCALE
 40
1.0
  9
$ATTMODE
 70
     1
  9
$TEXTSIZE
 40
0.1377952756
  9
$TRACEWID
 40
0.05
  9
$TEXTSTYLE
  7
STANDARD
  9
$CLAYER
  8
0
  9
$CELTYPE
  6
ByLayer
  9
$CECOLOR
 62
   256
  9
$CELTSCALE
 40
1.0
  9
$DISPSILH
 70
     0
  9
$DIMSCALE
 40
1.0
  9
$DIMASZ
 40
0.14
  9
$DIMEXO
 40
0.0
  9
$DIMDLI
 40
0.38
  9
$DIMRND
 40
0.0
  9
$DIMDLE
 40
0.0
  9
$DIMEXE
 40
0.0393700787
  9
$DIMTP
 40
0.0
  9
$DIMTM
 40
0.0
  9
$DIMTXT
 40
0.1377952756
  9
$DIMCEN
 40
0.09
  9
$DIMTSZ
 40
0.0
  9
$DIMTOL
 70
     0
  9
$DIMLIM
 70
     0
  9
$DIMTIH
 70
     1
  9
$DIMTOH
 70
     1
  9
$DIMSE1
 70
     0
  9
$DIMSE2
 70
     0
  9
$DIMTAD
 70
     1
  9
$DIMZIN
 70
     0
  9
$DIMBLK
  1

  9
$DIMASO
 70
     1
  9
$DIMSHO
 70
     1
  9
$DIMPOST
  1

  9
$DIMAPOST
  1

  9
$DIMALT
 70
     0
  9
$DIMALTD
 70
     2
  9
$DIMALTF
 40
25.4
  9
$DIMLFAC
 40
1.0
  9
$DIMTOFL
 70
     0
  9
$DIMTVP
 40
0.0
  9
$DIMTIX
 70
     0
  9
$DIMSOXD
 70
     0
  9
$DIMSAH
 70
     0
  9
$DIMBLK1
  1

  9
$DIMBLK2
  1

  9
$DIMSTYLE
  2
Standard
  9
$DIMCLRD
 70
     0
  9
$DIMCLRE
 70
     0
  9
$DIMCLRT
 70
     0
  9
$DIMTFAC
 40
1.0
  9
$DIMGAP
 40
0.06
  9
$DIMJUST
 70
     0
  9
$DIMSD1
 70
     0
  9
$DIMSD2
 70
     0
  9
$DIMTOLJ
 70
     1
  9
$DIMTZIN
 70
     0
  9
$DIMALTZ
 70
     0
  9
$DIMALTTZ
 70
     0
  9
$DIMUPT
 70
     0
  9
$DIMDEC
 70
     2
  9
$DIMTDEC
 70
     2
  9
$DIMALTU
 70
     2
  9
$DIMALTTD
 70
     2
  9
$DIMTXSTY
  7
STANDARD
  9
$DIMAUNIT
 70
     0
  9
$DIMADEC
 70
     2
  9
$DIMALTRND
 40
0.0
  9
$DIMAZIN
 70
     0
  9
$DIMDSEP
 70
    46
  9
$DIMATFIT
 70
     3
  9
$DIMFRAC
 70
     0
  9
$DIMLDRBLK
  1

  9
$DIMLUNIT
 70
     2
  9
$DIMLWD
 70
    -2
  9
$DIMLWE
 70
    -2
  9
$DIMTMOVE
 70
     0
  9
$DIMFXL
 40
1.0
  9
$DIMFXLON
 70
     0
  9
$DIMJOGANG
 40
0.7853981634
  9
$DIMTFILL
 70
     0
  9
$DIMTFILLCLR
 70
     0
  9
$DIMARCSYM
 70
     0
  9
$DIMLTYPE
  6

  9
$DIMLTEX1
  6

  9
$DIMLTEX2
  6

  9
$DIMTXTDIRECTION
 70
     0
  9
$LUNITS
 70
     2
  9
$LUPREC
 70
     2
  9
$SKETCHINC
 40
0.1
  9
$FILLETRAD
 40
0.5
  9
$AUNITS
 70
     0
  9
$AUPREC
 70
     2
  9
$MENU
  1
.
  9
$ELEVATION
 40
0.0
  9
$PELEVATION
 40
0.0
  9
$THICKNESS
 40
0.0
  9
$LIMCHECK
 70
     0
  9
$CHAMFERA
 40
0.0
  9
$CHAMFERB
 40
0.0
  9
$CHAMFERC
 40
0.0
  9
$CHAMFERD
 40
0.0
  9
$SKPOLY
 70
     0
  9
$TDCREATE
 40
2459622.55627728
  9
$TDUCREATE
 40
2459622.93127728
  9
$TDUPDATE
 40
2459622.55629338
  9
$TDUUPDATE
 40
2459622.93129338
  9
$TDINDWG
 40
0.0000000116
  9
$TDUSRTIMER
 40
0.0000000116
  9
$USRTIMER
 70
     1
  9
$ANGBASE
 50
0.0
  9
$ANGDIR
 70
     0
  9
$PDMODE
 70
     0
  9
$PDSIZE
 40
-1.0
  9
$PLINEWID
 40
0.0
  9
$SPLFRAME
 70
     0
  9
$SPLINETYPE
 70
     6
  9
$SPLINESEGS
 70
     8
  9
$HANDSEED
  5
147
  9
$SURFTAB1
 70
     6
  9
$SURFTAB2
 70
     6
  9
$SURFTYPE
 70
     6
  9
$SURFU
 70
     6
  9
$SURFV
 70
     6
  9
$UCSBASE
  2

  9
$UCSNAME
  2

  9
$UCSORG
 10
0.0
 20
0.0
 30
0.0
  9
$UCSXDIR
 10
1.0
 20
0.0
 30
0.0
  9
$UCSYDIR
 10
0.0
 20
1.0
 30
0.0
  9
$UCSORTHOREF
  2

  9
$UCSORTHOVIEW
 70
     0
  9
$UCSORGTOP
 10
0.0
 20
0.0
 30
0.0
  9
$UCSORGBOTTOM
 10
0.0
 20
0.0
 30
0.0
  9
$UCSORGLEFT
 10
0.0
 20
0.0
 30
0.0
  9
$UCSORGRIGHT
 10
0.0
 20
0.0
 30
0.0
  9
$UCSORGFRONT
 10
0.0
 20
0.0
 30
0.0
  9
$UCSORGBACK
 10
0.0
 20
0.0
 30
0.0
  9
$PUCSBASE
  2

  9
$PUCSNAME
  2

  9
$PUCSORG
 10
0.0
 20
0.0
 30
0.0
  9
$PUCSXDIR
 10
1.0
 20
0.0
 30
0.0
  9
$PUCSYDIR
 10
0.0
 20
1.0
 30
0.0
  9
$PUCSORTHOREF
  2

  9
$PUCSORTHOVIEW
 70
     0
  9
$PUCSORGTOP
 10
0.0
 20
0.0
 30
0.0
  9
$PUCSORGBOTTOM
 10
0.0
 20
0.0
 30
0.0
  9
$PUCSORGLEFT
 10
0.0
 20
0.0
 30
0.0
  9
$PUCSORGRIGHT
 10
0.0
 20
0.0
 30
0.0
  9
$PUCSORGFRONT
 10
0.0
 20
0.0
 30
0.0
  9
$PUCSORGBACK
 10
0.0
 20
0.0
 30
0.0
  9
$USERI1
 70
     0
  9
$USERI2
 70
     0
  9
$USERI3
 70
     0
  9
$USERI4
 70
     0
  9
$USERI5
 70
     0
  9
$USERR1
 40
0.0
  9
$USERR2
 40
0.0
  9
$USERR3
 40
0.0
  9
$USERR4
 40
0.0
  9
$USERR5
 40
0.0
  9
$WORLDVIEW
 70
     1
  9
$SHADEDGE
 70
     3
  9
$SHADEDIF
 70
    70
  9
$TILEMODE
 70
     1
  9
$MAXACTVP
 70
    64
  9
$PINSBASE
 10
0.0
 20
0.0
 30
0.0
  9
$PLIMCHECK
 70
     0
  9
$PEXTMIN
 10
1.0000000000E+20
 20
1.0000000000E+20
 30
1.0000000000E+20
  9
$PEXTMAX
 10
-1.0000000000E+20
 20
-1.0000000000E+20
 30
-1.0000000000E+20
  9
$PLIMMIN
 10
0.0
 20
0.0
  9
$PLIMMAX
 10
12.0
 20
9.0
  9
$UNITMODE
 70
     0
  9
$VISRETAIN
 70
     1
  9
$PLINEGEN
 70
     0
  9
$PSLTSCALE
 70
     1
  9
$TREEDEPTH
 70
  3020
  9
$CMLSTYLE
  2
Standard
  9
$CMLJUST
 70
     0
  9
$CMLSCALE
 40
1.0
  9
$PROXYGRAPHICS
 70
     1
  9
$MEASUREMENT
 70
     0
  9
$CELWEIGHT
370
    -1
  9
$ENDCAPS
280
     0
  9
$JOINSTYLE
280
     0
  9
$LWDISPLAY
290
     1
  9
$INSUNITS
 70
     1
  9
$HYPERLINKBASE
  1

  9
$STYLESHEET
  1

  9
$XEDIT
290
     1
  9
$CEPSNTYPE
380
     0
  9
$PSTYLEMODE
290
     1
  9
$FINGERPRINTGUID
  2
{50670c3a-4e78-4791-831c-b8c038c6cefc}
  9
$VERSIONGUID
  2
{FAEB1C32-E019-11D5-929B-00C0DF256EC4}
  9
$EXTNAMES
290
     1
  9
$PSVPSCALE
 40
0.0
  9
$OLESTARTUP
290
     0
  9
$SORTENTS
280
   127
  9
$INDEXCTL
280
     0
  9
$HIDETEXT
280
     1
  9
$XCLIPFRAME
280
     2
  9
$HALOGAP
280
     0
  9
$OBSCOLOR
 70
   257
  9
$OBSLTYPE
280
     0
  9
$INTERSECTIONDISPLAY
280
     0
  9
$INTERSECTIONCOLOR
 70
   257
  9
$DIMASSOC
280
     2
  9
$PROJECTNAME
  1

  9
$CAMERADISPLAY
290
     0
  9
$LENSLENGTH
 40
50.0
  9
$CAMERAHEIGHT
 40
0.0
  9
$STEPSPERSEC
 40
2.0
  9
$STEPSIZE
 40
6.0
  9
$3DDWFPREC
 40
2.0
  9
$PSOLWIDTH
 40
0.25
  9
$PSOLHEIGHT
 40
4.0
  9
$LOFTANG1
 40
1.5707963268
  9
$LOFTANG2
 40
1.5707963268
  9
$LOFTMAG1
 40
0.0
  9
$LOFTMAG2
 40
0.0
  9
$LOFTPARAM
 70
     7
  9
$LOFTNORMALS
280
     1
  9
$LATITUDE
 40
37.795
  9
$LONGITUDE
 40
-122.394
  9
$NORTHDIRECTION
 40
0.0
  9
$TIMEZONE
 70
 -8000
  9
$LIGHTGLYPHDISPLAY
280
     1
  9
$TILEMODELIGHTSYNCH
280
     1
  9
$CMATERIAL
347
44
  9
$SOLIDHIST
280
     0
  9
$SHOWHIST
280
     1
  9
$DWFFRAME
280
     2
  9
$DGNFRAME
280
     2
  9
$REALWORLDSCALE
290
     1
  9
$INTERFERECOLOR
 62
   256
  9
$CSHADOW
280
     0
  9
$SHADOWPLANELOCATION
 40
0.0
  0
ENDSEC
  0
SECTION
  2
CLASSES
  0
CLASS
  1
ACDBDICTIONARYWDFLT
  2
AcDbDictionaryWithDefault
  3
ObjectDBX Classes
 90
        0
 91
        3
280
     0
281
     0
  0
CLASS
  1
VISUALSTYLE
  2
AcDbVisualStyle
  3
ObjectDBX Classes
 90
     4095
 91
        3
280
     0
281
     0
  0
CLASS
  1
MATERIAL
  2
AcDbMaterial
  3
ObjectDBX Classes
 90
     1153
 91
        3
280
     0
281
     0
  0
CLASS
  1
SCALE
  2
AcDbScale
  3
ObjectDBX Classes
 90
     1153
 91
        3
280
     0
281
     0
  0
CLASS
  1
TABLESTYLE
  2
AcDbTableStyle
  3
ObjectDBX Classes
 90
     4095
 91
        3
280
     0
281
     0
  0
CLASS
  1
MLEADERSTYLE
  2
AcDbMLeaderStyle
  3
ACDB_MLEADERSTYLE_CLASS
 90
     4095
 91
        3
280
     0
281
     0
  0
CLASS
  1
SUN
  2
AcDbSun
  3
SCENEOE
 90
     1153
 91
        3
280
     0
281
     0
  0
CLASS
  1
DICTIONARYVAR
  2
AcDbDictionaryVar
  3
ObjectDBX Classes
 90
        0
 91
        3
280
     0
281
     0
  0
CLASS
  1
CELLSTYLEMAP
  2
AcDbCellStyleMap
  3
ObjectDBX Classes
 90
     1152
 91
        3
280
     0
281
     0
  0
ENDSEC
  0
SECTION
  2
TABLES
  0
TABLE
  2
VPORT
  5
8
330
0
100
AcDbSymbolTable
 70
     1
  0
VPORT
  5
29
330
8
100
AcDbSymbolTableRecord
100
AcDbViewportTableRecord
  2
*Active
 70
     0
 10
0.0
 20
0.0
 11
1.0
 21
1.0
 12
0.0
 22
0.885
 13
0.0
 23
0.0
 14
0.5
 24
0.5
 15
0.5
 25
0.5
 16
0.0
 26
0.0
 36
1.0
 17
0.0
 27
0.0
 37
0.0
 40
1.8054
 41
4.343220339
 42
50.0
 43
0.0
 44
0.0
 50
0.0
 51
0.0
 71
     0
 72
   100
 73
     1
 74
     3
 75
     0
 76
     0
 77
     0
 78
     0
281
     0
 65
     1
110
0.0
120
0.0
130
0.0
111
1.0
121
0.0
131
0.0
112
0.0
122
1.0
132
0.0
 79
     0
146
0.0
348
2F
 60
     3
 61
     5
292
     1
282
     1
141
0.0
142
0.0
 63
   250
361
6D
  0
ENDTAB
  0
TABLE
  2
LTYPE
  5
5
330
0
100
AcDbSymbolTable
 70
     6
  0
LTYPE
  5
14
330
5
100
AcDbSymbolTableRecord
100
AcDbLinetypeTableRecord
  2
ByBlock
 70
     0
  3

 72
    65
 73
     0
 40
0.0
  0
LTYPE
  5
15
330
5
100
AcDbSymbolTableRecord
100
AcDbLinetypeTableRecord
  2
ByLayer
 70
     0
  3

 72
    65
 73
     0
 40
0.0
  0
LTYPE
  5
16
330
5
100
AcDbSymbolTableRecord
100
AcDbLinetypeTableRecord
  2
Continuous
 70
     0
  3
Solid line
 72
    65
 73
     0
 40
0.0
  0
LTYPE
  5
6E
330
5
100
AcDbSymbolTableRecord
100
AcDbLinetypeTableRecord
  2
HIDDEN
 70
     0
  3
Hidden __ __ __ __ __ __ __ __ __ __ __ __ __ __
 72
    65
 73
     2
 40
0.075
 49
0.05
 74
     0
 49
-0.025
 74
     0
  0
LTYPE
  5
6F
330
5
100
AcDbSymbolTableRecord
100
AcDbLinetypeTableRecord
  2
PHANTOM
 70
     0
  3
Phantom ______  __  __  ______  __  __  ______
 72
    65
 73
     6
 40
0.5
 49
0.25
 74
     0
 49
-0.05
 74
     0
 49
0.05
 74
     0
 49
-0.05
 74
     0
 49
0.05
 74
     0
 49
-0.05
 74
     0
  0
LTYPE
  5
70
330
5
100
AcDbSymbolTableRecord
100
AcDbLinetypeTableRecord
  2
CENTER
 70
     0
  3
Center ____ _ ____ _ ____ _ ____ _ ____ _ ____
 72
    65
 73
     4
 40
0.4
 49
0.25
 74
     0
 49
-0.05
 74
     0
 49
0.05
 74
     0
 49
-0.05
 74
     0
  0
LTYPE
  5
71
330
5
100
AcDbSymbolTableRecord
100
AcDbLinetypeTableRecord
  2
CENTERX2
 70
     0
  3
Center (2x) ________  __  ________  __  _____
 72
    65
 73
     4
 40
0.8
 49
0.5
 74
     0
 49
-0.1
 74
     0
 49
0.1
 74
     0
 49
-0.1
 74
     0
  0
LTYPE
  5
72
330
5
100
AcDbSymbolTableRecord
100
AcDbLinetypeTableRecord
  2
DOT2
 70
     0
  3
Dot (.5x) ........................................
 72
    65
 73
     2
 40
0.025
 49
0.0
 74
     0
 49
-0.025
 74
     0
  0
ENDTAB
  0
TABLE
  2
LAYER
  5
2
330
0
100
AcDbSymbolTable
 70
     1
  0
LAYER
  5
10
330
2
100
AcDbSymbolTableRecord
100
AcDbLayerTableRecord
  2
0
 70
     0
 62
     7
  6
Continuous
370
    -3
390
F
347
46
348
0
  0
ENDTAB
  0
TABLE
  2
STYLE
  5
3
330
0
100
AcDbSymbolTable
 70
     2
  0
STYLE
  5
11
330
3
100
AcDbSymbolTableRecord
100
AcDbTextStyleTableRecord
  2
STANDARD
 70
     0
 40
0.0
 41
1.0
 50
0.0
 71
     0
 42
0.1377952756
  3
GOTHIC.TTF
  4

1001
ACAD
1000
CENTURY GOTHIC
1071
       34
  0
STYLE
  5
13B
330
3
100
AcDbSymbolTableRecord
100
AcDbTextStyleTableRecord
  2
SLDTEXTSTYLE0
 70
     0
 40
0.0
 41
1.0
 50
0.0
 71
     0
 42
0.1377952756
  3
Arail.ttf
  4

1001
ACAD
1000
Arail.ttf
1071
 33554688
  0
ENDTAB
  0
TABLE
  2
VIEW
  5
6
330
0
100
AcDbSymbolTable
 70
     0
  0
ENDTAB
  0
TABLE
  2
UCS
  5
7
330
0
100
AcDbSymbolTable
 70
     0
  0
ENDTAB
  0
TABLE
  2
APPID
  5
9
330
0
100
AcDbSymbolTable
 70
     1
  0
APPID
  5
12
330
9
100
AcDbSymbolTableRecord
100
AcDbRegAppTableRecord
  2
ACAD
 70
     0
  0
ENDTAB
  0
TABLE
  2
DIMSTYLE
  5
A
330
0
100
AcDbSymbolTable
 70
     1
100
AcDbDimStyleTable
  0
DIMSTYLE
105
27
330
A
100
AcDbSymbolTableRecord
100
AcDbDimStyleTableRecord
  2
Standard
 70
     0
178
     0
340
11
  0
ENDTAB
  0
TABLE
  2
BLOCK_RECORD
  5
1
330
0
100
AcDbSymbolTable
 70
     1
  0
BLOCK_RECORD
  5
1F
330
1
100
AcDbSymbolTableRecord
100
AcDbBlockTableRecord
  2
*Model_Space
340
22
 70
     0
280
     1
281
     0
  0
BLOCK_RECORD
  5
1B
330
1
100
AcDbSymbolTableRecord
100
AcDbBlockTableRecord
  2
*Paper_Space
340
1E
 70
     0
280
     1
281
     0
  0
BLOCK_RECORD
  5
23
330
1
100
AcDbSymbolTableRecord
100
AcDbBlockTableRecord
  2
*Paper_Space0
340
26
 70
     0
280
     1
281
     0
  0
ENDTAB
  0
ENDSEC
  0
SECTION
  2
BLOCKS
  0
BLOCK
  5
20
330
1F
100
AcDbEntity
  8
0
100
AcDbBlockBegin
  2
*Model_Space
 70
     0
 10
0.0
 20
0.0
 30
0.0
  3
*Model_Space
  1

  0
ENDBLK
  5
21
330
1F
100
AcDbEntity
  8
0
100
AcDbBlockEnd
  0
BLOCK
  5
1C
330
1B
100
AcDbEntity
 67
     1
  8
0
100
AcDbBlockBegin
  2
*Paper_Space
 70
     0
 10
0.0
 20
0.0
 30
0.0
  3
*Paper_Space
  1

  0
ENDBLK
  5
1D
330
1B
100
AcDbEntity
 67
     1
  8
0
100
AcDbBlockEnd
  0
BLOCK
  5
24
330
23
100
AcDbEntity
  8
0
100
AcDbBlockBegin
  2
*Paper_Space0
 70
     0
 10
0.0
 20
0.0
 30
0.0
  3
*Paper_Space0
  1

  0
ENDBLK
  5
25
330
23
100
AcDbEntity
  8
0
100
AcDbBlockEnd
  0
ENDSEC
  0
SECTION
  2
ENTITIES
  0
CIRCLE
  5
7B
330
1F
100
AcDbEntity
  8
0
  6
Continuous
 62
     1
370
    25
100
AcDbCircle
 10
-3.52
 20
1.4
 30
0.0
 40
0.0847499999999997
  0
CIRCLE
  5
7C
330
1F
100
AcDbEntity
  8
0
  6
Continuous
 62
     1
370
    25
100
AcDbCircle
 10
3.52
 20
1.4
 30
0.0
 40
0.0847499999999988
  0
SPLINE
  5
7D
330
1F
100
AcDbEntity
  8
0
  6
Continuous
 62
     1
370
    25
100
AcDbSpline
210
0.0
220
0.0
230
1.0
 70
     8
 71
     3
 72
    11
 73
     7
 74
     0
 42
0.00000001
 43
0.00000001
 40
0.0
 40
0.0
 40
0.0
 40
0.0
 40
0.2758432204855272
 40
0.5166743515870539
 40
0.7488909886021697
 40
1.0
 40
1.0
 40
1.0
 40
1.0
 10
3.493288486627534
 20
0.1325681669927622
 30
0.0
 10
3.494311144464359
 20
0.1326605038405972
 30
0.0
 10
3.496226656739076
 20
0.1328334574513436
 30
0.0
 10
3.498751135290942
 20
0.134079605410971
 30
0.0
 10
3.500760700377138
 20
0.1359385614859027
 30
0.0
 10
3.501467450220666
 20
0.1375976083424583
 30
0.0
 10
3.501834637964782
 20
0.1384595564252475
 30
0.0
  0
SPLINE
  5
7E
330
1F
100
AcDbEntity
  8
0
  6
Continuous
 62
     1
370
    25
100
AcDbSpline
210
0.0
220
0.0
230
1.0
 70
     8
 71
     3
 72
    11
 73
     7
 74
     0
 42
0.00000001
 43
0.00000001
 40
0.0
 40
0.0
 40
0.0
 40
0.0
 40
0.1959905816408098
 40
0.3821295136467652
 40
0.6248249882937639
 40
1.0
 40
1.0
 40
1.0
 40
1.0
 10
3.501834637964782
 20
0.1384595564252475
 30
0.0
 10
3.501942365491456
 20
0.138857468513966
 30
0.0
 10
3.502152405520061
 20
0.1396332912686272
 30
0.0
 10
3.502295385910298
 20
0.1409413917040176
 30
0.0
 10
3.502365858561392
 20
0.1426285796648882
 30
0.0
 10
3.502352115351847
 20
0.1439265038153195
 30
0.0
 10
3.502343770384873
 20
0.1447146118720837
 30
0.0
  0
SPLINE
  5
80
330
1F
100
AcDbEntity
  8
0
  6
Continuous
 62
     1
370
    25
100
AcDbSpline
210
0.0
220
0.0
230
1.0
 70
     8
 71
     3
 72
    15
 73
    11
 74
     0
 42
0.00000001
 43
0.00000001
 40
0.0
 40
0.0
 40
0.0
 40
0.0
 40
0.1606220861732351
 40
0.3031008103721345
 40
0.4297238103313522
 40
0.5425818078273039
 40
0.6480245528192281
 40
0.7537464461837082
 40
0.8699498413391238
 40
0.9999999999999999
 40
0.9999999999999999
 40
0.9999999999999999
 40
0.9999999999999999
 10
3.502343805899132
 20
0.2883855587236411
 30
0.0
 10
3.502330184653146
 20
0.2893005289883651
 30
0.0
 10
3.502304480773964
 20
0.2910271173755012
 30
0.0
 10
3.501923366919856
 20
0.2934552114409106
 30
0.0
 10
3.501206553330675
 20
0.2955219929413908
 30
0.0
 10
3.500181016193799
 20
0.2972173259615564
 30
0.0
 10
3.498829279269145
 20
0.2985100344284159
 30
0.0
 10
3.49714897251586
 20
0.2993641644051332
 30
0.0
 10
3.495181213478977
 20
0.2998341839851425
 30
0.0
 10
3.493776022592085
 20
0.2998475007911753
 30
0.0
 10
3.493033920417489
 20
0.2998545335941972
 30
0.0
  0
SPLINE
  5
81
330
1F
100
AcDbEntity
  8
0
  6
Continuous
 62
     1
370
    25
100
AcDbSpline
210
0.0
220
0.0
230
1.0
 70
     8
 71
     3
 72
    15
 73
    11
 74
     0
 42
0.00000001
 43
0.00000001
 40
0.0
 40
0.0
 40
0.0
 40
0.0
 40
0.1273603900856288
 40
0.2408252945050697
 40
0.3459555191038967
 40
0.4511520370721592
 40
0.56428877043722
 40
0.6917768218609205
 40
0.8360266200673786
 40
1.0
 40
1.0
 40
1.0
 40
1.0
 10
3.493033920417489
 20
0.2998545335941972
 30
0.0
 10
3.492315753902751
 20
0.2998481344723172
 30
0.0
 10
3.490957775473988
 20
0.2998360343962238
 30
0.0
 10
3.489052542789959
 20
0.2993568828155593
 30
0.0
 10
3.487417544206187
 20
0.2985089019259057
 30
0.0
 10
3.48610399073051
 20
0.2972134162707089
 30
0.0
 10
3.485114232133134
 20
0.2955183165105758
 30
0.0
 10
3.484445329797756
 20
0.2934481083202534
 30
0.0
 10
3.484049936221117
 20
0.2910205098156107
 30
0.0
 10
3.484027133962981
 20
0.2892856339159537
 30
0.0
 10
3.484015003261586
 20
0.2883626875407073
 30
0.0
  0
SPLINE
  5
85
330
1F
100
AcDbEntity
  8
0
  6
Continuous
 62
     1
370
    25
100
AcDbSpline
210
0.0
220
0.0
230
1.0
 70
     8
 71
     3
 72
    11
 73
     7
 74
     0
 42
0.00000001
 43
0.00000001
 40
0.0
 40
0.0
 40
0.0
 40
0.0
 40
0.4002147396394868
 40
0.6453418308674366
 40
0.817687882715965
 40
0.9999999999999999
 40
0.9999999999999999
 40
0.9999999999999999
 40
0.9999999999999999
 10
3.404590416755857
 20
0.2873705611953061
 30
0.0
 10
3.404598471505951
 20
0.2882226441432754
 30
0.0
 10
3.404611459701182
 20
0.2895966184506405
 30
0.0
 10
3.404548073105155
 20
0.2913363470650776
 30
0.0
 10
3.404398154538992
 20
0.292608369025056
 30
0.0
 10
3.404188821173968
 20
0.2933350350873046
 30
0.0
 10
3.404081213307248
 20
0.2937085779516662
 30
0.0
  0
SPLINE
  5
86
330
1F
100
AcDbEntity
  8
0
  6
Continuous
 62
     1
370
    25
100
AcDbSpline
210
0.0
220
0.0
230
1.0
 70
     8
 71
     3
 72
    11
 73
     7
 74
     0
 42
0.00000001
 43
0.00000001
 40
0.0
 40
0.0
 40
0.0
 40
0.0
 40
0.2483918641479622
 40
0.4796824814396138
 40
0.7206379101031469
 40
1.0
 40
1.0
 40
1.0
 40
1.0
 10
3.404081213307248
 20
0.2937085779516662
 30
0.0
 10
3.403768420817095
 20
0.2946042287612917
 30
0.0
 10
3.403164370928558
 20
0.296333866744155
 30
0.0
 10
3.401198057369785
 20
0.2983444866317475
 30
0.0
 10
3.398557318036372
 20
0.2995401356152992
 30
0.0
 10
3.396590864521392
 20
0.2997447010118536
 30
0.0
 10
3.39553506197
 20
0.2998545335941972
 30
0.0
  0
SPLINE
  5
87
330
1F
100
AcDbEntity
  8
0
  6
Continuous
 62
     1
370
    25
100
AcDbSpline
210
0.0
220
0.0
230
1.0
 70
     8
 71
     3
 72
    15
 73
    11
 74
     0
 42
0.00000001
 43
0.00000001
 40
0.0
 40
0.0
 40
0.0
 40
0.0
 40
0.1287871383390723
 40
0.2425965359228328
 40
0.3466432828858927
 40
0.4461925410608849
 40
0.5539918650408033
 40
0.6778868669114273
 40
0.8264807816722959
 40
1.0
 40
1.0
 40
1.0
 40
1.0
 10
3.39553506197
 20
0.2998545335941972
 30
0.0
 10
3.394768092503745
 20
0.2998365721855802
 30
0.0
 10
3.393323350908644
 20
0.2998027382517962
 30
0.0
 10
3.391308728028645
 20
0.299290056260296
 30
0.0
 10
3.389614472901954
 20
0.2984165770638983
 30
0.0
 10
3.38826389218654
 20
0.297108326646968
 30
0.0
 10
3.387320459076978
 20
0.2953541104019201
 30
0.0
 10
3.386684749023258
 20
0.2931768213075188
 30
0.0
 10
3.386292881091148
 20
0.2905465714762545
 30
0.0
 10
3.386272537499444
 20
0.2886309276476047
 30
0.0
 10
3.386261578604051
 20
0.2875989889105703
 30
0.0
  0
SPLINE
  5
89
330
1F
100
AcDbEntity
  8
0
  6
Continuous
 62
     1
370
    25
100
AcDbSpline
210
0.0
220
0.0
230
1.0
 70
     8
 71
     3
 72
    15
 73
    11
 74
     0
 42
0.00000001
 43
0.00000001
 40
0.0
 40
0.0
 40
0.0
 40
0.0
 40
0.1653065643946039
 40
0.3087944709565187
 40
0.4356091621234527
 40
0.5481483353330506
 40
0.6542946192265189
 40
0.7598979518157045
 40
0.873312295895624
 40
1.0
 40
1.0
 40
1.0
 40
1.0
 10
3.386261614118311
 20
0.1442064383369911
 30
0.0
 10
3.38627305378459
 20
0.1432709530350822
 30
0.0
 10
3.386294423206364
 20
0.1415234562556984
 30
0.0
 10
3.38669250275291
 20
0.1390842385451984
 30
0.0
 10
3.387358867925247
 20
0.1370117636294433
 30
0.0
 10
3.388361128260429
 20
0.1353164806693324
 30
0.0
 10
3.389659668054591
 20
0.1339879816842988
 30
0.0
 10
3.391295152627909
 20
0.1331046940708283
 30
0.0
 10
3.393198965253625
 20
0.1325762762867105
 30
0.0
 10
3.394561543501271
 20
0.1325709679102518
 30
0.0
 10
3.395280495759954
 20
0.1325681669927622
 30
0.0
  0
SPLINE
  5
8A
330
1F
100
AcDbEntity
  8
0
  6
Continuous
 62
     1
370
    25
100
AcDbSpline
210
0.0
220
0.0
230
1.0
 70
     8
 71
     3
 72
    15
 73
    11
 74
     0
 42
0.00000001
 43
0.00000001
 40
0.0
 40
0.0
 40
0.0
 40
0.0
 40
0.1321598307592864
 40
0.2526484684567199
 40
0.3713112523972914
 40
0.4917785703321015
 40
0.6119256378520174
 40
0.7327548801517814
 40
0.8594573340572391
 40
1.0
 40
1.0
 40
1.0
 40
1.0
 10
3.395280495759954
 20
0.1325681669927622
 30
0.0
 10
3.395987558877172
 20
0.132613811332706
 30
0.0
 10
3.397339243520233
 20
0.1327010691062241
 30
0.0
 10
3.399261724098499
 20
0.1332657932462013
 30
0.0
 10
3.400965360798268
 20
0.1341877035398361
 30
0.0
 10
3.402426413082286
 20
0.1354623380478079
 30
0.0
 10
3.403562287228326
 20
0.1370466165361713
 30
0.0
 10
3.404344600574301
 20
0.1388669066095819
 30
0.0
 10
3.404715934998699
 20
0.1409313386752953
 30
0.0
 10
3.404633629640261
 20
0.1423620687310444
 30
0.0
 10
3.404590345727339
 20
0.1431144814089395
 30
0.0
  0
SPLINE
  5
8F
330
1F
100
AcDbEntity
  8
0
  6
Continuous
 62
     1
370
    25
100
AcDbSpline
210
0.0
220
0.0
230
1.0
 70
     8
 71
     3
 72
    15
 73
    11
 74
     0
 42
0.00000001
 43
0.00000001
 40
0.0
 40
0.0
 40
0.0
 40
0.0
 40
0.1631455747246964
 40
0.304680913984546
 40
0.4327467644604145
 40
0.5462347108870159
 40
0.6522227628697193
 40
0.759543509506364
 40
0.8733743510695022
 40
1.0
 40
1.0
 40
1.0
 40
1.0
 10
3.484015003261586
 20
0.1442064383369911
 30
0.0
 10
3.484054638315579
 20
0.1432831991302483
 30
0.0
 10
3.48412865837096
 20
0.1415590128272398
 30
0.0
 10
3.484545515903263
 20
0.1391343614632558
 30
0.0
 10
3.485299903859535
 20
0.1370853607042946
 30
0.0
 10
3.486334012461407
 20
0.1353998574937635
 30
0.0
 10
3.487634235528583
 20
0.1340448304605704
 30
0.0
 10
3.489302929735909
 20
0.1331951186938724
 30
0.0
 10
3.491200014913995
 20
0.1326063498501844
 30
0.0
 10
3.492568064526871
 20
0.1325813382385947
 30
0.0
 10
3.493288486627534
 20
0.1325681669927622
 30
0.0
  0
SPLINE
  5
90
330
1F
100
AcDbEntity
  8
0
  6
Continuous
 62
     1
370
    25
100
AcDbSpline
210
0.0
220
0.0
230
1.0
 70
     8
 71
     3
 72
    15
 73
    11
 74
     0
 42
0.00000001
 43
0.00000001
 40
0.0
 40
0.0
 40
0.0
 40
0.0
 40
0.1656322829065372
 40
0.3071113158694314
 40
0.4235298413617951
 40
0.5214684830736511
 40
0.6168747355855945
 40
0.7241633153949362
 40
0.8502352972228098
 40
1.0
 40
1.0
 40
1.0
 40
1.0
 10
3.360368593896523
 20
0.2846726139513401
 30
0.0
 10
3.360415763778738
 20
0.2859879433825699
 30
0.0
 10
3.360503225017225
 20
0.2884267949478456
 30
0.0
 10
3.360125166307163
 20
0.2917837630754683
 30
0.0
 10
3.359358670747254
 20
0.2945151642515776
 30
0.0
 10
3.358132732203834
 20
0.2967005047874476
 30
0.0
 10
3.356227982260367
 20
0.2982126355509654
 30
0.0
 10
3.353821877395342
 20
0.2992783901435084
 30
0.0
 10
3.350802988722795
 20
0.2998189924678514
 30
0.0
 10
3.348611766060894
 20
0.2998420270413961
 30
0.0
 10
3.347422048271369
 20
0.2998545335941972
 30
0.0
  0
SPLINE
  5
92
330
1F
100
AcDbEntity
  8
0
  6
Continuous
 62
     1
370
    25
100
AcDbSpline
210
0.0
220
0.0
230
1.0
 70
     8
 71
     3
 72
    23
 73
    19
 74
     0
 42
0.00000001
 43
0.00000001
 40
0.0
 40
0.0
 40
0.0
 40
0.0
 40
0.065536979269493
 40
0.1288939206549972
 40
0.1905128447121955
 40
0.2508190812583055
 40
0.3101699110592576
 40
0.3687427568199498
 40
0.4263661750897932
 40
0.4843209499101674
 40
0.5427472289741437
 40
0.6020281931478139
 40
0.662919253991734
 40
0.725321696211707
 40
0.790696744025643
 40
0.8577529693289464
 40
0.9274569839371349
 40
1.0
 40
1.0
 40
1.0
 40
1.0
 10
3.311948346341433
 20
0.2998545335941972
 30
0.0
 10
3.310461550570441
 20
0.2998415352218087
 30
0.0
 10
3.307537416161554
 20
0.2998159708580256
 30
0.0
 10
3.303235730620533
 20
0.2993773822630822
 30
0.0
 10
3.299073922670704
 20
0.2987894303622094
 30
0.0
 10
3.295060493209023
 20
0.2978760087331548
 30
0.0
 10
3.291201300201726
 20
0.2966660253359992
 30
0.0
 10
3.287487338338166
 20
0.2952225070817064
 30
0.0
 10
3.283936433480043
 20
0.2934869549474127
 30
0.0
 10
3.280504436818941
 20
0.2915333346233321
 30
0.0
 10
3.277223149579582
 20
0.28926642825748
 30
0.0
 10
3.274082599151547
 20
0.2867031516345129
 30
0.0
 10
3.271074628384933
 20
0.2838553270967779
 30
0.0
 10
3.268125545699226
 20
0.2807513787898405
 30
0.0
 10
3.265358707481729
 20
0.2773016822756197
 30
0.0
 10
3.26269349370808
 20
0.2735710798022067
 30
0.0
 10
3.260138714303364
 20
0.2695675001056696
 30
0.0
 10
3.258575554566703
 20
0.2667454492523265
 30
0.0
 10
3.257778375733862
 20
0.2653062622308573
 30
0.0
  0
SPLINE
  5
93
330
1F
100
AcDbEntity
  8
0
  6
Continuous
 62
     1
370
    25
100
AcDbSpline
210
0.0
220
0.0
230
1.0
 70
     8
 71
     3
 72
    15
 73
    11
 74
     0
 42
0.00000001
 43
0.00000001
 40
0.0
 40
0.0
 40
0.0
 40
0.0
 40
0.122913588376948
 40
0.2423158791412691
 40
0.3580537301305642
 40
0.4711386858996395
 40
0.5880259989862436
 40
0.7143825040292591
 40
0.8520542235028593
 40
1.0
 40
1.0
 40
1.0
 40
1.0
 10
3.257778375733862
 20
0.2653062622308573
 30
0.0
 10
3.256775936623046
 20
0.2634308553750632
 30
0.0
 10
3.254799695284476
 20
0.2597336167946092
 30
0.0
 10
3.252442278591634
 20
0.2540007191138028
 30
0.0
 10
3.25044075818446
 20
0.2483187626238789
 30
0.0
 10
3.248923453560039
 20
0.242529321546697
 30
0.0
 10
3.247832979288976
 20
0.2364604160900461
 30
0.0
 10
3.247081409997152
 20
0.2299138942708502
 30
0.0
 10
3.246647300597734
 20
0.2227997422753617
 30
0.0
 10
3.246625250650486
 20
0.2178605936036556
 30
0.0
 10
3.246613829093287
 20
0.2153021852576024
 30
0.0
  0
SPLINE
  5
94
330
1F
100
AcDbEntity
  8
0
  6
Continuous
 62
     1
370
    25
100
AcDbSpline
210
0.0
220
0.0
230
1.0
 70
     8
 71
     3
 72
    15
 73
    11
 74
     0
 42
0.00000001
 43
0.00000001
 40
0.0
 40
0.0
 40
0.0
 40
0.0
 40
0.1442553141846998
 40
0.2796239136746693
 40
0.407417214926129
 40
0.528414640477076
 40
0.6453973171115462
 40
0.7620524501531888
 40
0.8799678127051851
 40
1.0
 40
1.0
 40
1.0
 40
1.0
 10
3.246613829093287
 20
0.2153021852576024
 30
0.0
 10
3.246665454426708
 20
0.2118442033223337
 30
0.0
 10
3.246765524762814
 20
0.2051412652183131
 30
0.0
 10
3.247855273201932
 20
0.1954267739109889
 30
0.0
 10
3.249546084079467
 20
0.1863663714921216
 30
0.0
 10
3.252077409172611
 20
0.1779579219833377
 30
0.0
 10
3.255370168969149
 20
0.1701034830851984
 30
0.0
 10
3.259537220192525
 20
0.162767475638184
 30
0.0
 10
3.264417604768874
 20
0.1557820822064873
 30
0.0
 10
3.26831995400479
 20
0.1516163825175621
 30
0.0
 10
3.270288486627534
 20
0.1495150032615162
 30
0.0
  0
SPLINE
  5
95
330
1F
100
AcDbEntity
  8
0
  6
Continuous
 62
     1
370
    25
100
AcDbSpline
210
0.0
220
0.0
230
1.0
 70
     8
 71
     3
 72
    15
 73
    11
 74
     0
 42
0.00000001
 43
0.00000001
 40
0.0
 40
0.0
 40
0.0
 40
0.0
 40
0.1272134361327303
 40
0.2506404318583489
 40
0.3724945731120583
 40
0.4933230235723103
 40
0.6158833704532503
 40
0.7397194106563938
 40
0.8676189328306065
 40
1.0
 40
1.0
 40
1.0
 40
1.0
 10
3.270288486627534
 20
0.1495150032615162
 30
0.0
 10
3.271713525136439
 20
0.1481351002222444
 30
0.0
 10
3.27452118663938
 20
0.1454163662252721
 30
0.0
 10
3.279206586868042
 20
0.1419701698886194
 30
0.0
 10
3.284074964042929
 20
0.1389830829345616
 30
0.0
 10
3.289263474856614
 20
0.1366183718417196
 30
0.0
 10
3.294682046381285
 20
0.1347573728826685
 30
0.0
 10
3.300372282498864
 20
0.1334464243181739
 30
0.0
 10
3.306317698853314
 20
0.1326648388305382
 30
0.0
 10
3.310374202940221
 20
0.1326007587185844
 30
0.0
 10
3.312437377690809
 20
0.1325681669927622
 30
0.0
  0
SPLINE
  5
97
330
1F
100
AcDbEntity
  8
0
  6
Continuous
 62
     1
370
    25
100
AcDbSpline
210
0.0
220
0.0
230
1.0
 70
     8
 71
     3
 72
    15
 73
    11
 74
     0
 42
0.00000001
 43
0.00000001
 40
0.0
 40
0.0
 40
0.0
 40
0.0
 40
0.1497080223588099
 40
0.2823470606073004
 40
0.3998825720960192
 40
0.5084262309971186
 40
0.6166611611603897
 40
0.7302636315560528
 40
0.8563495600704316
 40
1.0
 40
1.0
 40
1.0
 40
1.0
 10
3.346928861753665
 20
0.1325682025070213
 30
0.0
 10
3.348016757315889
 20
0.1325849753098968
 30
0.0
 10
3.350068511853834
 20
0.1326166085618456
 30
0.0
 10
3.352940929277615
 20
0.1331405508751975
 30
0.0
 10
3.355380362244365
 20
0.1341144957200699
 30
0.0
 10
3.357351958800044
 20
0.1355809013713158
 30
0.0
 10
3.358836042993973
 20
0.1374985693101582
 30
0.0
 10
3.359872704823189
 20
0.1398251534977085
 30
0.0
 10
3.360408420217472
 20
0.142581348789833
 30
0.0
 10
3.360382410227673
 20
0.1445428146624915
 30
0.0
 10
3.360368558382263
 20
0.1455874103065259
 30
0.0
  0
SPLINE
  5
99
330
1F
100
AcDbEntity
  8
0
  6
Continuous
 62
     1
370
    25
100
AcDbSpline
210
0.0
220
0.0
230
1.0
 70
     8
 71
     3
 72
    15
 73
    11
 74
     0
 42
0.00000001
 43
0.00000001
 40
0.0
 40
0.0
 40
0.0
 40
0.0
 40
0.1226419535661203
 40
0.2424962258404151
 40
0.3622235263351405
 40
0.4844652068563718
 40
0.6083206861236458
 40
0.7349625117890998
 40
0.8644938763624805
 40
1.0
 40
1.0
 40
1.0
 40
1.0
 10
3.130349804305291
 20
0.2662154272667346
 30
0.0
 10
3.130924965444509
 20
0.2672067984441362
 30
0.0
 10
3.132062214171026
 20
0.2691670066921012
 30
0.0
 10
3.134303167830829
 20
0.2717166869287686
 30
0.0
 10
3.136820301852461
 20
0.2739789423228469
 30
0.0
 10
3.139714883617645
 20
0.275806530110725
 30
0.0
 10
3.14285001193416
 20
0.2773310908091466
 30
0.0
 10
3.146253347513095
 20
0.2783568264535013
 30
0.0
 10
3.149851977602865
 20
0.2790393353904299
 30
0.0
 10
3.152324124355444
 20
0.2791445240245499
 30
0.0
 10
3.153588062622316
 20
0.2791983039790634
 30
0.0
  0
SPLINE
  5
9A
330
1F
100
AcDbEntity
  8
0
  6
Continuous
 62
     1
370
    25
100
AcDbSpline
210
0.0
220
0.0
230
1.0
 70
     8
 71
     3
 72
    15
 73
    11
 74
     0
 42
0.00000001
 43
0.00000001
 40
0.0
 40
0.0
 40
0.0
 40
0.0
 40
0.1230874329071204
 40
0.244199952072204
 40
0.3627367854541876
 40
0.4828879780291798
 40
0.6049039766556683
 40
0.7309809460024345
 40
0.862810527357166
 40
0.9999999999999999
 40
0.9999999999999999
 40
0.9999999999999999
 40
0.9999999999999999
 10
3.153588062622316
 20
0.2791983039790634
 30
0.0
 10
3.154936005078254
 20
0.27916900700671
 30
0.0
 10
3.157610262517556
 20
0.2791108831261842
 30
0.0
 10
3.16154091454115
 20
0.2784752955237839
 30
0.0
 10
3.165342892974521
 20
0.2774184113116157
 30
0.0
 10
3.168984531147498
 20
0.275871464133326
 30
0.0
 10
3.172511195875749
 20
0.2739014585038511
 30
0.0
 10
3.175856311195653
 20
0.2714209279229237
 30
0.0
 10
3.17911724971577
 20
0.2685680119095502
 30
0.0
 10
3.181068200793359
 20
0.2663596894063563
 30
0.0
 10
3.182063111545995
 20
0.2652335290279871
 30
0.0
  0
SPLINE
  5
9B
330
1F
100
AcDbEntity
  8
0
  6
Continuous
 62
     1
370
    25
100
AcDbSpline
210
0.0
220
0.0
230
1.0
 70
     8
 71
     3
 72
    15
 73
    11
 74
     0
 42
0.00000001
 43
0.00000001
 40
0.0
 40
0.0
 40
0.0
 40
0.0
 40
0.1221051242671855
 40
0.2455433030912969
 40
0.3717028705524796
 40
0.5006434290039046
 40
0.6295029442933482
 40
0.754629679261217
 40
0.8778777663202517
 40
1.0
 40
1.0
 40
1.0
 40
1.0
 10
3.182063111545995
 20
0.2652335290279871
 30
0.0
 10
3.183401048419209
 20
0.2635209957704852
 30
0.0
 10
3.186091528783142
 20
0.2600772330682699
 30
0.0
 10
3.189636592125133
 20
0.2544794961459356
 30
0.0
 10
3.192674059547379
 20
0.2484596959756796
 30
0.0
 10
3.19527080345412
 20
0.2421358578461379
 30
0.0
 10
3.197386156882933
 20
0.2356499931579153
 30
0.0
 10
3.198858080971538
 20
0.229096750309426
 30
0.0
 10
3.199870763056605
 20
0.222570302049376
 30
0.0
 10
3.20000017178211
 20
0.2182030994056716
 30
0.0
 10
3.200064579256367
 20
0.2160295172863041
 30
0.0
  0
SPLINE
  5
9C
330
1F
100
AcDbEntity
  8
0
  6
Continuous
 62
     1
370
    25
100
AcDbSpline
210
0.0
220
0.0
230
1.0
 70
     8
 71
     3
 72
    15
 73
    11
 74
     0
 42
0.00000001
 43
0.00000001
 40
0.0
 40
0.0
 40
0.0
 40
0.0
 40
0.1270171243772849
 40
0.2539168305419265
 40
0.3797192984944033
 40
0.5068537326398239
 40
0.6324694289830769
 40
0.7553677838935178
 40
0.8778804147848507
 40
1.0
 40
1.0
 40
1.0
 40
1.0
 10
3.200064579256367
 20
0.2160295172863041
 30
0.0
 10
3.200019776467652
 20
0.2142458492180976
 30
0.0
 10
3.199930212307184
 20
0.2106801619547605
 30
0.0
 10
3.199295515412243
 20
0.2053784250930149
 30
0.0
 10
3.19827000554376
 20
0.2001406035296187
 30
0.0
 10
3.196862457597365
 20
0.1950094733538638
 30
0.0
 10
3.195082562364861
 20
0.1900395034761186
 30
0.0
 10
3.192973577719352
 20
0.1852700198343306
 30
0.0
 10
3.190460319745039
 20
0.1807525613806664
 30
0.0
 10
3.188522047429055
 20
0.1779153486468574
 30
0.0
 10
3.187554468362694
 20
0.1764990215263563
 30
0.0
  0
SPLINE
  5
9D
330
1F
100
AcDbEntity
  8
0
  6
Continuous
 62
     1
370
    25
100
AcDbSpline
210
0.0
220
0.0
230
1.0
 70
     8
 71
     3
 72
    15
 73
    11
 74
     0
 42
0.00000001
 43
0.00000001
 40
0.0
 40
0.0
 40
0.0
 40
0.0
 40
0.1516766198962998
 40
0.2920796466263969
 40
0.4225761395931869
 40
0.5448658419729733
 40
0.6617382276372374
 40
0.7741347586366718
 40
0.8862504095830158
 40
1.0
 40
1.0
 40
1.0
 40
1.0
 10
3.187554468362694
 20
0.1764990215263562
 30
0.0
 10
3.186400854803745
 20
0.1746571528907357
 30
0.0
 10
3.184179371750711
 20
0.1711103152792958
 30
0.0
 10
3.180412308906923
 20
0.166357660149987
 30
0.0
 10
3.176479193575378
 20
0.1623144491958868
 30
0.0
 10
3.172342961075509
 20
0.1589850524849525
 30
0.0
 10
3.167989934204623
 20
0.1564190900964645
 30
0.0
 10
3.163451296400008
 20
0.1545632546937834
 30
0.0
 10
3.158710604349748
 20
0.1534297488811606
 30
0.0
 10
3.155473094199141
 20
0.1532931766928308
 30
0.0
 10
3.153842628832362
 20
0.1532243966078957
 30
0.0
  0
SPLINE
  5
9E
330
1F
100
AcDbEntity
  8
0
  6
Continuous
 62
     1
370
    25
100
AcDbSpline
210
0.0
220
0.0
230
1.0
 70
     8
 71
     3
 72
    15
 73
    11
 74
     0
 42
0.00000001
 43
0.00000001
 40
0.0
 40
0.0
 40
0.0
 40
0.0
 40
0.1130344753016577
 40
0.2234538644056261
 40
0.334425296391967
 40
0.4464642525212563
 40
0.5663527637911149
 40
0.6982885177615108
 40
0.841935104307791
 40
1.0
 40
1.0
 40
1.0
 40
1.0
 10
3.153842628832362
 20
0.1532243966078957
 30
0.0
 10
3.152626786407464
 20
0.1532618428842088
 30
0.0
 10
3.150223230433709
 20
0.1533358691060974
 30
0.0
 10
3.146689582363785
 20
0.1540658143655633
 30
0.0
 10
3.143283664150303
 20
0.1552110531228824
 30
0.0
 10
3.140017685855939
 20
0.1569471052252872
 30
0.0
 10
3.136820744060616
 20
0.1592114410002784
 30
0.0
 10
3.133636641056503
 20
0.1620331066749745
 30
0.0
 10
3.130401481301063
 20
0.1653962610902646
 30
0.0
 10
3.128410701158346
 20
0.1679569200594465
 30
0.0
 10
3.127367742987612
 20
0.1692984344422075
 30
0.0
  0
SPLINE
  5
9F
330
1F
100
AcDbEntity
  8
0
  6
Continuous
 62
     1
370
    25
100
AcDbSpline
210
0.0
220
0.0
230
1.0
 70
     8
 71
     3
 72
    13
 73
     9
 74
     0
 42
0.00000001
 43
0.00000001
 40
0.0
 40
0.0
 40
0.0
 40
0.0
 40
0.1949449814783863
 40
0.3638832051460971
 40
0.5032437821062998
 40
0.6161055627025385
 40
0.809526382687341
 40
1.0
 40
1.0
 40
1.0
 40
1.0
 10
3.127367742987612
 20
0.1692984344422075
 30
0.0
 10
3.126838664864625
 20
0.1699806713184805
 30
0.0
 10
3.125851090618265
 20
0.1712541308316438
 30
0.0
 10
3.124423153127715
 20
0.1729662445212198
 30
0.0
 10
3.123108567340947
 20
0.1742959253148931
 30
0.0
 10
3.121589631813633
 20
0.1755512996924121
 30
0.0
 10
3.119607534365848
 20
0.1766467688121899
 30
0.0
 10
3.117891204753993
 20
0.1767424707342523
 30
0.0
 10
3.117039628180046
 20
0.176789954337837
 30
0.0
  0
SPLINE
  5
A0
330
1F
100
AcDbEntity
  8
0
  6
Continuous
 62
     1
370
    25
100
AcDbSpline
210
0.0
220
0.0
230
1.0
 70
     8
 71
     3
 72
    15
 73
    11
 74
     0
 42
0.00000001
 43
0.00000001
 40
0.0
 40
0.0
 40
0.0
 40
0.0
 40
0.1201416626910494
 40
0.2357292439554805
 40
0.3559459717352167
 40
0.4821304689419596
 40
0.6112652927031895
 40
0.737592694256084
 40
0.8653756513470425
 40
1.0
 40
1.0
 40
1.0
 40
1.0
 10
3.117039628180046
 20
0.176789954337837
 30
0.0
 10
3.116354042840327
 20
0.1767246173845949
 30
0.0
 10
3.115008859910618
 20
0.1765964201360707
 30
0.0
 10
3.11309524168443
 20
0.175851051168332
 30
0.0
 10
3.111329770060347
 20
0.1747564063354442
 30
0.0
 10
3.109779493224036
 20
0.1732533128966474
 30
0.0
 10
3.108493873066678
 20
0.1714865144563173
 30
0.0
 10
3.107469575954715
 20
0.169539390860679
 30
0.0
 10
3.106891621298954
 20
0.1673777409193065
 30
0.0
 10
3.106772583848903
 20
0.1658830865268588
 30
0.0
 10
3.106711513372479
 20
0.1651162752771716
 30
0.0
  0
SPLINE
  5
A1
330
1F
100
AcDbEntity
  8
0
  6
Continuous
 62
     1
370
    25
100
AcDbSpline
210
0.0
220
0.0
230
1.0
 70
     8
 71
     3
 72
    13
 73
     9
 74
     0
 42
0.00000001
 43
0.00000001
 40
0.0
 40
0.0
 40
0.0
 40
0.0
 40
0.1931673820699562
 40
0.4008652097047108
 40
0.5189551383200205
 40
0.6599779639712566
 40
0.8180478718935176
 40
1.0
 40
1.0
 40
1.0
 40
1.0
 10
3.106711513372479
 20
0.1651162752771716
 30
0.0
 10
3.106781942507657
 20
0.1641003197095995
 30
0.0
 10
3.106928098601608
 20
0.1619919863187275
 30
0.0
 10
3.10796685197159
 20
0.1594266911696464
 30
0.0
 10
3.109228028892651
 20
0.1573282522759795
 30
0.0
 10
3.110497530041792
 20
0.155542671725908
 30
0.0
 10
3.112045418241233
 20
0.153548558536278
 30
0.0
 10
3.113214024347976
 20
0.1522002856739592
 30
0.0
 10
3.113839367253758
 20
0.1514787997390112
 30
0.0
  0
SPLINE
  5
A2
330
1F
100
AcDbEntity
  8
0
  6
Continuous
 62
     1
370
    25
100
AcDbSpline
210
0.0
220
0.0
230
1.0
 70
     8
 71
     3
 72
    15
 73
    11
 74
     0
 42
0.00000001
 43
0.00000001
 40
0.0
 40
0.0
 40
0.0
 40
0.0
 40
0.1386555381465023
 40
0.2702270672634791
 40
0.3968820540922319
 40
0.5204977997738781
 40
0.6402416305017177
 40
0.7596406949195761
 40
0.8793715824672805
 40
1.0
 40
1.0
 40
1.0
 40
1.0
 10
3.113839367253758
 20
0.1514787997390112
 30
0.0
 10
3.115352517001468
 20
0.1499710764345607
 30
0.0
 10
3.118301508611325
 20
0.1470326604704182
 30
0.0
 10
3.123073996529425
 20
0.1431992428383171
 30
0.0
 10
3.127964472398022
 20
0.1399202069708566
 30
0.0
 10
3.133022759967317
 20
0.1372787186006697
 30
0.0
 10
3.138201245150385
 20
0.1351576442369475
 30
0.0
 10
3.14353489911405
 20
0.1336797737953154
 30
0.0
 10
3.149007900797183
 20
0.1327240158907474
 30
0.0
 10
3.152711331157896
 20
0.1326202457886891
 30
0.0
 10
3.154569960861064
 20
0.132568166992762
 30
0.0
  0
SPLINE
  5
A3
330
1F
100
AcDbEntity
  8
0
  6
Continuous
 62
     1
370
    25
100
AcDbSpline
210
0.0
220
0.0
230
1.0
 70
     8
 71
     3
 72
    15
 73
    11
 74
     0
 42
0.00000001
 43
0.00000001
 40
0.0
 40
0.0
 40
0.0
 40
0.0
 40
0.1234744927739757
 40
0.2489411227671369
 40
0.3736903742708804
 40
0.5020267640678036
 40
0.6299635538710581
 40
0.754781963239206
 40
0.8777241352582282
 40
0.9999999999999999
 40
0.9999999999999999
 40
0.9999999999999999
 40
0.9999999999999999
 10
3.154569960861064
 20
0.132568166992762
 30
0.0
 10
3.155965967279352
 20
0.132602551708368
 30
0.0
 10
3.158780503280687
 20
0.1326718759025129
 30
0.0
 10
3.162969701387977
 20
0.1332560181447102
 30
0.0
 10
3.167170696025683
 20
0.1340785716828404
 30
0.0
 10
3.171309569132308
 20
0.1352854273844002
 30
0.0
 10
3.17535839618595
 20
0.1367613288577823
 30
0.0
 10
3.17923463654203
 20
0.1385044092600335
 30
0.0
 10
3.182890773187848
 20
0.14054806965463
 30
0.0
 10
3.185177664988591
 20
0.1421149636082759
 30
0.0
 10
3.186318003913902
 20
0.1428962818003289
 30
0.0
  0
SPLINE
  5
A4
330
1F
100
AcDbEntity
  8
0
  6
Continuous
 62
     1
370
    25
100
AcDbSpline
210
0.0
220
0.0
230
1.0
 70
     8
 71
     3
 72
    23
 73
    19
 74
     0
 42
0.00000001
 43
0.00000001
 40
0.0
 40
0.0
 40
0.0
 40
0.0
 40
0.0599780859055831
 40
0.1203618132651435
 40
0.180764196771604
 40
0.2414085879205196
 40
0.3025156845911901
 40
0.36430122651119
 40
0.4275644249082791
 40
0.4919048467325579
 40
0.5565437322614584
 40
0.6202977629805635
 40
0.6834777945472383
 40
0.7465388260900806
 40
0.8096831811973305
 40
0.8727442127401732
 40
0.9362621712550269
 40
1.0
 40
1.0
 40
1.0
 40
1.0
 10
3.186318003913901
 20
0.1428962818003288
 30
0.0
 10
3.187617295535558
 20
0.1439586923708136
 30
0.0
 10
3.190224666097351
 20
0.1460906987655639
 30
0.0
 10
3.193880361853894
 20
0.1495913801991287
 30
0.0
 10
3.197344620708118
 20
0.1533038070687817
 30
0.0
 10
3.200585292256754
 20
0.1572403877567124
 30
0.0
 10
3.203609262045749
 20
0.1613934007744696
 30
0.0
 10
3.20641715748972
 20
0.1657823180715346
 30
0.0
 10
3.209032693077811
 20
0.1703925994797311
 30
0.0
 10
3.211421503067061
 20
0.1752136548938514
 30
0.0
 10
3.213556986208012
 20
0.1801672411185858
 30
0.0
 10
3.215405466990228
 20
0.1851995074551546
 30
0.0
 10
3.217024603532812
 20
0.1902640226929604
 30
0.0
 10
3.218335665177099
 20
0.1954007429558145
 30
0.0
 10
3.21934051638103
 20
0.2006013372550183
 30
0.0
 10
3.220116908364456
 20
0.2058532294938021
 30
0.0
 10
3.220599934715167
 20
0.2111596416076717
 30
0.0
 10
3.220680471102954
 20
0.2147193524713446
 30
0.0
 10
3.2207208088715
 20
0.2165022831049603
 30
0.0
  0
SPLINE
  5
A5
330
1F
100
AcDbEntity
  8
0
  6
Continuous
 62
     1
370
    25
100
AcDbSpline
210
0.0
220
0.0
230
1.0
 70
     8
 71
     3
 72
    15
 73
    11
 74
     0
 42
0.00000001
 43
0.00000001
 40
0.0
 40
0.0
 40
0.0
 40
0.0
 40
0.124376918013648
 40
0.2490169104232677
 40
0.3735586471322802
 40
0.5000575363851878
 40
0.626426891830136
 40
0.7512141227310986
 40
0.875219397726748
 40
1.0
 40
1.0
 40
1.0
 40
1.0
 10
3.2207208088715
 20
0.2165022831049603
 30
0.0
 10
3.220642873120477
 20
0.2191236483077112
 30
0.0
 10
3.22048683677353
 20
0.2243719232634271
 30
0.0
 10
3.219471890373743
 20
0.2321914610429535
 30
0.0
 10
3.217870412007992
 20
0.2399515945100394
 30
0.0
 10
3.215628481123169
 20
0.2475937666350006
 30
0.0
 10
3.212744583599036
 20
0.2550199278778175
 30
0.0
 10
3.209377732118746
 20
0.2621815466733562
 30
0.0
 10
3.205396136944366
 20
0.2689899008658376
 30
0.0
 10
3.202329838487406
 20
0.2732454201448917
 30
0.0
 10
3.200791911285069
 20
0.2753798108283785
 30
0.0
  0
SPLINE
  5
A6
330
1F
100
AcDbEntity
  8
0
  6
Continuous
 62
     1
370
    25
100
AcDbSpline
210
0.0
220
0.0
230
1.0
 70
     8
 71
     3
 72
    15
 73
    11
 74
     0
 42
0.00000001
 43
0.00000001
 40
0.0
 40
0.0
 40
0.0
 40
0.0
 40
0.1400539961482311
 40
0.2724885032297915
 40
0.3996108133770414
 40
0.5219347976611105
 40
0.6408256902697478
 40
0.7592717694600571
 40
0.8780876805398283
 40
1.0
 40
1.0
 40
1.0
 40
1.0
 10
3.200791911285068
 20
0.2753798108283784
 30
0.0
 10
3.199207862308614
 20
0.2773313274021612
 30
0.0
 10
3.196125942859634
 20
0.28112819036104
 30
0.0
 10
3.190934652490083
 20
0.2860933604309198
 30
0.0
 10
3.185552396031821
 20
0.2903421928937756
 30
0.0
 10
3.179929318520372
 20
0.2938407196687056
 30
0.0
 10
3.174041381604123
 20
0.296512479465401
 30
0.0
 10
3.167945518223025
 20
0.2984640313502128
 30
0.0
 10
3.161583248719839
 20
0.2996129153438103
 30
0.0
 10
3.157265657016675
 20
0.2997733064911371
 30
0.0
 10
3.155079093281155
 20
0.2998545335941971
 30
0.0
  0
SPLINE
  5
A7
330
1F
100
AcDbEntity
  8
0
  6
Continuous
 62
     1
370
    25
100
AcDbSpline
210
0.0
220
0.0
230
1.0
 70
     8
 71
     3
 72
    15
 73
    11
 74
     0
 42
0.00000001
 43
0.00000001
 40
0.0
 40
0.0
 40
0.0
 40
0.0
 40
0.1293242708614698
 40
0.256044084511876
 40
0.3830068145377838
 40
0.5112802068254105
 40
0.6381562343930076
 40
0.760261191664603
 40
0.8804289515489607
 40
1.0
 40
1.0
 40
1.0
 40
1.0
 10
3.155079093281155
 20
0.2998545335941971
 30
0.0
 10
3.152964151336979
 20
0.2997763359917051
 30
0.0
 10
3.148776860194451
 20
0.2996215156056498
 30
0.0
 10
3.142613145747261
 20
0.2984198597641087
 30
0.0
 10
3.136615148355332
 20
0.296657396765834
 30
0.0
 10
3.130867982328072
 20
0.2941786277742841
 30
0.0
 10
3.125476657480226
 20
0.2911620548566239
 30
0.0
 10
3.120590597737555
 20
0.2876024743309997
 30
0.0
 10
3.116242001071164
 20
0.2835611924812405
 30
0.0
 10
3.113813921058117
 20
0.2804803332469532
 30
0.0
 10
3.112602902804964
 20
0.2789437377690177
 30
0.0
  0
SPLINE
  5
A8
330
1F
100
AcDbEntity
  8
0
  6
Continuous
 62
     1
370
    25
100
AcDbSpline
210
0.0
220
0.0
230
1.0
 70
     8
 71
     3
 72
    13
 73
     9
 74
     0
 42
0.00000001
 43
0.00000001
 40
0.0
 40
0.0
 40
0.0
 40
0.0
 40
0.2440714754504294
 40
0.4736086117035629
 40
0.5909305314800262
 40
0.7162575926402478
 40
0.8525738482335181
 40
1.0
 40
1.0
 40
1.0
 40
1.0
 10
3.112602902804964
 20
0.2789437377690177
 30
0.0
 10
3.111660174112523
 20
0.2774214311377273
 30
0.0
 10
3.10983085576872
 20
0.2744674705042611
 30
0.0
 10
3.108363143812412
 20
0.2703683008353907
 30
0.0
 10
3.107557521736869
 20
0.267003525095111
 30
0.0
 10
3.107241632711121
 20
0.2642448466570149
 30
0.0
 10
3.106943031672861
 20
0.2612637635354085
 30
0.0
 10
3.106958198987903
 20
0.2591854960386306
 30
0.0
 10
3.106966079582524
 20
0.2581056751467086
 30
0.0
  0
SPLINE
  5
AA
330
1F
100
AcDbEntity
  8
0
  6
Continuous
 62
     1
370
    25
100
AcDbSpline
210
0.0
220
0.0
230
1.0
 70
     8
 71
     3
 72
    15
 73
    11
 74
     0
 42
0.00000001
 43
0.00000001
 40
0.0
 40
0.0
 40
0.0
 40
0.0
 40
0.1580795944382184
 40
0.2918393619112332
 40
0.4058498659774123
 40
0.5053758717442768
 40
0.6042027398641139
 40
0.716418035517803
 40
0.8473240578214217
 40
1.0
 40
1.0
 40
1.0
 40
1.0
 10
3.106966115096784
 20
0.2187364496378512
 30
0.0
 10
3.106957988678607
 20
0.2175178927011984
 30
0.0
 10
3.106942986054745
 20
0.2152682482729654
 30
0.0
 10
3.107382245263647
 20
0.2121549532057063
 30
0.0
 10
3.108277354433467
 20
0.2096146002903864
 30
0.0
 10
3.109626659910699
 20
0.2075740847022341
 30
0.0
 10
3.111591738446561
 20
0.2061403411670918
 30
0.0
 10
3.11406013514315
 20
0.2051611110963164
 30
0.0
 10
3.117094943825659
 20
0.2046904762837826
 30
0.0
 10
3.11928109843737
 20
0.2047093454084917
 30
0.0
 10
3.120458088714945
 20
0.2047195042399897
 30
0.0
  0
SPLINE
  5
AC
330
1F
100
AcDbEntity
  8
0
  6
Continuous
 62
     1
370
    25
100
AcDbSpline
210
0.0
220
0.0
230
1.0
 70
     8
 71
     3
 72
    11
 73
     7
 74
     0
 42
0.00000001
 43
0.00000001
 40
0.0
 40
0.0
 40
0.0
 40
0.0
 40
0.3922934091038062
 40
0.658498923395134
 40
0.8455471881946769
 40
1.0
 40
1.0
 40
1.0
 40
1.0
 10
3.144857166108638
 20
0.2047195042399897
 30
0.0
 10
3.145949092982661
 20
0.2047236894114773
 30
0.0
 10
3.147781988091995
 20
0.2047307145892008
 30
0.0
 10
3.150135976337057
 20
0.204825884261688
 30
0.0
 10
3.151808721999251
 20
0.205152930822687
 30
0.0
 10
3.152683354659594
 20
0.2055305942817411
 30
0.0
 10
3.153078930202225
 20
0.2057014024787372
 30
0.0
  0
SPLINE
  5
AD
330
1F
100
AcDbEntity
  8
0
  6
Continuous
 62
     1
370
    25
100
AcDbSpline
210
0.0
220
0.0
230
1.0
 70
     8
 71
     3
 72
    11
 73
     7
 74
     0
 42
0.00000001
 43
0.00000001
 40
0.0
 40
0.0
 40
0.0
 40
0.0
 40
0.2564736844424104
 40
0.5081196179487282
 40
0.7561654891339925
 40
1.0
 40
1.0
 40
1.0
 40
1.0
 10
3.153078930202225
 20
0.2057014024787372
 30
0.0
 10
3.154015191730884
 20
0.2061553634630603
 30
0.0
 10
3.155870091001649
 20
0.2070547402643074
 30
0.0
 10
3.15794324095949
 20
0.2093599520384367
 30
0.0
 10
3.159335448667912
 20
0.2120739084313264
 30
0.0
 10
3.159504667064307
 20
0.2140620561881581
 30
0.0
 10
3.159588551859107
 20
0.2150476190475566
 30
0.0
  0
SPLINE
  5
AE
330
1F
100
AcDbEntity
  8
0
  6
Continuous
 62
     1
370
    25
100
AcDbSpline
210
0.0
220
0.0
230
1.0
 70
     8
 71
     3
 72
    11
 73
     7
 74
     0
 42
0.00000001
 43
0.00000001
 40
0.0
 40
0.0
 40
0.0
 40
0.0
 40
0.2626736534934762
 40
0.5084222118189367
 40
0.7491242814891642
 40
1.0
 40
1.0
 40
1.0
 40
1.0
 10
3.159588551859107
 20
0.2150476190475566
 30
0.0
 10
3.159502605844825
 20
0.2159262861253486
 30
0.0
 10
3.159336251655521
 20
0.2176270043100702
 30
0.0
 10
3.158506961633142
 20
0.2200357065019042
 30
0.0
 10
3.157020088690731
 20
0.2220593018021647
 30
0.0
 10
3.155734957404113
 20
0.223099350341803
 30
0.0
 10
3.155079093281155
 20
0.2236301369862388
 30
0.0
  0
SPLINE
  5
AF
330
1F
100
AcDbEntity
  8
0
  6
Continuous
 62
     1
370
    25
100
AcDbSpline
210
0.0
220
0.0
230
1.0
 70
     8
 71
     3
 72
    13
 73
     9
 74
     0
 42
0.00000001
 43
0.00000001
 40
0.0
 40
0.0
 40
0.0
 40
0.0
 40
0.1789605464175666
 40
0.3686583462249881
 40
0.4834842906985738
 40
0.6243213337475033
 40
0.7988845433513542
 40
1.0
 40
1.0
 40
1.0
 40
1.0
 10
3.155079093281155
 20
0.2236301369862388
 30
0.0
 10
3.154609687247707
 20
0.22396420505156
 30
0.0
 10
3.153642711813944
 20
0.2246523845578997
 30
0.0
 10
3.152116065099672
 20
0.2250371164743269
 30
0.0
 10
3.150706714425946
 20
0.2252096225670184
 30
0.0
 10
3.149335308273345
 20
0.2253291611066991
 30
0.0
 10
3.147684365345016
 20
0.2253347788828011
 30
0.0
 10
3.14648437708182
 20
0.225361453754766
 30
0.0
 10
3.145841976516642
 20
0.2253757338551234
 30
0.0
  0
SPLINE
  5
B2
330
1F
100
AcDbEntity
  8
0
  6
Continuous
 62
     1
370
    25
100
AcDbSpline
210
0.0
220
0.0
230
1.0
 70
     8
 71
     3
 72
    11
 73
     7
 74
     0
 42
0.00000001
 43
0.00000001
 40
0.0
 40
0.0
 40
0.0
 40
0.0
 40
0.3134301949315587
 40
0.5636583396061957
 40
0.7828876301219148
 40
1.0
 40
1.0
 40
1.0
 40
1.0
 10
3.127622344711918
 20
0.2515241371149183
 30
0.0
 10
3.127639030343982
 20
0.2531014823181376
 30
0.0
 10
3.127669037011549
 20
0.2559381068444583
 30
0.0
 10
3.128139128496848
 20
0.2598546759431301
 30
0.0
 10
3.128977607077146
 20
0.2632223911297636
 30
0.0
 10
3.129893887012962
 20
0.2652209806205672
 30
0.0
 10
3.13034980430529
 20
0.2662154272667346
 30
0.0
  0
SPLINE
  5
B3
330
1F
100
AcDbEntity
  8
0
  6
Continuous
 62
     1
370
    25
100
AcDbSpline
210
0.0
220
0.0
230
1.0
 70
     8
 71
     3
 72
    11
 73
     7
 74
     0
 42
0.00000001
 43
0.00000001
 40
0.0
 40
0.0
 40
0.0
 40
0.0
 40
0.215334225592008
 40
0.4522481297092008
 40
0.7122416667675474
 40
1.0
 40
1.0
 40
1.0
 40
1.0
 10
-3.40120825179387
 20
0.2125383235485731
 30
0.0
 10
-3.40243520134003
 20
0.213353720120637
 30
0.0
 10
-3.405012058948116
 20
0.2150662280773882
 30
0.0
 10
-3.409521248560523
 20
0.2169384806078355
 30
0.0
 10
-3.414597359496709
 20
0.2186660783274294
 30
0.0
 10
-3.418264897492496
 20
0.2194170992569054
 30
0.0
 10
-3.42019161774299
 20
0.219811643835592
 30
0.0
  0
SPLINE
  5
B5
330
1F
100
AcDbEntity
  8
0
  6
Continuous
 62
     1
370
    25
100
AcDbSpline
210
0.0
220
0.0
230
1.0
 70
     8
 71
     3
 72
    11
 73
     7
 74
     0
 42
0.00000001
 43
0.00000001
 40
0.0
 40
0.0
 40
0.0
 40
0.0
 40
0.3044444960939437
 40
0.5703933482711813
 40
0.8011564621218269
 40
1.0
 40
1.0
 40
1.0
 40
1.0
 10
-3.447198826819097
 20
0.2256097017948631
 30
0.0
 10
-3.448189107125849
 20
0.2257939556723477
 30
0.0
 10
-3.450044451226803
 20
0.2261391653491816
 30
0.0
 10
-3.452591390858921
 20
0.2268690842398714
 30
0.0
 10
-3.454803155628995
 20
0.2275125116591065
 30
0.0
 10
-3.456102352166616
 20
0.2280903449163825
 30
0.0
 10
-3.456703685583824
 20
0.2283577951728392
 30
0.0
  0
SPLINE
  5
B6
330
1F
100
AcDbEntity
  8
0
  6
Continuous
 62
     1
370
    25
100
AcDbSpline
210
0.0
220
0.0
230
1.0
 70
     8
 71
     3
 72
    15
 73
    11
 74
     0
 42
0.00000001
 43
0.00000001
 40
0.0
 40
0.0
 40
0.0
 40
0.0
 40
0.1226006501091026
 40
0.2440599964322201
 40
0.3668087299170369
 40
0.4931073215660926
 40
0.6202183616868288
 40
0.7459402992822279
 40
0.8716622368776243
 40
1.0
 40
1.0
 40
1.0
 40
1.0
 10
-3.456703685583825
 20
0.2283577951728394
 30
0.0
 10
-3.457755301754792
 20
0.2289568399843288
 30
0.0
 10
-3.459848744478838
 20
0.230149353029119
 30
0.0
 10
-3.462615754938485
 20
0.232501069498599
 30
0.0
 10
-3.465120432533581
 20
0.2351656886425646
 30
0.0
 10
-3.467260434251094
 20
0.2382101675664862
 30
0.0
 10
-3.46894426867092
 20
0.2415552816310156
 30
0.0
 10
-3.470246771970374
 20
0.2450593971062585
 30
0.0
 10
-3.471025194162662
 20
0.2487382011669413
 30
0.0
 10
-3.471150607336077
 20
0.2512409565282469
 30
0.0
 10
-3.471213959556427
 20
0.252505218525742
 30
0.0
  0
SPLINE
  5
B7
330
1F
100
AcDbEntity
  8
0
  6
Continuous
 62
     1
370
    25
100
AcDbSpline
210
0.0
220
0.0
230
1.0
 70
     8
 71
     3
 72
    15
 73
    11
 74
     0
 42
0.00000001
 43
0.00000001
 40
0.0
 40
0.0
 40
0.0
 40
0.0
 40
0.131496622112555
 40
0.2587466603453177
 40
0.3843876296615708
 40
0.5118029635321915
 40
0.6376842464187193
 40
0.7595397670529551
 40
0.8781090536740176
 40
1.0
 40
1.0
 40
1.0
 40
1.0
 10
-3.471213959556427
 20
0.252505218525742
 30
0.0
 10
-3.471112890854767
 20
0.2540380736036613
 30
0.0
 10
-3.470914017388667
 20
0.2570542813649941
 30
0.0
 10
-3.469852456018342
 20
0.2614409056539238
 30
0.0
 10
-3.468059231190759
 20
0.2655182350394961
 30
0.0
 10
-3.465724126709118
 20
0.2692924456463551
 30
0.0
 10
-3.462820177338779
 20
0.2725965797974129
 30
0.0
 10
-3.459498839547126
 20
0.275314144700175
 30
0.0
 10
-3.455778222270786
 20
0.2773909363851452
 30
0.0
 10
-3.453086110940771
 20
0.278204192988901
 30
0.0
 10
-3.451721461187216
 20
0.27861643835614
 30
0.0
  0
SPLINE
  5
B8
330
1F
100
AcDbEntity
  8
0
  6
Continuous
 62
     1
370
    25
100
AcDbSpline
210
0.0
220
0.0
230
1.0
 70
     8
 71
     3
 72
    11
 73
     7
 74
     0
 42
0.00000001
 43
0.00000001
 40
0.0
 40
0.0
 40
0.0
 40
0.0
 40
0.216083020011387
 40
0.4930788292850894
 40
0.7762458853194628
 40
1.0
 40
1.0
 40
1.0
 40
1.0
 10
-3.451721461187216
 20
0.27861643835614
 30
0.0
 10
-3.450970970183997
 20
0.2787456575378087
 30
0.0
 10
-3.449258428285812
 20
0.2790405221820322
 30
0.0
 10
-3.446535708845337
 20
0.2793080553537525
 30
0.0
 10
-3.443786363087687
 20
0.279586676073879
 30
0.0
 10
-3.44200000756405
 20
0.2796199958886063
 30
0.0
 10
-3.441211513372475
 20
0.2796347031963227
 30
0.0
  0
SPLINE
  5
BA
330
1F
100
AcDbEntity
  8
0
  6
Continuous
 62
     1
370
    25
100
AcDbSpline
210
0.0
220
0.0
230
1.0
 70
     8
 71
     3
 72
    11
 73
     7
 74
     0
 42
0.00000001
 43
0.00000001
 40
0.0
 40
0.0
 40
0.0
 40
0.0
 40
0.3022651877116931
 40
0.5702556453797226
 40
0.8011455319570904
 40
1.0
 40
1.0
 40
1.0
 40
1.0
 10
-3.426188164897007
 20
0.2796542360388903
 30
0.0
 10
-3.425146601474264
 20
0.2796457880620208
 30
0.0
 10
-3.423181580539048
 20
0.2796298500489854
 30
0.0
 10
-3.420426469033105
 20
0.2794546691310511
 30
0.0
 10
-3.418035882362446
 20
0.279156441679165
 30
0.0
 10
-3.416600784439483
 20
0.27878726602821
 30
0.0
 10
-3.415936725375083
 20
0.27861643835614
 30
0.0
  0
SPLINE
  5
BB
330
1F
100
AcDbEntity
  8
0
  6
Continuous
 62
     1
370
    25
100
AcDbSpline
210
0.0
220
0.0
230
1.0
 70
     8
 71
     3
 72
    15
 73
    11
 74
     0
 42
0.00000001
 43
0.00000001
 40
0.0
 40
0.0
 40
0.0
 40
0.0
 40
0.1239082751079426
 40
0.2468256455901759
 40
0.3725939752812265
 40
0.5025579121119127
 40
0.6324041761793976
 40
0.7571263555669393
 40
0.8786141286285519
 40
1.0
 40
1.0
 40
1.0
 40
1.0
 10
-3.415936725375083
 20
0.27861643835614
 30
0.0
 10
-3.414768065734745
 20
0.2781808701744333
 30
0.0
 10
-3.41244009232094
 20
0.2773132170854473
 30
0.0
 10
-3.40923231412886
 20
0.2753350177827173
 30
0.0
 10
-3.406353486569587
 20
0.2728295378392164
 30
0.0
 10
-3.403793872619505
 20
0.2699071872278255
 30
0.0
 10
-3.401654782614127
 20
0.2666721338237685
 30
0.0
 10
-3.400080147786198
 20
0.2632248749656292
 30
0.0
 10
-3.399047213955376
 20
0.2596539033452212
 30
0.0
 10
-3.398863505290926
 20
0.2572152348960678
 30
0.0
 10
-3.398771689497718
 20
0.2559964122635112
 30
0.0
  0
SPLINE
  5
BC
330
1F
100
AcDbEntity
  8
0
  6
Continuous
 62
     1
370
    25
100
AcDbSpline
210
0.0
220
0.0
230
1.0
 70
     8
 71
     3
 72
     9
 73
     5
 74
     0
 42
0.00000001
 43
0.00000001
 40
0.0
 40
0.0
 40
0.0
 40
0.0
 40
0.3206491318873261
 40
1.0
 40
1.0
 40
1.0
 40
1.0
 10
-3.398771689497718
 20
0.2559964122635112
 30
0.0
 10
-3.398780251307737
 20
0.2557536256622835
 30
0.0
 10
-3.398806952799072
 20
0.2549964534853353
 30
0.0
 10
-3.398937540702325
 20
0.2542492775766998
 30
0.0
 10
-3.399026255707764
 20
0.2537416829745353
 30
0.0
  0
SPLINE
  5
BE
330
1F
100
AcDbEntity
  8
0
  6
Continuous
 62
     1
370
    25
100
AcDbSpline
210
0.0
220
0.0
230
1.0
 70
     8
 71
     3
 72
    15
 73
    11
 74
     0
 42
0.00000001
 43
0.00000001
 40
0.0
 40
0.0
 40
0.0
 40
0.0
 40
0.1399580529587488
 40
0.2667503156980446
 40
0.3928070708689188
 40
0.5160037082143838
 40
0.6368079501054322
 40
0.7549311627894726
 40
0.8742509759949305
 40
0.9999999999999999
 40
0.9999999999999999
 40
0.9999999999999999
 40
0.9999999999999999
 10
-3.399023236995732
 20
0.2517521741733694
 30
0.0
 10
-3.398975878941661
 20
0.2510059544250459
 30
0.0
 10
-3.398885617784069
 20
0.2495837114798395
 30
0.0
 10
-3.398361640198821
 20
0.2475409453089274
 30
0.0
 10
-3.397494888569563
 20
0.2457168859313745
 30
0.0
 10
-3.39628105605087
 20
0.2441425551563263
 30
0.0
 10
-3.394818570209558
 20
0.2428633103369309
 30
0.0
 10
-3.393158369406707
 20
0.2418945203515357
 30
0.0
 10
-3.391295718682013
 20
0.2412902841664901
 30
0.0
 10
-3.389987594222731
 20
0.2412034136368363
 30
0.0
 10
-3.389316373124594
 20
0.2411588388779926
 30
0.0
  0
SPLINE
  5
BF
330
1F
100
AcDbEntity
  8
0
  6
Continuous
 62
     1
370
    25
100
AcDbSpline
210
0.0
220
0.0
230
1.0
 70
     8
 71
     3
 72
    15
 73
    11
 74
     0
 42
0.00000001
 43
0.00000001
 40
0.0
 40
0.0
 40
0.0
 40
0.0
 40
0.1189092837441886
 40
0.2326062963348349
 40
0.3427592253701678
 40
0.4591396815809242
 40
0.581234599375126
 40
0.7104328596937511
 40
0.8475937255901244
 40
1.0
 40
1.0
 40
1.0
 40
1.0
 10
-3.389316373124594
 20
0.2411588388779926
 30
0.0
 10
-3.388509642893875
 20
0.2412193216526064
 30
0.0
 10
-3.386931544656293
 20
0.2413376359990728
 30
0.0
 10
-3.384718868773467
 20
0.2421293295599233
 30
0.0
 10
-3.382747525114944
 20
0.243362675863563
 30
0.0
 10
-3.381114861612605
 20
0.245104650778649
 30
0.0
 10
-3.379813777636236
 20
0.2472441112261026
 30
0.0
 10
-3.378822290785898
 20
0.2496962487521381
 30
0.0
 10
-3.378240647214904
 20
0.2524910103050422
 30
0.0
 10
-3.378158628395186
 20
0.2544540722742152
 30
0.0
 10
-3.378115459882586
 20
0.2554872798434198
 30
0.0
  0
SPLINE
  5
C0
330
1F
100
AcDbEntity
  8
0
  6
Continuous
 62
     1
370
    25
100
AcDbSpline
210
0.0
220
0.0
230
1.0
 70
     8
 71
     3
 72
    15
 73
    11
 74
     0
 42
0.00000001
 43
0.00000001
 40
0.0
 40
0.0
 40
0.0
 40
0.0
 40
0.1278804620494207
 40
0.2520665978749149
 40
0.3766509125198896
 40
0.5026851024655352
 40
0.628173400336599
 40
0.7519679991468344
 40
0.8744003817640568
 40
1.0
 40
1.0
 40
1.0
 40
1.0
 10
-3.378115459882585
 20
0.2554872798434198
 30
0.0
 10
-3.378232446634045
 20
0.2577013521619384
 30
0.0
 10
-3.378463040518088
 20
0.2620655346792199
 30
0.0
 10
-3.379937016992175
 20
0.2684503162361353
 30
0.0
 10
-3.382273147289461
 20
0.274524825993059
 30
0.0
 10
-3.385483444122162
 20
0.2802132600112521
 30
0.0
 10
-3.38939346924679
 20
0.2854281010495133
 30
0.0
 10
-3.393992441521165
 20
0.2899610705377588
 30
0.0
 10
-3.399234823435626
 20
0.2937548226298101
 30
0.0
 10
-3.40310388024909
 20
0.2956313132603563
 30
0.0
 10
-3.40506311154599
 20
0.2965815394650767
 30
0.0
  0
SPLINE
  5
C1
330
1F
100
AcDbEntity
  8
0
  6
Continuous
 62
     1
370
    25
100
AcDbSpline
210
0.0
220
0.0
230
1.0
 70
     8
 71
     3
 72
    11
 73
     7
 74
     0
 42
0.00000001
 43
0.00000001
 40
0.0
 40
0.0
 40
0.0
 40
0.0
 40
0.2297389971555692
 40
0.4791890179294788
 40
0.7395157312040703
 40
1.0
 40
1.0
 40
1.0
 40
1.0
 10
-3.40506311154599
 20
0.2965815394650767
 30
0.0
 10
-3.406619561394776
 20
0.2970589298999872
 30
0.0
 10
-3.409866000544117
 20
0.2980546696590442
 30
0.0
 10
-3.415023437111115
 20
0.2990098757450694
 30
0.0
 10
-3.420441010837105
 20
0.2996863877254903
 30
0.0
 10
-3.424129236606307
 20
0.2997984736685894
 30
0.0
 10
-3.425973907371169
 20
0.2998545335942353
 30
0.0
  0
SPLINE
  5
C3
330
1F
100
AcDbEntity
  8
0
  6
Continuous
 62
     1
370
    25
100
AcDbSpline
210
0.0
220
0.0
230
1.0
 70
     8
 71
     3
 72
    23
 73
    19
 74
     0
 42
0.00000001
 43
0.00000001
 40
0.0
 40
0.0
 40
0.0
 40
0.0
 40
0.0706043787983941
 40
0.1381882173867711
 40
0.2029537823619658
 40
0.2657505316365534
 40
0.327439757091488
 40
0.3880216973672779
 40
0.4481080906466116
 40
0.50875145702176
 40
0.5692271507165275
 40
0.6281378682418397
 40
0.687203511055999
 40
0.7460624961994152
 40
0.8064560471593958
 40
0.8685554145543047
 40
0.932913804260763
 40
1.0
 40
1.0
 40
1.0
 40
1.0
 10
-3.442289406653877
 20
0.2998545335942353
 30
0.0
 10
-3.444089802627285
 20
0.2997719842137909
 30
0.0
 10
-3.447613571469809
 20
0.2996104170146437
 30
0.0
 10
-3.452756069542319
 20
0.2989250036901668
 30
0.0
 10
-3.457615801987204
 20
0.2978180230273574
 30
0.0
 10
-3.462238874738751
 20
0.2963900406919787
 30
0.0
 10
-3.46655807283114
 20
0.2944615327308623
 30
0.0
 10
-3.470668238207438
 20
0.292265672801803
 30
0.0
 10
-3.474472786684248
 20
0.2896143044725106
 30
0.0
 10
-3.477991044862548
 20
0.2866029596134623
 30
0.0
 10
-3.481175081594002
 20
0.2832802146703963
 30
0.0
 10
-3.483977515174036
 20
0.2796795964899386
 30
0.0
 10
-3.486338698793458
 20
0.2758229359791007
 30
0.0
 10
-3.488287362562694
 20
0.2717013656704056
 30
0.0
 10
-3.489810783823178
 20
0.2673220800457778
 30
0.0
 10
-3.490929250304206
 20
0.2626814779926525
 30
0.0
 10
-3.491682832067055
 20
0.257789935506896
 30
0.0
 10
-3.491806878710025
 20
0.2544354618493979
 30
0.0
 10
-3.491870189171561
 20
0.2527234181343526
 30
0.0
  0
SPLINE
  5
C4
330
1F
100
AcDbEntity
  8
0
  6
Continuous
 62
     1
370
    25
100
AcDbSpline
210
0.0
220
0.0
230
1.0
 70
     8
 71
     3
 72
    23
 73
    19
 74
     0
 42
0.00000001
 43
0.00000001
 40
0.0
 40
0.0
 40
0.0
 40
0.0
 40
0.0659959670131361
 40
0.1302641258732778
 40
0.1926796000565166
 40
0.2535392668420767
 40
0.3141393619520873
 40
0.3745464626384865
 40
0.4352548474915728
 40
0.4962007924965715
 40
0.5574048424153404
 40
0.6181805101728581
 40
0.6790257853608176
 40
0.7407711804229173
 40
0.8031281638481226
 40
0.8667664065167753
 40
0.9323764159211109
 40
0.9999999999999999
 40
0.9999999999999999
 40
0.9999999999999999
 40
0.9999999999999999
 10
-3.491870189171561
 20
0.2527234181343526
 30
0.0
 10
-3.491821140135527
 20
0.251242926754272
 30
0.0
 10
-3.491724326192293
 20
0.2483207040152559
 30
0.0
 10
-3.491171670261311
 20
0.2440256769947226
 30
0.0
 10
-3.490289389814256
 20
0.2399087337167991
 30
0.0
 10
-3.489142872782283
 20
0.2359388009015125
 30
0.0
 10
-3.487583695185442
 20
0.2321626273141263
 30
0.0
 10
-3.485789439858521
 20
0.2284953861083702
 30
0.0
 10
-3.483579761003476
 20
0.2250517711194819
 30
0.0
 10
-3.481116516300734
 20
0.2217653272895819
 30
0.0
 10
-3.478347467132696
 20
0.2187293714649012
 30
0.0
 10
-3.475368385089754
 20
0.2159019698615987
 30
0.0
 10
-3.472101941850135
 20
0.2133906463934614
 30
0.0
 10
-3.468616140473445
 20
0.2111302831573112
 30
0.0
 10
-3.464881508740324
 20
0.2091719127124727
 30
0.0
 10
-3.460940704942551
 20
0.2074444504380061
 30
0.0
 10
-3.456749075513963
 20
0.2060308149877059
 30
0.0
 10
-3.453848344872338
 20
0.2053057270077683
 30
0.0
 10
-3.452376060013048
 20
0.2049377038486384
 30
0.0
  0
SPLINE
  5
C6
330
1F
100
AcDbEntity
  8
0
  6
Continuous
 62
     1
370
    25
100
AcDbSpline
210
0.0
220
0.0
230
1.0
 70
     8
 71
     3
 72
    11
 73
     7
 74
     0
 42
0.00000001
 43
0.00000001
 40
0.0
 40
0.0
 40
0.0
 40
0.0
 40
0.300763042777228
 40
0.5718014074423535
 40
0.8011804510423416
 40
1.0
 40
1.0
 40
1.0
 40
1.0
 10
-3.425184176789029
 20
0.1993896662742336
 30
0.0
 10
-3.424296492582292
 20
0.1991876304474691
 30
0.0
 10
-3.422608854785806
 20
0.1988035261737824
 30
0.0
 10
-3.420233867137927
 20
0.1983068121876649
 30
0.0
 10
-3.418201614328765
 20
0.1977078517634415
 30
0.0
 10
-3.416977750849707
 20
0.1972808034120113
 30
0.0
 10
-3.41640949119374
 20
0.197082517938658
 30
0.0
  0
SPLINE
  5
C7
330
1F
100
AcDbEntity
  8
0
  6
Continuous
 62
     1
370
    25
100
AcDbSpline
210
0.0
220
0.0
230
1.0
 70
     8
 71
     3
 72
    15
 73
    11
 74
     0
 42
0.00000001
 43
0.00000001
 40
0.0
 40
0.0
 40
0.0
 40
0.0
 40
0.1227606203405341
 40
0.2423756278006743
 40
0.3637736409138644
 40
0.4887564256530588
 40
0.6146627119032183
 40
0.7406633335459231
 40
0.8673536017566638
 40
0.9999999999999999
 40
0.9999999999999999
 40
0.9999999999999999
 40
0.9999999999999999
 10
-3.416409491193739
 20
0.197082517938658
 30
0.0
 10
-3.415457502861639
 20
0.1966163703528986
 30
0.0
 10
-3.413577919905705
 20
0.1956960197271625
 30
0.0
 10
-3.411083009680675
 20
0.193772998823117
 30
0.0
 10
-3.408826221120547
 20
0.1915568909594323
 30
0.0
 10
-3.406964107734291
 20
0.1889282051590305
 30
0.0
 10
-3.405431163342279
 20
0.1860570101195214
 30
0.0
 10
-3.404300157705412
 20
0.1829883643836248
 30
0.0
 10
-3.403577898661558
 20
0.17973213551444
 30
0.0
 10
-3.403477808789062
 20
0.1774968609437188
 30
0.0
 10
-3.403426614481411
 20
0.176353555120654
 30
0.0
  0
SPLINE
  5
C8
330
1F
100
AcDbEntity
  8
0
  6
Continuous
 62
     1
370
    25
100
AcDbSpline
210
0.0
220
0.0
230
1.0
 70
     8
 71
     3
 72
    15
 73
    11
 74
     0
 42
0.00000001
 43
0.00000001
 40
0.0
 40
0.0
 40
0.0
 40
0.0
 40
0.1296393445892617
 40
0.2508468542197915
 40
0.369368260311594
 40
0.488786333564215
 40
0.6093641270261594
 40
0.7317975943265055
 40
0.861118621275277
 40
0.9999999999999999
 40
0.9999999999999999
 40
0.9999999999999999
 40
0.9999999999999999
 10
-3.403426614481411
 20
0.176353555120654
 30
0.0
 10
-3.403520152766764
 20
0.174755773990134
 30
0.0
 10
-3.403701145541016
 20
0.1716641325475417
 30
0.0
 10
-3.405026999032055
 20
0.1672733724390343
 30
0.0
 10
-3.407110672077231
 20
0.1633371615803594
 30
0.0
 10
-3.410038672280479
 20
0.1599933998043898
 30
0.0
 10
-3.413540665114227
 20
0.1571832512901528
 30
0.0
 10
-3.41767683954468
 20
0.1551438300273546
 30
0.0
 10
-3.422315701382369
 20
0.1537634646777023
 30
0.0
 10
-3.425612377073588
 20
0.1534801850984605
 30
0.0
 10
-3.427319471624268
 20
0.1533334964122392
 30
0.0
  0
SPLINE
  5
CB
330
1F
100
AcDbEntity
  8
0
  6
Continuous
 62
     1
370
    25
100
AcDbSpline
210
0.0
220
0.0
230
1.0
 70
     8
 71
     3
 72
    15
 73
    11
 74
     0
 42
0.00000001
 43
0.00000001
 40
0.0
 40
0.0
 40
0.0
 40
0.0
 40
0.1374722343420618
 40
0.2636613968004216
 40
0.3816247580916854
 40
0.4962102132564844
 40
0.6108000348290223
 40
0.7309445467301553
 40
0.8594322825385365
 40
1.0
 40
1.0
 40
1.0
 40
1.0
 10
-3.441132103488872
 20
0.1531095079793767
 30
0.0
 10
-3.44280176930552
 20
0.1531482915292189
 30
0.0
 10
-3.446004062652351
 20
0.1532226754582591
 30
0.0
 10
-3.450532080454825
 20
0.1542906675440306
 30
0.0
 10
-3.454592818419463
 20
0.1559040913848786
 30
0.0
 10
-3.458098773434829
 20
0.1582874330838606
 30
0.0
 10
-3.461103334478725
 20
0.1613018796050378
 30
0.0
 10
-3.463597766110972
 20
0.1649570684209575
 30
0.0
 10
-3.465540139027787
 20
0.169284848781558
 30
0.0
 10
-3.466352708289151
 20
0.1724468446592285
 30
0.0
 10
-3.466777234181346
 20
0.1740988258316782
 30
0.0
  0
SPLINE
  5
CC
330
1F
100
AcDbEntity
  8
0
  6
Continuous
 62
     1
370
    25
100
AcDbSpline
210
0.0
220
0.0
230
1.0
 70
     8
 71
     3
 72
    15
 73
    11
 74
     0
 42
0.00000001
 43
0.00000001
 40
0.0
 40
0.0
 40
0.0
 40
0.0
 40
0.15402082467266
 40
0.2932556270011291
 40
0.4178972509689511
 40
0.5368468026954735
 40
0.6468786285009716
 40
0.759290408691841
 40
0.8769614686423822
 40
1.0
 40
1.0
 40
1.0
 40
1.0
 10
-3.466777234181346
 20
0.1740988258316782
 30
0.0
 10
-3.46700340526997
 20
0.1748078611408776
 30
0.0
 10
-3.467434034988677
 20
0.1761578642629042
 30
0.0
 10
-3.468299893285383
 20
0.1779894777449236
 30
0.0
 10
-3.469339220082163
 20
0.1795265809235652
 30
0.0
 10
-3.470526352462437
 20
0.1807690779687136
 30
0.0
 10
-3.471890319619185
 20
0.1817117065873114
 30
0.0
 10
-3.473399866492087
 20
0.1823879963903995
 30
0.0
 10
-3.475092079607534
 20
0.1827052661545842
 30
0.0
 10
-3.476255897907135
 20
0.1826894355647589
 30
0.0
 10
-3.476850782778867
 20
0.1826813437703605
 30
0.0
  0
SPLINE
  5
CD
330
1F
100
AcDbEntity
  8
0
  6
Continuous
 62
     1
370
    25
100
AcDbSpline
210
0.0
220
0.0
230
1.0
 70
     8
 71
     3
 72
    15
 73
    11
 74
     0
 42
0.00000001
 43
0.00000001
 40
0.0
 40
0.0
 40
0.0
 40
0.0
 40
0.1308796927967231
 40
0.2531235145615719
 40
0.3716099029123516
 40
0.4916761795297501
 40
0.6123686208975427
 40
0.7347087507382621
 40
0.8626395863875871
 40
1.0
 40
1.0
 40
1.0
 40
1.0
 10
-3.476850782778867
 20
0.1826813437703605
 30
0.0
 10
-3.477582410355501
 20
0.182637487305854
 30
0.0
 10
-3.478997390323672
 20
0.1825526681700896
 30
0.0
 10
-3.48100395390294
 20
0.1819524328684271
 30
0.0
 10
-3.482791320977995
 20
0.1809913767471922
 30
0.0
 10
-3.48431875884943
 20
0.1796691807243808
 30
0.0
 10
-3.485580438367075
 20
0.1780603052500181
 30
0.0
 10
-3.486444375537648
 20
0.1761616652869098
 30
0.0
 10
-3.487006690533313
 20
0.174057433844561
 30
0.0
 10
-3.487096190432235
 20
0.1725751929549701
 30
0.0
 10
-3.487142530984999
 20
0.1718077299412672
 30
0.0
  0
SPLINE
  5
CE
330
1F
100
AcDbEntity
  8
0
  6
Continuous
 62
     1
370
    25
100
AcDbSpline
210
0.0
220
0.0
230
1.0
 70
     8
 71
     3
 72
    11
 73
     7
 74
     0
 42
0.00000001
 43
0.00000001
 40
0.0
 40
0.0
 40
0.0
 40
0.0
 40
0.2125625186650962
 40
0.4595242636565703
 40
0.7249526611653049
 40
0.9999999999999999
 40
0.9999999999999999
 40
0.9999999999999999
 40
0.9999999999999999
 10
-3.487142530984999
 20
0.1718077299412672
 30
0.0
 10
-3.487051411825484
 20
0.1704917304547942
 30
0.0
 10
-3.48685442759259
 20
0.1676467618366591
 30
0.0
 10
-3.485609685352462
 20
0.1633089448280372
 30
0.0
 10
-3.483843363201618
 20
0.1587558159224372
 30
0.0
 10
-3.482197711290167
 20
0.1558370944746677
 30
0.0
 10
-3.481360241356819
 20
0.1543517612524218
 30
0.0
  0
SPLINE
  5
CF
330
1F
100
AcDbEntity
  8
0
  6
Continuous
 62
     1
370
    25
100
AcDbSpline
210
0.0
220
0.0
230
1.0
 70
     8
 71
     3
 72
    15
 73
    11
 74
     0
 42
0.00000001
 43
0.00000001
 40
0.0
 40
0.0
 40
0.0
 40
0.0
 40
0.1310157002624211
 40
0.2576475637832862
 40
0.3821037825437645
 40
0.5071443838883887
 40
0.631334298196919
 40
0.7532084089922939
 40
0.8752678360921702
 40
1.0
 40
1.0
 40
1.0
 40
1.0
 10
-3.481360241356819
 20
0.1543517612524218
 30
0.0
 10
-3.480288581857392
 20
0.152671434572873
 30
0.0
 10
-3.478181121005912
 20
0.1493670056038359
 30
0.0
 10
-3.474305763116977
 20
0.1450119381469307
 30
0.0
 10
-3.469974637088323
 20
0.1412617208220164
 30
0.0
 10
-3.465210532433051
 20
0.1381458203467631
 30
0.0
 10
-3.460130625108191
 20
0.1356585619509086
 30
0.0
 10
-3.454800735620764
 20
0.1339276985316845
 30
0.0
 10
-3.449298535480148
 20
0.1327649938990394
 30
0.0
 10
-3.445545112049316
 20
0.1326342479515698
 30
0.0
 10
-3.443648075668625
 20
0.1325681669928001
 30
0.0
  0
SPLINE
  5
D2
330
1F
100
AcDbEntity
  8
0
  6
Continuous
 62
     1
370
    25
100
AcDbSpline
210
0.0
220
0.0
230
1.0
 70
     8
 71
     3
 72
    23
 73
    19
 74
     0
 42
0.00000001
 43
0.00000001
 40
0.0
 40
0.0
 40
0.0
 40
0.0
 40
0.0678376273499686
 40
0.1337304484119688
 40
0.1980625677513981
 40
0.2604579255842166
 40
0.3215702859502396
 40
0.3826802976023982
 40
0.4435455481534483
 40
0.5053561713344843
 40
0.5668058092844316
 40
0.6273518652946002
 40
0.6871705075191336
 40
0.7475694052313167
 40
0.8082291450643404
 40
0.8700838730990043
 40
0.9339592223446255
 40
0.9999999999999999
 40
0.9999999999999999
 40
0.9999999999999999
 40
0.9999999999999999
 10
-3.425938037969364
 20
0.1333569386899422
 30
0.0
 10
-3.424406985239671
 20
0.133478652161538
 30
0.0
 10
-3.421388772839228
 20
0.1337185897562052
 30
0.0
 10
-3.416978881516186
 20
0.134549090389069
 30
0.0
 10
-3.41275289200072
 20
0.1356402140170326
 30
0.0
 10
-3.40878169783774
 20
0.1371694410477425
 30
0.0
 10
-3.404983644713635
 20
0.1389254862490823
 30
0.0
 10
-3.401475603831455
 20
0.1411435999596437
 30
0.0
 10
-3.398123888190107
 20
0.1436132071813997
 30
0.0
 10
-3.395062883698174
 20
0.1464500221315256
 30
0.0
 10
-3.39225494416343
 20
0.1495250004487834
 30
0.0
 10
-3.389813980099011
 20
0.1528463715014037
 30
0.0
 10
-3.387729337008449
 20
0.1563707474264792
 30
0.0
 10
-3.385965134635636
 20
0.1600726986323756
 30
0.0
 10
-3.384640567603975
 20
0.1640003873118369
 30
0.0
 10
-3.383592395640802
 20
0.1680907461456116
 30
0.0
 10
-3.382991596656976
 20
0.1723972939708444
 30
0.0
 10
-3.382844936965972
 20
0.1753336642456546
 30
0.0
 10
-3.382770384866277
 20
0.1768263209393103
 30
0.0
  0
SPLINE
  5
D3
330
1F
100
AcDbEntity
  8
0
  6
Continuous
 62
     1
370
    25
100
AcDbSpline
210
0.0
220
0.0
230
1.0
 70
     8
 71
     3
 72
    15
 73
    11
 74
     0
 42
0.00000001
 43
0.00000001
 40
0.0
 40
0.0
 40
0.0
 40
0.0
 40
0.127450783588812
 40
0.2540327067554254
 40
0.3799176339239189
 40
0.5074308897451192
 40
0.6339408879531336
 40
0.7569212898083337
 40
0.8782406620383925
 40
0.9999999999999999
 40
0.9999999999999999
 40
0.9999999999999999
 40
0.9999999999999999
 10
-3.382770384866277
 20
0.1768263209393103
 30
0.0
 10
-3.382851249374318
 20
0.1785999835915794
 30
0.0
 10
-3.383012427119009
 20
0.1821352174421659
 30
0.0
 10
-3.383972824704929
 20
0.1873542088679302
 30
0.0
 10
-3.385562008703019
 20
0.1924093222252402
 30
0.0
 10
-3.387686375504571
 20
0.1972642252768292
 30
0.0
 10
-3.390365764881305
 20
0.2017930421034043
 30
0.0
 10
-3.39351705710705
 20
0.2058911959796232
 30
0.0
 10
-3.397080072028791
 20
0.2095661963877803
 30
0.0
 10
-3.39983053245312
 20
0.2115464197784822
 30
0.0
 10
-3.401208251793871
 20
0.2125383235485731
 30
0.0
  0
SPLINE
  5
D5
330
1F
100
AcDbEntity
  8
0
  6
Continuous
 62
     1
370
    25
100
AcDbSpline
210
0.0
220
0.0
230
1.0
 70
     8
 71
     3
 72
    15
 73
    11
 74
     0
 42
0.00000001
 43
0.00000001
 40
0.0
 40
0.0
 40
0.0
 40
0.0
 40
0.1525627467775866
 40
0.2858717112229286
 40
0.4030420793440269
 40
0.511865095792319
 40
0.6189263726495664
 40
0.7311996377097885
 40
0.8569930423051866
 40
0.9999999999999999
 40
0.9999999999999999
 40
0.9999999999999999
 40
0.9999999999999999
 10
-3.258304519484112
 20
0.1325682025070647
 30
0.0
 10
-3.257047865346406
 20
0.1325502465841325
 30
0.0
 10
-3.254693149818865
 20
0.1325166008185464
 30
0.0
 10
-3.251408903675531
 20
0.1330956916117687
 30
0.0
 10
-3.248621481030405
 20
0.1341380409398593
 30
0.0
 10
-3.246351658977234
 20
0.1357354973684375
 30
0.0
 10
-3.244667630966653
 20
0.1378910190759795
 30
0.0
 10
-3.243564343725988
 20
0.1405362596984096
 30
0.0
 10
-3.243043806368784
 20
0.1436519404867526
 30
0.0
 10
-3.243095260675601
 20
0.145864793853328
 30
0.0
 10
-3.243122635355514
 20
0.1470420743639733
 30
0.0
  0
SPLINE
  5
D7
330
1F
100
AcDbEntity
  8
0
  6
Continuous
 62
     1
370
    25
100
AcDbSpline
210
0.0
220
0.0
230
1.0
 70
     8
 71
     3
 72
    11
 73
     7
 74
     0
 42
0.00000001
 43
0.00000001
 40
0.0
 40
0.0
 40
0.0
 40
0.0
 40
0.4302159318604465
 40
0.6959167859962363
 40
0.8681232246714049
 40
1.0
 40
1.0
 40
1.0
 40
1.0
 10
-3.243122599841255
 20
0.2852863003506007
 30
0.0
 10
-3.243117559262209
 20
0.2862877298179153
 30
0.0
 10
-3.243109405627468
 20
0.2879076409478489
 30
0.0
 10
-3.243148709395319
 20
0.2899263325429499
 30
0.0
 10
-3.24319592283554
 20
0.2912545008523013
 30
0.0
 10
-3.243322365216041
 20
0.2919515940199459
 30
0.0
 10
-3.24337720156556
 20
0.2922539138943059
 30
0.0
  0
SPLINE
  5
D8
330
1F
100
AcDbEntity
  8
0
  6
Continuous
 62
     1
370
    25
100
AcDbSpline
210
0.0
220
0.0
230
1.0
 70
     8
 71
     3
 72
    15
 73
    11
 74
     0
 42
0.00000001
 43
0.00000001
 40
0.0
 40
0.0
 40
0.0
 40
0.0
 40
0.1233663075924021
 40
0.2423533739436573
 40
0.3624718800095011
 40
0.4838827921418815
 40
0.6103587293140187
 40
0.7355668434312315
 40
0.8652650963890963
 40
1.0
 40
1.0
 40
1.0
 40
1.0
 10
-3.24337720156556
 20
0.292253913894306
 30
0.0
 10
-3.243510606253414
 20
0.2928083306408647
 30
0.0
 10
-3.243772680046756
 20
0.2938974835199745
 30
0.0
 10
-3.244583418976343
 20
0.295372036574241
 30
0.0
 10
-3.245589353748988
 20
0.2967025018233641
 30
0.0
 10
-3.246900688739319
 20
0.2977928785885293
 30
0.0
 10
-3.248368955282526
 20
0.298693793757885
 30
0.0
 10
-3.250000937990269
 20
0.2993601750156558
 30
0.0
 10
-3.25175821896198
 20
0.2997666921703476
 30
0.0
 10
-3.252975820161645
 20
0.2998248836623901
 30
0.0
 10
-3.253596216568821
 20
0.2998545335942407
 30
0.0
  0
SPLINE
  5
D9
330
1F
100
AcDbEntity
  8
0
  6
Continuous
 62
     1
370
    25
100
AcDbSpline
210
0.0
220
0.0
230
1.0
 70
     8
 71
     3
 72
    15
 73
    11
 74
     0
 42
0.00000001
 43
0.00000001
 40
0.0
 40
0.0
 40
0.0
 40
0.0
 40
0.1228372452791071
 40
0.2347017308347665
 40
0.3380198734939696
 40
0.4431949734971041
 40
0.5564262389997057
 40
0.6857745092307471
 40
0.8325022553528731
 40
1.0
 40
1.0
 40
1.0
 40
1.0
 10
-3.253596216568821
 20
0.2998545335942407
 30
0.0
 10
-3.254399713400886
 20
0.299855570155195
 30
0.0
 10
-3.255934932599081
 20
0.2998575506835728
 30
0.0
 10
-3.258091843953291
 20
0.2992704357244249
 30
0.0
 10
-3.25991182661656
 20
0.2982070600315274
 30
0.0
 10
-3.261425351922981
 20
0.2967123476429898
 30
0.0
 10
-3.262501631709921
 20
0.2946906594307427
 30
0.0
 10
-3.263302753138055
 20
0.2922716403722596
 30
0.0
 10
-3.263703261975537
 20
0.2893938051477641
 30
0.0
 10
-3.263752577405011
 20
0.2873453517450593
 30
0.0
 10
-3.263778864970647
 20
0.2862534246575152
 30
0.0
  0
SPLINE
  5
DD
330
1F
100
AcDbEntity
  8
0
  6
Continuous
 62
     1
370
    25
100
AcDbSpline
210
0.0
220
0.0
230
1.0
 70
     8
 71
     3
 72
    13
 73
     9
 74
     0
 42
0.00000001
 43
0.00000001
 40
0.0
 40
0.0
 40
0.0
 40
0.0
 40
0.1673163551114719
 40
0.3142570896690737
 40
0.4436901424532902
 40
0.5546309930716931
 40
0.7635194407979435
 40
1.0
 40
1.0
 40
1.0
 40
1.0
 10
-3.332795678185392
 20
0.2932505860648865
 30
0.0
 10
-3.333189697374509
 20
0.2937735702619421
 30
0.0
 10
-3.333929752484857
 20
0.294755850156816
 30
0.0
 10
-3.335099313134739
 20
0.2960432741276856
 30
0.0
 10
-3.336224580156372
 20
0.2970596954843367
 30
0.0
 10
-3.3376301421799
 20
0.2981255411310842
 30
0.0
 10
-3.339729071644378
 20
0.2988845053197942
 30
0.0
 10
-3.341475920994838
 20
0.2989480136938366
 30
0.0
 10
-3.342403457273322
 20
0.2989817351597984
 30
0.0
  0
SPLINE
  5
DE
330
1F
100
AcDbEntity
  8
0
  6
Continuous
 62
     1
370
    25
100
AcDbSpline
210
0.0
220
0.0
230
1.0
 70
     8
 71
     3
 72
    15
 73
    11
 74
     0
 42
0.00000001
 43
0.00000001
 40
0.0
 40
0.0
 40
0.0
 40
0.0
 40
0.135646110609484
 40
0.2617212266746143
 40
0.3844608611976438
 40
0.506393873831484
 40
0.6291335083545061
 40
0.747998267699219
 40
0.8710672946549018
 40
1.0
 40
1.0
 40
1.0
 40
1.0
 10
-3.342403457273322
 20
0.2989817351597984
 30
0.0
 10
-3.343134741411581
 20
0.2989356492843418
 30
0.0
 10
-3.344545711330678
 20
0.2988467292865423
 30
0.0
 10
-3.346553547503673
 20
0.2982789374413099
 30
0.0
 10
-3.34836373034138
 20
0.2974065430614374
 30
0.0
 10
-3.349940091660804
 20
0.2961875051994627
 30
0.0
 10
-3.351250629344855
 20
0.2947118588374509
 30
0.0
 10
-3.352211880922598
 20
0.2929858466042765
 30
0.0
 10
-3.352864995131084
 20
0.2910749374653439
 30
0.0
 10
-3.352945135656912
 20
0.2897137277921967
 30
0.0
 10
-3.352986138290935
 20
0.2890172863665825
 30
0.0
  0
SPLINE
  5
DF
330
1F
100
AcDbEntity
  8
0
  6
Continuous
 62
     1
370
    25
100
AcDbSpline
210
0.0
220
0.0
230
1.0
 70
     8
 71
     3
 72
    11
 73
     7
 74
     0
 42
0.00000001
 43
0.00000001
 40
0.0
 40
0.0
 40
0.0
 40
0.0
 40
0.2263142444953311
 40
0.4653287259187981
 40
0.7196342636552503
 40
1.0
 40
1.0
 40
1.0
 40
1.0
 10
-3.352986138290935
 20
0.2890172863665825
 30
0.0
 10
-3.352957689082313
 20
0.2884571057407249
 30
0.0
 10
-3.35289919416066
 20
0.2873053084356285
 30
0.0
 10
-3.352415672039776
 20
0.2855742460086822
 30
0.0
 10
-3.351508064214207
 20
0.2838746061300293
 30
0.0
 10
-3.350688433294492
 20
0.2828347400102093
 30
0.0
 10
-3.350258643183303
 20
0.28228946510109
 30
0.0
  0
SPLINE
  5
E0
330
1F
100
AcDbEntity
  8
0
  6
Continuous
 62
     1
370
    25
100
AcDbSpline
210
0.0
220
0.0
230
1.0
 70
     8
 71
     3
 72
     9
 73
     5
 74
     0
 42
0.00000001
 43
0.00000001
 40
0.0
 40
0.0
 40
0.0
 40
0.0
 40
0.5993882668579199
 40
1.0
 40
1.0
 40
1.0
 40
1.0
 10
-3.350258643183303
 20
0.28228946510109
 30
0.0
 10
-3.350023970470076
 20
0.2820716505936842
 30
0.0
 10
-3.349632450104726
 20
0.2817082559137253
 30
0.0
 10
-3.349378485960521
 20
0.2812404208628519
 30
0.0
 10
-3.349276744944555
 20
0.2810530006522968
 30
0.0
  0
SPLINE
  5
E2
330
1F
100
AcDbEntity
  8
0
  6
Continuous
 62
     1
370
    25
100
AcDbSpline
210
0.0
220
0.0
230
1.0
 70
     8
 71
     3
 72
    23
 73
    19
 74
     0
 42
0.00000001
 43
0.00000001
 40
0.0
 40
0.0
 40
0.0
 40
0.0
 40
0.067306554898244
 40
0.1322419105279541
 40
0.1950894055077891
 40
0.2562909303751156
 40
0.3170494950787381
 40
0.3775796433170074
 40
0.4379470912089478
 40
0.4990580142133263
 40
0.559905428924987
 40
0.6204996205665427
 40
0.6812308206547402
 40
0.7417335009677191
 40
0.8038449268041471
 40
0.8673327547352349
 40
0.9325533360355309
 40
1.0
 40
1.0
 40
1.0
 40
1.0
 10
-3.311615187075742
 20
0.2292929921607259
 30
0.0
 10
-3.313131027777651
 20
0.2289663960396546
 30
0.0
 10
-3.316109306353632
 20
0.2283247097271286
 30
0.0
 10
-3.320412234619682
 20
0.2270106935673593
 30
0.0
 10
-3.324464507281016
 20
0.2254105893219569
 30
0.0
 10
-3.328281663584468
 20
0.2235133547047873
 30
0.0
 10
-3.331849144388089
 20
0.2212803991820478
 30
0.0
 10
-3.335204358023314
 20
0.2187731792974236
 30
0.0
 10
-3.338320688383539
 20
0.2159590804592311
 30
0.0
 10
-3.341136777747497
 20
0.2128352287763886
 30
0.0
 10
-3.343678630328771
 20
0.2094819998446733
 30
0.0
 10
-3.345962827911583
 20
0.2059553721028965
 30
0.0
 10
-3.347843398262086
 20
0.2022045656558683
 30
0.0
 10
-3.349377780612038
 20
0.1982657129671137
 30
0.0
 10
-3.350616034001249
 20
0.1941575636263142
 30
0.0
 10
-3.351529701739383
 20
0.1898535866775048
 30
0.0
 10
-3.352076411107814
 20
0.1853620111726793
 30
0.0
 10
-3.352173221998816
 20
0.1823070332644043
 30
0.0
 10
-3.352222439660798
 20
0.180753913894306
 30
0.0
  0
SPLINE
  5
E3
330
1F
100
AcDbEntity
  8
0
  6
Continuous
 62
     1
370
    25
100
AcDbSpline
210
0.0
220
0.0
230
1.0
 70
     8
 71
     3
 72
    23
 73
    19
 74
     0
 42
0.00000001
 43
0.00000001
 40
0.0
 40
0.0
 40
0.0
 40
0.0
 40
0.0669726605572714
 40
0.1307981735149454
 40
0.1925162031708154
 40
0.2527371710785549
 40
0.3119187250924231
 40
0.3705084126044308
 40
0.4296199026761041
 40
0.489932552635149
 40
0.5504351752471991
 40
0.6107883324584448
 40
0.6716411902543205
 40
0.7332023495860205
 40
0.7960413295656665
 40
0.8614991273875517
 40
0.9293716786143429
 40
1.0
 40
1.0
 40
1.0
 40
1.0
 10
-3.352222439660798
 20
0.180753913894306
 30
0.0
 10
-3.352143559952929
 20
0.1789936990069773
 30
0.0
 10
-3.351989507215128
 20
0.175555984418059
 30
0.0
 10
-3.351253795050202
 20
0.1705381949512293
 30
0.0
 10
-3.350097725881453
 20
0.1657837871363868
 30
0.0
 10
-3.348481590129098
 20
0.161295521244381
 30
0.0
 10
-3.346492706745886
 20
0.1570489716793679
 30
0.0
 10
-3.344026663364297
 20
0.1530930042868468
 30
0.0
 10
-3.341137630759004
 20
0.1493985464222577
 30
0.0
 10
-3.337830960068205
 20
0.1460036078018823
 30
0.0
 10
-3.334203307801743
 20
0.1429040501065813
 30
0.0
 10
-3.330252422090503
 20
0.1402003296459597
 30
0.0
 10
-3.326019190771922
 20
0.137907314690909
 30
0.0
 10
-3.3215233743662
 20
0.1360154016830543
 30
0.0
 10
-3.316757774078801
 20
0.1344957313331033
 30
0.0
 10
-3.311692647026366
 20
0.1334864481092081
 30
0.0
 10
-3.306371916860794
 20
0.1327619979749715
 30
0.0
 10
-3.302729992526425
 20
0.1326336287135781
 30
0.0
 10
-3.300872798434444
 20
0.1325681669928056
 30
0.0
  0
SPLINE
  5
E4
330
1F
100
AcDbEntity
  8
0
  6
Continuous
 62
     1
370
    25
100
AcDbSpline
210
0.0
220
0.0
230
1.0
 70
     8
 71
     3
 72
    15
 73
    11
 74
     0
 42
0.00000001
 43
0.00000001
 40
0.0
 40
0.0
 40
0.0
 40
0.0
 40
0.1279674879497782
 40
0.2544960474348013
 40
0.3802124279648137
 40
0.5061120055682333
 40
0.6310685783655973
 40
0.7545952034009776
 40
0.8772636872705056
 40
0.9999999999999999
 40
0.9999999999999999
 40
0.9999999999999999
 40
0.9999999999999999
 10
-3.101147423352905
 20
0.2148657860404304
 30
0.0
 10
-3.101207743613232
 20
0.2176086912864814
 30
0.0
 10
-3.101327705863642
 20
0.223063659222416
 30
0.0
 10
-3.102371630436778
 20
0.231154996806329
 30
0.0
 10
-3.103902968064697
 20
0.2391173809891994
 30
0.0
 10
-3.106136323698174
 20
0.2468813118460082
 30
0.0
 10
-3.108930421827146
 20
0.2544083681359877
 30
0.0
 10
-3.112278545903547
 20
0.261629265938926
 30
0.0
 10
-3.11619246904159
 20
0.2685147414813339
 30
0.0
 10
-3.119278375189538
 20
0.2727758845795789
 30
0.0
 10
-3.120821754729291
 20
0.2749070450097716
 30
0.0
  0
SPLINE
  5
E5
330
1F
100
AcDbEntity
  8
0
  6
Continuous
 62
     1
370
    25
100
AcDbSpline
210
0.0
220
0.0
230
1.0
 70
     8
 71
     3
 72
    15
 73
    11
 74
     0
 42
0.00000001
 43
0.00000001
 40
0.0
 40
0.0
 40
0.0
 40
0.0
 40
0.1392401433076113
 40
0.2714566531339996
 40
0.3975475312236234
 40
0.5194744000850416
 40
0.6383450442979727
 40
0.7574504659655799
 40
0.8769364171064267
 40
1.0
 40
1.0
 40
1.0
 40
1.0
 10
-3.12082175472929
 20
0.2749070450097716
 30
0.0
 10
-3.122432822514265
 20
0.2768918213812777
 30
0.0
 10
-3.125573691652233
 20
0.2807612568632436
 30
0.0
 10
-3.130800545748464
 20
0.2858752736643346
 30
0.0
 10
-3.1362883079336
 20
0.2902009014129325
 30
0.0
 10
-3.142010538337785
 20
0.2937816452390918
 30
0.0
 10
-3.148057412563367
 20
0.2964823717878078
 30
0.0
 10
-3.15432357816436
 20
0.2984587868963505
 30
0.0
 10
-3.16087524336288
 20
0.2996704104004863
 30
0.0
 10
-3.165329317877889
 20
0.2997925586298132
 30
0.0
 10
-3.167589204174823
 20
0.2998545335942465
 30
0.0
  0
SPLINE
  5
E6
330
1F
100
AcDbEntity
  8
0
  6
Continuous
 62
     1
370
    25
100
AcDbSpline
210
0.0
220
0.0
230
1.0
 70
     8
 71
     3
 72
    15
 73
    11
 74
     0
 42
0.00000001
 43
0.00000001
 40
0.0
 40
0.0
 40
0.0
 40
0.0
 40
0.1268612739548922
 40
0.251017629358977
 40
0.3729382371419131
 40
0.4935006545303247
 40
0.6160545934140117
 40
0.7402211703926631
 40
0.8676190268924798
 40
1.0
 40
1.0
 40
1.0
 40
1.0
 10
-3.167589204174822
 20
0.2998545335942465
 30
0.0
 10
-3.169520104141533
 20
0.2997855617586845
 30
0.0
 10
-3.173340733692719
 20
0.2996490886955066
 30
0.0
 10
-3.178956509179462
 20
0.2987460826519185
 30
0.0
 10
-3.184370765494285
 20
0.2973536113706362
 30
0.0
 10
-3.189543326340918
 20
0.2952984189695685
 30
0.0
 10
-3.194543708884066
 20
0.2927781004922396
 30
0.0
 10
-3.199282979629794
 20
0.2896033696695683
 30
0.0
 10
-3.203831832930133
 20
0.2859192103958252
 30
0.0
 10
-3.206612077268694
 20
0.2831052181904098
 30
0.0
 10
-3.208028864970648
 20
0.2816712328766992
 30
0.0
  0
SPLINE
  5
E7
330
1F
100
AcDbEntity
  8
0
  6
Continuous
 62
     1
370
    25
100
AcDbSpline
210
0.0
220
0.0
230
1.0
 70
     8
 71
     3
 72
    13
 73
     9
 74
     0
 42
0.00000001
 43
0.00000001
 40
0.0
 40
0.0
 40
0.0
 40
0.0
 40
0.2003380571309475
 40
0.3718811275859112
 40
0.5184031650338375
 40
0.6386675113961574
 40
0.8337767958984715
 40
1.0
 40
1.0
 40
1.0
 40
1.0
 10
-3.208028864970648
 20
0.2816712328766992
 30
0.0
 10
-3.208747424313884
 20
0.2808863135067521
 30
0.0
 10
-3.210081263039419
 20
0.2794292927861751
 30
0.0
 10
-3.211892370605291
 20
0.2773546313085723
 30
0.0
 10
-3.213313214133113
 20
0.2755057239360014
 30
0.0
 10
-3.214675141791827
 20
0.2734704182336821
 30
0.0
 10
-3.215831895814176
 20
0.27113265012329
 30
0.0
 10
-3.216017066648075
 20
0.2692094272691515
 30
0.0
 10
-3.216102250489238
 20
0.2683246901500195
 30
0.0
  0
SPLINE
  5
E8
330
1F
100
AcDbEntity
  8
0
  6
Continuous
 62
     1
370
    25
100
AcDbSpline
210
0.0
220
0.0
230
1.0
 70
     8
 71
     3
 72
    15
 73
    11
 74
     0
 42
0.00000001
 43
0.00000001
 40
0.0
 40
0.0
 40
0.0
 40
0.0
 40
0.1408897717069999
 40
0.2678067973584678
 40
0.3922591801284726
 40
0.5111721130924716
 40
0.6311844825177912
 40
0.7497007943950548
 40
0.8701871563060201
 40
1.0
 40
1.0
 40
1.0
 40
1.0
 10
-3.216102250489239
 20
0.2683246901500195
 30
0.0
 10
-3.216057295965471
 20
0.2675571687987317
 30
0.0
 10
-3.21597184528377
 20
0.2660982450422217
 30
0.0
 10
-3.215405654349884
 20
0.2640220371973682
 30
0.0
 10
-3.214503998231366
 20
0.2622033705511573
 30
0.0
 10
-3.21327016600186
 20
0.2606409391098218
 30
0.0
 10
-3.211787061638519
 20
0.2593579211219711
 30
0.0
 10
-3.210044167664815
 20
0.2584398000050207
 30
0.0
 10
-3.208098666163798
 20
0.2578786099736387
 30
0.0
 10
-3.206735619625579
 20
0.2577886599651917
 30
0.0
 10
-3.206028701891717
 20
0.257742009132407
 30
0.0
  0
SPLINE
  5
E9
330
1F
100
AcDbEntity
  8
0
  6
Continuous
 62
     1
370
    25
100
AcDbSpline
210
0.0
220
0.0
230
1.0
 70
     8
 71
     3
 72
    11
 73
     7
 74
     0
 42
0.00000001
 43
0.00000001
 40
0.0
 40
0.0
 40
0.0
 40
0.0
 40
0.2597982532838362
 40
0.4825734175872194
 40
0.716462968322633
 40
1.0
 40
1.0
 40
1.0
 40
1.0
 10
-3.206028701891717
 20
0.257742009132407
 30
0.0
 10
-3.205063639180923
 20
0.2577743061520698
 30
0.0
 10
-3.203271042022755
 20
0.2578342976376148
 30
0.0
 10
-3.200723480797403
 20
0.2587310613071599
 30
0.0
 10
-3.198536116288769
 20
0.2604466470271252
 30
0.0
 10
-3.197362154234952
 20
0.2619649655512354
 30
0.0
 10
-3.196718851924333
 20
0.2627969667318851
 30
0.0
  0
SPLINE
  5
EA
330
1F
100
AcDbEntity
  8
0
  6
Continuous
 62
     1
370
    25
100
AcDbSpline
210
0.0
220
0.0
230
1.0
 70
     8
 71
     3
 72
    15
 73
    11
 74
     0
 42
0.00000001
 43
0.00000001
 40
0.0
 40
0.0
 40
0.0
 40
0.0
 40
0.149796990233611
 40
0.289731908062128
 40
0.4216726751535252
 40
0.5440275979201284
 40
0.6615326676717411
 40
0.7760905114405955
 40
0.8874186821674231
 40
1.0
 40
1.0
 40
1.0
 40
1.0
 10
-3.196718851924333
 20
0.2627969667318851
 30
0.0
 10
-3.195673497810837
 20
0.264112351328985
 30
0.0
 10
-3.193651611780741
 20
0.2666565205313098
 30
0.0
 10
-3.190359445467737
 20
0.2700602191078716
 30
0.0
 10
-3.186999998160868
 20
0.2729443186997563
 30
0.0
 10
-3.183534010923388
 20
0.2752776403042494
 30
0.0
 10
-3.17998159551043
 20
0.2770831857707937
 30
0.0
 10
-3.176340170882862
 20
0.2783599234157336
 30
0.0
 10
-3.172604728337075
 20
0.2791360209772293
 30
0.0
 10
-3.170090046474741
 20
0.2791774656611041
 30
0.0
 10
-3.168825668623615
 20
0.2791983039791127
 30
0.0
  0
SPLINE
  5
EB
330
1F
100
AcDbEntity
  8
0
  6
Continuous
 62
     1
370
    25
100
AcDbSpline
210
0.0
220
0.0
230
1.0
 70
     8
 71
     3
 72
    15
 73
    11
 74
     0
 42
0.00000001
 43
0.00000001
 40
0.0
 40
0.0
 40
0.0
 40
0.0
 40
0.1237234624285976
 40
0.2443770283326036
 40
0.3645907033961789
 40
0.4838635856448923
 40
0.6063802505683573
 40
0.7319794539779294
 40
0.8625794785925064
 40
1.0
 40
1.0
 40
1.0
 40
1.0
 10
-3.168825668623616
 20
0.2791983039791128
 30
0.0
 10
-3.167465466160579
 20
0.279170017596101
 30
0.0
 10
-3.164778811347314
 20
0.2791141466878107
 30
0.0
 10
-3.160814473752041
 20
0.2784663534744997
 30
0.0
 10
-3.156989853736747
 20
0.2774252338356937
 30
0.0
 10
-3.153305386640996
 20
0.2759053586270593
 30
0.0
 10
-3.149762556909064
 20
0.2739482478120349
 30
0.0
 10
-3.146423624163576
 20
0.2714557300907172
 30
0.0
 10
-3.143137794614729
 20
0.2686322696963554
 30
0.0
 10
-3.141175104625194
 20
0.26643358187567
 30
0.0
 10
-3.140168786692761
 20
0.2653062622309066
 30
0.0
  0
SPLINE
  5
EC
330
1F
100
AcDbEntity
  8
0
  6
Continuous
 62
     1
370
    25
100
AcDbSpline
210
0.0
220
0.0
230
1.0
 70
     8
 71
     3
 72
    15
 73
    11
 74
     0
 42
0.00000001
 43
0.00000001
 40
0.0
 40
0.0
 40
0.0
 40
0.0
 40
0.1234157410592845
 40
0.2463354129861135
 40
0.3716135550703876
 40
0.4992675444055247
 40
0.6272062462090838
 40
0.752405818220222
 40
0.8766881380173096
 40
1.0
 40
1.0
 40
1.0
 40
1.0
 10
-3.140168786692761
 20
0.2653062622309066
 30
0.0
 10
-3.138776152427756
 20
0.2635863289126456
 30
0.0
 10
-3.135996481586226
 20
0.2601533755419821
 30
0.0
 10
-3.132433274103541
 20
0.2545118174415575
 30
0.0
 10
-3.129298115513093
 20
0.2485451223381821
 30
0.0
 10
-3.126651045260634
 20
0.2422435274660016
 30
0.0
 10
-3.124580803512583
 20
0.235735576443758
 30
0.0
 10
-3.122962782143922
 20
0.2291610340480923
 30
0.0
 10
-3.122062564258206
 20
0.222527287359853
 30
0.0
 10
-3.121889730921784
 20
0.2180926691375079
 30
0.0
 10
-3.121803652968039
 20
0.215884050880613
 30
0.0
  0
SPLINE
  5
ED
330
1F
100
AcDbEntity
  8
0
  6
Continuous
 62
     1
370
    25
100
AcDbSpline
210
0.0
220
0.0
230
1.0
 70
     8
 71
     3
 72
    23
 73
    19
 74
     0
 42
0.00000001
 43
0.00000001
 40
0.0
 40
0.0
 40
0.0
 40
0.0
 40
0.0736670338533481
 40
0.1447979655636911
 40
0.214162807505646
 40
0.281724765641747
 40
0.3486983646080927
 40
0.4143157926042004
 40
0.479805027786079
 40
0.5455984847437996
 40
0.6096677228376209
 40
0.670696013826642
 40
0.7283374198455517
 40
0.7841064617964715
 40
0.8382894068017849
 40
0.8916794042822396
 40
0.9453058211771642
 40
1.0
 40
1.0
 40
1.0
 40
1.0
 10
-3.121803652968038
 20
0.215884050880613
 30
0.0
 10
-3.12189451628628
 20
0.2137845602498162
 30
0.0
 10
-3.122073114811803
 20
0.2096578572164813
 30
0.0
 10
-3.122857702652773
 20
0.2035945595194112
 30
0.0
 10
-3.124006111977274
 20
0.1977688958998179
 30
0.0
 10
-3.125588160422618
 20
0.1921681601520734
 30
0.0
 10
-3.127529226574911
 20
0.1867944050750781
 30
0.0
 10
-3.129918208081411
 20
0.1816682086224836
 30
0.0
 10
-3.132690968609836
 20
0.1767797281033782
 30
0.0
 10
-3.135820540074794
 20
0.1721631346563187
 30
0.0
 10
-3.139255073697726
 20
0.1679326192627445
 30
0.0
 10
-3.142871144485975
 20
0.1641683365539451
 30
0.0
 10
-3.146696562218258
 20
0.1609761781764508
 30
0.0
 10
-3.150657235497728
 20
0.1582807513407186
 30
0.0
 10
-3.154845131499033
 20
0.1562129348864147
 30
0.0
 10
-3.159165915895095
 20
0.1546228876938757
 30
0.0
 10
-3.163676103705536
 20
0.1535754590355137
 30
0.0
 10
-3.166759593616109
 20
0.1533421839143137
 30
0.0
 10
-3.168316536203524
 20
0.1532243966079451
 30
0.0
  0
SPLINE
  5
EE
330
1F
100
AcDbEntity
  8
0
  6
Continuous
 62
     1
370
    25
100
AcDbSpline
210
0.0
220
0.0
230
1.0
 70
     8
 71
     3
 72
    15
 73
    11
 74
     0
 42
0.00000001
 43
0.00000001
 40
0.0
 40
0.0
 40
0.0
 40
0.0
 40
0.1198870932721483
 40
0.2379505422242373
 40
0.3556738550059484
 40
0.4756146919034031
 40
0.5975273884742592
 40
0.7246333451976409
 40
0.8583770420443164
 40
1.0
 40
1.0
 40
1.0
 40
1.0
 10
-3.168316536203524
 20
0.1532243966079451
 30
0.0
 10
-3.169532096264361
 20
0.1532644413915225
 30
0.0
 10
-3.171944726078695
 20
0.1533439218235309
 30
0.0
 10
-3.17549197541663
 20
0.1540401670698049
 30
0.0
 10
-3.178951840994679
 20
0.1550756688662845
 30
0.0
 10
-3.182257643264757
 20
0.156631797069929
 30
0.0
 10
-3.185457806610245
 20
0.158575647634156
 30
0.0
 10
-3.188519303452846
 20
0.1609665241748408
 30
0.0
 10
-3.19148537686208
 20
0.1637756699966593
 30
0.0
 10
-3.193284338252141
 20
0.165909760948196
 30
0.0
 10
-3.194209556425311
 20
0.1670073385518459
 30
0.0
  0
SPLINE
  5
EF
330
1F
100
AcDbEntity
  8
0
  6
Continuous
 62
     1
370
    25
100
AcDbSpline
210
0.0
220
0.0
230
1.0
 70
     8
 71
     3
 72
    13
 73
     9
 74
     0
 42
0.00000001
 43
0.00000001
 40
0.0
 40
0.0
 40
0.0
 40
0.0
 40
0.1861724470980054
 40
0.346062021020013
 40
0.4802521671860531
 40
0.5899777962095375
 40
0.7862375299099935
 40
1.0
 40
1.0
 40
1.0
 40
1.0
 10
-3.194209556425311
 20
0.1670073385518459
 30
0.0
 10
-3.194749505936724
 20
0.1677025670052009
 30
0.0
 10
-3.195753177651204
 20
0.1689948751173245
 30
0.0
 10
-3.197225866817136
 20
0.1707269686950453
 30
0.0
 10
-3.198614681968135
 20
0.1720431011212722
 30
0.0
 10
-3.200248978043336
 20
0.1733336266481925
 30
0.0
 10
-3.202545766067664
 20
0.1743855088276446
 30
0.0
 10
-3.204500487747097
 20
0.1744361108192914
 30
0.0
 10
-3.205519569471626
 20
0.1744624918460403
 30
0.0
  0
SPLINE
  5
F0
330
1F
100
AcDbEntity
  8
0
  6
Continuous
 62
     1
370
    25
100
AcDbSpline
210
0.0
220
0.0
230
1.0
 70
     8
 71
     3
 72
    15
 73
    11
 74
     0
 42
0.00000001
 43
0.00000001
 40
0.0
 40
0.0
 40
0.0
 40
0.0
 40
0.1284845856040948
 40
0.2508964720423238
 40
0.372017372022187
 40
0.4967775265169142
 40
0.6204278144286844
 40
0.7414088634258478
 40
0.8673843368675077
 40
1.0
 40
1.0
 40
1.0
 40
1.0
 10
-3.205519569471626
 20
0.1744624918460403
 30
0.0
 10
-3.206227520718715
 20
0.1744058512343814
 30
0.0
 10
-3.207609962584695
 20
0.1742952470745694
 30
0.0
 10
-3.209577285027246
 20
0.173652669277141
 30
0.0
 10
-3.211358215154204
 20
0.1726529269050548
 30
0.0
 10
-3.212905085261371
 20
0.1713091131193403
 30
0.0
 10
-3.214191339245521
 20
0.1697132176845801
 30
0.0
 10
-3.215113115629236
 20
0.167877341842954
 30
0.0
 10
-3.2157172796749
 20
0.1658565042826025
 30
0.0
 10
-3.21580347826568
 20
0.1644296993002135
 30
0.0
 10
-3.215847684279193
 20
0.1636979778212524
 30
0.0
  0
SPLINE
  5
F1
330
1F
100
AcDbEntity
  8
0
  6
Continuous
 62
     1
370
    25
100
AcDbSpline
210
0.0
220
0.0
230
1.0
 70
     8
 71
     3
 72
    11
 73
     7
 74
     0
 42
0.00000001
 43
0.00000001
 40
0.0
 40
0.0
 40
0.0
 40
0.0
 40
0.2140003498276801
 40
0.4246617878512736
 40
0.6752146656410498
 40
1.0
 40
1.0
 40
1.0
 40
1.0
 10
-3.215847684279193
 20
0.1636979778212524
 30
0.0
 10
-3.215812300657741
 20
0.1629283966092586
 30
0.0
 10
-3.215742085483051
 20
0.1614012414730864
 30
0.0
 10
-3.214928885768545
 20
0.1590835517779794
 30
0.0
 10
-3.21337143018734
 20
0.1567186491666185
 30
0.0
 10
-3.212048608076935
 20
0.1551360549185449
 30
0.0
 10
-3.211301859099806
 20
0.1542426614481276
 30
0.0
  0
SPLINE
  5
F2
330
1F
100
AcDbEntity
  8
0
  6
Continuous
 62
     1
370
    25
100
AcDbSpline
210
0.0
220
0.0
230
1.0
 70
     8
 71
     3
 72
    15
 73
    11
 74
     0
 42
0.00000001
 43
0.00000001
 40
0.0
 40
0.0
 40
0.0
 40
0.0
 40
0.1409865339286978
 40
0.2747706726322853
 40
0.4024394090338254
 40
0.525093586648091
 40
0.6446790973151332
 40
0.7625791711150618
 40
0.8802665789354478
 40
1.0
 40
1.0
 40
1.0
 40
1.0
 10
-3.211301859099806
 20
0.1542426614481276
 30
0.0
 10
-3.209759120111958
 20
0.1525127997149869
 30
0.0
 10
-3.206752454031342
 20
0.1491414474394828
 30
0.0
 10
-3.201795578511082
 20
0.1447502729224356
 30
0.0
 10
-3.196752844064666
 20
0.1409374937925229
 30
0.0
 10
-3.19145760925433
 20
0.137933179588529
 30
0.0
 10
-3.18606607933789
 20
0.1354636217600845
 30
0.0
 10
-3.180453152979089
 20
0.1338216113796495
 30
0.0
 10
-3.174698311960402
 20
0.1327395889911505
 30
0.0
 10
-3.170794430517125
 20
0.1326256349980494
 30
0.0
 10
-3.168825668623615
 20
0.1325681669928113
 30
0.0
  0
SPLINE
  5
F4
330
1F
100
AcDbEntity
  8
0
  6
Continuous
 62
     1
370
    25
100
AcDbSpline
210
0.0
220
0.0
230
1.0
 70
     8
 71
     3
 72
    15
 73
    11
 74
     0
 42
0.00000001
 43
0.00000001
 40
0.0
 40
0.0
 40
0.0
 40
0.0
 40
0.1259377986129354
 40
0.2482422160860898
 40
0.3691350367605154
 40
0.4892950584613302
 40
0.610996510739109
 40
0.7356617808477997
 40
0.8644037614544817
 40
1.0
 40
1.0
 40
1.0
 40
1.0
 10
-3.168809829264006
 20
0.1325682025070706
 30
0.0
 10
-3.16654418505448
 20
0.1326519995413897
 30
0.0
 10
-3.162078261831825
 20
0.1328171760152519
 30
0.0
 10
-3.155508042627038
 20
0.1339213811468642
 30
0.0
 10
-3.149233099585333
 20
0.1357975174124327
 30
0.0
 10
-3.143207846691363
 20
0.1383441930612636
 30
0.0
 10
-3.137505911106631
 20
0.1416920989122682
 30
0.0
 10
-3.132114134719687
 20
0.1457666130713737
 30
0.0
 10
-3.12695480080378
 20
0.1505202780743014
 30
0.0
 10
-3.123886642847815
 20
0.1541583973070216
 30
0.0
 10
-3.12231278538813
 20
0.1560246249184474
 30
0.0
  0
SPLINE
  5
F5
330
1F
100
AcDbEntity
  8
0
  6
Continuous
 62
     1
370
    25
100
AcDbSpline
210
0.0
220
0.0
230
1.0
 70
     8
 71
     3
 72
    15
 73
    11
 74
     0
 42
0.00000001
 43
0.00000001
 40
0.0
 40
0.0
 40
0.0
 40
0.0
 40
0.1281104823082272
 40
0.2552889421039279
 40
0.3812476652547022
 40
0.5070702763330872
 40
0.6317397524562777
 40
0.7553641909445039
 40
0.877608049091987
 40
0.9999999999999999
 40
0.9999999999999999
 40
0.9999999999999999
 40
0.9999999999999999
 10
-3.12231278538813
 20
0.1560246249184474
 30
0.0
 10
-3.120689832062688
 20
0.1582067023485098
 30
0.0
 10
-3.117455732634828
 20
0.1625549822759027
 30
0.0
 10
-3.113247633585086
 20
0.1694785649969189
 30
0.0
 10
-3.109634537159914
 20
0.176670696336176
 30
0.0
 10
-3.106623072272663
 20
0.1840777237211016
 30
0.0
 10
-3.10420841115935
 20
0.1916495261863625
 30
0.0
 10
-3.102465920434555
 20
0.1993240178494855
 30
0.0
 10
-3.101363866702207
 20
0.2070757617905291
 30
0.0
 10
-3.101219600247058
 20
0.2122680635530062
 30
0.0
 10
-3.101147423352905
 20
0.2148657860404304
 30
0.0
  0
CIRCLE
  5
F6
330
1F
100
AcDbEntity
  8
0
  6
Continuous
 62
     1
370
    25
100
AcDbCircle
 10
3.3
 20
0.85
 30
0.0
 40
0.3100000000000001
  0
CIRCLE
  5
F7
330
1F
100
AcDbEntity
  8
0
  6
Continuous
 62
     1
370
    25
100
AcDbCircle
 10
-3.3
 20
0.85
 30
0.0
 40
0.3099999999999703
  0
CIRCLE
  5
F8
330
1F
100
AcDbEntity
  8
0
  6
Continuous
 62
     1
370
    25
100
AcDbCircle
 10
2.3
 20
0.3
 30
0.0
 40
0.0847499999999997
  0
CIRCLE
  5
F9
330
1F
100
AcDbEntity
  8
0
  6
Continuous
 62
     1
370
    25
100
AcDbCircle
 10
-2.3
 20
0.3
 30
0.0
 40
0.0847500000000001
  0
CIRCLE
  5
FA
330
1F
100
AcDbEntity
  8
0
  6
Continuous
 62
     1
370
    25
100
AcDbCircle
 10
3.3
 20
0.85
 30
0.0
 40
0.2799999999999989
  0
CIRCLE
  5
FB
330
1F
100
AcDbEntity
  8
0
  6
Continuous
 62
     1
370
    25
100
AcDbCircle
 10
3.3
 20
0.85
 30
0.0
 40
0.25
  0
CIRCLE
  5
FC
330
1F
100
AcDbEntity
  8
0
  6
Continuous
 62
     1
370
    25
100
AcDbCircle
 10
-3.3
 20
0.85
 30
0.0
 40
0.2800000000000074
  0
CIRCLE
  5
FD
330
1F
100
AcDbEntity
  8
0
  6
Continuous
 62
     1
370
    25
100
AcDbCircle
 10
-3.3
 20
0.85
 30
0.0
 40
0.2499999999999996
  0
SPLINE
  5
101
330
1F
100
AcDbEntity
  8
0
  6
Continuous
 62
     1
370
    25
100
AcDbSpline
210
0.0
220
0.0
230
1.0
 70
     8
 71
     3
 72
    15
 73
    11
 74
     0
 42
0.00000001
 43
0.00000001
 40
0.0
 40
0.0
 40
0.0
 40
0.0
 40
0.1205671696893623
 40
0.2366879270368082
 40
0.3492814879852619
 40
0.4611251351499626
 40
0.5775121485244624
 40
0.7060248672534927
 40
0.8469449688035396
 40
1.0
 40
1.0
 40
1.0
 40
1.0
 10
3.287708088714945
 20
0.271343118069083
 30
0.0
 10
3.288509095165192
 20
0.272023591428745
 30
0.0
 10
3.290081567644562
 20
0.2733594428824793
 30
0.0
 10
3.29259283594483
 20
0.2750961310286971
 30
0.0
 10
3.295247897544151
 20
0.2764361684051743
 30
0.0
 10
3.298017252121316
 20
0.2775296009111834
 30
0.0
 10
3.30104289209112
 20
0.2782684854447311
 30
0.0
 10
3.304353369485699
 20
0.2788795034116087
 30
0.0
 10
3.308033493217091
 20
0.2791241379264942
 30
0.0
 10
3.310594752712156
 20
0.2791729108660136
 30
0.0
 10
3.311928245270717
 20
0.2791983039790634
 30
0.0
  0
SPLINE
  5
102
330
1F
100
AcDbEntity
  8
0
  6
Continuous
 62
     1
370
    25
100
AcDbSpline
210
0.0
220
0.0
230
1.0
 70
     8
 71
     3
 72
    15
 73
    11
 74
     0
 42
0.00000001
 43
0.00000001
 40
0.0
 40
0.0
 40
0.0
 40
0.0
 40
0.1310764882227324
 40
0.2604569092357024
 40
0.3878493104005931
 40
0.5150489183872765
 40
0.639818842180222
 40
0.7626278501243684
 40
0.8817180842374973
 40
1.0
 40
1.0
 40
1.0
 40
1.0
 10
3.26876108936726
 20
0.2385404435746277
 30
0.0
 10
3.269167777556801
 20
0.2401738423915348
 30
0.0
 10
3.269975891584775
 20
0.2434195046240929
 30
0.0
 10
3.271703331986638
 20
0.2480934844677569
 30
0.0
 10
3.273595883296188
 20
0.2526466342806595
 30
0.0
 10
3.275904600265481
 20
0.2569391854920371
 30
0.0
 10
3.278432246409383
 20
0.2610355156442611
 30
0.0
 10
3.281265967307496
 20
0.2647986136823121
 30
0.0
 10
3.284333923445906
 20
0.2682660752461497
 30
0.0
 10
3.286585923187594
 20
0.2703197682605358
 30
0.0
 10
3.287708088714945
 20
0.2713431180690831
 30
0.0
  0
SPLINE
  5
103
330
1F
100
AcDbEntity
  8
0
  6
Continuous
 62
     1
370
    25
100
AcDbSpline
210
0.0
220
0.0
230
1.0
 70
     8
 71
     3
 72
    13
 73
     9
 74
     0
 42
0.00000001
 43
0.00000001
 40
0.0
 40
0.0
 40
0.0
 40
0.0
 40
0.207548397218157
 40
0.3818107307315161
 40
0.5169697311143154
 40
0.6189552278488739
 40
0.7967350675197905
 40
1.0
 40
1.0
 40
1.0
 40
1.0
 10
3.267270058708422
 20
0.2201025766470348
 30
0.0
 10
3.267272709584062
 20
0.2213875053834618
 30
0.0
 10
3.267277586194911
 20
0.2237512893797191
 30
0.0
 10
3.267247748536739
 20
0.2269521775275681
 30
0.0
 10
3.267326987224024
 20
0.2294985063185675
 30
0.0
 10
3.267457617366961
 20
0.2320640834346834
 30
0.0
 10
3.26784532819423
 20
0.2350377047980602
 30
0.0
 10
3.268442521779679
 20
0.2373219391491979
 30
0.0
 10
3.26876108936726
 20
0.2385404435746277
 30
0.0
  0
SPLINE
  5
104
330
1F
100
AcDbEntity
  8
0
  6
Continuous
 62
     1
370
    25
100
AcDbSpline
210
0.0
220
0.0
230
1.0
 70
     8
 71
     3
 72
    19
 73
    15
 74
     0
 42
0.00000001
 43
0.00000001
 40
0.0
 40
0.0
 40
0.0
 40
0.0
 40
0.0991364201364871
 40
0.1936518853446823
 40
0.2813645377171063
 40
0.3654696950949266
 40
0.4112353826081813
 40
0.4660228750526402
 40
0.5309274140083567
 40
0.6049057026415342
 40
0.688992555730108
 40
0.7832089636325077
 40
0.886537115185247
 40
1.0
 40
1.0
 40
1.0
 40
1.0
 10
3.271306751467717
 20
0.1847542400521228
 30
0.0
 10
3.270851840199495
 20
0.1858506290617004
 30
0.0
 10
3.269963222024314
 20
0.1879923021066173
 30
0.0
 10
3.268980006709134
 20
0.1912159784249798
 30
0.0
 10
3.268174570554475
 20
0.1943017084475779
 30
0.0
 10
3.267768900286451
 20
0.196878593995377
 30
0.0
 10
3.267578554743507
 20
0.1990805524243778
 30
0.0
 10
3.267483492355103
 20
0.201058392991143
 30
0.0
 10
3.267364137326395
 20
0.2033728727405206
 30
0.0
 10
3.267296039560166
 20
0.2060404702488194
 30
0.0
 10
3.267272169123427
 20
0.2090592647057304
 30
0.0
 10
3.267223726464974
 20
0.2124290833666386
 30
0.0
 10
3.267228357797359
 20
0.2161508518517171
 30
0.0
 10
3.267255731836384
 20
0.2187449119335753
 30
0.0
 10
3.267270058708421
 20
0.2201025766470348
 30
0.0
  0
SPLINE
  5
105
330
1F
100
AcDbEntity
  8
0
  6
Continuous
 62
     1
370
    25
100
AcDbSpline
210
0.0
220
0.0
230
1.0
 70
     8
 71
     3
 72
    15
 73
    11
 74
     0
 42
0.00000001
 43
0.00000001
 40
0.0
 40
0.0
 40
0.0
 40
0.0
 40
0.1088148802450304
 40
0.2230462998928802
 40
0.3422301354791056
 40
0.4695239203828753
 40
0.599834168483665
 40
0.7319856587851343
 40
0.8646866091648028
 40
1.0
 40
1.0
 40
1.0
 40
1.0
 10
3.295272341813445
 20
0.1562428245270086
 30
0.0
 10
3.294053318316675
 20
0.1568910915108149
 30
0.0
 10
3.291554591305952
 20
0.1582198946281378
 30
0.0
 10
3.288086703520306
 20
0.1608500845582737
 30
0.0
 10
3.284715254976745
 20
0.1639407780640988
 30
0.0
 10
3.281481653132655
 20
0.1674627187825948
 30
0.0
 10
3.278475033147384
 20
0.1713883059778296
 30
0.0
 10
3.275759384016935
 20
0.175600060405368
 30
0.0
 10
3.273331299846928
 20
0.1800594552172958
 30
0.0
 10
3.27198597207253
 20
0.1831791753968531
 30
0.0
 10
3.271306751467717
 20
0.1847542400521228
 30
0.0
  0
SPLINE
  5
106
330
1F
100
AcDbEntity
  8
0
  6
Continuous
 62
     1
370
    25
100
AcDbSpline
210
0.0
220
0.0
230
1.0
 70
     8
 71
     3
 72
    13
 73
     9
 74
     0
 42
0.00000001
 43
0.00000001
 40
0.0
 40
0.0
 40
0.0
 40
0.0
 40
0.1670383997401218
 40
0.313531405748565
 40
0.4452568364187386
 40
0.5603148449616281
 40
0.7764491439923441
 40
1.0
 40
1.0
 40
1.0
 40
1.0
 10
3.311695946501199
 20
0.1532244676364142
 30
0.0
 10
3.310754973310776
 20
0.1532147854436425
 30
0.0
 10
3.308988764776545
 20
0.1531966119487143
 30
0.0
 10
3.3064826312188
 20
0.1533157773271153
 30
0.0
 10
3.304274220078572
 20
0.1534912222866608
 30
0.0
 10
3.301684841114561
 20
0.1538074985519717
 30
0.0
 10
3.298644381434491
 20
0.1546230530971484
 30
0.0
 10
3.296408924163049
 20
0.1556968630839458
 30
0.0
 10
3.295272341813444
 20
0.1562428245270086
 30
0.0
  0
SPLINE
  5
107
330
1F
100
AcDbEntity
  8
0
  6
Continuous
 62
     1
370
    25
100
AcDbSpline
210
0.0
220
0.0
230
1.0
 70
     8
 71
     3
 72
    15
 73
    11
 74
     0
 42
0.00000001
 43
0.00000001
 40
0.0
 40
0.0
 40
0.0
 40
0.0
 40
0.1259376243673613
 40
0.2487599133577957
 40
0.3728283070025138
 40
0.4981563105412323
 40
0.6240939349086001
 40
0.7470429864224865
 40
0.8719819729744958
 40
0.9999999999999999
 40
0.9999999999999999
 40
0.9999999999999999
 40
0.9999999999999999
 10
-3.315201239399872
 20
0.1555518590997854
 30
0.0
 10
-3.316399405193261
 20
0.1561576303123632
 30
0.0
 10
-3.318766097597134
 20
0.1573541876963263
 30
0.0
 10
-3.321921750400146
 20
0.1597914417678893
 30
0.0
 10
-3.324737948750903
 20
0.1625891387538776
 30
0.0
 10
-3.327140709137223
 20
0.165797469935802
 30
0.0
 10
-3.329057071024645
 20
0.1693036192209534
 30
0.0
 10
-3.330454072297933
 20
0.1730381183593066
 30
0.0
 10
-3.331362475401233
 20
0.1769533976427188
 30
0.0
 10
-3.331497749636355
 20
0.1796458615576293
 30
0.0
 10
-3.331566210045664
 20
0.1810084801043516
 30
0.0
  0
SPLINE
  5
108
330
1F
100
AcDbEntity
  8
0
  6
Continuous
 62
     1
370
    25
100
AcDbSpline
210
0.0
220
0.0
230
1.0
 70
     8
 71
     3
 72
    15
 73
    11
 74
     0
 42
0.00000001
 43
0.00000001
 40
0.0
 40
0.0
 40
0.0
 40
0.0
 40
0.1297661731730121
 40
0.2548791055602809
 40
0.3787960405893684
 40
0.5038876208248727
 40
0.6289631845544373
 40
0.7515853607892213
 40
0.8741367185507473
 40
0.9999999999999999
 40
0.9999999999999999
 40
0.9999999999999999
 40
0.9999999999999999
 10
-3.331566210045664
 20
0.1810084801043516
 30
0.0
 10
-3.331507632006342
 20
0.1823703227750868
 30
0.0
 10
-3.331392576457557
 20
0.1850451742663766
 30
0.0
 10
-3.330561096363065
 20
0.1889489945820385
 30
0.0
 10
-3.329244323019747
 20
0.1926563096152965
 30
0.0
 10
-3.327427559294408
 20
0.196149456754399
 30
0.0
 10
-3.325141501669401
 20
0.1993385592251228
 30
0.0
 10
-3.322461429266238
 20
0.2021620071755175
 30
0.0
 10
-3.31941816178396
 20
0.2046197628895967
 30
0.0
 10
-3.317126198284111
 20
0.2058686824714011
 30
0.0
 10
-3.315964938030008
 20
0.206501467710353
 30
0.0
  0
SPLINE
  5
109
330
1F
100
AcDbEntity
  8
0
  6
Continuous
 62
     1
370
    25
100
AcDbSpline
210
0.0
220
0.0
230
1.0
 70
     8
 71
     3
 72
    13
 73
     9
 74
     0
 42
0.00000001
 43
0.00000001
 40
0.0
 40
0.0
 40
0.0
 40
0.0
 40
0.2115172194938379
 40
0.4247058188201402
 40
0.5400049733462422
 40
0.6746975355832471
 40
0.8285832296768321
 40
1.0
 40
1.0
 40
1.0
 40
1.0
 10
-3.315964938030008
 20
0.206501467710353
 30
0.0
 10
-3.314913246000809
 20
0.2070125797385946
 30
0.0
 10
-3.31280155161736
 20
0.208038842531679
 30
0.0
 10
-3.309884948379946
 20
0.2087540055773755
 30
0.0
 10
-3.307349722258918
 20
0.2090625092036026
 30
0.0
 10
-3.305133629857287
 20
0.2093128127585675
 30
0.0
 10
-3.302593866000604
 20
0.2093374972967474
 30
0.0
 10
-3.300799871485561
 20
0.2093616840928716
 30
0.0
 10
-3.299854533594262
 20
0.2093744292237255
 30
0.0
  0
SPLINE
  5
10D
330
1F
100
AcDbEntity
  8
0
  6
Continuous
 62
     1
370
    25
100
AcDbSpline
210
0.0
220
0.0
230
1.0
 70
     8
 71
     3
 72
    11
 73
     7
 74
     0
 42
0.00000001
 43
0.00000001
 40
0.0
 40
0.0
 40
0.0
 40
0.0
 40
0.3167213795384705
 40
0.5668050906240915
 40
0.7826905664386654
 40
1.0
 40
1.0
 40
1.0
 40
1.0
 10
-3.301638627920134
 20
0.1532244676364578
 30
0.0
 10
-3.303105256969189
 20
0.1532389782461024
 30
0.0
 10
-3.305729938676095
 20
0.153264946456479
 30
0.0
 10
-3.30934697467645
 20
0.1535904665472438
 30
0.0
 10
-3.312436732118996
 20
0.1543454002619877
 30
0.0
 10
-3.314277719798801
 20
0.155148825838742
 30
0.0
 10
-3.315201239399872
 20
0.1555518590997854
 30
0.0
  0
LINE
  5
10E
330
1F
100
AcDbEntity
  8
0
  6
Continuous
 62
     1
370
    25
100
AcDbLine
 10
-1.75
 20
0.4
 30
0.0
 11
-3.36875
 21
1.77
 31
0.0
  0
LINE
  5
10F
330
1F
100
AcDbEntity
  8
0
  6
Continuous
 62
     1
370
    25
100
AcDbLine
 10
1.75
 20
0.4
 30
0.0
 11
-1.75
 21
0.4
 31
0.0
  0
LINE
  5
110
330
1F
100
AcDbEntity
  8
0
  6
Continuous
 62
     1
370
    25
100
AcDbLine
 10
3.36875
 20
1.77
 30
0.0
 11
1.75
 21
0.4
 31
0.0
  0
LINE
  5
111
330
1F
100
AcDbEntity
  8
0
  6
Continuous
 62
     1
370
    25
100
AcDbLine
 10
3.84375
 20
1.77
 30
0.0
 11
3.36875
 21
1.77
 31
0.0
  0
LINE
  5
112
330
1F
100
AcDbEntity
  8
0
  6
Continuous
 62
     1
370
    25
100
AcDbLine
 10
3.84375
 20
0.0
 30
0.0
 11
3.84375
 21
1.77
 31
0.0
  0
LINE
  5
113
330
1F
100
AcDbEntity
  8
0
  6
Continuous
 62
     1
370
    25
100
AcDbLine
 10
-3.84375
 20
0.0
 30
0.0
 11
3.84375
 21
0.0
 31
0.0
  0
LINE
  5
114
330
1F
100
AcDbEntity
  8
0
  6
Continuous
 62
     1
370
    25
100
AcDbLine
 10
-3.84375
 20
1.77
 30
0.0
 11
-3.84375
 21
0.0
 31
0.0
  0
LINE
  5
115
330
1F
100
AcDbEntity
  8
0
  6
Continuous
 62
     1
370
    25
100
AcDbLine
 10
-3.36875
 20
1.77
 30
0.0
 11
-3.84375
 21
1.77
 31
0.0
  0
LINE
  5
116
330
1F
100
AcDbEntity
  8
0
  6
Continuous
 62
     1
370
    25
100
AcDbLine
 10
3.5023437704
 20
0.1447146119
 30
0.0
 11
3.5023438059
 21
0.2883855587
 31
0.0
  0
LINE
  5
117
330
1F
100
AcDbEntity
  8
0
  6
Continuous
 62
     1
370
    25
100
AcDbLine
 10
3.4840150033
 20
0.2883626875
 30
0.0
 11
3.4840150033
 21
0.2160659194
 31
0.0
  0
LINE
  5
118
330
1F
100
AcDbEntity
  8
0
  6
Continuous
 62
     1
370
    25
100
AcDbLine
 10
3.4840150033
 20
0.2160659194
 30
0.0
 11
3.4045904168
 21
0.2160659194
 31
0.0
  0
LINE
  5
119
330
1F
100
AcDbEntity
  8
0
  6
Continuous
 62
     1
370
    25
100
AcDbLine
 10
3.4045904168
 20
0.2160659194
 30
0.0
 11
3.4045904168
 21
0.2873705612
 31
0.0
  0
LINE
  5
11A
330
1F
100
AcDbEntity
  8
0
  6
Continuous
 62
     1
370
    25
100
AcDbLine
 10
3.3862615786
 20
0.2875989889
 30
0.0
 11
3.3862616141
 21
0.1442064383
 31
0.0
  0
LINE
  5
11B
330
1F
100
AcDbEntity
  8
0
  6
Continuous
 62
     1
370
    25
100
AcDbLine
 10
3.4045903457
 20
0.1431144814
 30
0.0
 11
3.4045904168
 21
0.1977371523
 31
0.0
  0
LINE
  5
11C
330
1F
100
AcDbEntity
  8
0
  6
Continuous
 62
     1
370
    25
100
AcDbLine
 10
3.4045904168
 20
0.1977371523
 30
0.0
 11
3.4840150033
 21
0.1977371523
 31
0.0
  0
LINE
  5
11D
330
1F
100
AcDbEntity
  8
0
  6
Continuous
 62
     1
370
    25
100
AcDbLine
 10
3.4840150033
 20
0.1977371523
 30
0.0
 11
3.4840150033
 21
0.1442064383
 31
0.0
  0
LINE
  5
11E
330
1F
100
AcDbEntity
  8
0
  6
Continuous
 62
     1
370
    25
100
AcDbLine
 10
3.3474220483
 20
0.2998545336
 30
0.0
 11
3.3119483463
 21
0.2998545336
 31
0.0
  0
LINE
  5
11F
330
1F
100
AcDbEntity
  8
0
  6
Continuous
 62
     1
370
    25
100
AcDbLine
 10
3.3124373777
 20
0.132568167
 30
0.0
 11
3.3469288618
 21
0.1325682025
 31
0.0
  0
LINE
  5
120
330
1F
100
AcDbEntity
  8
0
  6
Continuous
 62
     1
370
    25
100
AcDbLine
 10
3.3603685584
 20
0.1455874103
 30
0.0
 11
3.3603685939
 21
0.284672614
 31
0.0
  0
LINE
  5
121
330
1F
100
AcDbEntity
  8
0
  6
Continuous
 62
     1
370
    25
100
AcDbLine
 10
3.1069660796
 20
0.2581056751
 30
0.0
 11
3.1069661151
 21
0.2187364496
 31
0.0
  0
LINE
  5
122
330
1F
100
AcDbEntity
  8
0
  6
Continuous
 62
     1
370
    25
100
AcDbLine
 10
3.1204580887
 20
0.2047195042
 30
0.0
 11
3.1448571661
 21
0.2047195042
 31
0.0
  0
LINE
  5
123
330
1F
100
AcDbEntity
  8
0
  6
Continuous
 62
     1
370
    25
100
AcDbLine
 10
3.1458419765
 20
0.2253757339
 30
0.0
 11
3.1276223447
 21
0.2253757694
 31
0.0
  0
LINE
  5
124
330
1F
100
AcDbEntity
  8
0
  6
Continuous
 62
     1
370
    25
100
AcDbLine
 10
3.1276223447
 20
0.2253757694
 30
0.0
 11
3.1276223447
 21
0.2515241371
 31
0.0
  0
LINE
  5
125
330
1F
100
AcDbEntity
  8
0
  6
Continuous
 62
     1
370
    25
100
AcDbLine
 10
-3.4201916177
 20
0.2198116438
 30
0.0
 11
-3.4471988268
 21
0.2256097018
 31
0.0
  0
LINE
  5
126
330
1F
100
AcDbEntity
  8
0
  6
Continuous
 62
     1
370
    25
100
AcDbLine
 10
-3.4412115134
 20
0.2796347032
 30
0.0
 11
-3.4261881649
 21
0.279654236
 31
0.0
  0
LINE
  5
127
330
1F
100
AcDbEntity
  8
0
  6
Continuous
 62
     1
370
    25
100
AcDbLine
 10
-3.3990262557
 20
0.253741683
 30
0.0
 11
-3.399023237
 21
0.2517521742
 31
0.0
  0
LINE
  5
128
330
1F
100
AcDbEntity
  8
0
  6
Continuous
 62
     1
370
    25
100
AcDbLine
 10
-3.4259739074
 20
0.2998545336
 30
0.0
 11
-3.4422894067
 21
0.2998545336
 31
0.0
  0
LINE
  5
129
330
1F
100
AcDbEntity
  8
0
  6
Continuous
 62
     1
370
    25
100
AcDbLine
 10
-3.45237606
 20
0.2049377038
 30
0.0
 11
-3.4251841768
 21
0.1993896663
 31
0.0
  0
LINE
  5
12A
330
1F
100
AcDbEntity
  8
0
  6
Continuous
 62
     1
370
    25
100
AcDbLine
 10
-3.4273194716
 20
0.1533334964
 30
0.0
 11
-3.4398752539
 21
0.153109508
 31
0.0
  0
LINE
  5
12B
330
1F
100
AcDbEntity
  8
0
  6
Continuous
 62
     1
370
    25
100
AcDbLine
 10
-3.4398752539
 20
0.153109508
 30
0.0
 11
-3.4411321035
 21
0.153109508
 31
0.0
  0
LINE
  5
12C
330
1F
100
AcDbEntity
  8
0
  6
Continuous
 62
     1
370
    25
100
AcDbLine
 10
-3.4436480757
 20
0.132568167
 30
0.0
 11
-3.4421375832
 21
0.1325682025
 31
0.0
  0
LINE
  5
12D
330
1F
100
AcDbEntity
  8
0
  6
Continuous
 62
     1
370
    25
100
AcDbLine
 10
-3.4421375832
 20
0.1325682025
 30
0.0
 11
-3.425938038
 21
0.1333569387
 31
0.0
  0
LINE
  5
12E
330
1F
100
AcDbEntity
  8
0
  6
Continuous
 62
     1
370
    25
100
AcDbLine
 10
-3.3008727984
 20
0.132568167
 30
0.0
 11
-3.2583045195
 21
0.1325682025
 31
0.0
  0
LINE
  5
12F
330
1F
100
AcDbEntity
  8
0
  6
Continuous
 62
     1
370
    25
100
AcDbLine
 10
-3.2431226354
 20
0.1470420744
 30
0.0
 11
-3.2431225998
 21
0.2852863004
 31
0.0
  0
LINE
  5
130
330
1F
100
AcDbEntity
  8
0
  6
Continuous
 62
     1
370
    25
100
AcDbLine
 10
-3.263778865
 20
0.2862534247
 30
0.0
 11
-3.263778865
 21
0.2300306944
 31
0.0
  0
LINE
  5
131
330
1F
100
AcDbEntity
  8
0
  6
Continuous
 62
     1
370
    25
100
AcDbLine
 10
-3.263778865
 20
0.2300306944
 30
0.0
 11
-3.2860342662
 21
0.2300306944
 31
0.0
  0
LINE
  5
132
330
1F
100
AcDbEntity
  8
0
  6
Continuous
 62
     1
370
    25
100
AcDbLine
 10
-3.2860342662
 20
0.2300306944
 30
0.0
 11
-3.3327956782
 21
0.2932505861
 31
0.0
  0
LINE
  5
133
330
1F
100
AcDbEntity
  8
0
  6
Continuous
 62
     1
370
    25
100
AcDbLine
 10
-3.3492767449
 20
0.2810530007
 30
0.0
 11
-3.3116151871
 21
0.2292929922
 31
0.0
  0
LINE
  5
134
330
1F
100
AcDbEntity
  8
0
  6
Continuous
 62
     1
370
    25
100
AcDbLine
 10
-3.1688256686
 20
0.132568167
 30
0.0
 11
-3.1688098293
 21
0.1325682025
 31
0.0
  0
LINE
  5
135
330
1F
100
AcDbEntity
  8
0
  6
Continuous
 62
     1
370
    25
100
AcDbLine
 10
3.3397123288
 20
0.1532244676
 30
0.0
 11
3.3116959465
 21
0.1532244676
 31
0.0
  0
LINE
  5
136
330
1F
100
AcDbEntity
  8
0
  6
Continuous
 62
     1
370
    25
100
AcDbLine
 10
3.3397123288
 20
0.279198304
 30
0.0
 11
3.3397123288
 21
0.1532244676
 31
0.0
  0
LINE
  5
137
330
1F
100
AcDbEntity
  8
0
  6
Continuous
 62
     1
370
    25
100
AcDbLine
 10
3.3119282453
 20
0.279198304
 30
0.0
 11
3.3397123288
 21
0.279198304
 31
0.0
  0
LINE
  5
138
330
1F
100
AcDbEntity
  8
0
  6
Continuous
 62
     1
370
    25
100
AcDbLine
 10
-3.2998545336
 20
0.2093744292
 30
0.0
 11
-3.263778865
 21
0.2093744292
 31
0.0
  0
LINE
  5
139
330
1F
100
AcDbEntity
  8
0
  6
Continuous
 62
     1
370
    25
100
AcDbLine
 10
-3.263778865
 20
0.2093744292
 30
0.0
 11
-3.263778865
 21
0.1532244676
 31
0.0
  0
LINE
  5
13A
330
1F
100
AcDbEntity
  8
0
  6
Continuous
 62
     1
370
    25
100
AcDbLine
 10
-3.263778865
 20
0.1532244676
 30
0.0
 11
-3.3016386279
 21
0.1532244676
 31
0.0
  0
MTEXT
  5
13C
330
1F
100
AcDbEntity
  8
0
  6
Continuous
 62
     7
100
AcDbMText
 10
-3.84375
 20
-0.0401404091
 30
0.0
 40
0.1903
 41
0.0
 46
0.0
 71
     1
 72
     1
  1
SOLIDWORKS Educational Product.
  7
SLDTEXTSTYLE0
 73
     1
 44
1.0
  0
MTEXT
  5
13D
330
1F
100
AcDbEntity
  8
0
  6
Continuous
 62
     7
100
AcDbMText
 10
-3.84375
 20
-0.3255904091
 30
0.0
 40
0.1903
 41
0.0
 46
0.0
 71
     1
 72
     1
  1
For Instructional Use Only.
  7
SLDTEXTSTYLE0
 73
     1
 44
1.0
  0
ENDSEC
  0
SECTION
  2
OBJECTS
  0
DICTIONARY
  5
C
330
0
100
AcDbDictionary
281
     1
  3
ACAD_DETAILVIEWSTYLE
350
145
  3
ACAD_GROUP
350
D
  3
ACAD_LAYOUT
350
1A
  3
ACAD_MATERIAL
350
43
  3
ACAD_MLEADERSTYLE
350
6B
  3
ACAD_MLINESTYLE
350
17
  3
ACAD_PLOTSETTINGS
350
19
  3
ACAD_PLOTSTYLENAME
350
E
  3
ACAD_SCALELIST
350
47
  3
ACAD_SECTIONVIEWSTYLE
350
146
  3
ACAD_TABLESTYLE
350
69
  3
ACAD_VISUALSTYLE
350
2A
  3
ACDB_RECOMPOSE_DATA
350
142
  3
AcDbVariableDictionary
350
13E
  0
SUN
  5
6D
330
29
100
AcDbSun
 90
        1
290
     0
 63
     7
421
 16777215
 40
1.0
291
     1
 91
  2455826
 92
 54000000
292
     0
 70
     2
 71
   256
280
     1
  0
DICTIONARY
  5
145
102
{ACAD_REACTORS
330
C
102
}
330
C
100
AcDbDictionary
281
     1
  0
DICTIONARY
  5
D
102
{ACAD_REACTORS
330
C
102
}
330
C
100
AcDbDictionary
281
     1
  0
DICTIONARY
  5
1A
102
{ACAD_REACTORS
330
C
102
}
330
C
100
AcDbDictionary
281
     1
  3
Layout1
350
1E
  3
Layout2
350
26
  3
Model
350
22
  0
DICTIONARY
  5
43
102
{ACAD_REACTORS
330
C
102
}
330
C
100
AcDbDictionary
281
     1
  3
ByBlock
350
45
  3
ByLayer
350
44
  3
Global
350
46
  0
DICTIONARY
  5
6B
102
{ACAD_REACTORS
330
C
102
}
330
C
100
AcDbDictionary
281
     1
  3
Standard
350
6C
  0
DICTIONARY
  5
17
102
{ACAD_REACTORS
330
C
102
}
330
C
100
AcDbDictionary
281
     1
  3
Standard
350
18
  0
DICTIONARY
  5
19
102
{ACAD_REACTORS
330
C
102
}
330
C
100
AcDbDictionary
281
     1
  0
ACDBDICTIONARYWDFLT
  5
E
102
{ACAD_REACTORS
330
C
102
}
330
C
100
AcDbDictionary
281
     1
  3
Normal
350
F
100
AcDbDictionaryWithDefault
340
F
  0
DICTIONARY
  5
47
102
{ACAD_REACTORS
330
C
102
}
330
C
100
AcDbDictionary
281
     1
  3
A0
350
48
  3
A1
350
49
  3
A2
350
4A
  3
A3
350
4B
  3
A4
350
4C
  3
A5
350
4D
  3
A6
350
4E
  3
A7
350
4F
  3
A8
350
50
  3
A9
350
51
  3
B0
350
52
  3
B1
350
53
  3
B2
350
54
  3
B3
350
55
  3
B4
350
56
  3
B5
350
57
  3
B6
350
58
  3
B7
350
59
  3
B8
350
5A
  3
B9
350
5B
  3
C0
350
5C
  3
C1
350
5D
  3
C2
350
5E
  3
C3
350
5F
  3
C4
350
60
  3
C5
350
61
  3
C6
350
62
  3
C7
350
63
  3
C8
350
64
  3
C9
350
65
  3
D0
350
66
  3
D1
350
67
  3
D2
350
68
  0
DICTIONARY
  5
146
102
{ACAD_REACTORS
330
C
102
}
330
C
100
AcDbDictionary
281
     1
  0
DICTIONARY
  5
69
102
{ACAD_REACTORS
330
C
102
}
330
C
100
AcDbDictionary
281
     1
  3
Standard
350
6A
  0
DICTIONARY
  5
2A
102
{ACAD_REACTORS
330
C
102
}
330
C
100
AcDbDictionary
281
     1
  3
2dWireframe
350
2F
  3
Basic
350
32
  3
Brighten
350
36
  3
ColorChange
350
3A
  3
Conceptual
350
34
  3
Dim
350
35
  3
EdgeColorOff
350
3D
  3
Facepattern
350
39
  3
Flat
350
2B
  3
FlatWithEdges
350
2C
  3
Gouraud
350
2D
  3
GouraudWithEdges
350
2E
  3
Hidden
350
31
  3
JitterOff
350
3B
  3
Linepattern
350
38
  3
OverhangOff
350
3C
  3
Realistic
350
33
  3
Shaded
350
42
  3
Shaded with edges
350
41
  3
Shades of Gray
350
3E
  3
Sketchy
350
3F
  3
Thicken
350
37
  3
Wireframe
350
30
  3
X-Ray
350
40
  0
XRECORD
  5
142
102
{ACAD_REACTORS
330
C
102
}
330
C
100
AcDbXrecord
280
     1
 90
        1
330
6A
  0
DICTIONARY
  5
13E
102
{ACAD_REACTORS
330
C
102
}
330
C
100
AcDbDictionary
281
     1
  3
CANNOSCALE
350
13F
  3
CMLEADERSTYLE
350
144
  3
CTABLESTYLE
350
143
  0
LAYOUT
  5
1E
102
{ACAD_REACTORS
330
1A
102
}
330
1A
100
AcDbPlotSettings
  1

  2
none_device
  4

  6

 40
0.0
 41
0.0
 42
0.0
 43
0.0
 44
0.0
 45
0.0
 46
0.0
 47
0.0
 48
0.0
 49
0.0
140
0.0
141
0.0
142
1.0
143
1.0
 70
   688
 72
     0
 73
     0
 74
     5
  7

 75
    16
 76
     0
 77
     2
 78
   300
147
1.0
148
0.0
149
0.0
100
AcDbLayout
  1
Layout1
 70
     1
 71
     1
 10
0.0
 20
0.0
 11
12.0
 21
9.0
 12
0.0
 22
0.0
 32
0.0
 14
1.0000000000E+20
 24
1.0000000000E+20
 34
1.0000000000E+20
 15
-1.0000000000E+20
 25
-1.0000000000E+20
 35
-1.0000000000E+20
146
0.0
 13
0.0
 23
0.0
 33
0.0
 16
1.0
 26
0.0
 36
0.0
 17
0.0
 27
1.0
 37
0.0
 76
     0
330
1B
  0
LAYOUT
  5
26
102
{ACAD_REACTORS
330
1A
102
}
330
1A
100
AcDbPlotSettings
  1

  2
none_device
  4

  6

 40
0.0
 41
0.0
 42
0.0
 43
0.0
 44
0.0
 45
0.0
 46
0.0
 47
0.0
 48
0.0
 49
0.0
140
0.0
141
0.0
142
1.0
143
1.0
 70
   688
 72
     0
 73
     0
 74
     5
  7

 75
    16
 76
     0
 77
     2
 78
   300
147
1.0
148
0.0
149
0.0
100
AcDbLayout
  1
Layout2
 70
     1
 71
     2
 10
0.0
 20
0.0
 11
0.0
 21
0.0
 12
0.0
 22
0.0
 32
0.0
 14
0.0
 24
0.0
 34
0.0
 15
0.0
 25
0.0
 35
0.0
146
0.0
 13
0.0
 23
0.0
 33
0.0
 16
1.0
 26
0.0
 36
0.0
 17
0.0
 27
1.0
 37
0.0
 76
     0
330
23
  0
LAYOUT
  5
22
102
{ACAD_REACTORS
330
1A
102
}
330
1A
100
AcDbPlotSettings
  1

  2
none_device
  4
ANSI_A_(11.00_x_8.50_Inches)
  6

 40
6.35
 41
19.05
 42
6.35000508
 43
19.05000254
 44
279.4
 45
215.9
 46
133.34999746
 47
57.056576291
 48
0.0
 49
0.0
140
0.0
141
0.0
142
1.4165853659
143
1.0
 70
  1696
 72
     0
 73
     0
 74
     0
  7

 75
     0
 76
     0
 77
     2
 78
   300
147
0.5913241897
148
-39.4088153714
149
0.0
100
AcDbLayout
  1
Model
 70
     1
 71
     0
 10
0.0
 20
0.0
 11
12.0
 21
9.0
 12
0.0
 22
0.0
 32
0.0
 14
-3.84375
 24
0.0
 34
0.0
 15
3.84375
 25
1.77
 35
0.0
146
0.0
 13
0.0
 23
0.0
 33
0.0
 16
1.0
 26
0.0
 36
0.0
 17
0.0
 27
1.0
 37
0.0
 76
     0
330
1F
331
29
  0
MATERIAL
  5
45
102
{ACAD_REACTORS
330
43
102
}
330
43
100
AcDbMaterial
  1
ByBlock
 72
     1
 94
      127
  0
MATERIAL
  5
44
102
{ACAD_REACTORS
330
43
102
}
330
43
100
AcDbMaterial
  1
ByLayer
 72
     1
 94
      127
  0
MATERIAL
  5
46
102
{ACAD_REACTORS
330
43
102
}
330
43
100
AcDbMaterial
  1
Global
 72
     1
 94
      127
  0
MLEADERSTYLE
  5
6C
102
{ACAD_REACTORS
330
6B
102
}
330
6B
100
AcDbMLeaderStyle
179
     2
170
     2
171
     1
172
     0
 90
        2
 40
0.0
 41
0.0
173
     1
 91
-1056964608
340
14
 92
       -2
290
     1
 42
0.09
291
     1
 43
0.36
  3
Standard
341
0
 44
0.18
300

342
11
174
     1
178
     6
175
     1
176
     0
 93
-1056964608
 45
0.18
292
     0
297
     0
 46
0.18
343
0
 94
-1056964608
 47
1.0
 49
1.0
140
1.0
293
     1
141
0.0
294
     1
177
     0
142
1.0
295
     0
296
     0
143
0.125
271
     0
272
     9
273
     9
298
     0
  0
MLINESTYLE
  5
18
102
{ACAD_REACTORS
330
17
102
}
330
17
100
AcDbMlineStyle
  2
Standard
 70
     0
  3

 62
   256
 51
90.0
 52
90.0
 71
     2
 49
0.5
 62
   256
  6
BYLAYER
 49
-0.5
 62
   256
  6
BYLAYER
  0
ACDBPLACEHOLDER
  5
F
102
{ACAD_REACTORS
330
E
102
}
330
E
  0
SCALE
  5
48
102
{ACAD_REACTORS
330
47
102
}
330
47
100
AcDbScale
 70
     0
300
1:1
140
1.0
141
1.0
290
     1
  0
SCALE
  5
49
102
{ACAD_REACTORS
330
47
102
}
330
47
100
AcDbScale
 70
     0
300
1:2
140
1.0
141
2.0
290
     0
  0
SCALE
  5
4A
102
{ACAD_REACTORS
330
47
102
}
330
47
100
AcDbScale
 70
     0
300
1:4
140
1.0
141
4.0
290
     0
  0
SCALE
  5
4B
102
{ACAD_REACTORS
330
47
102
}
330
47
100
AcDbScale
 70
     0
300
1:5
140
1.0
141
5.0
290
     0
  0
SCALE
  5
4C
102
{ACAD_REACTORS
330
47
102
}
330
47
100
AcDbScale
 70
     0
300
1:8
140
1.0
141
8.0
290
     0
  0
SCALE
  5
4D
102
{ACAD_REACTORS
330
47
102
}
330
47
100
AcDbScale
 70
     0
300
1:10
140
1.0
141
10.0
290
     0
  0
SCALE
  5
4E
102
{ACAD_REACTORS
330
47
102
}
330
47
100
AcDbScale
 70
     0
300
1:16
140
1.0
141
16.0
290
     0
  0
SCALE
  5
4F
102
{ACAD_REACTORS
330
47
102
}
330
47
100
AcDbScale
 70
     0
300
1:20
140
1.0
141
20.0
290
     0
  0
SCALE
  5
50
102
{ACAD_REACTORS
330
47
102
}
330
47
100
AcDbScale
 70
     0
300
1:30
140
1.0
141
30.0
290
     0
  0
SCALE
  5
51
102
{ACAD_REACTORS
330
47
102
}
330
47
100
AcDbScale
 70
     0
300
1:40
140
1.0
141
40.0
290
     0
  0
SCALE
  5
52
102
{ACAD_REACTORS
330
47
102
}
330
47
100
AcDbScale
 70
     0
300
1:50
140
1.0
141
50.0
290
     0
  0
SCALE
  5
53
102
{ACAD_REACTORS
330
47
102
}
330
47
100
AcDbScale
 70
     0
300
1:100
140
1.0
141
100.0
290
     0
  0
SCALE
  5
54
102
{ACAD_REACTORS
330
47
102
}
330
47
100
AcDbScale
 70
     0
300
2:1
140
2.0
141
1.0
290
     0
  0
SCALE
  5
55
102
{ACAD_REACTORS
330
47
102
}
330
47
100
AcDbScale
 70
     0
300
4:1
140
4.0
141
1.0
290
     0
  0
SCALE
  5
56
102
{ACAD_REACTORS
330
47
102
}
330
47
100
AcDbScale
 70
     0
300
8:1
140
8.0
141
1.0
290
     0
  0
SCALE
  5
57
102
{ACAD_REACTORS
330
47
102
}
330
47
100
AcDbScale
 70
     0
300
10:1
140
10.0
141
1.0
290
     0
  0
SCALE
  5
58
102
{ACAD_REACTORS
330
47
102
}
330
47
100
AcDbScale
 70
     0
300
100:1
140
100.0
141
1.0
290
     0
  0
SCALE
  5
59
102
{ACAD_REACTORS
330
47
102
}
330
47
100
AcDbScale
 70
     0
300
1/128" = 1'-0"
140
0.0078125
141
12.0
290
     0
  0
SCALE
  5
5A
102
{ACAD_REACTORS
330
47
102
}
330
47
100
AcDbScale
 70
     0
300
1/64" = 1'-0"
140
0.015625
141
12.0
290
     0
  0
SCALE
  5
5B
102
{ACAD_REACTORS
330
47
102
}
330
47
100
AcDbScale
 70
     0
300
1/32" = 1'-0"
140
0.03125
141
12.0
290
     0
  0
SCALE
  5
5C
102
{ACAD_REACTORS
330
47
102
}
330
47
100
AcDbScale
 70
     0
300
1/16" = 1'-0"
140
0.0625
141
12.0
290
     0
  0
SCALE
  5
5D
102
{ACAD_REACTORS
330
47
102
}
330
47
100
AcDbScale
 70
     0
300
3/32" = 1'-0"
140
0.09375
141
12.0
290
     0
  0
SCALE
  5
5E
102
{ACAD_REACTORS
330
47
102
}
330
47
100
AcDbScale
 70
     0
300
1/8" = 1'-0"
140
0.125
141
12.0
290
     0
  0
SCALE
  5
5F
102
{ACAD_REACTORS
330
47
102
}
330
47
100
AcDbScale
 70
     0
300
3/16" = 1'-0"
140
0.1875
141
12.0
290
     0
  0
SCALE
  5
60
102
{ACAD_REACTORS
330
47
102
}
330
47
100
AcDbScale
 70
     0
300
1/4" = 1'-0"
140
0.25
141
12.0
290
     0
  0
SCALE
  5
61
102
{ACAD_REACTORS
330
47
102
}
330
47
100
AcDbScale
 70
     0
300
3/8" = 1'-0"
140
0.375
141
12.0
290
     0
  0
SCALE
  5
62
102
{ACAD_REACTORS
330
47
102
}
330
47
100
AcDbScale
 70
     0
300
1/2" = 1'-0"
140
0.5
141
12.0
290
     0
  0
SCALE
  5
63
102
{ACAD_REACTORS
330
47
102
}
330
47
100
AcDbScale
 70
     0
300
3/4" = 1'-0"
140
0.75
141
12.0
290
     0
  0
SCALE
  5
64
102
{ACAD_REACTORS
330
47
102
}
330
47
100
AcDbScale
 70
     0
300
1" = 1'-0"
140
1.0
141
12.0
290
     0
  0
SCALE
  5
65
102
{ACAD_REACTORS
330
47
102
}
330
47
100
AcDbScale
 70
     0
300
1-1/2" = 1'-0"
140
1.5
141
12.0
290
     0
  0
SCALE
  5
66
102
{ACAD_REACTORS
330
47
102
}
330
47
100
AcDbScale
 70
     0
300
3" = 1'-0"
140
3.0
141
12.0
290
     0
  0
SCALE
  5
67
102
{ACAD_REACTORS
330
47
102
}
330
47
100
AcDbScale
 70
     0
300
6" = 1'-0"
140
6.0
141
12.0
290
     0
  0
SCALE
  5
68
102
{ACAD_REACTORS
330
47
102
}
330
47
100
AcDbScale
 70
     0
300
1'-0" = 1'-0"
140
12.0
141
12.0
290
     0
  0
TABLESTYLE
  5
6A
102
{ACAD_REACTORS
330
69
102
}
102
{ACAD_XDICTIONARY
360
140
102
}
330
69
100
AcDbTableStyle
  3
Standard
 70
     0
 71
     0
 40
0.06
 41
0.06
280
     0
281
     0
  7
STANDARD
140
0.18
170
     2
 62
     0
 63
   257
283
     0
 90
        4
 91
        0
  1

274
    -2
284
     1
 64
     0
275
    -2
285
     1
 65
     0
276
    -2
286
     1
 66
     0
277
    -2
287
     1
 67
     0
278
    -2
288
     1
 68
     0
279
    -2
289
     1
 69
     0
  7
STANDARD
140
0.25
170
     5
 62
     0
 63
   257
283
     0
 90
        4
 91
        0
  1

274
    -2
284
     1
 64
     0
275
    -2
285
     1
 65
     0
276
    -2
286
     1
 66
     0
277
    -2
287
     1
 67
     0
278
    -2
288
     1
 68
     0
279
    -2
289
     1
 69
     0
  7
STANDARD
140
0.18
170
     5
 62
     0
 63
   257
283
     0
 90
        4
 91
        0
  1

274
    -2
284
     1
 64
     0
275
    -2
285
     1
 65
     0
276
    -2
286
     1
 66
     0
277
    -2
287
     1
 67
     0
278
    -2
288
     1
 68
     0
279
    -2
289
     1
 69
     0
  0
VISUALSTYLE
  5
2F
102
{ACAD_REACTORS
330
2A
102
}
330
2A
100
AcDbVisualStyle
  2
2dWireframe
 70
     4
177
     3
291
     0
 70
    58
 90
        0
176
     1
 90
        2
176
     1
 90
        0
176
     1
 90
        0
176
     1
 40
0.6
176
     1
 40
30.0
176
     1
 62
     7
420
 16777215
176
     1
 90
        1
176
     1
 90
        4
176
     1
 62
     7
176
     1
 62
   257
176
     1
 90
        1
176
     1
 90
        1
176
     1
 40
1.0
176
     1
 90
        0
176
     1
 62
   257
176
     1
 40
1.0
176
     1
 90
        1
176
     1
 90
        6
176
     1
 90
        2
176
     1
 62
     7
176
     1
 90
        5
176
     1
 90
        0
176
     1
 90
        0
176
     1
290
     0
176
     1
 90
        1
176
     1
 40
0.0
176
     1
 90
        0
176
     1
290
     1
176
     1
290
     1
176
     1
290
     0
176
     1
290
     0
176
     1
290
     0
176
     1
290
     0
176
     1
290
     0
176
     1
290
     0
176
     1
290
     0
176
     1
 90
       50
176
     1
 40
0.0
176
     1
 40
1.0
176
     1
 90
        0
176
     1
 62
    18
420
        0
176
     1
 90
       50
176
     1
 90
        3
176
     1
 62
     5
420
      255
176
     1
290
     0
176
     1
 90
       50
176
     1
 90
       50
176
     1
 90
       50
176
     1
290
     0
176
     1
 90
       50
176
     1
 62
   256
176
     0
 40
1.0
176
     0
 90
        2
176
     1
  1
strokes_ogs.tif
176
     1
290
     0
176
     1
 40
1.0
176
     1
 40
1.0
176
     1
  0
VISUALSTYLE
  5
32
102
{ACAD_REACTORS
330
2A
102
}
330
2A
100
AcDbVisualStyle
  2
Basic
 70
     7
177
     3
291
     1
 70
    58
 90
        1
176
     1
 90
        0
176
     1
 90
        1
176
     1
 90
        0
176
     1
 40
0.6
176
     1
 40
30.0
176
     1
 62
     7
420
 16777215
176
     1
 90
        0
176
     1
 90
        4
176
     1
 62
     7
176
     1
 62
   257
176
     1
 90
        1
176
     1
 90
        1
176
     1
 40
1.0
176
     1
 90
        8
176
     1
 62
     7
176
     1
 40
1.0
176
     1
 90
        1
176
     1
 90
        6
176
     1
 90
        2
176
     1
 62
     7
176
     1
 90
        5
176
     1
 90
        0
176
     1
 90
        0
176
     1
290
     0
176
     1
 90
        1
176
     1
 40
0.0
176
     1
 90
        0
176
     1
290
     0
176
     1
290
     1
176
     1
290
     1
176
     1
290
     0
176
     1
290
     0
176
     1
290
     0
176
     1
290
     0
176
     1
290
     0
176
     1
290
     0
176
     1
 90
       50
176
     1
 40
0.0
176
     1
 40
1.0
176
     1
 90
        0
176
     1
 62
    18
420
        0
176
     1
 90
       50
176
     1
 90
        3
176
     1
 62
     5
420
      255
176
     1
290
     0
176
     1
 90
       50
176
     1
 90
       50
176
     1
 90
       50
176
     1
290
     0
176
     1
 90
       50
176
     1
 62
   256
176
     0
 40
1.0
176
     0
 90
        2
176
     1
  1
strokes_ogs.tif
176
     1
290
     0
176
     1
 40
1.0
176
     1
 40
1.0
176
     1
  0
VISUALSTYLE
  5
36
102
{ACAD_REACTORS
330
2A
102
}
330
2A
100
AcDbVisualStyle
  2
Brighten
 70
    12
177
     3
291
     1
 70
    58
 90
        2
176
     1
 90
        2
176
     1
 90
        0
176
     1
 90
        0
176
     1
 40
0.6
176
     1
 40
30.0
176
     1
 62
     7
420
 16777215
176
     1
 90
        1
176
     1
 90
        4
176
     1
 62
     7
176
     1
 62
   257
176
     1
 90
        1
176
     1
 90
        1
176
     1
 40
1.0
176
     1
 90
        8
176
     1
 62
     7
176
     1
 40
1.0
176
     1
 90
        1
176
     1
 90
        6
176
     1
 90
        2
176
     1
 62
     7
176
     1
 90
        5
176
     1
 90
        0
176
     1
 90
        0
176
     1
290
     0
176
     1
 90
        1
176
     1
 40
50.0
176
     1
 90
        0
176
     1
290
     0
176
     1
290
     1
176
     1
290
     1
176
     1
290
     0
176
     1
290
     0
176
     1
290
     0
176
     1
290
     0
176
     1
290
     0
176
     1
290
     0
176
     1
 90
       50
176
     1
 40
0.0
176
     1
 40
1.0
176
     1
 90
        0
176
     1
 62
    18
420
        0
176
     1
 90
       50
176
     1
 90
        3
176
     1
 62
     5
420
      255
176
     1
290
     0
176
     1
 90
       50
176
     1
 90
       50
176
     1
 90
       50
176
     1
290
     0
176
     1
 90
       50
176
     1
 62
   256
176
     0
 40
1.0
176
     0
 90
        2
176
     1
  1
strokes_ogs.tif
176
     1
290
     0
176
     1
 40
1.0
176
     1
 40
1.0
176
     1
  0
VISUALSTYLE
  5
3A
102
{ACAD_REACTORS
330
2A
102
}
330
2A
100
AcDbVisualStyle
  2
ColorChange
 70
    16
177
     3
291
     1
 70
    58
 90
        2
176
     1
 90
        2
176
     1
 90
        3
176
     1
 90
        0
176
     1
 40
0.6
176
     1
 40
30.0
176
     1
 62
     8
420
  8421504
176
     1
 90
        1
176
     1
 90
        4
176
     1
 62
     7
176
     1
 62
   257
176
     1
 90
        1
176
     1
 90
        1
176
     1
 40
1.0
176
     1
 90
        8
176
     1
 62
     8
420
  8421504
176
     1
 40
1.0
176
     1
 90
        1
176
     1
 90
        6
176
     1
 90
        2
176
     1
 62
     7
176
     1
 90
        5
176
     1
 90
        0
176
     1
 90
        0
176
     1
290
     0
176
     1
 90
        1
176
     1
 40
0.0
176
     1
 90
        0
176
     1
290
     0
176
     1
290
     1
176
     1
290
     1
176
     1
290
     0
176
     1
290
     0
176
     1
290
     0
176
     1
290
     0
176
     1
290
     0
176
     1
290
     0
176
     1
 90
       50
176
     1
 40
0.0
176
     1
 40
1.0
176
     1
 90
        0
176
     1
 62
    18
420
        0
176
     1
 90
       50
176
     1
 90
        3
176
     1
 62
     5
420
      255
176
     1
290
     0
176
     1
 90
       50
176
     1
 90
       50
176
     1
 90
       50
176
     1
290
     0
176
     1
 90
       50
176
     1
 62
   256
176
     0
 40
1.0
176
     0
 90
        2
176
     1
  1
strokes_ogs.tif
176
     1
290
     0
176
     1
 40
1.0
176
     1
 40
1.0
176
     1
  0
VISUALSTYLE
  5
34
102
{ACAD_REACTORS
330
2A
102
}
330
2A
100
AcDbVisualStyle
  2
Conceptual
 70
     9
177
     3
291
     0
 70
    58
 90
        3
176
     1
 90
        2
176
     1
 90
        0
176
     1
 90
        0
176
     1
 40
0.6
176
     1
 40
30.0
176
     1
 62
     7
420
 16777215
176
     1
 90
        2
176
     1
 90
        2
176
     1
 62
     7
176
     1
 62
   257
176
     1
 90
        1
176
     1
 90
        1
176
     1
 40
179.0
176
     1
 90
        8
176
     1
 62
     7
176
     1
 40
1.0
176
     1
 90
        1
176
     1
 90
        6
176
     1
 90
        2
176
     1
 62
     7
176
     1
 90
        3
176
     1
 90
        0
176
     1
 90
        0
176
     1
290
     0
176
     1
 90
        1
176
     1
 40
0.0
176
     1
 90
        0
176
     1
290
     0
176
     1
290
     1
176
     1
290
     1
176
     1
290
     0
176
     1
290
     0
176
     1
290
     0
176
     1
290
     0
176
     1
290
     0
176
     1
290
     0
176
     1
 90
       50
176
     1
 40
0.0
176
     1
 40
1.0
176
     1
 90
        0
176
     1
 62
    18
420
        0
176
     1
 90
       50
176
     1
 90
        3
176
     1
 62
     5
420
      255
176
     1
290
     0
176
     1
 90
       50
176
     1
 90
       50
176
     1
 90
       50
176
     1
290
     0
176
     1
 90
       50
176
     1
 62
   256
176
     0
 40
1.0
176
     0
 90
        2
176
     1
  1
strokes_ogs.tif
176
     1
290
     0
176
     1
 40
1.0
176
     1
 40
1.0
176
     1
  0
VISUALSTYLE
  5
35
102
{ACAD_REACTORS
330
2A
102
}
330
2A
100
AcDbVisualStyle
  2
Dim
 70
    11
177
     3
291
     1
 70
    58
 90
        2
176
     1
 90
        2
176
     1
 90
        0
176
     1
 90
        0
176
     1
 40
0.6
176
     1
 40
30.0
176
     1
 62
     7
420
 16777215
176
     1
 90
        1
176
     1
 90
        4
176
     1
 62
     7
176
     1
 62
   257
176
     1
 90
        1
176
     1
 90
        1
176
     1
 40
1.0
176
     1
 90
        8
176
     1
 62
     7
176
     1
 40
1.0
176
     1
 90
        1
176
     1
 90
        6
176
     1
 90
        2
176
     1
 62
     7
176
     1
 90
        5
176
     1
 90
        0
176
     1
 90
        0
176
     1
290
     0
176
     1
 90
        1
176
     1
 40
-50.0
176
     1
 90
        0
176
     1
290
     0
176
     1
290
     1
176
     1
290
     1
176
     1
290
     0
176
     1
290
     0
176
     1
290
     0
176
     1
290
     0
176
     1
290
     0
176
     1
290
     0
176
     1
 90
       50
176
     1
 40
0.0
176
     1
 40
1.0
176
     1
 90
        0
176
     1
 62
    18
420
        0
176
     1
 90
       50
176
     1
 90
        3
176
     1
 62
     5
420
      255
176
     1
290
     0
176
     1
 90
       50
176
     1
 90
       50
176
     1
 90
       50
176
     1
290
     0
176
     1
 90
       50
176
     1
 62
   256
176
     0
 40
1.0
176
     0
 90
        2
176
     1
  1
strokes_ogs.tif
176
     1
290
     0
176
     1
 40
1.0
176
     1
 40
1.0
176
     1
  0
VISUALSTYLE
  5
3D
102
{ACAD_REACTORS
330
2A
102
}
330
2A
100
AcDbVisualStyle
  2
EdgeColorOff
 70
    22
177
     3
291
     1
 70
    58
 90
        2
176
     0
 90
        2
176
     0
 90
        0
176
     0
 90
        0
176
     0
 40
0.6
176
     0
 40
30.0
176
     0
 62
     7
420
 16777215
176
     0
 90
        1
176
     0
 90
        4
176
     0
 62
     7
176
     0
 62
   257
176
     0
 90
        1
176
     0
 90
        1
176
     0
 40
1.0
176
     0
 90
        8
176
     2
 62
     7
176
     0
 40
1.0
176
     0
 90
        1
176
     0
 90
        6
176
     0
 90
        2
176
     0
 62
     7
176
     0
 90
        5
176
     0
 90
        0
176
     0
 90
        0
176
     0
290
     0
176
     0
 90
        1
176
     0
 40
0.0
176
     0
 90
        0
176
     0
290
     0
176
     0
290
     1
176
     0
290
     1
176
     0
290
     0
176
     0
290
     0
176
     0
290
     0
176
     0
290
     0
176
     0
290
     0
176
     0
290
     0
176
     0
 90
       50
176
     0
 40
0.0
176
     0
 40
1.0
176
     0
 90
        0
176
     0
 62
    18
420
        0
176
     0
 90
       50
176
     0
 90
        3
176
     0
 62
     5
420
      255
176
     0
290
     0
176
     0
 90
       50
176
     0
 90
       50
176
     0
 90
       50
176
     0
290
     0
176
     0
 90
       50
176
     0
 62
   256
176
     0
 40
1.0
176
     0
 90
        2
176
     0
  1
strokes_ogs.tif
176
     0
290
     0
176
     0
 40
1.0
176
     0
 40
1.0
176
     0
  0
VISUALSTYLE
  5
39
102
{ACAD_REACTORS
330
2A
102
}
330
2A
100
AcDbVisualStyle
  2
Facepattern
 70
    15
177
     3
291
     1
 70
    58
 90
        2
176
     1
 90
        2
176
     1
 90
        0
176
     1
 90
        0
176
     1
 40
0.6
176
     1
 40
30.0
176
     1
 62
     7
420
 16777215
176
     1
 90
        1
176
     1
 90
        4
176
     1
 62
     7
176
     1
 62
   257
176
     1
 90
        1
176
     1
 90
        1
176
     1
 40
1.0
176
     1
 90
        8
176
     1
 62
     7
176
     1
 40
1.0
176
     1
 90
        1
176
     1
 90
        6
176
     1
 90
        2
176
     1
 62
     7
176
     1
 90
        5
176
     1
 90
        0
176
     1
 90
        0
176
     1
290
     0
176
     1
 90
        1
176
     1
 40
0.0
176
     1
 90
        0
176
     1
290
     0
176
     1
290
     1
176
     1
290
     1
176
     1
290
     0
176
     1
290
     0
176
     1
290
     0
176
     1
290
     0
176
     1
290
     0
176
     1
290
     0
176
     1
 90
       50
176
     1
 40
0.0
176
     1
 40
1.0
176
     1
 90
        0
176
     1
 62
    18
420
        0
176
     1
 90
       50
176
     1
 90
        3
176
     1
 62
     5
420
      255
176
     1
290
     0
176
     1
 90
       50
176
     1
 90
       50
176
     1
 90
       50
176
     1
290
     0
176
     1
 90
       50
176
     1
 62
   256
176
     0
 40
1.0
176
     0
 90
        2
176
     1
  1
strokes_ogs.tif
176
     1
290
     0
176
     1
 40
1.0
176
     1
 40
1.0
176
     1
  0
VISUALSTYLE
  5
2B
102
{ACAD_REACTORS
330
2A
102
}
330
2A
100
AcDbVisualStyle
  2
Flat
 70
     0
177
     3
291
     1
 70
    58
 90
        2
176
     1
 90
        1
176
     1
 90
        1
176
     1
 90
        2
176
     1
 40
0.6
176
     1
 40
30.0
176
     1
 62
     7
420
 16777215
176
     1
 90
        0
176
     1
 90
        0
176
     1
 62
     7
176
     1
 62
   257
176
     1
 90
        1
176
     1
 90
        1
176
     1
 40
1.0
176
     1
 90
        8
176
     1
 62
     7
176
     1
 40
1.0
176
     1
 90
        1
176
     1
 90
        6
176
     1
 90
        2
176
     1
 62
     7
176
     1
 90
        5
176
     1
 90
        0
176
     1
 90
        0
176
     1
290
     0
176
     1
 90
       13
176
     1
 40
0.0
176
     1
 90
        0
176
     1
290
     0
176
     1
290
     1
176
     1
290
     1
176
     1
290
     0
176
     1
290
     0
176
     1
290
     0
176
     1
290
     0
176
     1
290
     0
176
     1
290
     0
176
     1
 90
       50
176
     1
 40
0.0
176
     1
 40
1.0
176
     1
 90
        0
176
     1
 62
    18
420
        0
176
     1
 90
       50
176
     1
 90
        3
176
     1
 62
     5
420
      255
176
     1
290
     0
176
     1
 90
       50
176
     1
 90
       50
176
     1
 90
       50
176
     1
290
     0
176
     1
 90
       50
176
     1
 62
   256
176
     0
 40
1.0
176
     0
 90
        2
176
     1
  1
strokes_ogs.tif
176
     1
290
     0
176
     1
 40
1.0
176
     1
 40
1.0
176
     1
  0
VISUALSTYLE
  5
2C
102
{ACAD_REACTORS
330
2A
102
}
330
2A
100
AcDbVisualStyle
  2
FlatWithEdges
 70
     1
177
     3
291
     1
 70
    58
 90
        2
176
     1
 90
        1
176
     1
 90
        1
176
     1
 90
        2
176
     1
 40
0.6
176
     1
 40
30.0
176
     1
 62
     7
420
 16777215
176
     1
 90
        1
176
     1
 90
        0
176
     1
 62
     7
176
     1
 62
   257
176
     1
 90
        1
176
     1
 90
        1
176
     1
 40
1.0
176
     1
 90
        0
176
     1
 62
   257
176
     1
 40
1.0
176
     1
 90
        1
176
     1
 90
        6
176
     1
 90
        2
176
     1
 62
     7
176
     1
 90
        5
176
     1
 90
        0
176
     1
 90
        0
176
     1
290
     0
176
     1
 90
       13
176
     1
 40
0.0
176
     1
 90
        0
176
     1
290
     0
176
     1
290
     1
176
     1
290
     1
176
     1
290
     0
176
     1
290
     0
176
     1
290
     0
176
     1
290
     0
176
     1
290
     0
176
     1
290
     0
176
     1
 90
       50
176
     1
 40
0.0
176
     1
 40
1.0
176
     1
 90
        0
176
     1
 62
    18
420
        0
176
     1
 90
       50
176
     1
 90
        3
176
     1
 62
     5
420
      255
176
     1
290
     0
176
     1
 90
       50
176
     1
 90
       50
176
     1
 90
       50
176
     1
290
     0
176
     1
 90
       50
176
     1
 62
   256
176
     0
 40
1.0
176
     0
 90
        2
176
     1
  1
strokes_ogs.tif
176
     1
290
     0
176
     1
 40
1.0
176
     1
 40
1.0
176
     1
  0
VISUALSTYLE
  5
2D
102
{ACAD_REACTORS
330
2A
102
}
330
2A
100
AcDbVisualStyle
  2
Gouraud
 70
     2
177
     3
291
     1
 70
    58
 90
        2
176
     1
 90
        2
176
     1
 90
        1
176
     1
 90
        2
176
     1
 40
0.6
176
     1
 40
30.0
176
     1
 62
     7
420
 16777215
176
     1
 90
        0
176
     1
 90
        0
176
     1
 62
     7
176
     1
 62
   257
176
     1
 90
        1
176
     1
 90
        1
176
     1
 40
1.0
176
     1
 90
        0
176
     1
 62
     7
176
     1
 40
1.0
176
     1
 90
        1
176
     1
 90
        6
176
     1
 90
        2
176
     1
 62
     7
176
     1
 90
        5
176
     1
 90
        0
176
     1
 90
        0
176
     1
290
     0
176
     1
 90
       13
176
     1
 40
0.0
176
     1
 90
        0
176
     1
290
     0
176
     1
290
     1
176
     1
290
     1
176
     1
290
     0
176
     1
290
     0
176
     1
290
     0
176
     1
290
     0
176
     1
290
     0
176
     1
290
     0
176
     1
 90
       50
176
     1
 40
0.0
176
     1
 40
1.0
176
     1
 90
        0
176
     1
 62
    18
420
        0
176
     1
 90
       50
176
     1
 90
        3
176
     1
 62
     5
420
      255
176
     1
290
     0
176
     1
 90
       50
176
     1
 90
       50
176
     1
 90
       50
176
     1
290
     0
176
     1
 90
       50
176
     1
 62
   256
176
     0
 40
1.0
176
     0
 90
        2
176
     1
  1
strokes_ogs.tif
176
     1
290
     0
176
     1
 40
1.0
176
     1
 40
1.0
176
     1
  0
VISUALSTYLE
  5
2E
102
{ACAD_REACTORS
330
2A
102
}
330
2A
100
AcDbVisualStyle
  2
GouraudWithEdges
 70
     3
177
     3
291
     1
 70
    58
 90
        2
176
     1
 90
        2
176
     1
 90
        1
176
     1
 90
        2
176
     1
 40
0.6
176
     1
 40
30.0
176
     1
 62
     7
420
 16777215
176
     1
 90
        1
176
     1
 90
        0
176
     1
 62
     7
176
     1
 62
   257
176
     1
 90
        1
176
     1
 90
        1
176
     1
 40
1.0
176
     1
 90
        0
176
     1
 62
   257
176
     1
 40
1.0
176
     1
 90
        1
176
     1
 90
        6
176
     1
 90
        2
176
     1
 62
     7
176
     1
 90
        5
176
     1
 90
        0
176
     1
 90
        0
176
     1
290
     0
176
     1
 90
       13
176
     1
 40
0.0
176
     1
 90
        0
176
     1
290
     0
176
     1
290
     1
176
     1
290
     1
176
     1
290
     0
176
     1
290
     0
176
     1
290
     0
176
     1
290
     0
176
     1
290
     0
176
     1
290
     0
176
     1
 90
       50
176
     1
 40
0.0
176
     1
 40
1.0
176
     1
 90
        0
176
     1
 62
    18
420
        0
176
     1
 90
       50
176
     1
 90
        3
176
     1
 62
     5
420
      255
176
     1
290
     0
176
     1
 90
       50
176
     1
 90
       50
176
     1
 90
       50
176
     1
290
     0
176
     1
 90
       50
176
     1
 62
   256
176
     0
 40
1.0
176
     0
 90
        2
176
     1
  1
strokes_ogs.tif
176
     1
290
     0
176
     1
 40
1.0
176
     1
 40
1.0
176
     1
  0
VISUALSTYLE
  5
31
102
{ACAD_REACTORS
330
2A
102
}
330
2A
100
AcDbVisualStyle
  2
Hidden
 70
     6
177
     3
291
     0
 70
    58
 90
        1
176
     1
 90
        2
176
     1
 90
        2
176
     1
 90
        0
176
     1
 40
0.6
176
     1
 40
30.0
176
     1
 62
     7
420
 16777215
176
     1
 90
        2
176
     1
 90
        2
176
     1
 62
     7
176
     1
 62
   257
176
     1
 90
        2
176
     1
 90
        1
176
     1
 40
40.0
176
     1
 90
        0
176
     1
 62
   257
176
     1
 40
1.0
176
     1
 90
        1
176
     1
 90
        6
176
     1
 90
        2
176
     1
 62
     7
176
     1
 90
        3
176
     1
 90
        0
176
     1
 90
        0
176
     1
290
     0
176
     1
 90
        1
176
     1
 40
0.0
176
     1
 90
        0
176
     1
290
     0
176
     1
290
     1
176
     1
290
     1
176
     1
290
     0
176
     1
290
     0
176
     1
290
     0
176
     1
290
     0
176
     1
290
     0
176
     1
290
     0
176
     1
 90
       50
176
     1
 40
0.0
176
     1
 40
1.0
176
     1
 90
        0
176
     1
 62
    18
420
        0
176
     1
 90
       50
176
     1
 90
        3
176
     1
 62
     5
420
      255
176
     1
290
     0
176
     1
 90
       50
176
     1
 90
       50
176
     1
 90
       50
176
     1
290
     0
176
     1
 90
       50
176
     1
 62
   256
176
     0
 40
1.0
176
     0
 90
        2
176
     1
  1
strokes_ogs.tif
176
     1
290
     0
176
     1
 40
1.0
176
     1
 40
1.0
176
     1
  0
VISUALSTYLE
  5
3B
102
{ACAD_REACTORS
330
2A
102
}
330
2A
100
AcDbVisualStyle
  2
JitterOff
 70
    20
177
     3
291
     1
 70
    58
 90
        2
176
     0
 90
        2
176
     0
 90
        0
176
     0
 90
        0
176
     0
 40
0.6
176
     0
 40
30.0
176
     0
 62
     7
420
 16777215
176
     0
 90
        1
176
     0
 90
        4
176
     0
 62
     7
176
     0
 62
   257
176
     0
 90
        1
176
     0
 90
        1
176
     0
 40
1.0
176
     0
 90
       10
176
     2
 62
     7
176
     0
 40
1.0
176
     0
 90
        1
176
     0
 90
        6
176
     0
 90
        2
176
     0
 62
     7
176
     0
 90
        5
176
     0
 90
        0
176
     0
 90
        0
176
     0
290
     0
176
     0
 90
        1
176
     0
 40
0.0
176
     0
 90
        0
176
     0
290
     0
176
     0
290
     1
176
     0
290
     1
176
     0
290
     0
176
     0
290
     0
176
     0
290
     0
176
     0
290
     0
176
     0
290
     0
176
     0
290
     0
176
     0
 90
       50
176
     0
 40
0.0
176
     0
 40
1.0
176
     0
 90
        0
176
     0
 62
    18
420
        0
176
     0
 90
       50
176
     0
 90
        3
176
     0
 62
     5
420
      255
176
     0
290
     0
176
     0
 90
       50
176
     0
 90
       50
176
     0
 90
       50
176
     0
290
     0
176
     0
 90
       50
176
     0
 62
   256
176
     0
 40
1.0
176
     0
 90
        2
176
     0
  1
strokes_ogs.tif
176
     0
290
     0
176
     0
 40
1.0
176
     0
 40
1.0
176
     0
  0
VISUALSTYLE
  5
38
102
{ACAD_REACTORS
330
2A
102
}
330
2A
100
AcDbVisualStyle
  2
Linepattern
 70
    14
177
     3
291
     1
 70
    58
 90
        2
176
     1
 90
        2
176
     1
 90
        0
176
     1
 90
        0
176
     1
 40
0.6
176
     1
 40
30.0
176
     1
 62
     7
420
 16777215
176
     1
 90
        1
176
     1
 90
        4
176
     1
 62
     7
176
     1
 62
   257
176
     1
 90
        7
176
     1
 90
        7
176
     1
 40
1.0
176
     1
 90
        8
176
     1
 62
     7
176
     1
 40
1.0
176
     1
 90
        1
176
     1
 90
        6
176
     1
 90
        2
176
     1
 62
     7
176
     1
 90
        5
176
     1
 90
        0
176
     1
 90
        0
176
     1
290
     0
176
     1
 90
        1
176
     1
 40
0.0
176
     1
 90
        0
176
     1
290
     0
176
     1
290
     1
176
     1
290
     1
176
     1
290
     0
176
     1
290
     0
176
     1
290
     0
176
     1
290
     0
176
     1
290
     0
176
     1
290
     0
176
     1
 90
       50
176
     1
 40
0.0
176
     1
 40
1.0
176
     1
 90
        0
176
     1
 62
    18
420
        0
176
     1
 90
       50
176
     1
 90
        3
176
     1
 62
     5
420
      255
176
     1
290
     0
176
     1
 90
       50
176
     1
 90
       50
176
     1
 90
       50
176
     1
290
     0
176
     1
 90
       50
176
     1
 62
   256
176
     0
 40
1.0
176
     0
 90
        2
176
     1
  1
strokes_ogs.tif
176
     1
290
     0
176
     1
 40
1.0
176
     1
 40
1.0
176
     1
  0
VISUALSTYLE
  5
3C
102
{ACAD_REACTORS
330
2A
102
}
330
2A
100
AcDbVisualStyle
  2
OverhangOff
 70
    21
177
     3
291
     1
 70
    58
 90
        2
176
     0
 90
        2
176
     0
 90
        0
176
     0
 90
        0
176
     0
 40
0.6
176
     0
 40
30.0
176
     0
 62
     7
420
 16777215
176
     0
 90
        1
176
     0
 90
        4
176
     0
 62
     7
176
     0
 62
   257
176
     0
 90
        1
176
     0
 90
        1
176
     0
 40
1.0
176
     0
 90
        9
176
     2
 62
     7
176
     0
 40
1.0
176
     0
 90
        1
176
     0
 90
        6
176
     0
 90
        2
176
     0
 62
     7
176
     0
 90
        5
176
     0
 90
        0
176
     0
 90
        0
176
     0
290
     0
176
     0
 90
        1
176
     0
 40
0.0
176
     0
 90
        0
176
     0
290
     0
176
     0
290
     1
176
     0
290
     1
176
     0
290
     0
176
     0
290
     0
176
     0
290
     0
176
     0
290
     0
176
     0
290
     0
176
     0
290
     0
176
     0
 90
       50
176
     0
 40
0.0
176
     0
 40
1.0
176
     0
 90
        0
176
     0
 62
    18
420
        0
176
     0
 90
       50
176
     0
 90
        3
176
     0
 62
     5
420
      255
176
     0
290
     0
176
     0
 90
       50
176
     0
 90
       50
176
     0
 90
       50
176
     0
290
     0
176
     0
 90
       50
176
     0
 62
   256
176
     0
 40
1.0
176
     0
 90
        2
176
     0
  1
strokes_ogs.tif
176
     0
290
     0
176
     0
 40
1.0
176
     0
 40
1.0
176
     0
  0
VISUALSTYLE
  5
33
102
{ACAD_REACTORS
330
2A
102
}
330
2A
100
AcDbVisualStyle
  2
Realistic
 70
     8
177
     3
291
     0
 70
    58
 90
        2
176
     1
 90
        3
176
     1
 90
        0
176
     1
 90
        2
176
     1
 40
0.6
176
     1
 40
30.0
176
     1
 62
     7
420
 16777215
176
     1
 90
        0
176
     1
 90
        0
176
     1
 62
     7
176
     1
 62
   257
176
     1
 90
        1
176
     1
 90
        1
176
     1
 40
1.0
176
     1
 90
        8
176
     1
 62
   257
176
     1
 40
1.0
176
     1
 90
        1
176
     1
 90
        6
176
     1
 90
        2
176
     1
 62
     7
176
     1
 90
        3
176
     1
 90
        0
176
     1
 90
        0
176
     1
290
     0
176
     1
 90
       13
176
     1
 40
0.0
176
     1
 90
        0
176
     1
290
     0
176
     1
290
     1
176
     1
290
     1
176
     1
290
     0
176
     1
290
     0
176
     1
290
     0
176
     1
290
     0
176
     1
290
     0
176
     1
290
     0
176
     1
 90
       50
176
     1
 40
0.0
176
     1
 40
1.0
176
     1
 90
        0
176
     1
 62
    18
420
        0
176
     1
 90
       50
176
     1
 90
        3
176
     1
 62
     5
420
      255
176
     1
290
     0
176
     1
 90
       50
176
     1
 90
       50
176
     1
 90
       50
176
     1
290
     0
176
     1
 90
       50
176
     1
 62
   256
176
     0
 40
1.0
176
     0
 90
        2
176
     1
  1
strokes_ogs.tif
176
     1
290
     0
176
     1
 40
1.0
176
     1
 40
1.0
176
     1
  0
VISUALSTYLE
  5
42
102
{ACAD_REACTORS
330
2A
102
}
330
2A
100
AcDbVisualStyle
  2
Shaded
 70
    27
177
     3
291
     0
 70
    58
 90
        2
176
     1
 90
        2
176
     1
 90
        1
176
     1
 90
        2
176
     1
 40
0.6
176
     1
 40
30.0
176
     1
 62
     7
420
 16777215
176
     1
 90
        0
176
     1
 90
        4
176
     1
 62
     7
176
     1
 62
   257
176
     1
 90
        1
176
     1
 90
        1
176
     1
 40
1.0
176
     1
 90
        8
176
     1
 62
   257
176
     1
 40
1.0
176
     1
 90
        1
176
     1
 90
        6
176
     1
 90
        2
176
     1
 62
     8
420
  7895160
176
     1
 90
        3
176
     1
 90
        0
176
     1
 90
        0
176
     1
290
     0
176
     1
 90
        5
176
     1
 40
0.0
176
     1
 90
        0
176
     1
290
     0
176
     1
290
     1
176
     1
290
     1
176
     1
290
     0
176
     1
290
     0
176
     1
290
     0
176
     1
290
     0
176
     1
290
     0
176
     1
290
     0
176
     1
 90
       50
176
     1
 40
0.0
176
     1
 40
1.0
176
     1
 90
        0
176
     1
 62
    18
420
        0
176
     1
 90
       50
176
     1
 90
        3
176
     1
 62
     5
420
      255
176
     1
290
     0
176
     1
 90
       50
176
     1
 90
       50
176
     1
 90
       50
176
     1
290
     0
176
     1
 90
       50
176
     1
 62
   256
176
     0
 40
1.0
176
     0
 90
        2
176
     1
  1
strokes_ogs.tif
176
     1
290
     0
176
     1
 40
1.0
176
     1
 40
1.0
176
     1
  0
VISUALSTYLE
  5
41
102
{ACAD_REACTORS
330
2A
102
}
330
2A
100
AcDbVisualStyle
  2
Shaded with edges
 70
    26
177
     3
291
     0
 70
    58
 90
        2
176
     1
 90
        2
176
     1
 90
        1
176
     1
 90
        2
176
     1
 40
0.6
176
     1
 40
30.0
176
     1
 62
     7
420
 16777215
176
     1
 90
        1
176
     1
 90
       10
176
     1
 62
     7
176
     1
 62
   257
176
     1
 90
        2
176
     1
 90
        1
176
     1
 40
1.0
176
     1
 90
        8
176
     1
 62
   257
176
     1
 40
1.0
176
     1
 90
        1
176
     1
 90
        6
176
     1
 90
        2
176
     1
 62
     7
176
     1
 90
        3
176
     1
 90
        0
176
     1
 90
        0
176
     1
290
     0
176
     1
 90
        5
176
     1
 40
0.0
176
     1
 90
        0
176
     1
290
     0
176
     1
290
     1
176
     1
290
     1
176
     1
290
     0
176
     1
290
     0
176
     1
290
     0
176
     1
290
     0
176
     1
290
     0
176
     1
290
     0
176
     1
 90
       50
176
     1
 40
0.0
176
     1
 40
1.0
176
     1
 90
        0
176
     1
 62
    18
420
        0
176
     1
 90
       50
176
     1
 90
        3
176
     1
 62
     5
420
      255
176
     1
290
     0
176
     1
 90
       50
176
     1
 90
       50
176
     1
 90
       50
176
     1
290
     0
176
     1
 90
       50
176
     1
 62
   256
176
     0
 40
1.0
176
     0
 90
        2
176
     1
  1
strokes_ogs.tif
176
     1
290
     0
176
     1
 40
1.0
176
     1
 40
1.0
176
     1
  0
VISUALSTYLE
  5
3E
102
{ACAD_REACTORS
330
2A
102
}
330
2A
100
AcDbVisualStyle
  2
Shades of Gray
 70
    23
177
     3
291
     0
 70
    58
 90
        2
176
     1
 90
        2
176
     1
 90
        3
176
     1
 90
        0
176
     1
 40
0.6
176
     1
 40
30.0
176
     1
 62
     7
420
 16777215
176
     1
 90
        2
176
     1
 90
        2
176
     1
 62
     7
176
     1
 62
     7
176
     1
 90
        1
176
     1
 90
        1
176
     1
 40
40.0
176
     1
 90
        8
176
     1
 62
     7
176
     1
 40
1.0
176
     1
 90
        1
176
     1
 90
        6
176
     1
 90
        2
176
     1
 62
     7
176
     1
 90
        3
176
     1
 90
        0
176
     1
 90
        0
176
     1
290
     0
176
     1
 90
        1
176
     1
 40
0.0
176
     1
 90
        0
176
     1
290
     0
176
     1
290
     1
176
     1
290
     1
176
     1
290
     0
176
     1
290
     0
176
     1
290
     0
176
     1
290
     0
176
     1
290
     0
176
     1
290
     0
176
     1
 90
       50
176
     1
 40
0.0
176
     1
 40
1.0
176
     1
 90
        0
176
     1
 62
    18
420
        0
176
     1
 90
       50
176
     1
 90
        3
176
     1
 62
     5
420
      255
176
     1
290
     0
176
     1
 90
       50
176
     1
 90
       50
176
     1
 90
       50
176
     1
290
     0
176
     1
 90
       50
176
     1
 62
   256
176
     0
 40
1.0
176
     0
 90
        2
176
     1
  1
strokes_ogs.tif
176
     1
290
     0
176
     1
 40
1.0
176
     1
 40
1.0
176
     1
  0
VISUALSTYLE
  5
3F
102
{ACAD_REACTORS
330
2A
102
}
330
2A
100
AcDbVisualStyle
  2
Sketchy
 70
    24
177
     3
291
     0
 70
    58
 90
        1
176
     1
 90
        2
176
     1
 90
        2
176
     1
 90
        0
176
     1
 40
0.6
176
     1
 40
30.0
176
     1
 62
     7
420
 16777215
176
     1
 90
        2
176
     1
 90
        2
176
     1
 62
     7
176
     1
 62
     7
176
     1
 90
        1
176
     1
 90
        1
176
     1
 40
40.0
176
     1
 90
       11
176
     1
 62
     7
176
     1
 40
1.0
176
     1
 90
        1
176
     1
 90
        6
176
     1
 90
        2
176
     1
 62
     7
176
     1
 90
        6
176
     1
 90
        0
176
     1
 90
        0
176
     1
290
     0
176
     1
 90
        1
176
     1
 40
0.0
176
     1
 90
        0
176
     1
290
     0
176
     1
290
     1
176
     1
290
     1
176
     1
290
     0
176
     1
290
     0
176
     1
290
     0
176
     1
290
     0
176
     1
290
     0
176
     1
290
     0
176
     1
 90
       50
176
     1
 40
0.0
176
     1
 40
1.0
176
     1
 90
        0
176
     1
 62
    18
420
        0
176
     1
 90
       50
176
     1
 90
        3
176
     1
 62
     5
420
      255
176
     1
290
     0
176
     1
 90
       50
176
     1
 90
       50
176
     1
 90
       50
176
     1
290
     0
176
     1
 90
       50
176
     1
 62
   256
176
     0
 40
1.0
176
     0
 90
        2
176
     1
  1
strokes_ogs.tif
176
     1
290
     0
176
     1
 40
1.0
176
     1
 40
1.0
176
     1
  0
VISUALSTYLE
  5
37
102
{ACAD_REACTORS
330
2A
102
}
330
2A
100
AcDbVisualStyle
  2
Thicken
 70
    13
177
     3
291
     1
 70
    58
 90
        2
176
     1
 90
        2
176
     1
 90
        0
176
     1
 90
        0
176
     1
 40
0.6
176
     1
 40
30.0
176
     1
 62
     7
420
 16777215
176
     1
 90
        1
176
     1
 90
        4
176
     1
 62
     7
176
     1
 62
   257
176
     1
 90
        1
176
     1
 90
        1
176
     1
 40
1.0
176
     1
 90
       12
176
     1
 62
     7
176
     1
 40
1.0
176
     1
 90
        1
176
     1
 90
        6
176
     1
 90
        2
176
     1
 62
     7
176
     1
 90
        5
176
     1
 90
        0
176
     1
 90
        0
176
     1
290
     0
176
     1
 90
        1
176
     1
 40
0.0
176
     1
 90
        0
176
     1
290
     0
176
     1
290
     1
176
     1
290
     1
176
     1
290
     0
176
     1
290
     0
176
     1
290
     0
176
     1
290
     0
176
     1
290
     0
176
     1
290
     0
176
     1
 90
       50
176
     1
 40
0.0
176
     1
 40
1.0
176
     1
 90
        0
176
     1
 62
    18
420
        0
176
     1
 90
       50
176
     1
 90
        3
176
     1
 62
     5
420
      255
176
     1
290
     0
176
     1
 90
       50
176
     1
 90
       50
176
     1
 90
       50
176
     1
290
     0
176
     1
 90
       50
176
     1
 62
   256
176
     0
 40
1.0
176
     0
 90
        2
176
     1
  1
strokes_ogs.tif
176
     1
290
     0
176
     1
 40
1.0
176
     1
 40
1.0
176
     1
  0
VISUALSTYLE
  5
30
102
{ACAD_REACTORS
330
2A
102
}
330
2A
100
AcDbVisualStyle
  2
Wireframe
 70
     5
177
     3
291
     0
 70
    58
 90
        0
176
     1
 90
        2
176
     1
 90
        0
176
     1
 90
        0
176
     1
 40
0.6
176
     1
 40
30.0
176
     1
 62
     7
420
 16777215
176
     1
 90
        1
176
     1
 90
        4
176
     1
 62
     7
176
     1
 62
   257
176
     1
 90
        1
176
     1
 90
        1
176
     1
 40
1.0
176
     1
 90
        0
176
     1
 62
   257
176
     1
 40
1.0
176
     1
 90
        1
176
     1
 90
        6
176
     1
 90
        2
176
     1
 62
     7
176
     1
 90
        3
176
     1
 90
        0
176
     1
 90
        0
176
     1
290
     0
176
     1
 90
        1
176
     1
 40
0.0
176
     1
 90
        0
176
     1
290
     0
176
     1
290
     1
176
     1
290
     1
176
     1
290
     0
176
     1
290
     0
176
     1
290
     0
176
     1
290
     0
176
     1
290
     0
176
     1
290
     0
176
     1
 90
       50
176
     1
 40
0.0
176
     1
 40
1.0
176
     1
 90
        0
176
     1
 62
    18
420
        0
176
     1
 90
       50
176
     1
 90
        3
176
     1
 62
     5
420
      255
176
     1
290
     0
176
     1
 90
       50
176
     1
 90
       50
176
     1
 90
       50
176
     1
290
     0
176
     1
 90
       50
176
     1
 62
   256
176
     0
 40
1.0
176
     0
 90
        2
176
     1
  1
strokes_ogs.tif
176
     1
290
     0
176
     1
 40
1.0
176
     1
 40
1.0
176
     1
  0
VISUALSTYLE
  5
40
102
{ACAD_REACTORS
330
2A
102
}
330
2A
100
AcDbVisualStyle
  2
X-Ray
 70
    25
177
     3
291
     0
 70
    58
 90
        2
176
     1
 90
        2
176
     1
 90
        1
176
     1
 90
        1
176
     1
 40
0.5
176
     1
 40
30.0
176
     1
 62
     7
420
 16777215
176
     1
 90
        1
176
     1
 90
        0
176
     1
 62
     7
176
     1
 62
   257
176
     1
 90
        1
176
     1
 90
        1
176
     1
 40
1.0
176
     1
 90
        8
176
     1
 62
     7
176
     1
 40
1.0
176
     1
 90
        1
176
     1
 90
        6
176
     1
 90
        2
176
     1
 62
     7
176
     1
 90
        3
176
     1
 90
        0
176
     1
 90
        0
176
     1
290
     0
176
     1
 90
       13
176
     1
 40
0.0
176
     1
 90
        0
176
     1
290
     0
176
     1
290
     1
176
     1
290
     1
176
     1
290
     0
176
     1
290
     0
176
     1
290
     0
176
     1
290
     0
176
     1
290
     0
176
     1
290
     0
176
     1
 90
       50
176
     1
 40
0.0
176
     1
 40
1.0
176
     1
 90
        0
176
     1
 62
    18
420
        0
176
     1
 90
       50
176
     1
 90
        3
176
     1
 62
     5
420
      255
176
     1
290
     0
176
     1
 90
       50
176
     1
 90
       50
176
     1
 90
       50
176
     1
290
     0
176
     1
 90
       50
176
     1
 62
   256
176
     0
 40
1.0
176
     0
 90
        2
176
     1
  1
strokes_ogs.tif
176
     1
290
     0
176
     1
 40
1.0
176
     1
 40
1.0
176
     1
  0
DICTIONARYVAR
  5
13F
102
{ACAD_REACTORS
330
13E
102
}
330
13E
100
DictionaryVariables
280
     0
  1
1:1
  0
DICTIONARYVAR
  5
144
102
{ACAD_REACTORS
330
13E
102
}
330
13E
100
DictionaryVariables
280
     0
  1
Standard
  0
DICTIONARYVAR
  5
143
102
{ACAD_REACTORS
330
13E
102
}
330
13E
100
DictionaryVariables
280
     0
  1
Standard
  0
DICTIONARY
  5
140
330
6A
100
AcDbDictionary
280
     1
281
     1
  3
ACAD_ROUNDTRIP_2008_TABLESTYLE_CELLSTYLEMAP
360
141
  0
CELLSTYLEMAP
  5
141
102
{ACAD_REACTORS
330
140
102
}
330
140
100
AcDbCellStyleMap
 90
        3
300
CELLSTYLE
  1
TABLEFORMAT_BEGIN
 90
        5
170
     1
 91
        0
 92
    32768
 62
   257
 93
        1
300
CONTENTFORMAT
  1
CONTENTFORMAT_BEGIN
 90
        0
 91
        0
 92
        4
 93
        0
300

 40
0.0
140
1.0
 94
        5
 62
     0
340
11
144
0.25
309
CONTENTFORMAT_END
171
     1
301
MARGIN
  1
CELLMARGIN_BEGIN
 40
0.06
 40
0.06
 40
0.06
 40
0.06
 40
0.06
 40
0.06
309
CELLMARGIN_END
 94
        6
 95
        1
302
GRIDFORMAT
  1
GRIDFORMAT_BEGIN
 90
        0
 91
        1
 62
     0
 92
       -2
340
14
 93
        0
 40
0.045
309
GRIDFORMAT_END
 95
        2
302
GRIDFORMAT
  1
GRIDFORMAT_BEGIN
 90
        0
 91
        1
 62
     0
 92
       -2
340
14
 93
        0
 40
0.045
309
GRIDFORMAT_END
 95
        4
302
GRIDFORMAT
  1
GRIDFORMAT_BEGIN
 90
        0
 91
        1
 62
     0
 92
       -2
340
14
 93
        0
 40
0.045
309
GRIDFORMAT_END
 95
        8
302
GRIDFORMAT
  1
GRIDFORMAT_BEGIN
 90
        0
 91
        1
 62
     0
 92
       -2
340
14
 93
        0
 40
0.045
309
GRIDFORMAT_END
 95
       16
302
GRIDFORMAT
  1
GRIDFORMAT_BEGIN
 90
        0
 91
        1
 62
     0
 92
       -2
340
14
 93
        0
 40
0.045
309
GRIDFORMAT_END
 95
       32
302
GRIDFORMAT
  1
GRIDFORMAT_BEGIN
 90
        0
 91
        1
 62
     0
 92
       -2
340
14
 93
        0
 40
0.045
309
GRIDFORMAT_END
309
TABLEFORMAT_END
  1
CELLSTYLE_BEGIN
 90
        1
 91
        1
300
_TITLE
309
CELLSTYLE_END
300
CELLSTYLE
  1
TABLEFORMAT_BEGIN
 90
        5
170
     1
 91
        0
 92
        0
 62
   257
 93
        1
300
CONTENTFORMAT
  1
CONTENTFORMAT_BEGIN
 90
        0
 91
        0
 92
        4
 93
        0
300

 40
0.0
140
1.0
 94
        5
 62
     0
340
11
144
0.18
309
CONTENTFORMAT_END
171
     1
301
MARGIN
  1
CELLMARGIN_BEGIN
 40
0.06
 40
0.06
 40
0.06
 40
0.06
 40
0.06
 40
0.06
309
CELLMARGIN_END
 94
        6
 95
        1
302
GRIDFORMAT
  1
GRIDFORMAT_BEGIN
 90
        0
 91
        1
 62
     0
 92
       -2
340
14
 93
        0
 40
0.045
309
GRIDFORMAT_END
 95
        2
302
GRIDFORMAT
  1
GRIDFORMAT_BEGIN
 90
        0
 91
        1
 62
     0
 92
       -2
340
14
 93
        0
 40
0.045
309
GRIDFORMAT_END
 95
        4
302
GRIDFORMAT
  1
GRIDFORMAT_BEGIN
 90
        0
 91
        1
 62
     0
 92
       -2
340
14
 93
        0
 40
0.045
309
GRIDFORMAT_END
 95
        8
302
GRIDFORMAT
  1
GRIDFORMAT_BEGIN
 90
        0
 91
        1
 62
     0
 92
       -2
340
14
 93
        0
 40
0.045
309
GRIDFORMAT_END
 95
       16
302
GRIDFORMAT
  1
GRIDFORMAT_BEGIN
 90
        0
 91
        1
 62
     0
 92
       -2
340
14
 93
        0
 40
0.045
309
GRIDFORMAT_END
 95
       32
302
GRIDFORMAT
  1
GRIDFORMAT_BEGIN
 90
        0
 91
        1
 62
     0
 92
       -2
340
14
 93
        0
 40
0.045
309
GRIDFORMAT_END
309
TABLEFORMAT_END
  1
CELLSTYLE_BEGIN
 90
        2
 91
        1
300
_HEADER
309
CELLSTYLE_END
300
CELLSTYLE
  1
TABLEFORMAT_BEGIN
 90
        5
170
     1
 91
        0
 92
        0
 62
   257
 93
        1
300
CONTENTFORMAT
  1
CONTENTFORMAT_BEGIN
 90
        0
 91
        0
 92
        4
 93
        0
300

 40
0.0
140
1.0
 94
        2
 62
     0
340
11
144
0.18
309
CONTENTFORMAT_END
171
     1
301
MARGIN
  1
CELLMARGIN_BEGIN
 40
0.06
 40
0.06
 40
0.06
 40
0.06
 40
0.06
 40
0.06
309
CELLMARGIN_END
 94
        6
 95
        1
302
GRIDFORMAT
  1
GRIDFORMAT_BEGIN
 90
        0
 91
        1
 62
     0
 92
       -2
340
14
 93
        0
 40
0.045
309
GRIDFORMAT_END
 95
        2
302
GRIDFORMAT
  1
GRIDFORMAT_BEGIN
 90
        0
 91
        1
 62
     0
 92
       -2
340
14
 93
        0
 40
0.045
309
GRIDFORMAT_END
 95
        4
302
GRIDFORMAT
  1
GRIDFORMAT_BEGIN
 90
        0
 91
        1
 62
     0
 92
       -2
340
14
 93
        0
 40
0.045
309
GRIDFORMAT_END
 95
        8
302
GRIDFORMAT
  1
GRIDFORMAT_BEGIN
 90
        0
 91
        1
 62
     0
 92
       -2
340
14
 93
        0
 40
0.045
309
GRIDFORMAT_END
 95
       16
302
GRIDFORMAT
  1
GRIDFORMAT_BEGIN
 90
        0
 91
        1
 62
     0
 92
       -2
340
14
 93
        0
 40
0.045
309
GRIDFORMAT_END
 95
       32
302
GRIDFORMAT
  1
GRIDFORMAT_BEGIN
 90
        0
 91
        1
 62
     0
 92
       -2
340
14
 93
        0
 40
0.045
309
GRIDFORMAT_END
309
TABLEFORMAT_END
  1
CELLSTYLE_BEGIN
 90
        3
 91
        2
300
_DATA
309
CELLSTYLE_END
  0
ENDSEC
  0
EOF
