solid OpenSCAD_Model
  facet normal -1 0 0
    outer loop
      vertex 4.95911e-07 0 4.95911e-07
      vertex 4.95911e-07 14 2.54
      vertex 4.95911e-07 14 4.95911e-07
    endloop
  endfacet
  facet normal -1 -0 0
    outer loop
      vertex 4.95911e-07 14 2.54
      vertex 4.95911e-07 0 4.95911e-07
      vertex 4.95911e-07 0 2.54
    endloop
  endfacet
  facet normal 0 -1 0
    outer loop
      vertex 4.95911e-07 0 2.54
      vertex 0.27 0 2.27
      vertex 2.54 0 2.54
    endloop
  endfacet
  facet normal 0 -1 0
    outer loop
      vertex 4.95911e-07 0 2.54
      vertex 0.27 0 0.27
      vertex 0.27 0 2.27
    endloop
  endfacet
  facet normal 0 -1 -0
    outer loop
      vertex 0.27 0 0.27
      vertex 4.95911e-07 0 4.95911e-07
      vertex 2.27 0 0.27
    endloop
  endfacet
  facet normal 0 -1 0
    outer loop
      vertex 4.95911e-07 0 4.95911e-07
      vertex 0.27 0 0.27
      vertex 4.95911e-07 0 2.54
    endloop
  endfacet
  facet normal 0 -1 0
    outer loop
      vertex 2.27 0 2.27
      vertex 2.54 0 2.54
      vertex 0.27 0 2.27
    endloop
  endfacet
  facet normal 0 -1 0
    outer loop
      vertex 2.27 0 0.27
      vertex 2.54 0 2.54
      vertex 2.27 0 2.27
    endloop
  endfacet
  facet normal 0 -1 0
    outer loop
      vertex 2.27 0 0.27
      vertex 2.54 0 4.95911e-07
      vertex 2.54 0 2.54
    endloop
  endfacet
  facet normal 0 -1 0
    outer loop
      vertex 2.54 0 4.95911e-07
      vertex 2.27 0 0.27
      vertex 4.95911e-07 0 4.95911e-07
    endloop
  endfacet
  facet normal 1 -0 0
    outer loop
      vertex 2.54 0 2.54
      vertex 2.54 14 4.95911e-07
      vertex 2.54 14 2.54
    endloop
  endfacet
  facet normal 1 0 0
    outer loop
      vertex 2.54 14 4.95911e-07
      vertex 2.54 0 2.54
      vertex 2.54 0 4.95911e-07
    endloop
  endfacet
  facet normal 0 1 0
    outer loop
      vertex 2.54 14 2.54
      vertex 2.2048 14 2.2048
      vertex 4.95911e-07 14 2.54
    endloop
  endfacet
  facet normal 0 1 0
    outer loop
      vertex 2.54 14 2.54
      vertex 2.2048 14 0.335204
      vertex 2.2048 14 2.2048
    endloop
  endfacet
  facet normal 0 1 0
    outer loop
      vertex 2.2048 14 0.335204
      vertex 2.54 14 4.95911e-07
      vertex 0.335204 14 0.335204
    endloop
  endfacet
  facet normal 0 1 -0
    outer loop
      vertex 2.54 14 4.95911e-07
      vertex 2.2048 14 0.335204
      vertex 2.54 14 2.54
    endloop
  endfacet
  facet normal 0 1 -0
    outer loop
      vertex 0.335204 14 2.2048
      vertex 4.95911e-07 14 2.54
      vertex 2.2048 14 2.2048
    endloop
  endfacet
  facet normal 0 1 -0
    outer loop
      vertex 0.335204 14 0.335204
      vertex 4.95911e-07 14 2.54
      vertex 0.335204 14 2.2048
    endloop
  endfacet
  facet normal 0 1 0
    outer loop
      vertex 0.335204 14 0.335204
      vertex 4.95911e-07 14 4.95911e-07
      vertex 4.95911e-07 14 2.54
    endloop
  endfacet
  facet normal 0 1 0
    outer loop
      vertex 4.95911e-07 14 4.95911e-07
      vertex 0.335204 14 0.335204
      vertex 2.54 14 4.95911e-07
    endloop
  endfacet
  facet normal 0 0 -1
    outer loop
      vertex 2.54 0 4.95911e-07
      vertex 2.17 5 4.95911e-07
      vertex 2.54 14 4.95911e-07
    endloop
  endfacet
  facet normal 0 0 -1
    outer loop
      vertex 2.54 0 4.95911e-07
      vertex 0.37 5 4.95911e-07
      vertex 2.17 5 4.95911e-07
    endloop
  endfacet
  facet normal 0 0 -1
    outer loop
      vertex 4.95911e-07 14 4.95911e-07
      vertex 0.37 5 4.95911e-07
      vertex 4.95911e-07 0 4.95911e-07
    endloop
  endfacet
  facet normal 0 0 -1
    outer loop
      vertex 4.95911e-07 0 4.95911e-07
      vertex 0.37 5 4.95911e-07
      vertex 2.54 0 4.95911e-07
    endloop
  endfacet
  facet normal 0 0 -1
    outer loop
      vertex 2.17 10 4.95911e-07
      vertex 2.54 14 4.95911e-07
      vertex 2.17 5 4.95911e-07
    endloop
  endfacet
  facet normal 0 0 -1
    outer loop
      vertex 0.37 10 4.95911e-07
      vertex 2.54 14 4.95911e-07
      vertex 2.17 10 4.95911e-07
    endloop
  endfacet
  facet normal 0 0 -1
    outer loop
      vertex 0.37 10 4.95911e-07
      vertex 4.95911e-07 14 4.95911e-07
      vertex 2.54 14 4.95911e-07
    endloop
  endfacet
  facet normal 0 0 -1
    outer loop
      vertex 0.37 5 4.95911e-07
      vertex 4.95911e-07 14 4.95911e-07
      vertex 0.37 10 4.95911e-07
    endloop
  endfacet
  facet normal -0 0 1
    outer loop
      vertex 4.95911e-07 14 2.54
      vertex 2.54 0 2.54
      vertex 2.54 14 2.54
    endloop
  endfacet
  facet normal 0 0 1
    outer loop
      vertex 2.54 0 2.54
      vertex 4.95911e-07 14 2.54
      vertex 4.95911e-07 0 2.54
    endloop
  endfacet
  facet normal 1 -0 0
    outer loop
      vertex 0.27 0 2.27
      vertex 0.27 13 0.27
      vertex 0.27 13 2.27
    endloop
  endfacet
  facet normal 1 0 0
    outer loop
      vertex 0.27 13 0.27
      vertex 0.27 0 2.27
      vertex 0.27 0 0.27
    endloop
  endfacet
  facet normal -1 0 0
    outer loop
      vertex 2.27 0 0.27
      vertex 2.27 13 2.27
      vertex 2.27 13 0.27
    endloop
  endfacet
  facet normal -1 -0 0
    outer loop
      vertex 2.27 13 2.27
      vertex 2.27 0 0.27
      vertex 2.27 0 2.27
    endloop
  endfacet
  facet normal 0 0 -1
    outer loop
      vertex 0.27 0 2.27
      vertex 2.27 13 2.27
      vertex 2.27 0 2.27
    endloop
  endfacet
  facet normal -0 0 -1
    outer loop
      vertex 2.27 13 2.27
      vertex 0.27 0 2.27
      vertex 0.27 13 2.27
    endloop
  endfacet
  facet normal 0 -1 0
    outer loop
      vertex 0.27 13 2.27
      vertex 0.704315 13 1.83569
      vertex 2.27 13 2.27
    endloop
  endfacet
  facet normal 0 -1 0
    outer loop
      vertex 0.27 13 2.27
      vertex 0.704315 13 0.704315
      vertex 0.704315 13 1.83569
    endloop
  endfacet
  facet normal 0 -1 -0
    outer loop
      vertex 0.704315 13 0.704315
      vertex 0.27 13 0.27
      vertex 1.83569 13 0.704315
    endloop
  endfacet
  facet normal 0 -1 0
    outer loop
      vertex 0.27 13 0.27
      vertex 0.704315 13 0.704315
      vertex 0.27 13 2.27
    endloop
  endfacet
  facet normal 0 -1 0
    outer loop
      vertex 1.83569 13 1.83569
      vertex 2.27 13 2.27
      vertex 0.704315 13 1.83569
    endloop
  endfacet
  facet normal 0 -1 0
    outer loop
      vertex 1.83569 13 0.704315
      vertex 2.27 13 2.27
      vertex 1.83569 13 1.83569
    endloop
  endfacet
  facet normal 0 -1 0
    outer loop
      vertex 1.83569 13 0.704315
      vertex 2.27 13 0.27
      vertex 2.27 13 2.27
    endloop
  endfacet
  facet normal 0 -1 0
    outer loop
      vertex 2.27 13 0.27
      vertex 1.83569 13 0.704315
      vertex 0.27 13 0.27
    endloop
  endfacet
  facet normal 0 0 1
    outer loop
      vertex 0.62 5 0.27
      vertex 1.92 5 0.27
      vertex 1.92 8.45 0.27
    endloop
  endfacet
  facet normal 0 0 1
    outer loop
      vertex 0.62 5 0.27
      vertex 1.92 8.45 0.27
      vertex 0.62 8.45 0.27
    endloop
  endfacet
  facet normal 0 0 1
    outer loop
      vertex 1.92 5 0.27
      vertex 0.62 5 0.27
      vertex 1.92 3.95 0.27
    endloop
  endfacet
  facet normal 0 0 1
    outer loop
      vertex 1.92 3.95 0.27
      vertex 0.62 5 0.27
      vertex 0.62 3.95 0.27
    endloop
  endfacet
  facet normal 0 0 1
    outer loop
      vertex 0.62 5 0.27
      vertex 0.37 5 0.27
      vertex 0.62 3.95 0.27
    endloop
  endfacet
  facet normal 0 0 1
    outer loop
      vertex 2.17 5 0.27
      vertex 2.27 13 0.27
      vertex 2.17 10 0.27
    endloop
  endfacet
  facet normal 0 0 1
    outer loop
      vertex 2.27 13 0.27
      vertex 0.37 10 0.27
      vertex 2.17 10 0.27
    endloop
  endfacet
  facet normal 0 0 1
    outer loop
      vertex 0.37 10 0.27
      vertex 0.27 13 0.27
      vertex 0.37 5 0.27
    endloop
  endfacet
  facet normal -0 0 1
    outer loop
      vertex 0.27 13 0.27
      vertex 0.37 10 0.27
      vertex 2.27 13 0.27
    endloop
  endfacet
  facet normal 0 0 1
    outer loop
      vertex 2.27 13 0.27
      vertex 2.17 5 0.27
      vertex 2.27 0 0.27
    endloop
  endfacet
  facet normal 0 0 1
    outer loop
      vertex 1.92 3.95 0.27
      vertex 2.17 5 0.27
      vertex 1.92 5 0.27
    endloop
  endfacet
  facet normal 0 0 1
    outer loop
      vertex 2.17 5 0.27
      vertex 1.92 3.95 0.27
      vertex 2.27 0 0.27
    endloop
  endfacet
  facet normal -0 0 1
    outer loop
      vertex 0.62 3.95 0.27
      vertex 2.27 0 0.27
      vertex 1.92 3.95 0.27
    endloop
  endfacet
  facet normal 0 0 1
    outer loop
      vertex 0.62 3.95 0.27
      vertex 0.27 0 0.27
      vertex 2.27 0 0.27
    endloop
  endfacet
  facet normal 0 0 1
    outer loop
      vertex 0.37 5 0.27
      vertex 0.27 0 0.27
      vertex 0.62 3.95 0.27
    endloop
  endfacet
  facet normal 0 0 1
    outer loop
      vertex 0.27 0 0.27
      vertex 0.37 5 0.27
      vertex 0.27 13 0.27
    endloop
  endfacet
  facet normal 1 -0 0
    outer loop
      vertex 0.704315 13 1.83569
      vertex 0.704315 13.85 0.704315
      vertex 0.704315 13.85 1.83569
    endloop
  endfacet
  facet normal 1 0 0
    outer loop
      vertex 0.704315 13.85 0.704315
      vertex 0.704315 13 1.83569
      vertex 0.704315 13 0.704315
    endloop
  endfacet
  facet normal 0 0 -1
    outer loop
      vertex 0.704315 13 1.83569
      vertex 1.83569 13.85 1.83569
      vertex 1.83569 13 1.83569
    endloop
  endfacet
  facet normal -0 0 -1
    outer loop
      vertex 1.83569 13.85 1.83569
      vertex 0.704315 13 1.83569
      vertex 0.704315 13.85 1.83569
    endloop
  endfacet
  facet normal -0 0 1
    outer loop
      vertex 0.704315 13.85 0.704315
      vertex 1.83569 13 0.704315
      vertex 1.83569 13.85 0.704315
    endloop
  endfacet
  facet normal 0 0 1
    outer loop
      vertex 1.83569 13 0.704315
      vertex 0.704315 13.85 0.704315
      vertex 0.704315 13 0.704315
    endloop
  endfacet
  facet normal -1 0 0
    outer loop
      vertex 1.83569 13 0.704315
      vertex 1.83569 13.85 1.83569
      vertex 1.83569 13.85 0.704315
    endloop
  endfacet
  facet normal -1 -0 0
    outer loop
      vertex 1.83569 13.85 1.83569
      vertex 1.83569 13 0.704315
      vertex 1.83569 13 1.83569
    endloop
  endfacet
  facet normal 0.376482 0.926424 -0
    outer loop
      vertex 0.704315 13.85 0.704315
      vertex 0.335204 14 2.2048
      vertex 0.704315 13.85 1.83569
    endloop
  endfacet
  facet normal 0.376482 0.926424 0
    outer loop
      vertex 0.335204 14 2.2048
      vertex 0.704315 13.85 0.704315
      vertex 0.335204 14 0.335204
    endloop
  endfacet
  facet normal 0 0.926424 -0.376483
    outer loop
      vertex 1.83569 13.85 1.83569
      vertex 0.335204 14 2.2048
      vertex 2.2048 14 2.2048
    endloop
  endfacet
  facet normal 0 0.926424 -0.376483
    outer loop
      vertex 0.335204 14 2.2048
      vertex 1.83569 13.85 1.83569
      vertex 0.704315 13.85 1.83569
    endloop
  endfacet
  facet normal 0 0.926424 0.376482
    outer loop
      vertex 2.2048 14 0.335204
      vertex 0.704315 13.85 0.704315
      vertex 1.83569 13.85 0.704315
    endloop
  endfacet
  facet normal 0 0.926424 0.376482
    outer loop
      vertex 0.704315 13.85 0.704315
      vertex 2.2048 14 0.335204
      vertex 0.335204 14 0.335204
    endloop
  endfacet
  facet normal -0.376483 0.926424 0
    outer loop
      vertex 2.2048 14 2.2048
      vertex 1.83569 13.85 0.704315
      vertex 1.83569 13.85 1.83569
    endloop
  endfacet
  facet normal -0.376483 0.926424 0
    outer loop
      vertex 1.83569 13.85 0.704315
      vertex 2.2048 14 2.2048
      vertex 2.2048 14 0.335204
    endloop
  endfacet
  facet normal 1 -0 0
    outer loop
      vertex 0.37 5 0.27
      vertex 0.37 10 4.95911e-07
      vertex 0.37 10 0.27
    endloop
  endfacet
  facet normal 1 0 0
    outer loop
      vertex 0.37 10 4.95911e-07
      vertex 0.37 5 0.27
      vertex 0.37 5 4.95911e-07
    endloop
  endfacet
  facet normal 0 1 0
    outer loop
      vertex 2.17 5 0.27
      vertex 1.92 5 0.02
      vertex 1.92 5 0.27
    endloop
  endfacet
  facet normal 0 1 0
    outer loop
      vertex 1.92 5 0.02
      vertex 2.17 5 4.95911e-07
      vertex 0.62 5 0.02
    endloop
  endfacet
  facet normal 0 1 -0
    outer loop
      vertex 2.17 5 4.95911e-07
      vertex 1.92 5 0.02
      vertex 2.17 5 0.27
    endloop
  endfacet
  facet normal 0 1 -0
    outer loop
      vertex 0.62 5 0.02
      vertex 0.37 5 0.27
      vertex 0.62 5 0.27
    endloop
  endfacet
  facet normal 0 1 0
    outer loop
      vertex 0.62 5 0.02
      vertex 0.37 5 4.95911e-07
      vertex 0.37 5 0.27
    endloop
  endfacet
  facet normal 0 1 0
    outer loop
      vertex 0.37 5 4.95911e-07
      vertex 0.62 5 0.02
      vertex 2.17 5 4.95911e-07
    endloop
  endfacet
  facet normal -1 0 0
    outer loop
      vertex 2.17 5 4.95911e-07
      vertex 2.17 10 0.27
      vertex 2.17 10 4.95911e-07
    endloop
  endfacet
  facet normal -1 -0 0
    outer loop
      vertex 2.17 10 0.27
      vertex 2.17 5 4.95911e-07
      vertex 2.17 5 0.27
    endloop
  endfacet
  facet normal 0 -1 0
    outer loop
      vertex 0.37 10 4.95911e-07
      vertex 2.17 10 0.27
      vertex 0.37 10 0.27
    endloop
  endfacet
  facet normal 0 -1 -0
    outer loop
      vertex 2.17 10 0.27
      vertex 0.37 10 4.95911e-07
      vertex 2.17 10 4.95911e-07
    endloop
  endfacet
  facet normal -1 0 0
    outer loop
      vertex 0.62 5 0.02
      vertex 0.62 8.45 0.27
      vertex 0.62 8.45 0.02
    endloop
  endfacet
  facet normal -1 -0 0
    outer loop
      vertex 0.62 8.45 0.27
      vertex 0.62 5 0.02
      vertex 0.62 5 0.27
    endloop
  endfacet
  facet normal 1 -0 0
    outer loop
      vertex 1.92 5 0.27
      vertex 1.92 8.45 0.02
      vertex 1.92 8.45 0.27
    endloop
  endfacet
  facet normal 1 0 0
    outer loop
      vertex 1.92 8.45 0.02
      vertex 1.92 5 0.27
      vertex 1.92 5 0.02
    endloop
  endfacet
  facet normal 0 1 -0
    outer loop
      vertex 1.92 8.45 0.02
      vertex 0.62 8.45 0.27
      vertex 1.92 8.45 0.27
    endloop
  endfacet
  facet normal 0 1 0
    outer loop
      vertex 0.62 8.45 0.27
      vertex 1.92 8.45 0.02
      vertex 0.62 8.45 0.02
    endloop
  endfacet
  facet normal 0 0 -1
    outer loop
      vertex 0.62 5 0.02
      vertex 1.92 8.45 0.02
      vertex 1.92 5 0.02
    endloop
  endfacet
  facet normal -0 0 -1
    outer loop
      vertex 1.92 8.45 0.02
      vertex 0.62 5 0.02
      vertex 0.62 8.45 0.02
    endloop
  endfacet
  facet normal -1 0 0
    outer loop
      vertex 2.54 0 4.95911e-07
      vertex 2.54 14 2.54
      vertex 2.54 14 4.95911e-07
    endloop
  endfacet
  facet normal -1 -0 0
    outer loop
      vertex 2.54 14 2.54
      vertex 2.54 0 4.95911e-07
      vertex 2.54 0 2.54
    endloop
  endfacet
  facet normal 0 -1 0
    outer loop
      vertex 2.54 0 2.54
      vertex 2.81 0 2.27
      vertex 5.08 0 2.54
    endloop
  endfacet
  facet normal 0 -1 0
    outer loop
      vertex 2.54 0 2.54
      vertex 2.81 0 0.27
      vertex 2.81 0 2.27
    endloop
  endfacet
  facet normal 0 -1 -0
    outer loop
      vertex 2.81 0 0.27
      vertex 2.54 0 4.95911e-07
      vertex 4.81 0 0.27
    endloop
  endfacet
  facet normal 0 -1 0
    outer loop
      vertex 2.54 0 4.95911e-07
      vertex 2.81 0 0.27
      vertex 2.54 0 2.54
    endloop
  endfacet
  facet normal 0 -1 0
    outer loop
      vertex 4.81 0 2.27
      vertex 5.08 0 2.54
      vertex 2.81 0 2.27
    endloop
  endfacet
  facet normal 0 -1 0
    outer loop
      vertex 4.81 0 0.27
      vertex 5.08 0 2.54
      vertex 4.81 0 2.27
    endloop
  endfacet
  facet normal 0 -1 0
    outer loop
      vertex 4.81 0 0.27
      vertex 5.08 0 4.95911e-07
      vertex 5.08 0 2.54
    endloop
  endfacet
  facet normal 0 -1 0
    outer loop
      vertex 5.08 0 4.95911e-07
      vertex 4.81 0 0.27
      vertex 2.54 0 4.95911e-07
    endloop
  endfacet
  facet normal 1 -0 0
    outer loop
      vertex 5.08 0 2.54
      vertex 5.08 14 4.95911e-07
      vertex 5.08 14 2.54
    endloop
  endfacet
  facet normal 1 0 0
    outer loop
      vertex 5.08 14 4.95911e-07
      vertex 5.08 0 2.54
      vertex 5.08 0 4.95911e-07
    endloop
  endfacet
  facet normal 0 1 0
    outer loop
      vertex 5.08 14 2.54
      vertex 4.7448 14 2.2048
      vertex 2.54 14 2.54
    endloop
  endfacet
  facet normal 0 1 0
    outer loop
      vertex 5.08 14 2.54
      vertex 4.7448 14 0.335204
      vertex 4.7448 14 2.2048
    endloop
  endfacet
  facet normal 0 1 0
    outer loop
      vertex 4.7448 14 0.335204
      vertex 5.08 14 4.95911e-07
      vertex 2.8752 14 0.335204
    endloop
  endfacet
  facet normal 0 1 -0
    outer loop
      vertex 5.08 14 4.95911e-07
      vertex 4.7448 14 0.335204
      vertex 5.08 14 2.54
    endloop
  endfacet
  facet normal 0 1 -0
    outer loop
      vertex 2.8752 14 2.2048
      vertex 2.54 14 2.54
      vertex 4.7448 14 2.2048
    endloop
  endfacet
  facet normal 0 1 -0
    outer loop
      vertex 2.8752 14 0.335204
      vertex 2.54 14 2.54
      vertex 2.8752 14 2.2048
    endloop
  endfacet
  facet normal 0 1 0
    outer loop
      vertex 2.8752 14 0.335204
      vertex 2.54 14 4.95911e-07
      vertex 2.54 14 2.54
    endloop
  endfacet
  facet normal 0 1 0
    outer loop
      vertex 2.54 14 4.95911e-07
      vertex 2.8752 14 0.335204
      vertex 5.08 14 4.95911e-07
    endloop
  endfacet
  facet normal 0 0 -1
    outer loop
      vertex 5.08 0 4.95911e-07
      vertex 4.71 5 4.95911e-07
      vertex 5.08 14 4.95911e-07
    endloop
  endfacet
  facet normal 0 0 -1
    outer loop
      vertex 5.08 0 4.95911e-07
      vertex 2.91 5 4.95911e-07
      vertex 4.71 5 4.95911e-07
    endloop
  endfacet
  facet normal 0 0 -1
    outer loop
      vertex 2.54 14 4.95911e-07
      vertex 2.91 5 4.95911e-07
      vertex 2.54 0 4.95911e-07
    endloop
  endfacet
  facet normal 0 0 -1
    outer loop
      vertex 2.54 0 4.95911e-07
      vertex 2.91 5 4.95911e-07
      vertex 5.08 0 4.95911e-07
    endloop
  endfacet
  facet normal 0 0 -1
    outer loop
      vertex 4.71 10 4.95911e-07
      vertex 5.08 14 4.95911e-07
      vertex 4.71 5 4.95911e-07
    endloop
  endfacet
  facet normal 0 0 -1
    outer loop
      vertex 2.91 10 4.95911e-07
      vertex 5.08 14 4.95911e-07
      vertex 4.71 10 4.95911e-07
    endloop
  endfacet
  facet normal 0 0 -1
    outer loop
      vertex 2.91 10 4.95911e-07
      vertex 2.54 14 4.95911e-07
      vertex 5.08 14 4.95911e-07
    endloop
  endfacet
  facet normal 0 0 -1
    outer loop
      vertex 2.91 5 4.95911e-07
      vertex 2.54 14 4.95911e-07
      vertex 2.91 10 4.95911e-07
    endloop
  endfacet
  facet normal -0 0 1
    outer loop
      vertex 2.54 14 2.54
      vertex 5.08 0 2.54
      vertex 5.08 14 2.54
    endloop
  endfacet
  facet normal 0 0 1
    outer loop
      vertex 5.08 0 2.54
      vertex 2.54 14 2.54
      vertex 2.54 0 2.54
    endloop
  endfacet
  facet normal 1 -0 0
    outer loop
      vertex 2.81 0 2.27
      vertex 2.81 13 0.27
      vertex 2.81 13 2.27
    endloop
  endfacet
  facet normal 1 0 0
    outer loop
      vertex 2.81 13 0.27
      vertex 2.81 0 2.27
      vertex 2.81 0 0.27
    endloop
  endfacet
  facet normal -1 0 0
    outer loop
      vertex 4.81 0 0.27
      vertex 4.81 13 2.27
      vertex 4.81 13 0.27
    endloop
  endfacet
  facet normal -1 -0 0
    outer loop
      vertex 4.81 13 2.27
      vertex 4.81 0 0.27
      vertex 4.81 0 2.27
    endloop
  endfacet
  facet normal 0 0 -1
    outer loop
      vertex 2.81 0 2.27
      vertex 4.81 13 2.27
      vertex 4.81 0 2.27
    endloop
  endfacet
  facet normal -0 0 -1
    outer loop
      vertex 4.81 13 2.27
      vertex 2.81 0 2.27
      vertex 2.81 13 2.27
    endloop
  endfacet
  facet normal 0 -1 0
    outer loop
      vertex 2.81 13 2.27
      vertex 3.24431 13 1.83569
      vertex 4.81 13 2.27
    endloop
  endfacet
  facet normal 0 -1 0
    outer loop
      vertex 2.81 13 2.27
      vertex 3.24431 13 0.704315
      vertex 3.24431 13 1.83569
    endloop
  endfacet
  facet normal 0 -1 -0
    outer loop
      vertex 3.24431 13 0.704315
      vertex 2.81 13 0.27
      vertex 4.37569 13 0.704315
    endloop
  endfacet
  facet normal 0 -1 0
    outer loop
      vertex 2.81 13 0.27
      vertex 3.24431 13 0.704315
      vertex 2.81 13 2.27
    endloop
  endfacet
  facet normal 0 -1 0
    outer loop
      vertex 4.37569 13 1.83569
      vertex 4.81 13 2.27
      vertex 3.24431 13 1.83569
    endloop
  endfacet
  facet normal 0 -1 0
    outer loop
      vertex 4.37569 13 0.704315
      vertex 4.81 13 2.27
      vertex 4.37569 13 1.83569
    endloop
  endfacet
  facet normal 0 -1 0
    outer loop
      vertex 4.37569 13 0.704315
      vertex 4.81 13 0.27
      vertex 4.81 13 2.27
    endloop
  endfacet
  facet normal 0 -1 0
    outer loop
      vertex 4.81 13 0.27
      vertex 4.37569 13 0.704315
      vertex 2.81 13 0.27
    endloop
  endfacet
  facet normal 0 0 1
    outer loop
      vertex 3.16 5 0.27
      vertex 4.46 5 0.27
      vertex 4.46 8.45 0.27
    endloop
  endfacet
  facet normal 0 0 1
    outer loop
      vertex 3.16 5 0.27
      vertex 4.46 8.45 0.27
      vertex 3.16 8.45 0.27
    endloop
  endfacet
  facet normal 0 0 1
    outer loop
      vertex 4.46 5 0.27
      vertex 3.16 5 0.27
      vertex 4.46 3.95 0.27
    endloop
  endfacet
  facet normal 0 0 1
    outer loop
      vertex 4.46 3.95 0.27
      vertex 3.16 5 0.27
      vertex 3.16 3.95 0.27
    endloop
  endfacet
  facet normal 0 0 1
    outer loop
      vertex 3.16 5 0.27
      vertex 2.91 5 0.27
      vertex 3.16 3.95 0.27
    endloop
  endfacet
  facet normal 0 0 1
    outer loop
      vertex 4.71 5 0.27
      vertex 4.81 13 0.27
      vertex 4.71 10 0.27
    endloop
  endfacet
  facet normal 0 0 1
    outer loop
      vertex 4.81 13 0.27
      vertex 2.91 10 0.27
      vertex 4.71 10 0.27
    endloop
  endfacet
  facet normal 0 0 1
    outer loop
      vertex 2.91 10 0.27
      vertex 2.81 13 0.27
      vertex 2.91 5 0.27
    endloop
  endfacet
  facet normal -0 0 1
    outer loop
      vertex 2.81 13 0.27
      vertex 2.91 10 0.27
      vertex 4.81 13 0.27
    endloop
  endfacet
  facet normal 0 0 1
    outer loop
      vertex 4.81 13 0.27
      vertex 4.71 5 0.27
      vertex 4.81 0 0.27
    endloop
  endfacet
  facet normal 0 0 1
    outer loop
      vertex 4.46 3.95 0.27
      vertex 4.71 5 0.27
      vertex 4.46 5 0.27
    endloop
  endfacet
  facet normal 0 0 1
    outer loop
      vertex 4.71 5 0.27
      vertex 4.46 3.95 0.27
      vertex 4.81 0 0.27
    endloop
  endfacet
  facet normal -0 0 1
    outer loop
      vertex 3.16 3.95 0.27
      vertex 4.81 0 0.27
      vertex 4.46 3.95 0.27
    endloop
  endfacet
  facet normal 0 0 1
    outer loop
      vertex 3.16 3.95 0.27
      vertex 2.81 0 0.27
      vertex 4.81 0 0.27
    endloop
  endfacet
  facet normal 0 0 1
    outer loop
      vertex 2.91 5 0.27
      vertex 2.81 0 0.27
      vertex 3.16 3.95 0.27
    endloop
  endfacet
  facet normal 0 0 1
    outer loop
      vertex 2.81 0 0.27
      vertex 2.91 5 0.27
      vertex 2.81 13 0.27
    endloop
  endfacet
  facet normal 1 -0 0
    outer loop
      vertex 3.24431 13 1.83569
      vertex 3.24431 13.85 0.704315
      vertex 3.24431 13.85 1.83569
    endloop
  endfacet
  facet normal 1 0 0
    outer loop
      vertex 3.24431 13.85 0.704315
      vertex 3.24431 13 1.83569
      vertex 3.24431 13 0.704315
    endloop
  endfacet
  facet normal 0 0 -1
    outer loop
      vertex 3.24431 13 1.83569
      vertex 4.37569 13.85 1.83569
      vertex 4.37569 13 1.83569
    endloop
  endfacet
  facet normal -0 0 -1
    outer loop
      vertex 4.37569 13.85 1.83569
      vertex 3.24431 13 1.83569
      vertex 3.24431 13.85 1.83569
    endloop
  endfacet
  facet normal -0 0 1
    outer loop
      vertex 3.24431 13.85 0.704315
      vertex 4.37569 13 0.704315
      vertex 4.37569 13.85 0.704315
    endloop
  endfacet
  facet normal 0 0 1
    outer loop
      vertex 4.37569 13 0.704315
      vertex 3.24431 13.85 0.704315
      vertex 3.24431 13 0.704315
    endloop
  endfacet
  facet normal -1 0 0
    outer loop
      vertex 4.37569 13 0.704315
      vertex 4.37569 13.85 1.83569
      vertex 4.37569 13.85 0.704315
    endloop
  endfacet
  facet normal -1 -0 0
    outer loop
      vertex 4.37569 13.85 1.83569
      vertex 4.37569 13 0.704315
      vertex 4.37569 13 1.83569
    endloop
  endfacet
  facet normal 0.376483 0.926424 -0
    outer loop
      vertex 3.24431 13.85 0.704315
      vertex 2.8752 14 2.2048
      vertex 3.24431 13.85 1.83569
    endloop
  endfacet
  facet normal 0.376483 0.926424 0
    outer loop
      vertex 2.8752 14 2.2048
      vertex 3.24431 13.85 0.704315
      vertex 2.8752 14 0.335204
    endloop
  endfacet
  facet normal 0 0.926424 -0.376483
    outer loop
      vertex 4.37569 13.85 1.83569
      vertex 2.8752 14 2.2048
      vertex 4.7448 14 2.2048
    endloop
  endfacet
  facet normal 0 0.926424 -0.376483
    outer loop
      vertex 2.8752 14 2.2048
      vertex 4.37569 13.85 1.83569
      vertex 3.24431 13.85 1.83569
    endloop
  endfacet
  facet normal 0 0.926424 0.376482
    outer loop
      vertex 4.7448 14 0.335204
      vertex 3.24431 13.85 0.704315
      vertex 4.37569 13.85 0.704315
    endloop
  endfacet
  facet normal 0 0.926424 0.376482
    outer loop
      vertex 3.24431 13.85 0.704315
      vertex 4.7448 14 0.335204
      vertex 2.8752 14 0.335204
    endloop
  endfacet
  facet normal -0.376483 0.926424 0
    outer loop
      vertex 4.7448 14 2.2048
      vertex 4.37569 13.85 0.704315
      vertex 4.37569 13.85 1.83569
    endloop
  endfacet
  facet normal -0.376483 0.926424 0
    outer loop
      vertex 4.37569 13.85 0.704315
      vertex 4.7448 14 2.2048
      vertex 4.7448 14 0.335204
    endloop
  endfacet
  facet normal 1 -0 0
    outer loop
      vertex 2.91 5 0.27
      vertex 2.91 10 4.95911e-07
      vertex 2.91 10 0.27
    endloop
  endfacet
  facet normal 1 0 0
    outer loop
      vertex 2.91 10 4.95911e-07
      vertex 2.91 5 0.27
      vertex 2.91 5 4.95911e-07
    endloop
  endfacet
  facet normal 0 1 0
    outer loop
      vertex 4.71 5 0.27
      vertex 4.46 5 0.02
      vertex 4.46 5 0.27
    endloop
  endfacet
  facet normal 0 1 0
    outer loop
      vertex 4.46 5 0.02
      vertex 4.71 5 4.95911e-07
      vertex 3.16 5 0.02
    endloop
  endfacet
  facet normal 0 1 -0
    outer loop
      vertex 4.71 5 4.95911e-07
      vertex 4.46 5 0.02
      vertex 4.71 5 0.27
    endloop
  endfacet
  facet normal 0 1 -0
    outer loop
      vertex 3.16 5 0.02
      vertex 2.91 5 0.27
      vertex 3.16 5 0.27
    endloop
  endfacet
  facet normal 0 1 0
    outer loop
      vertex 3.16 5 0.02
      vertex 2.91 5 4.95911e-07
      vertex 2.91 5 0.27
    endloop
  endfacet
  facet normal 0 1 0
    outer loop
      vertex 2.91 5 4.95911e-07
      vertex 3.16 5 0.02
      vertex 4.71 5 4.95911e-07
    endloop
  endfacet
  facet normal -1 0 0
    outer loop
      vertex 4.71 5 4.95911e-07
      vertex 4.71 10 0.27
      vertex 4.71 10 4.95911e-07
    endloop
  endfacet
  facet normal -1 -0 0
    outer loop
      vertex 4.71 10 0.27
      vertex 4.71 5 4.95911e-07
      vertex 4.71 5 0.27
    endloop
  endfacet
  facet normal 0 -1 0
    outer loop
      vertex 2.91 10 4.95911e-07
      vertex 4.71 10 0.27
      vertex 2.91 10 0.27
    endloop
  endfacet
  facet normal 0 -1 -0
    outer loop
      vertex 4.71 10 0.27
      vertex 2.91 10 4.95911e-07
      vertex 4.71 10 4.95911e-07
    endloop
  endfacet
  facet normal -1 0 0
    outer loop
      vertex 3.16 5 0.02
      vertex 3.16 8.45 0.27
      vertex 3.16 8.45 0.02
    endloop
  endfacet
  facet normal -1 -0 0
    outer loop
      vertex 3.16 8.45 0.27
      vertex 3.16 5 0.02
      vertex 3.16 5 0.27
    endloop
  endfacet
  facet normal 1 -0 0
    outer loop
      vertex 4.46 5 0.27
      vertex 4.46 8.45 0.02
      vertex 4.46 8.45 0.27
    endloop
  endfacet
  facet normal 1 0 0
    outer loop
      vertex 4.46 8.45 0.02
      vertex 4.46 5 0.27
      vertex 4.46 5 0.02
    endloop
  endfacet
  facet normal 0 1 -0
    outer loop
      vertex 4.46 8.45 0.02
      vertex 3.16 8.45 0.27
      vertex 4.46 8.45 0.27
    endloop
  endfacet
  facet normal 0 1 0
    outer loop
      vertex 3.16 8.45 0.27
      vertex 4.46 8.45 0.02
      vertex 3.16 8.45 0.02
    endloop
  endfacet
  facet normal 0 0 -1
    outer loop
      vertex 3.16 5 0.02
      vertex 4.46 8.45 0.02
      vertex 4.46 5 0.02
    endloop
  endfacet
  facet normal -0 0 -1
    outer loop
      vertex 4.46 8.45 0.02
      vertex 3.16 5 0.02
      vertex 3.16 8.45 0.02
    endloop
  endfacet
endsolid OpenSCAD_Model
