<?xml version="1.0" encoding="utf-8"?>
<!-- Generator: Fusion 360, Shaper Origin Export Add-In, Version 1.6.10  -->
<svg xmlns="http://www.w3.org/2000/svg" xmlns:xlink="http://www.w3.org/1999/xlink" xmlns:shaper="http://www.shapertools.com/namespaces/shaper" shaper:fusionaddin="version:1.6.10" width="5.5018369cm" height="5.08cm" version="1.1" x="0cm" y="0cm" viewBox="0 0 5.5018369 5.08" enable-background="new 0 0 5.5018369 5.08" xml:space="preserve"><path d="M2.7511233,-2.5421684 L2.7511233,-0.2421684 A0.4009184,0.4009184 0 0,1 2.7431241,-0.1624809 L2.42037,1.4289386 A0.3175,0.3175 11.4645967 0,1 2.1092049,1.6833316 L-2.3357951,1.6833316 A0.3175,0.3175 90 0,1 -2.6527122,1.3850618 L-2.7499775,-0.2178858 A0.4009184,0.4009184 176.5276057 0,1 -2.750486,-0.2556745 L-2.6730136,-2.5540919 -2.6530764,-3.0909512 A0.3175,0.3175 182.1267938 0,1 -2.0653353,-3.2454746 A0.635,0.635 148.4125802 0,0 -1.5244157,-2.9430869 L2.3502049,-2.9430869 A0.4009184,0.4009184 270 0,1 2.7511233,-2.5421684z" transform="matrix(1,0,0,-1,2.7507136,1.6833316)" fill="rgb(0,0,0)" shaper:cutDepth="0.003175" stroke-linecap="round" stroke-linejoin="round" /><path d="M-2.0322951,0.47625 A0.3175,0.3175 180 0,1 -1.7147951,0.15875 L1.4742049,0.15875 A0.3175,0.3175 270 0,1 1.7917049,0.47625 L1.7917049,1.0483316 A0.3175,0.3175 0 0,1 1.4742049,1.3658316 L-1.7147951,1.3658316 A0.3175,0.3175 90 0,1 -2.0322951,1.0483316 L-2.0322951,0.47625z" transform="matrix(1,0,0,-1,2.7507136,1.6833316)" fill="rgb(255,255,255)" stroke="rgb(0,0,0)" stroke-width="0.0010cm" stroke-linecap="round" stroke-linejoin="round" shaper:cutDepth="0.003175" /><path d="M1.7152049,-2.6255869 A0.3175,0.3175 270 0,1 2.0327049,-2.3080869 L2.0327049,-0.47625 A0.3175,0.3175 0 0,1 1.7152049,-0.15875 L-1.7147951,-0.15875 A0.3175,0.3175 90 0,1 -2.0322951,-0.47625 L-2.0322951,-2.3080869 A0.3175,0.3175 180 0,1 -1.7147951,-2.6255869 L1.7152049,-2.6255869z" transform="matrix(1,0,0,-1,2.7507136,1.6833316)" fill="rgb(255,255,255)" stroke="rgb(0,0,0)" stroke-width="0.0010cm" stroke-linecap="round" stroke-linejoin="round" shaper:cutDepth="0.003175" /><path d="M2.1902049,-2.5421684 a0.16,0.16 0 1,1 0.32,0 a0.16,0.16 0 1,1 -0.32,0z" transform="matrix(1,0,0,-1,2.7507136,1.6833316)" fill="rgb(255,255,255)" stroke="rgb(0,0,0)" stroke-width="0.0010cm" stroke-linecap="round" stroke-linejoin="round" shaper:cutDepth="0.003175" /><path d="M2.1902049,-0.2421684 a0.16,0.16 0 1,1 0.32,0 a0.16,0.16 0 1,1 -0.32,0z" transform="matrix(1,0,0,-1,2.7507136,1.6833316)" fill="rgb(255,255,255)" stroke="rgb(0,0,0)" stroke-width="0.0010cm" stroke-linecap="round" stroke-linejoin="round" shaper:cutDepth="0.003175" /><path d="M-2.5097951,-2.5421684 a0.16,0.16 0 1,1 0.32,0 a0.16,0.16 0 1,1 -0.32,0z" transform="matrix(1,0,0,-1,2.7507136,1.6833316)" fill="rgb(255,255,255)" stroke="rgb(0,0,0)" stroke-width="0.0010cm" stroke-linecap="round" stroke-linejoin="round" shaper:cutDepth="0.003175" /><path d="M-2.5097951,-0.2421684 a0.16,0.16 0 1,1 0.32,0 a0.16,0.16 0 1,1 -0.32,0z" transform="matrix(1,0,0,-1,2.7507136,1.6833316)" fill="rgb(255,255,255)" stroke="rgb(0,0,0)" stroke-width="0.0010cm" stroke-linecap="round" stroke-linejoin="round" shaper:cutDepth="0.003175" /><path d="M-2.4907951,-3.0791684 a0.155,0.155 0 1,1 0.31,0 a0.155,0.155 0 1,1 -0.31,0z" transform="matrix(1,0,0,-1,2.7507136,1.6833316)" fill="rgb(255,255,255)" stroke="rgb(0,0,0)" stroke-width="0.0010cm" stroke-linecap="round" stroke-linejoin="round" shaper:cutDepth="0.003175" /><path d="M-2.4907951,1.3658316 a0.155,0.155 0 1,1 0.31,0 a0.155,0.155 0 1,1 -0.31,0z" transform="matrix(1,0,0,-1,2.7507136,1.6833316)" fill="rgb(255,255,255)" stroke="rgb(0,0,0)" stroke-width="0.0010cm" stroke-linecap="round" stroke-linejoin="round" shaper:cutDepth="0.003175" /><path d="M1.9251819,1.3658316 a0.184023,0.184023 0 1,1 0.368046,0 a0.184023,0.184023 0 1,1 -0.368046,0z" transform="matrix(1,0,0,-1,2.7507136,1.6833316)" fill="rgb(255,255,255)" stroke="rgb(0,0,0)" stroke-width="0.0010cm" stroke-linecap="round" stroke-linejoin="round" shaper:cutDepth="0.003175" /></svg>