<?xml version="1.0" encoding="utf-8"?>
<!-- Generator: Fusion 360, Shaper Origin Export Add-In, Version 1.6.10  -->
<svg xmlns="http://www.w3.org/2000/svg" xmlns:xlink="http://www.w3.org/1999/xlink" xmlns:shaper="http://www.shapertools.com/namespaces/shaper" shaper:fusionaddin="version:1.6.10" width="7.3333762cm" height="5.7887721cm" version="1.1" x="0cm" y="0cm" viewBox="0 0 7.3333762 5.7887721" enable-background="new 0 0 7.3333762 5.7887721" xml:space="preserve"><path d="M-5.8752454,-2.8518798 L0.4787666,-2.8518798 A0.47625,0.47625 270 0,1 0.9550013,-2.3794386 L0.9856744,1.4558388 A0.47625,0.47625 359.541781 0,1 0.8148431,1.8250826 L-0.1253622,2.6108364 A1.27,1.27 50.1136245 0,1 -0.9296149,2.9063024 L-4.7494149,2.9368516 A1.27,1.27 89.541781 0,1 -6.0295309,1.6770489 L-6.0366777,0.7834261 A1.27,1.27 359.541781 0,0 -6.0430589,0.6660282 L-6.3452784,-2.3278121 A0.47625,0.47625 174.2356839 0,1 -5.8752454,-2.8518798z" transform="matrix(1,0,0,-1,6.3476866,2.9368922)" fill="rgb(0,0,0)" shaper:cutDepth="0.003175" stroke-linecap="round" stroke-linejoin="round" /><path d="M-5.2358063,1.670701 L-5.0770613,1.6694314 A0.3175,0.3175 269.541781 0,1 -4.7570323,1.9843821 L-4.7557628,2.143127 A0.3175,0.3175 179.541781 0,0 -4.4357338,2.4580777 L-2.0658095,2.439124 A0.3175,0.3175 89.541781 0,0 -1.7508589,2.119095 L-1.7521284,1.9603501 A0.3175,0.3175 179.541781 0,1 -1.4371777,1.6403211 L-1.2784328,1.6390515 A0.3175,0.3175 89.541781 0,0 -0.9634821,1.3190225 L-0.9825958,-1.0709011 A0.3175,0.3175 359.541781 0,0 -1.3026248,-1.3858518 L-1.4613697,-1.3845822 A0.3175,0.3175 89.541781 0,1 -1.7813987,-1.6995329 L-1.7826683,-1.8582778 A0.3175,0.3175 359.541781 0,0 -2.1026973,-2.1732285 L-4.4726215,-2.1542748 A0.3175,0.3175 269.541781 0,0 -4.7875722,-1.8342458 L-4.7863026,-1.6755009 A0.3175,0.3175 359.541781 0,1 -5.1012533,-1.3554719 L-5.2599982,-1.3542023 A0.3175,0.3175 269.541781 0,0 -5.5749489,-1.0341733 L-5.5558353,1.3557503 A0.3175,0.3175 179.541781 0,0 -5.2358063,1.670701z" transform="matrix(1,0,0,-1,6.3476866,2.9368922)" fill="rgb(255,255,255)" stroke="rgb(0,0,0)" stroke-width="0.0010cm" stroke-linecap="round" stroke-linejoin="round" shaper:cutDepth="0.003175" /><path d="M-6.0867015,-2.3756451 a0.2152649,0.2152649 0 1,1 0.4305298,0 a0.2152649,0.2152649 0 1,1 -0.4305298,0z" transform="matrix(1,0,0,-1,6.3476866,2.9368922)" fill="rgb(255,255,255)" stroke="rgb(0,0,0)" stroke-width="0.0010cm" stroke-linecap="round" stroke-linejoin="round" shaper:cutDepth="0.003175" /><path d="M-5.2537925,-1.6729617 a0.15,0.15 0 1,1 0.3,0 a0.15,0.15 0 1,1 -0.3,0z" transform="matrix(1,0,0,-1,6.3476866,2.9368922)" fill="rgb(255,255,255)" stroke="rgb(0,0,0)" stroke-width="0.0010cm" stroke-linecap="round" stroke-linejoin="round" shaper:cutDepth="0.003175" /><path d="M-1.6139089,-1.702072 a0.15,0.15 0 1,1 0.3,0 a0.15,0.15 0 1,1 -0.3,0z" transform="matrix(1,0,0,-1,6.3476866,2.9368922)" fill="rgb(255,255,255)" stroke="rgb(0,0,0)" stroke-width="0.0010cm" stroke-linecap="round" stroke-linejoin="round" shaper:cutDepth="0.003175" /><path d="M-1.5846386,1.9578109 a0.15,0.15 0 1,1 0.3,0 a0.15,0.15 0 1,1 -0.3,0z" transform="matrix(1,0,0,-1,6.3476866,2.9368922)" fill="rgb(255,255,255)" stroke="rgb(0,0,0)" stroke-width="0.0010cm" stroke-linecap="round" stroke-linejoin="round" shaper:cutDepth="0.003175" /><path d="M-5.2245222,1.9869212 a0.15,0.15 0 1,1 0.3,0 a0.15,0.15 0 1,1 -0.3,0z" transform="matrix(1,0,0,-1,6.3476866,2.9368922)" fill="rgb(255,255,255)" stroke="rgb(0,0,0)" stroke-width="0.0010cm" stroke-linecap="round" stroke-linejoin="round" shaper:cutDepth="0.003175" /><path d="M0.2944396,1.4596475 a0.215,0.215 0 1,1 0.43,0 a0.215,0.215 0 1,1 -0.43,0z" transform="matrix(1,0,0,-1,6.3476866,2.9368922)" fill="rgb(255,255,255)" stroke="rgb(0,0,0)" stroke-width="0.0010cm" stroke-linecap="round" stroke-linejoin="round" shaper:cutDepth="0.003175" /><path d="M0.2635017,-2.3756298 a0.2152649,0.2152649 0 1,1 0.4305298,0 a0.2152649,0.2152649 0 1,1 -0.4305298,0z" transform="matrix(1,0,0,-1,6.3476866,2.9368922)" fill="rgb(255,255,255)" stroke="rgb(0,0,0)" stroke-width="0.0010cm" stroke-linecap="round" stroke-linejoin="round" shaper:cutDepth="0.003175" /></svg>