<?xml version="1.0" encoding="utf-8"?>
<!-- Generator: Fusion 360, Shaper Origin Export Add-In, Version 1.6.10  -->
<svg xmlns="http://www.w3.org/2000/svg" xmlns:xlink="http://www.w3.org/1999/xlink" xmlns:shaper="http://www.shapertools.com/namespaces/shaper" shaper:fusionaddin="version:1.6.10" width="7.6445152cm" height="4.7703806cm" version="1.1" x="0cm" y="0cm" viewBox="0 0 7.6445152 4.7703806" enable-background="new 0 0 7.6445152 4.7703806" xml:space="preserve"><path d="M-2.3475697,0.6515406 L-2.6571515,1.5543864 A0.47625,0.47625 18.926616 0,1 -3.5817276,1.4453797 L-3.9478985,-2.3725008 A0.47625,0.47625 174.5215486 0,1 -3.4738239,-2.8942191 L1.9437666,-2.8942191 A0.3175,0.3175 270 0,1 2.2361902,-2.7003907 L3.6568267,0.6587287 A0.47625,0.47625 337.0755593 0,1 2.8383545,1.1315306 L2.1241053,0.1872098 A0.3175,0.3175 322.8974914 0,0 1.8405686,0.0626897 L-2.0775476,0.4384742 A0.3175,0.3175 264.5215486 0,0 -2.3475697,0.6515406z" transform="matrix(1,0,0,-1,3.9500739,1.8761615)" fill="rgb(0,0,0)" shaper:cutDepth="0.003175" stroke-linecap="round" stroke-linejoin="round" /><path d="M1.83121,-2.0874884 A0.3175,0.3175 354.5215486 0,0 1.4848481,-2.373226 L-2.245534,-2.015447 A0.3175,0.3175 264.5215486 0,0 -2.5312715,-1.6690851 L-2.4026238,-0.3277402 A0.3175,0.3175 174.5215486 0,0 -2.056262,-0.0420027 L1.6741201,-0.3997817 A0.3175,0.3175 84.5215486 0,0 1.9598577,-0.7461436 L1.83121,-2.0874884z" transform="matrix(1,0,0,-1,3.9500739,1.8761615)" fill="rgb(255,255,255)" stroke="rgb(0,0,0)" stroke-width="0.0010cm" stroke-linecap="round" stroke-linejoin="round" shaper:cutDepth="0.003175" /><path d="M3.0022913,0.8442362 a0.2159,0.2159 0 1,1 0.4318,0 a0.2159,0.2159 0 1,1 -0.4318,0z" transform="matrix(1,0,0,-1,3.9500739,1.8761615)" fill="rgb(255,255,255)" stroke="rgb(0,0,0)" stroke-width="0.0010cm" stroke-linecap="round" stroke-linejoin="round" shaper:cutDepth="0.003175" /><path d="M1.7837666,-2.5767191 a0.16,0.16 0 1,1 0.32,0 a0.16,0.16 0 1,1 -0.32,0z" transform="matrix(1,0,0,-1,3.9500739,1.8761615)" fill="rgb(255,255,255)" stroke="rgb(0,0,0)" stroke-width="0.0010cm" stroke-linecap="round" stroke-linejoin="round" shaper:cutDepth="0.003175" /><path d="M-2.8947646,-2.1280036 a0.16,0.16 0 1,1 0.32,0 a0.16,0.16 0 1,1 -0.32,0z" transform="matrix(1,0,0,-1,3.9500739,1.8761615)" fill="rgb(255,255,255)" stroke="rgb(0,0,0)" stroke-width="0.0010cm" stroke-linecap="round" stroke-linejoin="round" shaper:cutDepth="0.003175" /><path d="M-2.6751804,0.1614904 a0.16,0.16 0 1,1 0.32,0 a0.16,0.16 0 1,1 -0.32,0z" transform="matrix(1,0,0,-1,3.9500739,1.8761615)" fill="rgb(255,255,255)" stroke="rgb(0,0,0)" stroke-width="0.0010cm" stroke-linecap="round" stroke-linejoin="round" shaper:cutDepth="0.003175" /><path d="M2.0033508,-0.2872251 a0.16,0.16 0 1,1 0.32,0 a0.16,0.16 0 1,1 -0.32,0z" transform="matrix(1,0,0,-1,3.9500739,1.8761615)" fill="rgb(255,255,255)" stroke="rgb(0,0,0)" stroke-width="0.0010cm" stroke-linecap="round" stroke-linejoin="round" shaper:cutDepth="0.003175" /><path d="M-3.3229179,1.3999115 a0.2152649,0.2152649 0 1,1 0.4305298,0 a0.2152649,0.2152649 0 1,1 -0.4305298,0z" transform="matrix(1,0,0,-1,3.9500739,1.8761615)" fill="rgb(255,255,255)" stroke="rgb(0,0,0)" stroke-width="0.0010cm" stroke-linecap="round" stroke-linejoin="round" shaper:cutDepth="0.003175" /><path d="M-3.7991254,-2.4179691 a0.3253014,0.3253014 0 1,1 0.6506029,0 a0.3253014,0.3253014 0 1,1 -0.6506029,0z" transform="matrix(1,0,0,-1,3.9500739,1.8761615)" fill="rgb(255,255,255)" stroke="rgb(0,0,0)" stroke-width="0.0010cm" stroke-linecap="round" stroke-linejoin="round" shaper:cutDepth="0.003175" /></svg>