<?xml version="1.0" encoding="utf-8"?>
<!-- Generator: Fusion 360, Shaper Origin Export Add-In, Version 1.6.10  -->
<svg xmlns="http://www.w3.org/2000/svg" xmlns:xlink="http://www.w3.org/1999/xlink" xmlns:shaper="http://www.shapertools.com/namespaces/shaper" shaper:fusionaddin="version:1.6.10" width="14.44625cm" height="5.55625cm" version="1.1" x="0cm" y="0cm" viewBox="0 0 14.44625 5.55625" enable-background="new 0 0 14.44625 5.55625" xml:space="preserve"><path d="M9.4215404,0.79375 A0.635,0.635 270 0,0 8.7865404,1.42875 L8.7865404,2.619375 A0.15875,0.15875 0 0,1 8.6277904,2.778125 L3.8779904,2.778125 3.8779904,-1.30175 A0.15875,0.15875 0 0,0 3.7192404,-1.4605 L2.1317404,-1.4605 A0.15875,0.15875 270 0,0 1.9729904,-1.30175 L1.9729904,2.778125 -3.4118096,2.778125 A0.15875,0.15875 90 0,1 -3.5705596,2.619375 L-3.5705596,1.42875 A0.635,0.635 0 0,0 -4.2055596,0.79375 L-4.4563846,0.79375 A0.15875,0.15875 90 0,1 -4.6151346,0.635 L-4.6151346,-0.635 A0.15875,0.15875 180 0,1 -4.4563846,-0.79375 L-4.2055596,-0.79375 A0.635,0.635 90 0,0 -3.5705596,-1.42875 L-3.5705596,-2.619375 A0.15875,0.15875 180 0,1 -3.4118096,-2.778125 L8.6277904,-2.778125 A0.15875,0.15875 270 0,1 8.7865404,-2.619375 L8.7865404,-1.42875 A0.635,0.635 180 0,0 9.4215404,-0.79375 L9.6723654,-0.79375 A0.15875,0.15875 270 0,1 9.8311154,-0.635 L9.8311154,0.635 A0.15875,0.15875 0 0,1 9.6723654,0.79375 L9.4215404,0.79375z" transform="matrix(1,0,0,-1,4.6151346,2.778125)" fill="rgb(0,0,0)" shaper:cutDepth="0.0047625" stroke-linecap="round" stroke-linejoin="round" /><path d="M-2.1545096,-0.4445 a0.635,0.635 0 1,1 1.27,0 a0.635,0.635 0 1,1 -1.27,0z" transform="matrix(1,0,0,-1,4.6151346,2.778125)" fill="rgb(255,255,255)" stroke="rgb(0,0,0)" stroke-width="0.0010cm" stroke-linecap="round" stroke-linejoin="round" shaper:cutDepth="0.0047625" /><path d="M6.4179904,-0 a0.9525,0.9525 0 1,1 1.905,0 a0.9525,0.9525 0 1,1 -1.905,0z" transform="matrix(1,0,0,-1,4.6151346,2.778125)" fill="rgb(255,255,255)" stroke="rgb(0,0,0)" stroke-width="0.0010cm" stroke-linecap="round" stroke-linejoin="round" shaper:cutDepth="0.0047625" /><path d="M7.7902254,-1.9177 a0.215265,0.215265 0 1,1 0.43053,0 a0.215265,0.215265 0 1,1 -0.43053,0z" transform="matrix(1,0,0,-1,4.6151346,2.778125)" fill="rgb(255,255,255)" stroke="rgb(0,0,0)" stroke-width="0.0010cm" stroke-linecap="round" stroke-linejoin="round" shaper:cutDepth="0.0047625" /><path d="M7.7902254,1.9177 a0.215265,0.215265 0 1,1 0.43053,0 a0.215265,0.215265 0 1,1 -0.43053,0z" transform="matrix(1,0,0,-1,4.6151346,2.778125)" fill="rgb(255,255,255)" stroke="rgb(0,0,0)" stroke-width="0.0010cm" stroke-linecap="round" stroke-linejoin="round" shaper:cutDepth="0.0047625" /><path d="M-3.0047746,1.9177 a0.215265,0.215265 0 1,1 0.43053,0 a0.215265,0.215265 0 1,1 -0.43053,0z" transform="matrix(1,0,0,-1,4.6151346,2.778125)" fill="rgb(255,255,255)" stroke="rgb(0,0,0)" stroke-width="0.0010cm" stroke-linecap="round" stroke-linejoin="round" shaper:cutDepth="0.0047625" /><path d="M-3.0047746,-1.9177 a0.215265,0.215265 0 1,1 0.43053,0 a0.215265,0.215265 0 1,1 -0.43053,0z" transform="matrix(1,0,0,-1,4.6151346,2.778125)" fill="rgb(255,255,255)" stroke="rgb(0,0,0)" stroke-width="0.0010cm" stroke-linecap="round" stroke-linejoin="round" shaper:cutDepth="0.0047625" /></svg>