0
SECTION
2
HEADER
9
$INSUNITS
70
1
9
$ACADVER
1
AC1014
9
$HANDSEED
5
FFFF
0
ENDSEC
0
SECTION
2
TABLES
0
TABLE
2
VPORT
5
8
100
AcDbSymbolTable
0
ENDTAB
0
TABLE
2
LTYPE
5
5
100
AcDbSymbolTable
0
LTYPE
5
14
100
AcDbSymbolTableRecord
100
AcDbLinetypeTableRecord
2
BYBLOCK
70
0
0
LTYPE
5
15
100
AcDbSymbolTableRecord
100
AcDbLinetypeTableRecord
2
BYLAYER
70
0
0
ENDTAB
0
TABLE
2
LAYER
5
2
100
AcDbSymbolTable
70
2
0
LAYER
5
50
100
AcDbSymbolTableRecord
100
AcDbLayerTableRecord
2
0
70
0
6
CONTINUOUS
0
ENDTAB
0
TABLE
2
STYLE
5
3
100
AcDbSymbolTable
70
1
0
STYLE
5
11
100
AcDbSymbolTableRecord
100
AcDbTextStyleTableRecord
2
STANDARD
70
0
0
ENDTAB
0
TABLE
2
VIEW
5
6
100
AcDbSymbolTable
70
0
0
ENDTAB
0
TABLE
2
UCS
5
7
100
AcDbSymbolTable
70
0
0
ENDTAB
0
TABLE
2
APPID
5
9
100
AcDbSymbolTable
70
2
0
APPID
5
12
100
AcDbSymbolTableRecord
100
AcDbRegAppTableRecord
2
ACAD
70
0
0
ENDTAB
0
TABLE
2
DIMSTYLE
5
A
100
AcDbSymbolTable
70
1
0
ENDTAB
0
TABLE
2
BLOCK_RECORD
5
1
100
AcDbSymbolTable
70
1
0
BLOCK_RECORD
5
1F
100
AcDbSymbolTableRecord
100
AcDbBlockTableRecord
2
*MODEL_SPACE
0
BLOCK_RECORD
5
1B
100
AcDbSymbolTableRecord
100
AcDbBlockTableRecord
2
*PAPER_SPACE
0
ENDTAB
0
ENDSEC
0
SECTION
2
BLOCKS
0
BLOCK
5
20
100
AcDbEntity
100
AcDbBlockBegin
2
*MODEL_SPACE
0
ENDBLK
5
21
100
AcDbEntity
100
AcDbBlockEnd
0
BLOCK
5
1C
100
AcDbEntity
100
AcDbBlockBegin
2
*PAPER_SPACE
0
ENDBLK
5
1D
100
AcDbEntity
100
AcDbBlockEnd
0
ENDSEC
0
SECTION
2
ENTITIES
0
ARC
5
100
100
AcDbEntity
8
0
100
AcDbCircle
10
-0.72844358131644715
20
-3.4443750036646708
30
0
40
0.040000000000000487
210
0
220
0
230
1
100
AcDbArc
50
270
51
315.00000000000102
0
LINE
5
101
100
AcDbEntity
8
0
100
AcDbLine
10
-0.70015931006898458
20
-3.4726592749121323
30
0
11
-0.027340767574061293
21
-2.7998407324172065
31
0
0
ARC
5
102
100
AcDbEntity
8
0
100
AcDbCircle
10
-0.055625038821522858
20
-2.7715564611697405
30
0
40
0.040000000000002651
210
0
220
0
230
1
100
AcDbArc
50
-45.000000000004533
51
0
0
LINE
5
103
100
AcDbEntity
8
0
100
AcDbLine
10
-0.015625038821520186
20
-2.7715564611697405
30
0
11
-0.015625038821523888
21
-0.50875000366467094
31
0
0
ARC
5
104
100
AcDbEntity
8
0
100
AcDbCircle
10
-0.055625038821523948
20
-0.50875000366467105
30
0
40
0.040000000000000063
210
0
220
-0
230
1
100
AcDbArc
50
0
51
90
0
LINE
5
105
100
AcDbEntity
8
0
100
AcDbLine
10
-0.055625038821523948
20
-0.46875000366467101
30
0
11
-0.28125003882152333
21
-0.46875000366467107
31
0
0
ARC
5
106
100
AcDbEntity
8
0
100
AcDbCircle
10
-0.28125003882152322
20
-0.28125000366467107
30
0
40
0.1875
210
-1.1655884772967523e-16
220
0
230
1
100
AcDbArc
50
180
51
269.99999999999994
0
LINE
5
107
100
AcDbEntity
8
0
100
AcDbLine
10
-0.46875003882152322
20
-0.28125000366467107
30
-2.1854783949314103e-17
11
-0.46875003882152322
21
-0.055625003664671116
31
0
0
ARC
5
108
100
AcDbEntity
8
0
100
AcDbCircle
10
-0.50875003882152314
20
-0.055625003664671102
30
0
40
0.039999999999999959
210
0
220
0
230
1
100
AcDbArc
50
0
51
90
0
LINE
5
109
100
AcDbEntity
8
0
100
AcDbLine
10
-0.50875003882152314
20
-0.015625003664671115
30
0
11
-1.3025000388215233
21
-0.015625003664671181
31
0
0
ARC
5
110
100
AcDbEntity
8
0
100
AcDbCircle
10
-1.3025000388215233
20
-0.055625003664671144
30
0
40
0.039999999999999959
210
0
220
-0
230
1
100
AcDbArc
50
90
51
180
0
LINE
5
111
100
AcDbEntity
8
0
100
AcDbLine
10
-1.3425000388215231
20
-0.055625003664671137
30
0
11
-1.3425000388215227
21
-0.59573164073335105
31
0
0
ARC
5
112
100
AcDbEntity
8
0
100
AcDbCircle
10
-1.3025000388215233
20
-0.59573164073335105
30
0
40
0.039999999999999439
210
0
220
0
230
1
100
AcDbArc
50
180
51
226.06216011425866
0
ARC
5
113
100
AcDbEntity
8
0
100
AcDbCircle
10
-1.8125000388215231
20
-1.125000003664671
30
0
40
0.69500000000000051
210
6.4833057907733443e-18
220
-3.0770128793689767e-17
230
1
100
AcDbArc
50
-78.101742561981368
51
46.062160114260337
0
SPLINE
5
114
100
AcDbEntity
8
0
100
AcDbSpline
70
0
71
3
72
11
73
7
74
0
42
0.000000001
43
0.0000000001
44
0.0000000001
40
-2.2106109906434699
40
-2.2106109906434699
40
-2.2106109906434699
40
-2.2106109906434699
40
-1.9242087789297349
40
-1.6378065672159998
40
-1.351404355502265
40
-1.06500214378853
40
-1.06500214378853
40
-1.06500214378853
40
-1.06500214378853
10
-1.6692088131177532
20
-1.8050681066046008
30
0
10
-1.6866003586899752
20
-1.8161630730633762
30
0
10
-1.7264088176572507
20
-1.8351736746329981
30
1.0927391974657052e-16
10
-1.7961920885960809
20
-1.8483303070303569
30
-6.556435184794231e-17
10
-1.8674005146919535
20
-1.8432842383247556
30
-2.1854783949314103e-17
10
-1.9098154690295797
20
-1.8290035481228872
30
0
10
-1.9287805995505531
20
-1.8200000036646709
30
0
0
LINE
5
115
100
AcDbEntity
8
0
100
AcDbLine
10
-1.9287805995505531
20
-1.8200000036646704
30
0
11
-2.5068750388215233
21
-1.8200000036646711
31
0
0
ARC
5
116
100
AcDbEntity
8
0
100
AcDbCircle
10
-2.5068750388215233
20
-1.8600000036646713
30
0
40
0.04000000000000014
210
0
220
-0
230
1
100
AcDbArc
50
90
51
180
0
LINE
5
117
100
AcDbEntity
8
0
100
AcDbLine
10
-2.5468750388215233
20
-1.8600000036646713
30
0
11
-2.5468750388215229
21
-2.9912500036646708
31
0
0
ARC
5
118
100
AcDbEntity
8
0
100
AcDbCircle
10
-2.5068750388215224
20
-2.9912500036646708
30
0
40
0.040000000000000487
210
0
220
0
230
1
100
AcDbArc
50
180
51
270
0
LINE
5
119
100
AcDbEntity
8
0
100
AcDbLine
10
-2.5068750388215224
20
-3.0312500036646712
30
0
11
-2.2812500388215229
21
-3.0312500036646712
31
0
0
ARC
5
120
100
AcDbEntity
8
0
100
AcDbCircle
10
-2.2812500388215229
20
-3.2187500036646717
30
0
40
0.18750000000000008
210
0
220
0
230
1
100
AcDbArc
50
0
51
90
0
LINE
5
121
100
AcDbEntity
8
0
100
AcDbLine
10
-2.0937500388215224
20
-3.2187500036646717
30
0
11
-2.0937500388215233
21
-3.4443750036646712
31
0
0
ARC
5
122
100
AcDbEntity
8
0
100
AcDbCircle
10
-2.0537500388215228
20
-3.4443750036646712
30
0
40
0.040000000000000487
210
0
220
0
230
1
100
AcDbArc
50
180
51
270
0
LINE
5
123
100
AcDbEntity
8
0
100
AcDbLine
10
-2.0537500388215228
20
-3.4843750036646712
30
0
11
-0.72844358131644715
21
-3.4843750036646712
31
0
0
CIRCLE
5
124
100
AcDbEntity
8
0
100
AcDbCircle
10
-0.36250003882152532
20
-2.5625000036645731
30
0
40
0.20312499999999997
210
-6.1629758220391547e-33
220
0
230
1
0
CIRCLE
5
125
100
AcDbEntity
8
0
100
AcDbCircle
10
-0.66250003882153197
20
-1.1000000036646214
30
0
40
0.37499999999999994
210
6.1629758220391547e-33
220
0
230
1
0
CIRCLE
5
126
100
AcDbEntity
8
0
100
AcDbCircle
10
-2.2500000388215602
20
-2.6500000036646543
30
4.3709567898628207e-17
40
0.084749999999999409
210
-6.1629758220391547e-33
220
0
230
1
0
CIRCLE
5
127
100
AcDbEntity
8
0
100
AcDbCircle
10
-0.91250003882141839
20
-0.50000000366454855
30
4.3709567898628207e-17
40
0.084749999999999548
210
6.1629758220391547e-33
220
-4.9303806576313238e-32
230
1
0
ENDSEC
0
SECTION
2
OBJECTS
0
DICTIONARY
5
C
100
AcDbDictionary
3
ACAD_GROUP
350
D
3
ACAD_MLINESTYLE
350
17
0
DICTIONARY
5
D
100
AcDbDictionary
0
DICTIONARY
5
1A
330
C
100
AcDbDictionary
0
DICTIONARY
5
17
100
AcDbDictionary
0
ENDSEC
0
EOF
