0
SECTION
2
HEADER
9
$INSUNITS
70
1
9
$ACADVER
1
AC1014
9
$HANDSEED
5
FFFF
0
ENDSEC
0
SECTION
2
TABLES
0
TABLE
2
VPORT
5
8
100
AcDbSymbolTable
0
ENDTAB
0
TABLE
2
LTYPE
5
5
100
AcDbSymbolTable
0
LTYPE
5
14
100
AcDbSymbolTableRecord
100
AcDbLinetypeTableRecord
2
BYBLOCK
70
0
0
LTYPE
5
15
100
AcDbSymbolTableRecord
100
AcDbLinetypeTableRecord
2
BYLAYER
70
0
0
ENDTAB
0
TABLE
2
LAYER
5
2
100
AcDbSymbolTable
70
2
0
LAYER
5
50
100
AcDbSymbolTableRecord
100
AcDbLayerTableRecord
2
0
70
0
6
CONTINUOUS
0
ENDTAB
0
TABLE
2
STYLE
5
3
100
AcDbSymbolTable
70
1
0
STYLE
5
11
100
AcDbSymbolTableRecord
100
AcDbTextStyleTableRecord
2
STANDARD
70
0
0
ENDTAB
0
TABLE
2
VIEW
5
6
100
AcDbSymbolTable
70
0
0
ENDTAB
0
TABLE
2
UCS
5
7
100
AcDbSymbolTable
70
0
0
ENDTAB
0
TABLE
2
APPID
5
9
100
AcDbSymbolTable
70
2
0
APPID
5
12
100
AcDbSymbolTableRecord
100
AcDbRegAppTableRecord
2
ACAD
70
0
0
ENDTAB
0
TABLE
2
DIMSTYLE
5
A
100
AcDbSymbolTable
70
1
0
ENDTAB
0
TABLE
2
BLOCK_RECORD
5
1
100
AcDbSymbolTable
70
1
0
BLOCK_RECORD
5
1F
100
AcDbSymbolTableRecord
100
AcDbBlockTableRecord
2
*MODEL_SPACE
0
BLOCK_RECORD
5
1B
100
AcDbSymbolTableRecord
100
AcDbBlockTableRecord
2
*PAPER_SPACE
0
ENDTAB
0
ENDSEC
0
SECTION
2
BLOCKS
0
BLOCK
5
20
100
AcDbEntity
100
AcDbBlockBegin
2
*MODEL_SPACE
0
ENDBLK
5
21
100
AcDbEntity
100
AcDbBlockEnd
0
BLOCK
5
1C
100
AcDbEntity
100
AcDbBlockBegin
2
*PAPER_SPACE
0
ENDBLK
5
1D
100
AcDbEntity
100
AcDbBlockEnd
0
ENDSEC
0
SECTION
2
ENTITIES
0
LWPOLYLINE
5
100
100
AcDbEntity
8
0
100
AcDbPolyline
90
36
70
1
43
0.0
10
-0.44249999999999873
20
-0.562499999999999
42
0.41421356237310725
10
-0.19249999999999251
20
-0.81249999999999878
10
-0.061250000000000908
20
-0.81249999999999212
42
-0.4142135623731022
10
-0.031250000000000125
20
-0.84249999999999181
10
-0.031249999755359786
20
-3.2824999987418497
42
-0.41421356096927331
10
-0.061249999856211393
20
-3.3124999989864898
10
-0.19250000119823713
20
-3.3125
42
0.99999999999999989
10
-0.19249999999999998
20
-3.8124999999999996
10
-0.06124999999999995
20
-3.8124999999999996
42
-0.41421356237309453
10
-0.031250000000000125
20
-3.8424999999999998
10
-0.031250000000004795
20
-6.2825000000000095
42
-0.41421356237310381
10
-0.061250000000001512
20
-6.3125000000000053
10
-0.19249999999999795
20
-6.3124999999999982
42
0.41421356237309509
10
-0.44249999999999812
20
-6.5624999999999991
10
-0.44249999999999784
20
-7.0637499999999989
42
-0.41421356237309764
10
-0.47249999999999814
20
-7.0937499999999982
10
-5.2774999999999599
20
-7.0937500000000098
42
-0.41421356237309503
10
-5.3074999999999699
20
-7.0637499999999989
10
-5.307500000000001
20
-6.5624999999999991
42
0.41421356237309503
10
-5.5574999999999992
20
-6.3125000000000027
10
-5.6887499999999998
20
-6.3125000000000098
42
-0.41421356237309503
10
-5.7187499999999991
20
-6.2825000000000095
10
-5.7187499999999991
20
-3.8424999999999998
42
-0.41421356237309503
10
-5.6887499999999998
20
-3.8124999999999996
10
-5.5574999999999992
20
-3.812500000157268
42
0.99999999999999989
10
-5.5574999988017639
20
-3.3124999997553597
10
-5.6887500238209485
20
-3.3124999943382583
42
-0.41421356237305412
10
-5.7187500192735685
20
-3.2824999985980647
10
-5.7187500002875771
20
-0.84249999985620394
42
-0.41421356096927697
10
-5.6887500002875795
20
-0.81249999999999489
10
-5.5575000000000081
20
-0.81249999999999989
42
0.41421356237310786
10
-5.3075000000000019
20
-0.56249999999999911
10
-5.3075000000000099
20
-0.061250000000003982
42
-0.41421356237309781
10
-5.2775000000000096
20
-0.031250000000003317
10
-0.47249999999999798
20
-0.031250000000001846
42
-0.41421356237309653
10
-0.44249999999999873
20
-0.061250000000001054
0
CIRCLE
5
101
100
AcDbEntity
8
0
100
AcDbCircle
10
-1.0000000000000042
20
-5.6249999999999991
30
5.1905111879620994e-17
40
0.08474999999999995
210
0
220
0
230
1
0
CIRCLE
5
102
100
AcDbEntity
8
0
100
AcDbCircle
10
-2.8750000000000036
20
-5.6249999999999991
30
5.1905111879620994e-17
40
0.084749999999999687
210
0
220
0
230
1
0
CIRCLE
5
103
100
AcDbEntity
8
0
100
AcDbCircle
10
-5.0000000000000044
20
-5.6249999999999991
30
5.1905111879620994e-17
40
0.084750000000000228
210
0
220
0
230
1
0
CIRCLE
5
104
100
AcDbEntity
8
0
100
AcDbCircle
10
-2.8750000000000036
20
-2.4270487688141293
30
5.1905111879620994e-17
40
0.084749999999999687
210
0
220
0
230
1
0
CIRCLE
5
105
100
AcDbEntity
8
0
100
AcDbCircle
10
-1.0000000000000042
20
-1.3749999999999998
30
5.1905111879620994e-17
40
0.08474999999999995
210
0
220
0
230
1
0
CIRCLE
5
106
100
AcDbEntity
8
0
100
AcDbCircle
10
-5.0000000000000044
20
-1.3749999999999998
30
5.1905111879620994e-17
40
0.084750000000000228
210
0
220
0
230
1
0
CIRCLE
5
107
100
AcDbEntity
8
0
100
AcDbCircle
10
-1.3300000000000043
20
-0.77500000000000091
30
0
40
0.37499999999999994
210
0
220
0
230
1
0
CIRCLE
5
108
100
AcDbEntity
8
0
100
AcDbCircle
10
-3.0100000000000038
20
-1.2399999999999998
30
0
40
0.37500000000000017
210
0
220
0
230
1
0
CIRCLE
5
109
100
AcDbEntity
8
0
100
AcDbCircle
10
-4.7200000000000033
20
-0.77500000000000091
30
0
40
0.37500000000000017
210
0
220
0
230
1
0
CIRCLE
5
110
100
AcDbEntity
8
0
100
AcDbCircle
10
-4.7200000000000033
20
-2.0499999999999994
30
0
40
0.37500000000000017
210
0
220
0
230
1
0
CIRCLE
5
111
100
AcDbEntity
8
0
100
AcDbCircle
10
-1.3300000000000043
20
-2.0499999999999994
30
0
40
0.37499999999999994
210
0
220
0
230
1
0
CIRCLE
5
112
100
AcDbEntity
8
0
100
AcDbCircle
10
-2.9600000000000044
20
-3.3250000000000002
30
0
40
0.37500000000000017
210
0
220
0
230
1
0
CIRCLE
5
113
100
AcDbEntity
8
0
100
AcDbCircle
10
-4.7200000000000033
20
-3.3250000000000002
30
0
40
0.37500000000000017
210
0
220
0
230
1
0
CIRCLE
5
114
100
AcDbEntity
8
0
100
AcDbCircle
10
-1.0000000000000042
20
-4.8120000000000003
30
0
40
0.37499999999999994
210
0
220
0
230
1
0
CIRCLE
5
115
100
AcDbEntity
8
0
100
AcDbCircle
10
-2.2500000000000044
20
-4.8120000000000003
30
0
40
0.37499999999999994
210
0
220
0
230
1
0
CIRCLE
5
116
100
AcDbEntity
8
0
100
AcDbCircle
10
-3.500000000000004
20
-4.8120000000000003
30
0
40
0.37499999999999967
210
0
220
0
230
1
0
CIRCLE
5
117
100
AcDbEntity
8
0
100
AcDbCircle
10
-4.7500000000000036
20
-4.8120000000000003
30
0
40
0.37499999999999967
210
0
220
0
230
1
0
CIRCLE
5
118
100
AcDbEntity
8
0
100
AcDbCircle
10
-1.0000000000000042
20
-6.3119999999999994
30
0
40
0.37499999999999994
210
0
220
0
230
1
0
CIRCLE
5
119
100
AcDbEntity
8
0
100
AcDbCircle
10
-2.2500000000000044
20
-6.3119999999999994
30
0
40
0.37499999999999994
210
0
220
0
230
1
0
CIRCLE
5
120
100
AcDbEntity
8
0
100
AcDbCircle
10
-3.500000000000004
20
-6.3119999999999994
30
0
40
0.37499999999999967
210
0
220
0
230
1
0
CIRCLE
5
121
100
AcDbEntity
8
0
100
AcDbCircle
10
-4.7500000000000036
20
-6.3119999999999994
30
0
40
0.37499999999999967
210
0
220
0
230
1
0
ENDSEC
0
SECTION
2
OBJECTS
0
DICTIONARY
5
C
100
AcDbDictionary
3
ACAD_GROUP
350
D
3
ACAD_MLINESTYLE
350
17
0
DICTIONARY
5
D
100
AcDbDictionary
0
DICTIONARY
5
1A
330
C
100
AcDbDictionary
0
DICTIONARY
5
17
100
AcDbDictionary
0
ENDSEC
0
EOF
