0
SECTION
2
HEADER
9
$INSUNITS
70
1
9
$ACADVER
1
AC1014
9
$HANDSEED
5
FFFF
0
ENDSEC
0
SECTION
2
TABLES
0
TABLE
2
VPORT
5
8
100
AcDbSymbolTable
0
ENDTAB
0
TABLE
2
LTYPE
5
5
100
AcDbSymbolTable
0
LTYPE
5
14
100
AcDbSymbolTableRecord
100
AcDbLinetypeTableRecord
2
BYBLOCK
70
0
0
LTYPE
5
15
100
AcDbSymbolTableRecord
100
AcDbLinetypeTableRecord
2
BYLAYER
70
0
0
ENDTAB
0
TABLE
2
LAYER
5
2
100
AcDbSymbolTable
70
2
0
LAYER
5
50
100
AcDbSymbolTableRecord
100
AcDbLayerTableRecord
2
0
70
0
6
CONTINUOUS
0
ENDTAB
0
TABLE
2
STYLE
5
3
100
AcDbSymbolTable
70
1
0
STYLE
5
11
100
AcDbSymbolTableRecord
100
AcDbTextStyleTableRecord
2
STANDARD
70
0
0
ENDTAB
0
TABLE
2
VIEW
5
6
100
AcDbSymbolTable
70
0
0
ENDTAB
0
TABLE
2
UCS
5
7
100
AcDbSymbolTable
70
0
0
ENDTAB
0
TABLE
2
APPID
5
9
100
AcDbSymbolTable
70
2
0
APPID
5
12
100
AcDbSymbolTableRecord
100
AcDbRegAppTableRecord
2
ACAD
70
0
0
ENDTAB
0
TABLE
2
DIMSTYLE
5
A
100
AcDbSymbolTable
70
1
0
ENDTAB
0
TABLE
2
BLOCK_RECORD
5
1
100
AcDbSymbolTable
70
1
0
BLOCK_RECORD
5
1F
100
AcDbSymbolTableRecord
100
AcDbBlockTableRecord
2
*MODEL_SPACE
0
BLOCK_RECORD
5
1B
100
AcDbSymbolTableRecord
100
AcDbBlockTableRecord
2
*PAPER_SPACE
0
ENDTAB
0
ENDSEC
0
SECTION
2
BLOCKS
0
BLOCK
5
20
100
AcDbEntity
100
AcDbBlockBegin
2
*MODEL_SPACE
0
ENDBLK
5
21
100
AcDbEntity
100
AcDbBlockEnd
0
BLOCK
5
1C
100
AcDbEntity
100
AcDbBlockBegin
2
*PAPER_SPACE
0
ENDBLK
5
1D
100
AcDbEntity
100
AcDbBlockEnd
0
ENDSEC
0
SECTION
2
ENTITIES
0
LWPOLYLINE
5
100
100
AcDbEntity
8
0
100
AcDbPolyline
90
30
70
1
43
0.0
10
-5.3075000000000037
20
-1.6875000000000002
10
-5.3075000000000054
20
-2.1562499999999996
42
0.41421356237309503
10
-5.2450000000000054
20
-2.21875
10
-3.375000000000004
20
-2.2187499999999987
10
-3.375000000000004
20
-0.61250000000000016
42
-0.41421356237309664
10
-3.312500000000004
20
-0.54999999999999982
10
-2.6875000000000044
20
-0.54999999999999982
42
-0.41421356237309503
10
-2.625000000000004
20
-0.61250000000000004
10
-2.625000000000004
20
-2.2187499999999982
10
-0.50500000000000489
20
-2.2187499999999987
42
0.41421356237309626
10
-0.44250000000000433
20
-2.1562499999999996
10
-0.44250000000000422
20
-1.6874999999999998
42
-0.41421356237310392
10
-0.19249999999999676
20
-1.4375
10
-0.093750000000008091
20
-1.437500000000006
42
0.41421356237311335
10
-0.031250000000004184
20
-1.375000000000006
10
-0.031250000000004469
20
-0.87499999999999478
42
0.41421356237311319
10
-0.093750000000008327
20
-0.81249999999999478
10
-0.19249999999998918
20
-0.81250000000000089
42
-0.41421356237311652
10
-0.44250000000000528
20
-0.56249999999999867
10
-0.4425000000000045
20
-0.093750000000000486
42
0.41421356237309542
10
-0.50500000000000456
20
-0.031250000000000416
10
-5.2450000000000117
20
-0.031250000000002151
42
0.41421356237310697
10
-5.3075000000000125
20
-0.093750000000003289
10
-5.3075000000000037
20
-0.56249999999999678
42
-0.41421356237312024
10
-5.5575000000000214
20
-0.81250000000000067
10
-5.6562500000000009
20
-0.81249999999999478
42
0.41421356237311141
10
-5.7187500000000044
20
-0.87499999999999478
10
-5.7187500000000044
20
-1.375000000000006
42
0.41421356237311141
10
-5.6562500000000009
20
-1.437500000000006
10
-5.5575000000000117
20
-1.4375
42
-0.41421356237310447
0
CIRCLE
5
101
100
AcDbEntity
8
0
100
AcDbCircle
10
-0.74999999999999545
20
-0.36999999999999994
30
4.3709567898628207e-17
40
0.08474999999999995
210
0
220
0
230
1
0
CIRCLE
5
102
100
AcDbEntity
8
0
100
AcDbCircle
10
-0.74999999999999545
20
-1.8799999999999994
30
4.3709567898628207e-17
40
0.08474999999999995
210
0
220
0
230
1
0
CIRCLE
5
103
100
AcDbEntity
8
0
100
AcDbCircle
10
-4.9999999999999947
20
-1.8799999999999994
30
4.3709567898628207e-17
40
0.084750000000000228
210
0
220
0
230
1
0
CIRCLE
5
104
100
AcDbEntity
8
0
100
AcDbCircle
10
-4.9999999999999947
20
-0.36999999999999994
30
4.3709567898628207e-17
40
0.084750000000000228
210
0
220
0
230
1
0
CIRCLE
5
105
100
AcDbEntity
8
0
100
AcDbCircle
10
-4.7499999999999956
20
-1.1249999999999998
30
-2.1854783949314103e-17
40
0.37499999999999967
210
0
220
0
230
1
0
CIRCLE
5
106
100
AcDbEntity
8
0
100
AcDbCircle
10
-1.2499999999999956
20
-0.94999999999999962
30
0
40
0.18750000000000008
210
0
220
0
230
1
0
ENDSEC
0
SECTION
2
OBJECTS
0
DICTIONARY
5
C
100
AcDbDictionary
3
ACAD_GROUP
350
D
3
ACAD_MLINESTYLE
350
17
0
DICTIONARY
5
D
100
AcDbDictionary
0
DICTIONARY
5
1A
330
C
100
AcDbDictionary
0
DICTIONARY
5
17
100
AcDbDictionary
0
ENDSEC
0
EOF
