0
SECTION
2
HEADER
9
$INSUNITS
70
1
9
$ACADVER
1
AC1014
9
$HANDSEED
5
FFFF
0
ENDSEC
0
SECTION
2
TABLES
0
TABLE
2
VPORT
5
8
100
AcDbSymbolTable
0
ENDTAB
0
TABLE
2
LTYPE
5
5
100
AcDbSymbolTable
0
LTYPE
5
14
100
AcDbSymbolTableRecord
100
AcDbLinetypeTableRecord
2
BYBLOCK
70
0
0
LTYPE
5
15
100
AcDbSymbolTableRecord
100
AcDbLinetypeTableRecord
2
BYLAYER
70
0
0
ENDTAB
0
TABLE
2
LAYER
5
2
100
AcDbSymbolTable
70
2
0
LAYER
5
50
100
AcDbSymbolTableRecord
100
AcDbLayerTableRecord
2
0
70
0
6
CONTINUOUS
0
ENDTAB
0
TABLE
2
STYLE
5
3
100
AcDbSymbolTable
70
1
0
STYLE
5
11
100
AcDbSymbolTableRecord
100
AcDbTextStyleTableRecord
2
STANDARD
70
0
0
ENDTAB
0
TABLE
2
VIEW
5
6
100
AcDbSymbolTable
70
0
0
ENDTAB
0
TABLE
2
UCS
5
7
100
AcDbSymbolTable
70
0
0
ENDTAB
0
TABLE
2
APPID
5
9
100
AcDbSymbolTable
70
2
0
APPID
5
12
100
AcDbSymbolTableRecord
100
AcDbRegAppTableRecord
2
ACAD
70
0
0
ENDTAB
0
TABLE
2
DIMSTYLE
5
A
100
AcDbSymbolTable
70
1
0
ENDTAB
0
TABLE
2
BLOCK_RECORD
5
1
100
AcDbSymbolTable
70
1
0
BLOCK_RECORD
5
1F
100
AcDbSymbolTableRecord
100
AcDbBlockTableRecord
2
*MODEL_SPACE
0
BLOCK_RECORD
5
1B
100
AcDbSymbolTableRecord
100
AcDbBlockTableRecord
2
*PAPER_SPACE
0
ENDTAB
0
ENDSEC
0
SECTION
2
BLOCKS
0
BLOCK
5
20
100
AcDbEntity
100
AcDbBlockBegin
2
*MODEL_SPACE
0
ENDBLK
5
21
100
AcDbEntity
100
AcDbBlockEnd
0
BLOCK
5
1C
100
AcDbEntity
100
AcDbBlockBegin
2
*PAPER_SPACE
0
ENDBLK
5
1D
100
AcDbEntity
100
AcDbBlockEnd
0
ENDSEC
0
SECTION
2
ENTITIES
0
LWPOLYLINE
5
100
100
AcDbEntity
8
0
100
AcDbPolyline
90
48
70
1
43
0.0
10
0.12499952322232005
20
3.4300000186450941
42
0.41421358317655926
10
0.062499526773780512
20
3.3675000088786886
10
0.062499988280338828
20
0.12500001331784055
42
0.41421358317686763
10
0.12499999715889151
20
0.062500017757111836
10
5.8750000239273081
20
0.062500834584003212
42
0.41421348550503806
10
5.9375000150487542
20
0.12500082705980467
10
5.9375000601939281
20
0.5000008093026912
42
0.41421359763367521
10
5.8750000601939272
20
0.56250081682688879
10
5.7499998845786466
20
0.5625008168268848
42
-0.99999999999999989
10
5.7499998845786466
20
1.0625008168268892
10
5.8750005366631068
20
1.0625008168268895
42
0.41421356237309342
10
5.9375005366631077
20
1.1250008168268895
10
5.9375005366631228
20
2.4942460787561505
42
-0.045941021516414569
10
5.9385513849177904
20
2.5056588676256193
10
6.0667020326328283
20
3.1956522327680861
42
-0.3613952947047907
10
6.3124994743895266
20
3.4000017490748884
10
6.499999518782424
20
3.4000017757105727
42
0.41421352076558765
10
6.5624995099038648
20
3.4625017757105701
10
6.5624995099038665
20
4.8246273680611491
42
0.41421356237310158
10
6.4999995099038657
20
4.8871273680611482
10
6.3749995099037235
20
4.8871273680611527
42
-0.41421356237294105
10
6.1249995099038301
20
5.1371273680611633
10
6.124999509903839
20
5.2220645826376142
42
0.45309410530175037
10
6.054341622890079
20
5.2840298864734736
10
4.9516180288250355
20
5.1388535711662664
42
0.28993980274966452
10
4.9002758671758775
20
5.0960192424522246
10
4.2984444361827174
20
3.2242380497563525
42
-0.32576849249047651
10
4.1794443388569071
20
3.1375000000000015
10
2.9374996752381968
20
3.1374999999999997
42
0.41421356237309503
10
2.8749996752381972
20
3.0750000000000002
10
2.8749996752381972
20
2.3124999999999996
42
-0.99999999999999989
10
2.3749996752381972
20
2.3124999999999996
10
2.3749996752381968
20
2.4374999999999996
42
0.41421356237309503
10
2.3124996752381972
20
2.4999999999999991
10
1.5270316654181477
20
2.4999999999999973
42
-0.33422581864519985
10
1.4069198616365259
20
2.5903856302624786
10
1.1744624444890834
20
3.3970124701477178
42
-0.12839576625545865
10
1.1728718336830406
20
3.4601491519151728
10
1.4378877655556372
20
4.5909508477680152
42
0.52439880337614408
10
1.3688786760171372
20
4.6671773082467025
10
0.7043414763801471
20
4.5796893782065036
42
0.3763734114377596
10
0.6499993586248195
20
4.5177240648613557
10
0.64999938230816989
20
4.3510605785658596
42
-0.4148647595214458
10
0.40000003552571539
20
4.1005048399627082
10
0.27499941730669974
20
4.1005048221997686
42
0.41421356237307577
10
0.21249942618812723
20
4.0380048133183468
10
0.21249950370589651
20
3.4925000301901181
42
-0.41421358319008539
10
0.14999950814522153
20
3.4300000213086892
0
CIRCLE
5
101
100
AcDbEntity
8
0
100
AcDbCircle
10
3.9886494015495311
20
2.0733465890519143
30
0
40
0.12500000000000014
210
5.4350652918770437e-31
220
-2.9677147019461642e-61
230
1
0
CIRCLE
5
102
100
AcDbEntity
8
0
100
AcDbCircle
10
1.5499997968587114
20
1.7550001242990094
30
0
40
0.036499999999999456
210
0
220
0
230
1
0
CIRCLE
5
103
100
AcDbEntity
8
0
100
AcDbCircle
10
1.5499997968587649
20
1.430000124299091
30
0
40
0.18750000000000017
210
0
220
0
230
1
0
CIRCLE
5
104
100
AcDbEntity
8
0
100
AcDbCircle
10
5.5249995099039282
20
4.549999999999998
30
0
40
0.37499999999999978
210
0
220
0
230
1
0
CIRCLE
5
105
100
AcDbEntity
8
0
100
AcDbCircle
10
4.8899998650459056
20
2.8125008434625549
30
0
40
0.37500000000000033
210
0
220
0
230
1
0
CIRCLE
5
106
100
AcDbEntity
8
0
100
AcDbCircle
10
3.4499999999999598
20
2.480000852341083
30
0
40
0.37500000000000033
210
0
220
0
230
1
0
CIRCLE
5
107
100
AcDbEntity
8
0
100
AcDbCircle
10
3.44999999999989
20
0.95000085234111953
30
0
40
0.37500000000000028
210
0
220
0
230
1
0
CIRCLE
5
108
100
AcDbEntity
8
0
100
AcDbCircle
10
4.8899998650459411
20
0.95000085234110221
30
0
40
0.37500000000000028
210
0
220
0
230
1
0
CIRCLE
5
109
100
AcDbEntity
8
0
100
AcDbCircle
10
4.0624999147656391
20
0.60000057710675514
30
4.3709567898628207e-17
40
0.084749999999999687
210
0
220
0
230
1
0
CIRCLE
5
110
100
AcDbEntity
8
0
100
AcDbCircle
10
0.72499995560701302
20
0.31250012430054425
30
4.3709567898628207e-17
40
0.084749999999999548
210
0
220
0
230
1
0
CIRCLE
5
111
100
AcDbEntity
8
0
100
AcDbCircle
10
5.6500000443925584
20
1.7500008026220339
30
4.3709567898628207e-17
40
0.084749999999999132
210
0
220
0
230
1
0
CIRCLE
5
112
100
AcDbEntity
8
0
100
AcDbCircle
10
6.2500000443925599
20
4.3750008523419135
30
4.3709567898628207e-17
40
0.084749999999999132
210
0
220
0
230
1
0
CIRCLE
5
113
100
AcDbEntity
8
0
100
AcDbCircle
10
0.72499951487585101
20
3.415000124299775
30
4.3709567898628207e-17
40
0.084749999999999548
210
0
220
0
230
1
0
ENDSEC
0
SECTION
2
OBJECTS
0
DICTIONARY
5
C
100
AcDbDictionary
3
ACAD_GROUP
350
D
3
ACAD_MLINESTYLE
350
17
0
DICTIONARY
5
D
100
AcDbDictionary
0
DICTIONARY
5
1A
330
C
100
AcDbDictionary
0
DICTIONARY
5
17
100
AcDbDictionary
0
ENDSEC
0
EOF
