<?xml version="1.0" encoding="utf-8"?>
<!-- Generator: Fusion 360, Shaper Origin Export Add-In, Version 1.6.10  -->
<svg xmlns="http://www.w3.org/2000/svg" xmlns:xlink="http://www.w3.org/1999/xlink" xmlns:shaper="http://www.shapertools.com/namespaces/shaper" shaper:fusionaddin="version:1.6.10" width="14.605cm" height="9.525cm" version="1.1" x="0cm" y="0cm" viewBox="0 0 14.605 9.525" enable-background="new 0 0 14.605 9.525" xml:space="preserve"><path d="M7.3253,3.7230145 L7.3253,-5.8019855 -7.2797,-5.8019855 -7.2797,3.7230145 7.3253,3.7230145z" transform="matrix(1,0,0,-1,7.2797,3.7230145)" fill="rgb(0,0,0)" shaper:cutDepth="0.003175" stroke-linecap="round" stroke-linejoin="round" /><path d="M4.90214,1.9069545 L4.90214,1.4942045 A0.15875,0.15875 180 0,1 5.06089,1.3354545 L5.40379,1.3354545 A0.15875,0.15875 270 0,1 5.56254,1.4942045 L5.56254,1.9046981 A0.15875,0.15875 0 0,1 5.5160432,2.0169513 L5.3550368,2.1779577 A0.15875,0.15875 45 0,1 5.2427836,2.2244545 L5.1525444,2.2244545 A0.15875,0.15875 90 0,1 5.0150628,2.1450795 L4.9234085,1.9863295 A0.15875,0.15875 150 0,1 4.90214,1.9069545z" transform="matrix(1,0,0,-1,7.2797,3.7230145)" fill="rgb(255,255,255)" stroke="rgb(0,0,0)" stroke-width="0.0010cm" stroke-linecap="round" stroke-linejoin="round" shaper:cutDepth="0.003175" /><path d="M7.08908,-1.5029955 L7.08908,-0.5098955 A0.15875,0.15875 0 0,1 6.93033,-0.3511455 L6.36645,-0.3511455 A0.15875,0.15875 90 0,1 6.2077,-0.5098955 L6.2077,-1.5029955 A0.15875,0.15875 180 0,1 6.36645,-1.6617455 L6.93033,-1.6617455 A0.15875,0.15875 270 0,1 7.08908,-1.5029955z" transform="matrix(1,0,0,-1,7.2797,3.7230145)" fill="rgb(255,255,255)" stroke="rgb(0,0,0)" stroke-width="0.0010cm" stroke-linecap="round" stroke-linejoin="round" shaper:cutDepth="0.003175" /><path d="M2.1637,-3.3198355 L1.6137,-3.3198355 A0.15875,0.15875 90 0,1 1.45495,-3.4785855 L1.45495,-3.8985855 A0.15875,0.15875 180 0,1 1.6137,-4.0573355 L2.1637,-4.0573355 A0.15875,0.15875 270 0,1 2.32245,-3.8985855 L2.32245,-3.4785855 A0.15875,0.15875 0 0,1 2.1637,-3.3198355z" transform="matrix(1,0,0,-1,7.2797,3.7230145)" fill="rgb(255,255,255)" stroke="rgb(0,0,0)" stroke-width="0.0010cm" stroke-linecap="round" stroke-linejoin="round" shaper:cutDepth="0.003175" /><path d="M-1.2828,1.5729045 A0.15875,0.15875 180 0,1 -1.12405,1.4141545 L0.00375,1.4141545 A0.15875,0.15875 270 0,1 0.1625,1.5729045 L0.1625,1.8904045 A0.15875,0.15875 0 0,1 0.00375,2.0491545 L-0.0737,2.0491545 -0.1720032,2.1474577 A0.15875,0.15875 45 0,1 -0.2842564,2.1939545 L-1.12405,2.1939545 A0.15875,0.15875 90 0,1 -1.2828,2.0352045 L-1.2828,1.5729045z" transform="matrix(1,0,0,-1,7.2797,3.7230145)" fill="rgb(255,255,255)" stroke="rgb(0,0,0)" stroke-width="0.0010cm" stroke-linecap="round" stroke-linejoin="round" shaper:cutDepth="0.003175" /><path d="M-2.97565,0.1416545 L-3.5512436,0.1416545 A0.15875,0.15875 90 0,1 -3.6634968,0.0951577 L-4.0933112,-0.3346566 A0.15875,0.15875 97.3690176 0,1 -4.2317,-0.4920955 L-4.2317,-0.9492955 A0.15875,0.15875 180 0,1 -4.07295,-1.1080455 L-2.23145,-1.1080455 A0.15875,0.15875 270 0,1 -2.0727,-0.9492955 L-2.0727,-0.5414019 A0.15875,0.15875 0 0,1 -2.1191968,-0.4291487 L-2.1659032,-0.3824423 A0.15875,0.15875 45 0,1 -2.2781564,-0.3359455 L-2.578775,-0.3359455 -2.8169,-0.0978205 -2.8169,-0.0170955 A0.15875,0.15875 0 0,1 -2.97565,0.1416545z" transform="matrix(1,0,0,-1,7.2797,3.7230145)" fill="rgb(255,255,255)" stroke="rgb(0,0,0)" stroke-width="0.0010cm" stroke-linecap="round" stroke-linejoin="round" shaper:cutDepth="0.003175" /><path d="M1.70809,-5.1161855 L1.17226,-5.1161855 A0.3175,0.3175 90 0,1 0.85476,-5.4336855 L0.85476,-5.5263755 A0.15875,0.15875 0 0,0 0.69601,-5.6851255 L-0.3884386,-5.6851255 A0.15875,0.15875 270 0,0 -0.5006918,-5.6386287 L-0.6458232,-5.4934973 A0.15875,0.15875 225 0,0 -0.69232,-5.3812441 L-0.69232,-5.2673155 -0.85107,-5.1085655 -1.2805436,-5.1085655 A0.15875,0.15875 270 0,0 -1.3927968,-5.0620687 L-1.4903032,-4.9645623 A0.15875,0.15875 225 0,0 -1.5368,-4.8523091 L-1.5368,-4.6323155 A0.15875,0.15875 180 0,0 -1.37805,-4.4735655 L-0.58426,-4.4735655 -0.5113768,-4.4006823 A0.15875,0.15875 135 0,0 -0.3991236,-4.3541855 L1.4200836,-4.3541855 A0.15875,0.15875 90 0,0 1.5323368,-4.4006823 L1.61284,-4.4811855 1.70809,-4.4811855 A0.15875,0.15875 90 0,0 1.86684,-4.6399355 L1.86684,-4.9574355 A0.15875,0.15875 0 0,0 1.70809,-5.1161855z" transform="matrix(1,0,0,-1,7.2797,3.7230145)" fill="rgb(255,255,255)" stroke="rgb(0,0,0)" stroke-width="0.0010cm" stroke-linecap="round" stroke-linejoin="round" shaper:cutDepth="0.003175" /><path d="M-4.8464,-5.0925931 A0.15875,0.15875 180 0,1 -4.7999032,-5.2048463 L-4.6785208,-5.3262287 A0.15875,0.15875 225 0,1 -4.5662676,-5.3727255 L-3.34145,-5.3727255 A0.15875,0.15875 270 0,1 -3.1827,-5.2139755 L-3.1827,-5.0894255 -2.9485968,-4.8553223 A0.15875,0.15875 315 0,1 -2.9021,-4.7430691 L-2.9021,-4.3325755 A0.15875,0.15875 0 0,1 -3.06085,-4.1738255 L-3.1434,-4.1738255 -3.2366032,-4.0806223 A0.15875,0.15875 45 0,1 -3.3488564,-4.0341255 L-3.6006,-4.0341255 -3.6006,-3.9972955 A0.15875,0.15875 0 0,1 -3.75935,-3.8385455 L-4.2587436,-3.8385455 A0.15875,0.15875 90 0,1 -4.3709968,-3.8850423 L-4.66488,-4.1789255 -5.01525,-4.1789255 A0.15875,0.15875 90 0,1 -5.174,-4.3376755 L-5.174,-4.4941691 A0.15875,0.15875 180 0,1 -5.1275032,-4.6064223 L-4.8464,-4.8875255 -4.8464,-5.0925931z" transform="matrix(1,0,0,-1,7.2797,3.7230145)" fill="rgb(255,255,255)" stroke="rgb(0,0,0)" stroke-width="0.0010cm" stroke-linecap="round" stroke-linejoin="round" shaper:cutDepth="0.003175" /><path d="M-6.0529,0.0946045 A0.15875,0.15875 180 0,1 -5.89415,-0.0641455 L-4.82985,-0.0641455 A0.15875,0.15875 270 0,1 -4.6711,0.0946045 L-4.6711,0.4096045 A0.15875,0.15875 0 0,1 -4.82985,0.5683545 L-4.9099,0.5683545 -5.0056032,0.6640577 A0.15875,0.15875 45 0,1 -5.1178564,0.7105545 L-5.89415,0.7105545 A0.15875,0.15875 90 0,1 -6.0529,0.5518045 L-6.0529,0.0946045z" transform="matrix(1,0,0,-1,7.2797,3.7230145)" fill="rgb(255,255,255)" stroke="rgb(0,0,0)" stroke-width="0.0010cm" stroke-linecap="round" stroke-linejoin="round" shaper:cutDepth="0.003175" /><path d="M1.5976,2.1529192 L1.5976,1.1538045 A0.15875,0.15875 180 0,1 1.75635,0.9950545 L2.10433,0.9950545 A0.15875,0.15875 270 0,1 2.26308,1.1538045 L2.26308,2.1215045 A0.15875,0.15875 0 0,1 2.10433,2.2802545 L2.00908,2.2802545 1.65602,2.6333145 1.65602,2.8124045 A0.15875,0.15875 0 0,1 1.49727,2.9711545 L1.40712,2.9711545 1.3215168,3.0567577 A0.15875,0.15875 45 0,1 1.2092636,3.1032545 L0.42285,3.1032545 A0.15875,0.15875 90 0,1 0.2641,2.9445045 L0.2641,2.4873045 A0.15875,0.15875 180 0,1 0.42285,2.3285545 L1.4219646,2.3285545 1.5976,2.1529192z" transform="matrix(1,0,0,-1,7.2797,3.7230145)" fill="rgb(255,255,255)" stroke="rgb(0,0,0)" stroke-width="0.0010cm" stroke-linecap="round" stroke-linejoin="round" shaper:cutDepth="0.003175" /><path d="M4.9841968,-1.4263423 A0.15875,0.15875 45 0,1 4.8719436,-1.3798455 L3.19399,-1.3798455 A0.15875,0.15875 90 0,1 3.03524,-1.5385955 L3.03524,-2.0033955 A0.15875,0.15875 180 0,1 3.19399,-2.1621455 L5.15995,-2.1621455 A0.15875,0.15875 270 0,1 5.3187,-2.0033955 L5.3187,-1.6528955 A0.15875,0.15875 0 0,1 5.15995,-1.4941455 L5.052,-1.4941455 4.9841968,-1.4263423z" transform="matrix(1,0,0,-1,7.2797,3.7230145)" fill="rgb(255,255,255)" stroke="rgb(0,0,0)" stroke-width="0.0010cm" stroke-linecap="round" stroke-linejoin="round" shaper:cutDepth="0.003175" /><path d="M5.42919,-0.8489455 L5.79749,-0.8489455 A0.15875,0.15875 270 0,1 5.95624,-0.6901955 L5.95624,-0.1821955 A0.15875,0.15875 0 0,1 5.79749,-0.0234455 L5.42919,-0.0234455 A0.15875,0.15875 90 0,1 5.27044,-0.1821955 L5.27044,-0.6901955 A0.15875,0.15875 180 0,1 5.42919,-0.8489455z" transform="matrix(1,0,0,-1,7.2797,3.7230145)" fill="rgb(255,255,255)" stroke="rgb(0,0,0)" stroke-width="0.0010cm" stroke-linecap="round" stroke-linejoin="round" shaper:cutDepth="0.003175" /><path d="M4.6322968,3.1507577 L4.6765032,3.1065513 A0.15875,0.15875 225 0,1 4.7887564,3.0600545 L4.80805,3.0600545 A0.15875,0.15875 90 0,0 4.9668,2.9013045 L4.9668,2.5838045 A0.15875,0.15875 0 0,0 4.80805,2.4250545 L3.74009,2.4250545 A0.15875,0.15875 270 0,0 3.58134,2.5838045 L3.58134,3.0385045 A0.15875,0.15875 180 0,0 3.74009,3.1972545 L4.5200436,3.1972545 A0.15875,0.15875 90 0,0 4.6322968,3.1507577z" transform="matrix(1,0,0,-1,7.2797,3.7230145)" fill="rgb(255,255,255)" stroke="rgb(0,0,0)" stroke-width="0.0010cm" stroke-linecap="round" stroke-linejoin="round" shaper:cutDepth="0.003175" /><path d="M4.444636,0.9366545 L3.8089194,0.9366545 A0.15875,0.15875 90 0,1 3.6754326,0.863828 L3.2840232,0.2557523 A0.15875,0.15875 147.23121 0,1 3.25876,0.1698288 L3.25876,-0.0983955 A0.15875,0.15875 180 0,1 3.41751,-0.2571455 L4.85261,-0.2571455 A0.15875,0.15875 270 0,1 5.01136,-0.0983955 L5.01136,0.3176262 A0.15875,0.15875 0 0,1 4.9714101,0.4229262 L4.5634361,0.8832046 A0.15875,0.15875 41.5526131 0,1 4.444636,0.9366545z" transform="matrix(1,0,0,-1,7.2797,3.7230145)" fill="rgb(255,255,255)" stroke="rgb(0,0,0)" stroke-width="0.0010cm" stroke-linecap="round" stroke-linejoin="round" shaper:cutDepth="0.003175" /><path d="M5.13455,-2.2434455 A0.15875,0.15875 90 0,1 4.9758,-2.4021955 L4.9758,-3.5451955 A0.15875,0.15875 180 0,1 5.13455,-3.7039455 L5.47745,-3.7039455 A0.15875,0.15875 270 0,1 5.6362,-3.5451955 L5.6362,-2.5418955 A0.15875,0.15875 0 0,1 5.47745,-2.3831455 L5.3949,-2.3831455 5.3016968,-2.2899423 A0.15875,0.15875 45 0,1 5.1894436,-2.2434455 L5.13455,-2.2434455z" transform="matrix(1,0,0,-1,7.2797,3.7230145)" fill="rgb(255,255,255)" stroke="rgb(0,0,0)" stroke-width="0.0010cm" stroke-linecap="round" stroke-linejoin="round" shaper:cutDepth="0.003175" /><path d="M1.45495,-2.4034455 L1.45495,-2.8234455 A0.15875,0.15875 180 0,1 1.6137,-2.9821955 L2.1637,-2.9821955 A0.15875,0.15875 270 0,1 2.32245,-2.8234455 L2.32245,-2.4034455 A0.15875,0.15875 0 0,1 2.1637,-2.2446955 L1.6137,-2.2446955 A0.15875,0.15875 90 0,1 1.45495,-2.4034455z" transform="matrix(1,0,0,-1,7.2797,3.7230145)" fill="rgb(255,255,255)" stroke="rgb(0,0,0)" stroke-width="0.0010cm" stroke-linecap="round" stroke-linejoin="round" shaper:cutDepth="0.003175" /><path d="M-3.5644968,2.9008513 A0.15875,0.15875 225 0,1 -3.4522436,2.8543545 L-3.01635,2.8543545 A0.15875,0.15875 270 0,1 -2.8576,3.0131045 L-2.8576,3.3306045 A0.15875,0.15875 0 0,1 -3.01635,3.4893545 L-3.57515,3.4893545 A0.15875,0.15875 90 0,1 -3.7339,3.3306045 L-3.7339,3.1360109 A0.15875,0.15875 180 0,1 -3.6874032,3.0237577 L-3.5644968,2.9008513z" transform="matrix(1,0,0,-1,7.2797,3.7230145)" fill="rgb(255,255,255)" stroke="rgb(0,0,0)" stroke-width="0.0010cm" stroke-linecap="round" stroke-linejoin="round" shaper:cutDepth="0.003175" /><path d="M-2.98325,-1.5144455 L-3.0734,-1.5144455 -3.1590032,-1.4288423 A0.15875,0.15875 45 0,1 -3.2712564,-1.3823455 L-4.86035,-1.3823455 A0.15875,0.15875 90 0,1 -5.0191,-1.5410955 L-5.0191,-1.9906955 A0.15875,0.15875 180 0,1 -4.86035,-2.1494455 L-2.98325,-2.1494455 A0.15875,0.15875 270 0,1 -2.8245,-1.9906955 L-2.8245,-1.6731955 A0.15875,0.15875 0 0,1 -2.98325,-1.5144455z" transform="matrix(1,0,0,-1,7.2797,3.7230145)" fill="rgb(255,255,255)" stroke="rgb(0,0,0)" stroke-width="0.0010cm" stroke-linecap="round" stroke-linejoin="round" shaper:cutDepth="0.003175" /><path d="M3.5101128,-3.7249005 L3.3219385,-4.050828 A0.15875,0.15875 150 0,1 3.30067,-4.130203 L3.30067,-4.3824091 A0.15875,0.15875 180 0,1 3.3471668,-4.4946623 L3.49752,-4.6450155 3.49752,-4.7212155 A0.15875,0.15875 180 0,1 3.65627,-4.8799655 L4.85515,-4.8799655 A0.15875,0.15875 270 0,1 5.0139,-4.7212155 L5.0139,-4.1964219 A0.15875,0.15875 0 0,1 4.9674032,-4.0841687 L4.5752568,-3.6920223 A0.15875,0.15875 45 0,1 4.4630036,-3.6455255 L3.6475944,-3.6455255 A0.15875,0.15875 90 0,1 3.5101128,-3.7249005z" transform="matrix(1,0,0,-1,7.2797,3.7230145)" fill="rgb(255,255,255)" stroke="rgb(0,0,0)" stroke-width="0.0010cm" stroke-linecap="round" stroke-linejoin="round" shaper:cutDepth="0.003175" /><path d="M-2.99595,-2.3374255 A0.15875,0.15875 90 0,1 -3.1547,-2.4961755 L-3.1547,-3.7229955 A0.15875,0.15875 180 0,1 -2.99595,-3.8817455 L-2.60995,-3.8817455 A0.15875,0.15875 270 0,1 -2.4512,-3.7229955 L-2.4512,-2.6358755 A0.15875,0.15875 0 0,1 -2.60995,-2.4771255 L-2.6925,-2.4771255 -2.7857032,-2.3839223 A0.15875,0.15875 45 0,1 -2.8979564,-2.3374255 L-2.99595,-2.3374255z" transform="matrix(1,0,0,-1,7.2797,3.7230145)" fill="rgb(255,255,255)" stroke="rgb(0,0,0)" stroke-width="0.0010cm" stroke-linecap="round" stroke-linejoin="round" shaper:cutDepth="0.003175" /><path d="M-5.6947,1.4942045 A0.15875,0.15875 180 0,1 -5.53595,1.3354545 L-5.16765,1.3354545 A0.15875,0.15875 270 0,1 -5.0089,1.4942045 L-5.0089,1.8117045 A0.15875,0.15875 0 0,1 -5.16765,1.9704545 L-5.2502,1.9704545 -5.3434032,2.0636577 A0.15875,0.15875 45 0,1 -5.4556564,2.1101545 L-5.53595,2.1101545 A0.15875,0.15875 90 0,1 -5.6947,1.9514045 L-5.6947,1.4942045z" transform="matrix(1,0,0,-1,7.2797,3.7230145)" fill="rgb(255,255,255)" stroke="rgb(0,0,0)" stroke-width="0.0010cm" stroke-linecap="round" stroke-linejoin="round" shaper:cutDepth="0.003175" /><path d="M-1.0787832,-1.6991487 A0.15875,0.15875 135 0,1 -1.12528,-1.8114019 L-1.12528,-1.9973891 A0.15875,0.15875 180 0,1 -1.0787832,-2.1096423 L-0.9812768,-2.2071487 A0.15875,0.15875 225 0,1 -0.8690236,-2.2536455 L0.3302,-2.2536455 0.3319032,-2.2553487 A0.15875,0.15875 225 0,1 0.4441564,-2.3018455 L0.9476436,-2.3018455 A0.15875,0.15875 270 0,1 1.0598968,-2.2553487 L1.38305,-1.9321955 1.9373,-1.9321955 A0.15875,0.15875 270 0,1 2.09605,-1.7734455 L2.09605,-1.0953455 3.50133,-1.0953455 A0.15875,0.15875 270 0,1 3.66008,-0.9365955 L3.66008,-0.6190955 A0.15875,0.15875 0 0,1 3.50133,-0.4603455 L3.41878,-0.4603455 3.3255768,-0.3671423 A0.15875,0.15875 45 0,1 3.2133236,-0.3206455 L1.36011,-0.3206455 1.20136,-0.1618955 1.20136,0.7220045 A0.15875,0.15875 0 0,1 1.04261,0.8807545 L0.51175,0.8807545 A0.15875,0.15875 90 0,1 0.353,0.7220045 L0.353,0.0552545 0,-0.2977455 -0.3216,-0.2977455 -0.3258032,-0.2935423 A0.15875,0.15875 45 0,1 -0.4380564,-0.2470455 L-0.6009,-0.2470455 -0.6941032,-0.1538423 A0.15875,0.15875 45 0,1 -0.8063564,-0.1073455 L-0.87395,-0.1073455 A0.15875,0.15875 90 0,1 -1.0327,-0.2660955 L-1.0327,-0.9478866 A0.15875,0.15875 140.247945 0,1 -1.0694,-1.0494019 L-1.0694,-1.6897655 -1.0787832,-1.6991487z" transform="matrix(1,0,0,-1,7.2797,3.7230145)" fill="rgb(255,255,255)" stroke="rgb(0,0,0)" stroke-width="0.0010cm" stroke-linecap="round" stroke-linejoin="round" shaper:cutDepth="0.003175" /><path d="M3.06953,-2.5203055 A0.15875,0.15875 90 0,1 2.91078,-2.6790555 L2.91078,-3.1362555 A0.15875,0.15875 180 0,1 3.06953,-3.2950055 L3.41243,-3.2950055 A0.15875,0.15875 270 0,1 3.57118,-3.1362555 L3.57118,-2.8187555 A0.15875,0.15875 0 0,1 3.41243,-2.6600055 L3.32988,-2.6600055 3.2366768,-2.5668023 A0.15875,0.15875 45 0,1 3.1244236,-2.5203055 L3.06953,-2.5203055z" transform="matrix(1,0,0,-1,7.2797,3.7230145)" fill="rgb(255,255,255)" stroke="rgb(0,0,0)" stroke-width="0.0010cm" stroke-linecap="round" stroke-linejoin="round" shaper:cutDepth="0.003175" /><path d="M4.308415,-0.8516727 L4.39414,-0.901166 A0.15875,0.15875 180.0254578 0,1 4.55289,-1.0598455 L4.92119,-1.0598455 A0.15875,0.15875 270 0,1 5.07994,-0.9010955 L5.07994,-0.5835955 A0.15875,0.15875 0 0,1 4.92119,-0.4248455 L4.4366769,-0.4248455 A0.15875,0.15875 90 0,1 4.3573019,-0.4461139 L4.308415,-0.4743388 A0.15875,0.15875 120 0,1 4.22904,-0.6118204 L4.22904,-0.7141911 A0.15875,0.15875 180 0,1 4.308415,-0.8516727z" transform="matrix(1,0,0,-1,7.2797,3.7230145)" fill="rgb(255,255,255)" stroke="rgb(0,0,0)" stroke-width="0.0010cm" stroke-linecap="round" stroke-linejoin="round" shaper:cutDepth="0.003175" /><path d="M2.8383819,1.9364861 L2.764095,1.8935965 A0.15875,0.15875 120 0,1 2.68472,1.7561149 L2.68472,1.6425109 A0.15875,0.15875 180 0,1 2.7312168,1.5302577 L2.8922232,1.3692513 A0.15875,0.15875 225 0,1 3.0044764,1.3227545 L3.35147,1.3227545 A0.15875,0.15875 270 0,1 3.51022,1.4815045 L3.51022,1.7990045 A0.15875,0.15875 0 0,1 3.35147,1.9577545 L2.9177569,1.9577545 A0.15875,0.15875 90 0,1 2.8383819,1.9364861z" transform="matrix(1,0,0,-1,7.2797,3.7230145)" fill="rgb(255,255,255)" stroke="rgb(0,0,0)" stroke-width="0.0010cm" stroke-linecap="round" stroke-linejoin="round" shaper:cutDepth="0.003175" /><path d="M-0.98812,-3.1095855 a0.12192,0.12192 0 1,1 0.24384,0 a0.12192,0.12192 0 1,1 -0.24384,0z" transform="matrix(1,0,0,-1,7.2797,3.7230145)" fill="rgb(255,255,255)" stroke="rgb(0,0,0)" stroke-width="0.0010cm" stroke-linecap="round" stroke-linejoin="round" shaper:cutDepth="0.003175" /><path d="M0.78988,-3.1095855 a0.12192,0.12192 0 1,1 0.24384,0 a0.12192,0.12192 0 1,1 -0.24384,0z" transform="matrix(1,0,0,-1,7.2797,3.7230145)" fill="rgb(255,255,255)" stroke="rgb(0,0,0)" stroke-width="0.0010cm" stroke-linecap="round" stroke-linejoin="round" shaper:cutDepth="0.003175" /><path d="M-0.48139,-3.1095855 a0.50419,0.50419 0 1,1 1.00838,0 a0.50419,0.50419 0 1,1 -1.00838,0z" transform="matrix(1,0,0,-1,7.2797,3.7230145)" fill="rgb(255,255,255)" stroke="rgb(0,0,0)" stroke-width="0.0010cm" stroke-linecap="round" stroke-linejoin="round" shaper:cutDepth="0.003175" /><path d="M2.411035,-4.5319855 a0.215265,0.215265 0 1,1 0.43053,0 a0.215265,0.215265 0 1,1 -0.43053,0z" transform="matrix(1,0,0,-1,7.2797,3.7230145)" fill="rgb(255,255,255)" stroke="rgb(0,0,0)" stroke-width="0.0010cm" stroke-linecap="round" stroke-linejoin="round" shaper:cutDepth="0.003175" /><path d="M-2.668965,-4.5319855 a0.215265,0.215265 0 1,1 0.43053,0 a0.215265,0.215265 0 1,1 -0.43053,0z" transform="matrix(1,0,0,-1,7.2797,3.7230145)" fill="rgb(255,255,255)" stroke="rgb(0,0,0)" stroke-width="0.0010cm" stroke-linecap="round" stroke-linejoin="round" shaper:cutDepth="0.003175" /><path d="M-1.462465,2.7705145 a0.215265,0.215265 0 1,1 0.43053,0 a0.215265,0.215265 0 1,1 -0.43053,0z" transform="matrix(1,0,0,-1,7.2797,3.7230145)" fill="rgb(255,255,255)" stroke="rgb(0,0,0)" stroke-width="0.0010cm" stroke-linecap="round" stroke-linejoin="round" shaper:cutDepth="0.003175" /><path d="M2.411035,2.7705145 a0.215265,0.215265 0 1,1 0.43053,0 a0.215265,0.215265 0 1,1 -0.43053,0z" transform="matrix(1,0,0,-1,7.2797,3.7230145)" fill="rgb(255,255,255)" stroke="rgb(0,0,0)" stroke-width="0.0010cm" stroke-linecap="round" stroke-linejoin="round" shaper:cutDepth="0.003175" /><path d="M6.621085,2.2942645 a0.215265,0.215265 0 1,1 0.43053,0 a0.215265,0.215265 0 1,1 -0.43053,0z" transform="matrix(1,0,0,-1,7.2797,3.7230145)" fill="rgb(255,255,255)" stroke="rgb(0,0,0)" stroke-width="0.0010cm" stroke-linecap="round" stroke-linejoin="round" shaper:cutDepth="0.003175" /><path d="M-7.006015,2.2942645 a0.215265,0.215265 0 1,1 0.43053,0 a0.215265,0.215265 0 1,1 -0.43053,0z" transform="matrix(1,0,0,-1,7.2797,3.7230145)" fill="rgb(255,255,255)" stroke="rgb(0,0,0)" stroke-width="0.0010cm" stroke-linecap="round" stroke-linejoin="round" shaper:cutDepth="0.003175" /><path d="M-7.006015,-4.3732355 a0.215265,0.215265 0 1,1 0.43053,0 a0.215265,0.215265 0 1,1 -0.43053,0z" transform="matrix(1,0,0,-1,7.2797,3.7230145)" fill="rgb(255,255,255)" stroke="rgb(0,0,0)" stroke-width="0.0010cm" stroke-linecap="round" stroke-linejoin="round" shaper:cutDepth="0.003175" /><path d="M6.621085,-4.3732355 a0.215265,0.215265 0 1,1 0.43053,0 a0.215265,0.215265 0 1,1 -0.43053,0z" transform="matrix(1,0,0,-1,7.2797,3.7230145)" fill="rgb(255,255,255)" stroke="rgb(0,0,0)" stroke-width="0.0010cm" stroke-linecap="round" stroke-linejoin="round" shaper:cutDepth="0.003175" /><path d="M3.5915,-2.9444855 a0.635,0.635 0 1,1 1.27,0 a0.635,0.635 0 1,1 -1.27,0z" transform="matrix(1,0,0,-1,7.2797,3.7230145)" fill="rgb(255,255,255)" stroke="rgb(0,0,0)" stroke-width="0.0010cm" stroke-linecap="round" stroke-linejoin="round" shaper:cutDepth="0.003175" /><path d="M-4.6127,-2.9444855 a0.635,0.635 0 1,1 1.27,0 a0.635,0.635 0 1,1 -1.27,0z" transform="matrix(1,0,0,-1,7.2797,3.7230145)" fill="rgb(255,255,255)" stroke="rgb(0,0,0)" stroke-width="0.0010cm" stroke-linecap="round" stroke-linejoin="round" shaper:cutDepth="0.003175" /><path d="M0.23235,1.6275145 a0.635,0.635 0 1,1 1.27,0 a0.635,0.635 0 1,1 -1.27,0z" transform="matrix(1,0,0,-1,7.2797,3.7230145)" fill="rgb(255,255,255)" stroke="rgb(0,0,0)" stroke-width="0.0010cm" stroke-linecap="round" stroke-linejoin="round" shaper:cutDepth="0.003175" /><path d="M3.5661,1.6275145 a0.635,0.635 0 1,1 1.27,0 a0.635,0.635 0 1,1 -1.27,0z" transform="matrix(1,0,0,-1,7.2797,3.7230145)" fill="rgb(255,255,255)" stroke="rgb(0,0,0)" stroke-width="0.0010cm" stroke-linecap="round" stroke-linejoin="round" shaper:cutDepth="0.003175" /><path d="M-3.62845,1.5640145 a0.47625,0.47625 0 1,1 0.9525,0 a0.47625,0.47625 0 1,1 -0.9525,0z" transform="matrix(1,0,0,-1,7.2797,3.7230145)" fill="rgb(255,255,255)" stroke="rgb(0,0,0)" stroke-width="0.0010cm" stroke-linecap="round" stroke-linejoin="round" shaper:cutDepth="0.003175" /><path d="M-5.748715,-0.6584855 a0.215265,0.215265 0 1,1 0.43053,0 a0.215265,0.215265 0 1,1 -0.43053,0z" transform="matrix(1,0,0,-1,7.2797,3.7230145)" fill="rgb(255,255,255)" stroke="rgb(0,0,0)" stroke-width="0.0010cm" stroke-linecap="round" stroke-linejoin="round" shaper:cutDepth="0.003175" /><path d="M-4.796215,-0.6584855 a0.215265,0.215265 0 1,1 0.43053,0 a0.215265,0.215265 0 1,1 -0.43053,0z" transform="matrix(1,0,0,-1,7.2797,3.7230145)" fill="rgb(255,255,255)" stroke="rgb(0,0,0)" stroke-width="0.0010cm" stroke-linecap="round" stroke-linejoin="round" shaper:cutDepth="0.003175" /><path d="M-4.796215,1.8815145 a0.215265,0.215265 0 1,1 0.43053,0 a0.215265,0.215265 0 1,1 -0.43053,0z" transform="matrix(1,0,0,-1,7.2797,3.7230145)" fill="rgb(255,255,255)" stroke="rgb(0,0,0)" stroke-width="0.0010cm" stroke-linecap="round" stroke-linejoin="round" shaper:cutDepth="0.003175" /><path d="M-4.796215,2.9593973 a0.215265,0.215265 0 1,1 0.43053,0 a0.215265,0.215265 0 1,1 -0.43053,0z" transform="matrix(1,0,0,-1,7.2797,3.7230145)" fill="rgb(255,255,255)" stroke="rgb(0,0,0)" stroke-width="0.0010cm" stroke-linecap="round" stroke-linejoin="round" shaper:cutDepth="0.003175" /><path d="M-1.938715,1.8815145 a0.215265,0.215265 0 1,1 0.43053,0 a0.215265,0.215265 0 1,1 -0.43053,0z" transform="matrix(1,0,0,-1,7.2797,3.7230145)" fill="rgb(255,255,255)" stroke="rgb(0,0,0)" stroke-width="0.0010cm" stroke-linecap="round" stroke-linejoin="round" shaper:cutDepth="0.003175" /><path d="M-1.938715,-0.6584855 a0.215265,0.215265 0 1,1 0.43053,0 a0.215265,0.215265 0 1,1 -0.43053,0z" transform="matrix(1,0,0,-1,7.2797,3.7230145)" fill="rgb(255,255,255)" stroke="rgb(0,0,0)" stroke-width="0.0010cm" stroke-linecap="round" stroke-linejoin="round" shaper:cutDepth="0.003175" /><path d="M2.222045,0.2965545 a0.135255,0.135255 0 1,1 0.27051,0 a0.135255,0.135255 0 1,1 -0.27051,0z" transform="matrix(1,0,0,-1,7.2797,3.7230145)" fill="rgb(255,255,255)" stroke="rgb(0,0,0)" stroke-width="0.0010cm" stroke-linecap="round" stroke-linejoin="round" shaper:cutDepth="0.003175" /></svg>