<?xml version="1.0" encoding="utf-8"?>
<!-- Generator: Fusion 360, Shaper Origin Export Add-In, Version 1.6.10  -->
<svg xmlns="http://www.w3.org/2000/svg" xmlns:xlink="http://www.w3.org/1999/xlink" xmlns:shaper="http://www.shapertools.com/namespaces/shaper" shaper:fusionaddin="version:1.6.10" width="12.6368578cm" height="6.35cm" version="1.1" x="0cm" y="0cm" viewBox="0 0 12.6368578 6.35" enable-background="new 0 0 12.6368578 6.35" xml:space="preserve"><path d="M6.3184289,-3.175 L3.4914089,3.175 -6.3184289,3.175 -6.3184289,-3.175 6.3184289,-3.175z" transform="matrix(1,0,0,-1,6.3184289,3.175)" fill="rgb(0,0,0)" shaper:cutDepth="0.003175" stroke-linecap="round" stroke-linejoin="round" /><path d="M-4.7565711,1.3413088 a0.215265,0.215265 0 1,1 0.43053,0 a0.215265,0.215265 0 1,1 -0.43053,0z" transform="matrix(1,0,0,-1,6.3184289,3.175)" fill="rgb(255,255,255)" stroke="rgb(0,0,0)" stroke-width="0.0010cm" stroke-linecap="round" stroke-linejoin="round" shaper:cutDepth="0.003175" /><path d="M2.4866867,-0.2108582 a0.215265,0.215265 0 1,1 0.43053,0 a0.215265,0.215265 0 1,1 -0.43053,0z" transform="matrix(1,0,0,-1,6.3184289,3.175)" fill="rgb(255,255,255)" stroke="rgb(0,0,0)" stroke-width="0.0010cm" stroke-linecap="round" stroke-linejoin="round" shaper:cutDepth="0.003175" /><path d="M-3.5684289,-0 a0.425,0.425 0 1,1 0.85,0 a0.425,0.425 0 1,1 -0.85,0z" transform="matrix(1,0,0,-1,6.3184289,3.175)" fill="rgb(255,255,255)" stroke="rgb(0,0,0)" stroke-width="0.0010cm" stroke-linecap="round" stroke-linejoin="round" shaper:cutDepth="0.003175" /><path d="M0.0252211,-1.55194 a0.64135,0.64135 0 1,1 1.2827,0 a0.64135,0.64135 0 1,1 -1.2827,0z" transform="matrix(1,0,0,-1,6.3184289,3.175)" fill="rgb(255,255,255)" stroke="rgb(0,0,0)" stroke-width="0.0010cm" stroke-linecap="round" stroke-linejoin="round" shaper:cutDepth="0.003175" /><path d="M0.0252211,1.137666 a0.64135,0.64135 0 1,1 1.2827,0 a0.64135,0.64135 0 1,1 -1.2827,0z" transform="matrix(1,0,0,-1,6.3184289,3.175)" fill="rgb(255,255,255)" stroke="rgb(0,0,0)" stroke-width="0.0010cm" stroke-linecap="round" stroke-linejoin="round" shaper:cutDepth="0.003175" /><path d="M-5.1144689,2.68605 a0.22479,0.22479 0 1,1 0.44958,0 a0.22479,0.22479 0 1,1 -0.44958,0z" transform="matrix(1,0,0,-1,6.3184289,3.175)" fill="rgb(255,255,255)" stroke="rgb(0,0,0)" stroke-width="0.0010cm" stroke-linecap="round" stroke-linejoin="round" shaper:cutDepth="0.003175" /><path d="M-5.1144689,-2.68605 a0.22479,0.22479 0 1,1 0.44958,0 a0.22479,0.22479 0 1,1 -0.44958,0z" transform="matrix(1,0,0,-1,6.3184289,3.175)" fill="rgb(255,255,255)" stroke="rgb(0,0,0)" stroke-width="0.0010cm" stroke-linecap="round" stroke-linejoin="round" shaper:cutDepth="0.003175" /><path d="M2.5568391,2.549906 a0.22479,0.22479 0 1,1 0.44958,0 a0.22479,0.22479 0 1,1 -0.44958,0z" transform="matrix(1,0,0,-1,6.3184289,3.175)" fill="rgb(255,255,255)" stroke="rgb(0,0,0)" stroke-width="0.0010cm" stroke-linecap="round" stroke-linejoin="round" shaper:cutDepth="0.003175" /><path d="M4.3567811,-2.475 a0.22479,0.22479 0 1,1 0.44958,0 a0.22479,0.22479 0 1,1 -0.44958,0z" transform="matrix(1,0,0,-1,6.3184289,3.175)" fill="rgb(255,255,255)" stroke="rgb(0,0,0)" stroke-width="0.0010cm" stroke-linecap="round" stroke-linejoin="round" shaper:cutDepth="0.003175" /></svg>