<?xml version="1.0" encoding="utf-8"?>
<!-- Generator: Fusion 360, Shaper Origin Export Add-In, Version 1.6.10  -->
<svg xmlns="http://www.w3.org/2000/svg" xmlns:xlink="http://www.w3.org/1999/xlink" xmlns:shaper="http://www.shapertools.com/namespaces/shaper" shaper:fusionaddin="version:1.6.10" width="11.6505702cm" height="6.2688794cm" version="1.1" x="0cm" y="0cm" viewBox="0 0 11.6505702 6.2688794" enable-background="new 0 0 11.6505702 6.2688794" xml:space="preserve"><path d="M2.5884649,2.6454897 L2.5884649,3.1344397 -3.7612851,3.1344397 -3.7612851,2.6454397 A0.635,0.635 0 0,0 -4.3962851,2.0104397 L-5.8252851,2.0104397 -5.8252851,-2.0104397 -4.3962851,-2.0104397 A0.635,0.635 90 0,0 -3.7612851,-2.6454397 L-3.7612851,-3.1344397 4.4934649,-3.1344397 4.4934649,-2.7266103 A0.635,0.635 180 0,0 5.1284649,-2.0916103 L5.8252851,-2.0916103 3.9990302,2.0104897 3.2234649,2.0104897 A0.635,0.635 270 0,0 2.5884649,2.6454897z" transform="matrix(1,0,0,-1,5.8252851,3.1344397)" fill="rgb(0,0,0)" shaper:cutDepth="0.003175" stroke-linecap="round" stroke-linejoin="round" /><path d="M2.9798306,-0.2108582 a0.215265,0.215265 0 1,1 0.43053,0 a0.215265,0.215265 0 1,1 -0.43053,0z" transform="matrix(1,0,0,-1,5.8252851,3.1344397)" fill="rgb(255,255,255)" stroke="rgb(0,0,0)" stroke-width="0.0010cm" stroke-linecap="round" stroke-linejoin="round" shaper:cutDepth="0.003175" /><path d="M0.2072149,1.137666 a0.9525,0.9525 0 1,1 1.905,0 a0.9525,0.9525 0 1,1 -1.905,0z" transform="matrix(1,0,0,-1,5.8252851,3.1344397)" fill="rgb(255,255,255)" stroke="rgb(0,0,0)" stroke-width="0.0010cm" stroke-linecap="round" stroke-linejoin="round" shaper:cutDepth="0.003175" /><path d="M0.2072149,-1.55194 a0.9525,0.9525 0 1,1 1.905,0 a0.9525,0.9525 0 1,1 -1.905,0z" transform="matrix(1,0,0,-1,5.8252851,3.1344397)" fill="rgb(255,255,255)" stroke="rgb(0,0,0)" stroke-width="0.0010cm" stroke-linecap="round" stroke-linejoin="round" shaper:cutDepth="0.003175" /><path d="M-3.3868851,0 a0.7366,0.7366 0 1,1 1.4732,0 a0.7366,0.7366 0 1,1 -1.4732,0z" transform="matrix(1,0,0,-1,5.8252851,3.1344397)" fill="rgb(255,255,255)" stroke="rgb(0,0,0)" stroke-width="0.0010cm" stroke-linecap="round" stroke-linejoin="round" shaper:cutDepth="0.003175" /><path d="M-4.2634273,1.3413088 a0.215265,0.215265 0 1,1 0.43053,0 a0.215265,0.215265 0 1,1 -0.43053,0z" transform="matrix(1,0,0,-1,5.8252851,3.1344397)" fill="rgb(255,255,255)" stroke="rgb(0,0,0)" stroke-width="0.0010cm" stroke-linecap="round" stroke-linejoin="round" shaper:cutDepth="0.003175" /></svg>