<?xml version="1.0" encoding="utf-8"?>
<!-- Generator: Fusion 360, Shaper Origin Export Add-In, Version 1.6.10  -->
<svg xmlns="http://www.w3.org/2000/svg" xmlns:xlink="http://www.w3.org/1999/xlink" xmlns:shaper="http://www.shapertools.com/namespaces/shaper" shaper:fusionaddin="version:1.6.10" width="4.1275cm" height="2.1472242cm" version="1.1" x="0cm" y="0cm" viewBox="0 0 4.1275 2.1472242" enable-background="new 0 0 4.1275 2.1472242" xml:space="preserve"><path d="M-0.4119792,-0.0036948 L-0.4119792,0.1027373 -0.4119792,0.1027373 -0.4132161,0.119076 -0.4148101,0.1271181 -0.417057,0.1350026 -0.4200133,0.142648 -0.4236699,0.1499857 -0.4281195,0.1568706 -0.4333643,0.1631689 -0.4391956,0.1689332 -0.4457108,0.1739059 -0.4527099,0.1781737 -0.4601504,0.1816135 -0.4679328,0.1841919 -0.4759189,0.1860394 -0.4922395,0.1875135 -0.4922395,0.1875135 -0.5088767,0.1859855 -0.516996,0.1840058 -0.5248912,0.1812636 -0.5323583,0.1775073 -0.5393193,0.1728867 -0.5456129,0.1673836 -0.5512298,0.1611982 -0.5561088,0.1544099 -0.5602522,0.1471513 -0.5635196,0.1394607 -0.5660817,0.1315012 -0.5680235,0.1233744 -0.5692915,0.1151104 -0.5704469,0.0984378 -0.5704469,-0.0036948 -0.4119792,-0.0036948z" transform="matrix(1,0,0,-1,1.3504744,1.0736121)" fill="rgb(0,0,0)" stroke-linecap="round" stroke-linejoin="round" /><path d="M2.4418353,0.1216547 L2.4418353,0.1975717 2.4418353,0.1975717 2.4416419,0.2071604 2.4407426,0.2167067 2.4385748,0.2260488 2.4347946,0.2348588 2.4347946,0.2348588 2.4302668,0.2413268 2.424939,0.2471533 2.4188901,0.252227 2.4122434,0.2564884 2.4051483,0.2599519 2.3976854,0.262529 2.3899362,0.2640396 2.3820609,0.2646023 2.3820609,0.2646023 2.3727847,0.2638424 2.3637239,0.2617206 2.3550952,0.2582323 2.3471003,0.2534692 2.3398063,0.2476866 2.3335519,0.2407969 2.3284978,0.2329821 2.324801,0.2244414 2.324801,0.2244414 2.3230671,0.2190388 2.3221211,0.2134439 2.3217118,0.2021031 2.3217118,0.1216547 2.4418353,0.1216547z" transform="matrix(1,0,0,-1,1.3504744,1.0736121)" fill="rgb(0,0,0)" stroke-linecap="round" stroke-linejoin="round" /><path d="M2.2809042,0.1251308 L2.2809042,0.2139522 2.2809042,0.2139522 2.280339,0.2269329 2.2790482,0.2333007 2.2765935,0.2393132 2.2765935,0.2393132 2.2735114,0.2447218 2.2697815,0.2497052 2.2653531,0.25408 2.260326,0.2577513 2.2548499,0.2607113 2.2490206,0.2628948 2.2429312,0.2641854 2.23672,0.2646023 2.23672,0.2646023 2.2293902,0.2640014 2.222273,0.2621614 2.2155451,0.2591931 2.2094853,0.255029 2.2041362,0.2499836 2.1997604,0.2440746 2.1965555,0.2374579 2.1944756,0.2304045 2.1944756,0.2304045 2.193485,0.2261425 2.1931007,0.2217817 2.192967,0.2130282 2.192967,0.1251308 2.2809042,0.1251308z" transform="matrix(1,0,0,-1,1.3504744,1.0736121)" fill="rgb(0,0,0)" stroke-linecap="round" stroke-linejoin="round" /><path d="M2.2315333,-0.1001244 L2.3866589,-0.1587226 2.3866589,-0.0415261 2.2315333,-0.1001244z" transform="matrix(1,0,0,-1,1.3504744,1.0736121)" fill="rgb(0,0,0)" stroke-linecap="round" stroke-linejoin="round" /><path d="M2.192967,-0.8348301 L2.4418353,-0.8348301 2.4418353,-0.7800129 2.4418353,-0.7800129 2.4413072,-0.7671191 2.4390311,-0.7544216 2.436912,-0.7483256 2.434012,-0.7425605 2.4304762,-0.7371601 2.4263888,-0.7321647 2.4263888,-0.7321647 2.4198437,-0.7252711 2.4126803,-0.7190198 2.4050503,-0.7133517 2.3969396,-0.7083907 2.3885033,-0.70401 2.3797614,-0.7002732 2.37077,-0.6971875 2.3615853,-0.6947338 2.3615853,-0.6947338 2.3526396,-0.6927141 2.343505,-0.6919065 2.3251602,-0.6917882 2.3251602,-0.6917882 2.2897019,-0.6921005 2.2808537,-0.6926503 2.2721112,-0.6941122 2.263592,-0.6965527 2.2553276,-0.6997629 2.2553276,-0.6997629 2.2467571,-0.7035931 2.2384621,-0.7079867 2.2305147,-0.7129837 2.2229699,-0.7185688 2.2159181,-0.7247654 2.2094388,-0.7315558 2.2036891,-0.7389785 2.1990018,-0.7471083 2.1990018,-0.7471083 2.1956352,-0.7547244 2.1938286,-0.7628542 2.192967,-0.7794822 2.192967,-0.8348301z" transform="matrix(1,0,0,-1,1.3504744,1.0736121)" fill="rgb(0,0,0)" stroke-linecap="round" stroke-linejoin="round" /><path d="M0.3336353,0.0779734 L0.3336353,0.1538904 0.3336353,0.1538904 0.3334419,0.1634791 0.3325426,0.1730254 0.3303748,0.1823675 0.3265946,0.1911775 0.3265946,0.1911775 0.3220668,0.1976455 0.316739,0.203472 0.3106901,0.2085457 0.3040434,0.2128071 0.2969483,0.2162706 0.2894854,0.2188477 0.2817362,0.2203583 0.2738609,0.220921 0.2738609,0.220921 0.2645847,0.2201611 0.2555239,0.2180393 0.2468952,0.214551 0.2389003,0.2097879 0.2316063,0.2040053 0.2253519,0.1971156 0.2202978,0.1893008 0.216601,0.1807601 0.216601,0.1807601 0.2148671,0.1753575 0.2139211,0.1697626 0.2135118,0.1584218 0.2135118,0.0779734 0.3336353,0.0779734z" transform="matrix(1,0,0,-1,1.3504744,1.0736121)" fill="rgb(0,0,0)" stroke-linecap="round" stroke-linejoin="round" /><path d="M0.1727042,0.0814495 L0.1727042,0.1702709 0.1727042,0.1702709 0.172139,0.1832516 0.1708482,0.1896194 0.1683935,0.1956319 0.1683935,0.1956319 0.1653114,0.2010405 0.1615815,0.2060239 0.1571531,0.2103987 0.152126,0.21407 0.1466499,0.21703 0.1408206,0.2192135 0.1347312,0.2205041 0.12852,0.220921 0.12852,0.220921 0.1211902,0.2203201 0.114073,0.2184801 0.1073451,0.2155118 0.1012853,0.2113477 0.0959362,0.2063023 0.0915604,0.2003933 0.0883555,0.1937766 0.0862756,0.1867232 0.0862756,0.1867232 0.085285,0.1824612 0.0849007,0.1781004 0.084767,0.1693469 0.084767,0.0814495 0.1727042,0.0814495z" transform="matrix(1,0,0,-1,1.3504744,1.0736121)" fill="rgb(0,0,0)" stroke-linecap="round" stroke-linejoin="round" /><path d="M0.1233333,-0.1438057 L0.2784589,-0.2024039 0.2784589,-0.0852074 0.1233333,-0.1438057z" transform="matrix(1,0,0,-1,1.3504744,1.0736121)" fill="rgb(0,0,0)" stroke-linecap="round" stroke-linejoin="round" /><path d="M-1.3504744,-1.0736121 L2.7770256,-1.0736121 2.7770256,1.0736121 -1.3504744,1.0736121 -1.3504744,-1.0736121z" transform="matrix(1,0,0,-1,1.3504744,1.0736121)" fill="rgb(0,0,0)" stroke-linecap="round" stroke-linejoin="round" /><path d="M0.6287302,0 a0.635,0.635 0 1,1 1.27,0 a0.635,0.635 0 1,1 -1.27,0z" transform="matrix(1,0,0,-1,1.3504744,1.0736121)" fill="rgb(255,255,255)" stroke="rgb(0,0,0)" stroke-width="0.0010cm" stroke-linecap="round" stroke-linejoin="round" /><path d="M-0.2847435,0.5883015 L-0.5908714,0.5881991 -0.5908714,0.5881991 -0.6047633,0.5891091 -0.6115662,0.5906256 -0.6179238,0.5934517 -0.6231908,0.5979951 -0.6266263,0.6040382 -0.628273,0.6108022 -0.6286409,0.6177578 -0.6286409,0.6177578 -0.6284711,0.6243251 -0.6269146,0.6307023 -0.6236645,0.6364022 -0.61885,0.640858 -0.6129736,0.6437824 -0.6066266,0.6454964 -0.6001188,0.6463562 -0.5935519,0.6465981 -0.18957,0.6464955 -0.18957,0.6464955 -0.1834354,0.6460687 -0.1773801,0.6450297 -0.1715233,0.6431467 -0.1661614,0.6401521 -0.1617432,0.6358824 -0.1587355,0.6305288 -0.1571001,0.6246057 -0.1566243,0.6184763 -0.1566243,0.6184763 -0.1577884,0.609278 -0.1595176,0.6049645 -0.161896,0.6009335 -0.1679914,0.5939506 -0.1753739,0.5883015 -0.5013383,0.3772849 -0.1902884,0.3772849 -0.1902884,0.3772849 -0.1839713,0.37676 -0.1777343,0.375618 -0.171776,0.3734706 -0.1663106,0.3702494 -0.1619189,0.3656953 -0.1588447,0.360155 -0.1571822,0.3540404 -0.1566243,0.3477261 -0.1566243,0.3477261 -0.1576106,0.340035 -0.1602866,0.3327673 -0.1648865,0.326531 -0.1709931,0.3217596 -0.1709931,0.3217596 -0.1767101,0.3199424 -0.1826673,0.3192025 -0.1946744,0.3189883 -0.592103,0.3188858 -0.592103,0.3188858 -0.6018168,0.3189982 -0.6066695,0.3192414 -0.6113983,0.3203227 -0.6113983,0.3203227 -0.6186339,0.3242988 -0.6215482,0.3272138 -0.6239958,0.3306109 -0.6260267,0.3342511 -0.6274734,0.3381016 -0.6286409,0.3462892 -0.6286409,0.3462892 -0.6283357,0.3510677 -0.6273978,0.3557153 -0.6254857,0.3600948 -0.6228308,0.3640651 -0.6161599,0.3708426 -0.6085634,0.3765856 -0.2847435,0.5883015z" transform="matrix(1,0,0,-1,1.3504744,1.0736121)" fill="rgb(255,255,255)" stroke="rgb(0,0,0)" stroke-width="0.0010cm" stroke-linecap="round" stroke-linejoin="round" /><path d="M-0.3536826,-0.0036948 L-0.1934701,-0.0036948 -0.1934701,-0.0036948 -0.1798971,-0.004567 -0.173277,-0.0060891 -0.1670306,-0.0088027 -0.1642407,-0.0107451 -0.1618661,-0.0131918 -0.1585933,-0.0191418 -0.156969,-0.0257414 -0.1566243,-0.0325352 -0.1566243,-0.0325352 -0.1569745,-0.0388266 -0.1583665,-0.0449695 -0.1612341,-0.0505743 -0.1655291,-0.0551805 -0.1708433,-0.058548 -0.1768065,-0.0605984 -0.1830175,-0.0616382 -0.1893102,-0.0619914 -0.5858423,-0.062094 -0.5858423,-0.062094 -0.5953715,-0.0620165 -0.6048172,-0.0607706 -0.6094,-0.0594505 -0.6137751,-0.0575489 -0.6178019,-0.0549678 -0.6211953,-0.0516287 -0.6237796,-0.0476101 -0.6256583,-0.043219 -0.6278673,-0.0339515 -0.6286902,-0.0244596 -0.6287435,-0.0149302 -0.6286409,0.1005819 -0.6286409,0.1005819 -0.6283394,0.1151823 -0.6272021,0.1297418 -0.6244716,0.1440859 -0.6202249,0.1580573 -0.6202249,0.1580573 -0.6163403,0.1676468 -0.6116973,0.176892 -0.6064426,0.1858048 -0.6004527,0.1942402 -0.5938466,0.2022025 -0.5865663,0.2095535 -0.578712,0.2162873 -0.5703679,0.222405 -0.5616039,0.2279022 -0.5524074,0.2326441 -0.5429051,0.2367325 -0.5330746,0.2399632 -0.5230612,0.2425583 -0.5128614,0.2443031 -0.5025799,0.2454451 -0.4922395,0.2458099 -0.4922395,0.2458099 -0.4807359,0.2452599 -0.469305,0.2438676 -0.4580042,0.2416475 -0.446901,0.2385913 -0.4361051,0.2345833 -0.4257089,0.2296292 -0.4157809,0.2237944 -0.406321,0.2172263 -0.3974211,0.2099181 -0.389204,0.2018497 -0.3817235,0.1930945 -0.3749853,0.1837556 -0.3691592,0.1738223 -0.3642711,0.1633951 -0.3602798,0.1525929 -0.3570697,0.1415332 -0.3570697,0.1415332 -0.3550889,0.1305215 -0.3541039,0.119373 -0.3536826,0.0969993 -0.3536826,-0.0036948z" transform="matrix(1,0,0,-1,1.3504744,1.0736121)" fill="rgb(255,255,255)" stroke="rgb(0,0,0)" stroke-width="0.0010cm" stroke-linecap="round" stroke-linejoin="round" /><path d="M-0.2945081,-0.5191807 L-0.6021612,-0.4312707 -0.6021612,-0.4312707 -0.6126244,-0.4274401 -0.6175447,-0.424802 -0.6219691,-0.421416 -0.6253746,-0.4170082 -0.6274891,-0.4118524 -0.6284604,-0.4063623 -0.6286409,-0.4007882 -0.6286409,-0.4007882 -0.6285436,-0.3959264 -0.6276236,-0.3911538 -0.6255677,-0.3867465 -0.6226304,-0.3828788 -0.618957,-0.3796855 -0.6148112,-0.3771529 -0.6057041,-0.3737492 -0.2954661,-0.2850715 -0.602777,-0.1964427 -0.602777,-0.1964427 -0.6128302,-0.1925944 -0.6174728,-0.189862 -0.621617,-0.1864188 -0.6249214,-0.1821715 -0.6272488,-0.1773141 -0.6284307,-0.172061 -0.6286409,-0.1666786 -0.6286409,-0.1666786 -0.6281971,-0.1611916 -0.6269209,-0.1558388 -0.624689,-0.1508074 -0.6215479,-0.1462892 -0.6175531,-0.1425031 -0.612781,-0.1397646 -0.6075323,-0.138113 -0.6020586,-0.1375304 -0.6020586,-0.1375304 -0.5878332,-0.13964 -0.185362,-0.2546365 -0.185362,-0.2546365 -0.1747605,-0.2584749 -0.1697984,-0.2611413 -0.1652305,-0.2644568 -0.1613209,-0.2685083 -0.15844,-0.2733537 -0.1568955,-0.2787709 -0.1566243,-0.2844006 -0.1566243,-0.2844006 -0.1568252,-0.290412 -0.1580127,-0.2963064 -0.1605722,-0.3017435 -0.164715,-0.3060754 -0.1697875,-0.3093217 -0.1752338,-0.311867 -0.186676,-0.3155766 -0.4874708,-0.4021261 -0.1880305,-0.4873092 -0.1880305,-0.4873092 -0.1764425,-0.4913155 -0.1709459,-0.4940367 -0.1658704,-0.4974784 -0.1615664,-0.5018429 -0.1585891,-0.5071898 -0.1569851,-0.5131088 -0.1566243,-0.5192286 -0.1566243,-0.5192286 -0.1576973,-0.5268003 -0.1604532,-0.5339202 -0.1649639,-0.5400904 -0.1709931,-0.5447846 -0.1709931,-0.5447846 -0.1923513,-0.5511047 -0.5846107,-0.6639434 -0.5846107,-0.6639434 -0.5908811,-0.6655906 -0.5973374,-0.6660988 -0.5973374,-0.6660988 -0.6031276,-0.6654284 -0.6087314,-0.6638242 -0.6138245,-0.6609924 -0.6183414,-0.6573081 -0.6220399,-0.6528035 -0.6248901,-0.6477201 -0.6265158,-0.6421227 -0.627204,-0.6363347 -0.627204,-0.6363347 -0.6269835,-0.6309761 -0.6256863,-0.6257737 -0.6232845,-0.6209769 -0.6199256,-0.6168076 -0.6157037,-0.6134902 -0.6110434,-0.6108402 -0.6009783,-0.607149 -0.2945081,-0.5191807z" transform="matrix(1,0,0,-1,1.3504744,1.0736121)" fill="rgb(255,255,255)" stroke="rgb(0,0,0)" stroke-width="0.0010cm" stroke-linecap="round" stroke-linejoin="round" /><path d="M-1.1844646,0.4179861 L-1.1843621,0.4179282 -1.1843621,0.4179282 -1.1833569,0.4352845 -1.180143,0.4523726 -1.1748763,0.4689395 -1.1675661,0.4847146 -1.1584026,0.4994893 -1.1477833,0.5132601 -1.1359845,0.5260273 -1.1231918,0.5378055 -1.1231918,0.5378055 -1.117308,0.5425992 -1.1110491,0.546894 -1.1040421,0.5498016 -1.0965068,0.5506348 -1.0965068,0.5506348 -1.0906976,0.5500815 -1.0850888,0.5484872 -1.079849,0.5459205 -1.0752618,0.542318 -1.0714377,0.5379124 -1.068534,0.532854 -1.0668144,0.5272799 -1.066127,0.5214866 -1.066127,0.5214866 -1.0663748,0.5164621 -1.0673417,0.511576 -1.0693913,0.5069903 -1.0722774,0.5028945 -1.0794058,0.4958757 -1.0871671,0.4895672 -1.0871671,0.4895672 -1.0952566,0.4825298 -1.1028186,0.4749283 -1.1095234,0.4665622 -1.115303,0.4575317 -1.1200142,0.4478998 -1.1233719,0.4377204 -1.1253992,0.4271914 -1.1260656,0.4164913 -1.1260656,0.4164913 -1.1244245,0.4014959 -1.1206308,0.3868944 -1.114838,0.3729633 -1.1071703,0.3599774 -1.0978922,0.3480762 -1.087353,0.3372828 -1.0758465,0.3275205 -1.0635738,0.3187439 -1.050651,0.3109541 -1.0371689,0.3041787 -1.0231972,0.2984835 -1.0088337,0.2938562 -0.9941665,0.290325 -0.979289,0.2877884 -0.9642944,0.2861318 -0.9492261,0.2853243 -0.9492261,0.2853243 -0.9302884,0.2862714 -0.9115239,0.2890018 -0.8930604,0.2933191 -0.8750153,0.2991442 -0.8575197,0.3064562 -0.8407066,0.3152231 -0.8247188,0.3254184 -0.8097457,0.3370521 -0.8097457,0.3370521 -0.8012211,0.3449542 -0.7934548,0.3535975 -0.786541,0.3629428 -0.7807305,0.3730053 -0.7760944,0.3836642 -0.7729089,0.3948391 -0.7710631,0.406314 -0.7706419,0.4179282 -0.7706419,0.4179282 -0.7712993,0.4297658 -0.7738862,0.4413431 -0.7781155,0.4524174 -0.7839568,0.4627378 -0.7910024,0.4722808 -0.7989199,0.4811097 -0.8076305,0.4891597 -0.8168274,0.496649 -0.8168274,0.496649 -0.8228532,0.5016576 -0.8277473,0.5077687 -0.8293995,0.5113317 -0.830434,0.5151166 -0.8310937,0.5229234 -0.8310937,0.5229234 -0.8305146,0.5286593 -0.8289792,0.5342151 -0.8262104,0.5392695 -0.8224044,0.5435977 -0.8177919,0.5470548 -0.8125788,0.5495131 -0.8069707,0.5508477 -0.801227,0.5513532 -0.801227,0.5513532 -0.795618,0.5507274 -0.7902878,0.5490313 -0.7806553,0.5431819 -0.7719088,0.5361086 -0.7635601,0.5285683 -0.7635601,0.5285683 -0.7522953,0.5170591 -0.7420406,0.5046435 -0.7330525,0.4912808 -0.7255844,0.4770139 -0.7198093,0.4619819 -0.7156026,0.4464376 -0.7131446,0.4305228 -0.7123454,0.4144386 -0.7123454,0.4144386 -0.7134038,0.3950549 -0.714842,0.3854559 -0.7169327,0.3759648 -0.7195873,0.3666209 -0.7228532,0.3574804 -0.7267565,0.3485892 -0.7312274,0.339965 -0.741689,0.323615 -0.7539875,0.3085908 -0.7677704,0.2949221 -0.7826501,0.2824505 -0.7826501,0.2824505 -0.8012629,0.269503 -0.820953,0.2582605 -0.8415474,0.2487762 -0.8628293,0.240956 -0.8846828,0.2349119 -0.9069214,0.2304923 -0.9294476,0.2279121 -0.9520999,0.2269252 -0.9520999,0.2269252 -0.9745304,0.2279916 -0.9967703,0.2311041 -1.0186459,0.2361752 -1.04002,0.2430633 -1.0607851,0.2516127 -1.0808135,0.2617696 -1.0999463,0.273526 -1.1181627,0.2866585 -1.1181627,0.2866585 -1.1325013,0.2992065 -1.1456116,0.3130276 -1.1572228,0.3281341 -1.1670203,0.3444733 -1.174638,0.3619344 -1.1801118,0.3801825 -1.1832579,0.3989722 -1.1844646,0.4179861z" transform="matrix(1,0,0,-1,1.3504744,1.0736121)" fill="rgb(255,255,255)" stroke="rgb(0,0,0)" stroke-width="0.0010cm" stroke-linecap="round" stroke-linejoin="round" /><path d="M-1.1492915,-0.1153613 L-0.8870295,-0.1153613 -0.8870295,-0.1153613 -0.870947,-0.1150864 -0.8549244,-0.1137184 -0.8470457,-0.1120862 -0.8393952,-0.1095731 -0.8249356,-0.102532 -0.8249356,-0.102532 -0.8130202,-0.0950451 -0.8021552,-0.0861046 -0.7926296,-0.075748 -0.7847106,-0.0641166 -0.7784844,-0.0514982 -0.7740365,-0.0381477 -0.771483,-0.0243111 -0.7706419,-0.0102635 -0.7706419,-0.0102635 -0.7716593,0.0054854 -0.7729534,0.0132654 -0.7748582,0.0209339 -0.7802451,0.0357673 -0.7837852,0.0428198 -0.7878626,0.0495841 -0.7924202,0.0560353 -0.7974615,0.0621079 -0.8029963,0.0677342 -0.8089785,0.0728928 -0.8153524,0.0775627 -0.8220858,0.0816759 -0.836328,0.0884711 -0.836328,0.0884711 -0.8490705,0.0927287 -0.8623715,0.0947031 -0.8892378,0.0956553 -1.1456688,0.0955528 -1.1456688,0.0955528 -1.1526964,0.0957441 -1.1596615,0.0965703 -1.1665181,0.0981558 -1.172977,0.1008864 -1.1783736,0.1053736 -1.1820492,0.1113432 -1.1839617,0.1180988 -1.1843621,0.1251116 -1.1843621,0.1251116 -1.1839661,0.132083 -1.1821701,0.1388237 -1.1784165,0.1447112 -1.1759004,0.1471331 -1.172971,0.1490299 -1.1664814,0.1516393 -1.1596571,0.1530934 -1.1457193,0.1539518 -0.8827189,0.1538493 -0.8827189,0.1538493 -0.866195,0.1529846 -0.8497694,0.1509959 -0.8335746,0.1476096 -0.8177125,0.1428936 -0.8024323,0.1365573 -0.7878393,0.1287549 -0.7741781,0.1194244 -0.7615793,0.1086996 -0.7501366,0.0967491 -0.7400965,0.0835992 -0.7315503,0.0694325 -0.724536,0.0544489 -0.7192839,0.0387586 -0.7155137,0.0226484 -0.7132594,0.0062578 -0.7123454,-0.0102635 -0.7123454,-0.0102635 -0.7128176,-0.0225617 -0.7140613,-0.0348058 -0.7162491,-0.0469169 -0.7192958,-0.058841 -0.7231975,-0.0705132 -0.7279827,-0.0818518 -0.7336359,-0.0927836 -0.7401447,-0.1032287 -0.7473976,-0.1131715 -0.7554035,-0.1225185 -0.7641369,-0.1311894 -0.7735774,-0.1390857 -0.7835615,-0.1462807 -0.7940696,-0.1526886 -0.8050041,-0.1583356 -0.8163143,-0.1631891 -0.8163143,-0.1631891 -0.8330798,-0.1687284 -0.850404,-0.172144 -0.8680107,-0.1734458 -0.8856656,-0.1736579 -1.1506979,-0.1737604 -1.1506979,-0.1737604 -1.1570751,-0.1733221 -1.1633764,-0.1722701 -1.1694488,-0.1702641 -1.1749282,-0.166991 -1.1794059,-0.1624333 -1.1823657,-0.1567765 -1.1839065,-0.150577 -1.1843621,-0.1442017 -1.1843621,-0.1442017 -1.184099,-0.1376556 -1.1824557,-0.1313195 -1.179308,-0.1255908 -1.1744598,-0.1211893 -1.1686457,-0.1181828 -1.1623385,-0.116417 -1.1492915,-0.1153613z" transform="matrix(1,0,0,-1,1.3504744,1.0736121)" fill="rgb(255,255,255)" stroke="rgb(0,0,0)" stroke-width="0.0010cm" stroke-linecap="round" stroke-linejoin="round" /><path d="M-0.8404647,-0.3050303 L-1.1465925,-0.3051328 -1.1465925,-0.3051328 -1.1604844,-0.3042228 -1.1672874,-0.3027062 -1.173645,-0.2998801 -1.1789119,-0.2953367 -1.1823474,-0.2892936 -1.1839941,-0.2825296 -1.1843621,-0.275574 -1.1843621,-0.275574 -1.1841923,-0.2690067 -1.1826357,-0.2626295 -1.1793856,-0.2569296 -1.1745711,-0.2524738 -1.1686948,-0.2495494 -1.1623477,-0.2478354 -1.1558399,-0.2469757 -1.149273,-0.2467338 -0.7452911,-0.2468363 -0.7452911,-0.2468363 -0.7391565,-0.2472631 -0.7331012,-0.2483021 -0.7272444,-0.2501851 -0.7218825,-0.2531798 -0.7174643,-0.2574494 -0.7144567,-0.262803 -0.7128212,-0.2687262 -0.7123454,-0.2748555 -0.7123454,-0.2748555 -0.7135095,-0.2840538 -0.7152387,-0.2883673 -0.7176172,-0.2923983 -0.7237126,-0.2993813 -0.7310951,-0.3050303 -1.0570594,-0.5160469 -0.7460095,-0.5160469 -0.7460095,-0.5160469 -0.7396925,-0.5165718 -0.7334554,-0.5177139 -0.7274971,-0.5198612 -0.7220318,-0.5230825 -0.7176401,-0.5276366 -0.7145658,-0.5331768 -0.7129033,-0.5392914 -0.7123454,-0.5456057 -0.7123454,-0.5456057 -0.7133317,-0.5532968 -0.7160077,-0.5605645 -0.7206077,-0.5668008 -0.7267142,-0.5715723 -0.7267142,-0.5715723 -0.7324313,-0.5733895 -0.7383884,-0.5741294 -0.7503956,-0.5743435 -1.1478241,-0.574446 -1.1478241,-0.574446 -1.1575379,-0.5743337 -1.1623907,-0.5740904 -1.1671194,-0.5730091 -1.1671194,-0.5730091 -1.1743551,-0.5690331 -1.1772694,-0.5661181 -1.179717,-0.562721 -1.1817478,-0.5590807 -1.1831946,-0.5552303 -1.1843621,-0.5470426 -1.1843621,-0.5470426 -1.1840568,-0.5422641 -1.1831189,-0.5376166 -1.1812068,-0.533237 -1.1785519,-0.5292668 -1.1718811,-0.5224892 -1.1642846,-0.5167462 -0.8404647,-0.3050303z" transform="matrix(1,0,0,-1,1.3504744,1.0736121)" fill="rgb(255,255,255)" stroke="rgb(0,0,0)" stroke-width="0.0010cm" stroke-linecap="round" stroke-linejoin="round" /><path d="M2.192967,0.6779223 L2.2763062,0.6779223 2.2763062,0.7920828 2.2763062,0.7920828 2.2770258,0.8014637 2.2783215,0.8059955 2.2804669,0.8101872 2.283656,0.8136485 2.2877416,0.815983 2.292292,0.8171923 2.2969973,0.8174438 2.2969973,0.8174438 2.3018894,0.8172273 2.3065812,0.8158401 2.3106263,0.813089 2.313612,0.8092202 2.3154962,0.8046975 2.316597,0.7999247 2.3171138,0.7901528 2.3171138,0.6779223 2.4418353,0.6779223 2.4418353,0.836267 2.4418353,0.836267 2.44194,0.8430802 2.4422785,0.846471 2.443344,0.8497018 2.443344,0.8497018 2.4462796,0.8551907 2.450727,0.8595376 2.4563834,0.8621197 2.4625264,0.8631367 2.4625264,0.8631367 2.4676338,0.8628866 2.4724778,0.8612578 2.4764903,0.8581081 2.4793489,0.853866 2.4811471,0.8490816 2.4821647,0.8440636 2.4826428,0.8338532 2.4826428,0.6631223 2.4826428,0.6631223 2.481918,0.6519266 2.4801966,0.6465818 2.4769646,0.6420024 2.4722279,0.6390098 2.4668042,0.6375278 2.4612197,0.6369836 2.4556002,0.6371147 2.1787417,0.6370429 2.1787417,0.6370429 2.1731048,0.6370997 2.1675215,0.6378329 2.162155,0.639555 2.1575565,0.6427874 2.1545263,0.6475281 2.1529102,0.6529232 2.1521594,0.6641573 2.1522312,0.8358359 2.1522312,0.8358359 2.1529336,0.8450854 2.1541397,0.849579 2.1561861,0.8537416 2.1592578,0.8572265 2.1632388,0.8596055 2.1677084,0.860864 2.1723475,0.8611251 2.1723475,0.8611251 2.1772579,0.860845 2.181966,0.8594306 2.1860688,0.8567381 2.1891535,0.8529073 2.1911865,0.8484354 2.1923812,0.8436577 2.192967,0.8338532 2.192967,0.6779223z" transform="matrix(1,0,0,-1,1.3504744,1.0736121)" fill="rgb(255,255,255)" stroke="rgb(0,0,0)" stroke-width="0.0010cm" stroke-linecap="round" stroke-linejoin="round" /><path d="M2.4464333,0.3974423 L2.4464333,0.5632589 2.4464333,0.5632589 2.4464843,0.5690193 2.4474391,0.5746821 2.4474391,0.5746821 2.4498939,0.5796893 2.4538761,0.5836028 2.4588199,0.5861864 2.4643225,0.5871111 2.4643225,0.5871111 2.4699832,0.5860581 2.4751034,0.583444 2.4791035,0.5793128 2.4817089,0.5741792 2.4817089,0.5741792 2.4825595,0.5706822 2.4826459,0.5670656 2.4826428,0.559829 2.4826428,0.3839356 2.4826428,0.3839356 2.482382,0.3790767 2.4814333,0.3743088 2.4795492,0.3698241 2.4765136,0.3660313 2.4724749,0.3633306 2.4678709,0.361755 2.4630538,0.3611144 2.458188,0.3612328 2.1743592,0.361161 2.1743592,0.361161 2.1663347,0.3621559 2.1624751,0.3633825 2.1588805,0.3652522 2.1559379,0.3680179 2.1537664,0.3714358 2.1525799,0.375304 2.1522312,0.3793376 2.1522312,0.3793376 2.152572,0.3833906 2.1536825,0.3873008 2.1557728,0.3907894 2.1587464,0.3935461 2.1623854,0.3953752 2.1662723,0.3965677 2.1743506,0.3974423 2.4464333,0.3974423z" transform="matrix(1,0,0,-1,1.3504744,1.0736121)" fill="rgb(255,255,255)" stroke="rgb(0,0,0)" stroke-width="0.0010cm" stroke-linecap="round" stroke-linejoin="round" /><path d="M2.1521594,0.1057636 L2.1522312,0.2174725 2.1522312,0.2174725 2.1537755,0.2343877 2.1556054,0.2426836 2.1581056,0.2508064 2.1614482,0.2586155 2.1655379,0.2660644 2.170363,0.2730571 2.1758779,0.2795207 2.1819984,0.2854142 2.1886929,0.2906458 2.1959105,0.2951284 2.2035696,0.298806 2.2115726,0.3016587 2.219832,0.3036537 2.2282397,0.3048773 2.23672,0.3054099 2.23672,0.3054099 2.2466058,0.3049955 2.2563594,0.3033373 2.2658249,0.300459 2.2748096,0.296318 2.2831181,0.2909452 2.2907104,0.2846015 2.2974762,0.2773823 2.3035351,0.2695596 2.3035351,0.2695596 2.3114025,0.2773676 2.3198357,0.2845553 2.3288555,0.2910003 2.3385418,0.2963804 2.3488087,0.3005537 2.3595111,0.3034282 2.370483,0.3049895 2.381558,0.3054099 2.381558,0.3054099 2.3973304,0.3042404 2.4127865,0.3008871 2.4202608,0.2982921 2.4275045,0.295109 2.4344897,0.2913921 2.4411257,0.2870835 2.4473945,0.2822556 2.4532642,0.27695 2.4586816,0.2711834 2.4635662,0.2649589 2.4679377,0.2583641 2.4717381,0.251424 2.4777574,0.2367986 2.4777574,0.2367986 2.4803731,0.227362 2.4819306,0.2176953 2.4826428,0.1981304 2.4826428,0.1062576 2.4826428,0.1062576 2.4827029,0.1007891 2.4820342,0.0953671 2.4802726,0.0901898 2.4770876,0.0857586 2.4726575,0.0825703 2.4674779,0.0808183 2.4620485,0.0802173 2.4565836,0.0804373 2.1773048,0.0803937 2.1773048,0.0803937 2.1720891,0.0804713 2.1669291,0.0812458 2.1620808,0.0831552 2.1578797,0.0862406 2.1548767,0.0905 2.1530734,0.095391 2.1522946,0.1005487 2.1521594,0.1057636z" transform="matrix(1,0,0,-1,1.3504744,1.0736121)" fill="rgb(255,255,255)" stroke="rgb(0,0,0)" stroke-width="0.0010cm" stroke-linecap="round" stroke-linejoin="round" /><path d="M2.4274665,-0.0251385 L2.4274665,-0.174117 2.4686332,-0.190028 2.4686332,-0.190028 2.4743999,-0.1932531 2.4790917,-0.1978937 2.4818685,-0.2038778 2.4826428,-0.2104318 2.4826428,-0.2104318 2.4823282,-0.2143804 2.4813882,-0.2182254 2.4798449,-0.2218736 2.4776035,-0.2251374 2.4747655,-0.2278986 2.4714379,-0.2300439 2.4676782,-0.2312854 2.4637478,-0.2317695 2.4637478,-0.2317695 2.4599291,-0.2314333 2.4562415,-0.2303652 2.4490279,-0.2277493 2.1678932,-0.1214886 2.1678932,-0.1214886 2.1616456,-0.1184712 2.1563265,-0.1140407 2.1543323,-0.1112026 2.1529313,-0.1080276 2.1522388,-0.1046274 2.1522312,-0.1011567 2.1522312,-0.1011567 2.1523867,-0.0969534 2.1532563,-0.0928364 2.1549898,-0.0890158 2.1577292,-0.085822 2.1647189,-0.0811715 2.1724138,-0.0777776 2.4524682,0.0294561 2.4524682,0.0294561 2.4580468,0.0308041 2.4637478,0.0314678 2.4637478,0.0314678 2.4676729,0.0309706 2.4714026,0.0296542 2.4747287,0.0275133 2.4775437,0.0247334 2.4797656,0.0214608 2.481354,0.0178356 2.48233,0.0140035 2.4826428,0.0100582 2.4826428,0.0100582 2.4825592,0.0064748 2.4818445,0.002964 2.4803257,-0.0002807 2.4782049,-0.003173 2.4726454,-0.007663 2.4661804,-0.0107372 2.4274665,-0.0251385z" transform="matrix(1,0,0,-1,1.3504744,1.0736121)" fill="rgb(255,255,255)" stroke="rgb(0,0,0)" stroke-width="0.0010cm" stroke-linecap="round" stroke-linejoin="round" /><path d="M2.1537176,-0.4133189 L2.1521594,-0.3813158 2.1522312,-0.3784036 2.1522312,-0.3784036 2.1529526,-0.3671709 2.1551124,-0.3561245 2.1587695,-0.3454797 2.1637562,-0.3353887 2.1700031,-0.3260256 2.1774299,-0.3175669 2.1859267,-0.3101859 2.1952659,-0.3039011 2.1952659,-0.3039011 2.203347,-0.2995557 2.2118201,-0.2960511 2.2206415,-0.2935063 2.2297511,-0.2924779 2.2297511,-0.2924779 2.2338735,-0.2928457 2.2378931,-0.2938194 2.2416766,-0.2954978 2.2449963,-0.2979643 2.24772,-0.3010787 2.2496915,-0.3047155 2.2508352,-0.3086907 2.2512325,-0.3128098 2.2512325,-0.3128098 2.2511556,-0.3163861 2.2504315,-0.3198881 2.2489026,-0.3231213 2.2467174,-0.3259502 2.2409479,-0.3301411 2.2342773,-0.3327107 2.2342773,-0.3327107 2.2256424,-0.3351472 2.2173869,-0.3386558 2.2098722,-0.343552 2.203394,-0.3497552 2.1984443,-0.3572321 2.1951349,-0.36557 2.1932926,-0.3743465 2.1927399,-0.3833022 2.1927399,-0.3857852 2.1932542,-0.4106617 2.1932542,-0.4106617 2.1942926,-0.4197205 2.1966573,-0.4285198 2.20055,-0.436766 2.2060433,-0.4440339 2.2128714,-0.4500744 2.2209077,-0.4543695 2.2296569,-0.4569178 2.2387316,-0.4577915 2.2387316,-0.4577915 2.2450935,-0.4573398 2.2513385,-0.456056 2.2573667,-0.4539732 2.2630344,-0.4510514 2.2682195,-0.4473391 2.2728179,-0.4429216 2.2766462,-0.437822 2.2796828,-0.432215 2.2796828,-0.432215 2.2822809,-0.4236052 2.2841689,-0.4148082 2.2952012,-0.361161 2.2952012,-0.361161 2.2999121,-0.3452287 2.3031445,-0.3375724 2.3069461,-0.3301815 2.3113672,-0.3231449 2.3163852,-0.3165193 2.3220202,-0.3104115 2.3281496,-0.3047983 2.3347588,-0.2997605 2.3417768,-0.2953087 2.3492128,-0.291597 2.3569216,-0.2884939 2.3649122,-0.2862064 2.373052,-0.2845304 2.3813028,-0.2835328 2.3896045,-0.2831382 2.3896045,-0.2831382 2.3990383,-0.2836484 2.4083923,-0.2849629 2.4175913,-0.2871163 2.4265241,-0.2901871 2.4350908,-0.2941683 2.4431321,-0.299125 2.4505479,-0.3049762 2.4572925,-0.3115904 2.4633228,-0.3188621 2.4685381,-0.3267374 2.4728778,-0.3351293 2.476428,-0.3438832 2.4791081,-0.3529413 2.4809518,-0.3622079 2.482097,-0.3715842 2.4826428,-0.3810159 2.4826428,-0.4133199 2.4826428,-0.4133199 2.4822426,-0.4238073 2.4810535,-0.4342338 2.47904,-0.4445346 2.4761768,-0.4546304 2.4761768,-0.4546304 2.4703039,-0.4660232 2.4627698,-0.476392 2.4537891,-0.4855358 2.4435329,-0.4932242 2.4323218,-0.4994367 2.4203388,-0.5039861 2.40784,-0.5068221 2.3950647,-0.5078669 2.3950647,-0.5078669 2.3851027,-0.5067125 2.3803491,-0.505095 2.3759288,-0.5027125 2.3720683,-0.499501 2.3691591,-0.4954167 2.3673861,-0.4907192 2.3667581,-0.4857389 2.3667581,-0.4857389 2.3671835,-0.4818172 2.3683695,-0.4780558 2.3704133,-0.4746824 2.3730699,-0.4717681 2.3762597,-0.4694463 2.3798491,-0.4678134 2.3876139,-0.4664906 2.3916162,-0.4665565 2.3916162,-0.4665565 2.3960705,-0.4669876 2.3960705,-0.4669876 2.4034645,-0.4661602 2.410636,-0.4641776 2.4173724,-0.4610185 2.4235718,-0.4569029 2.4291664,-0.4519968 2.4340384,-0.4463731 2.4379281,-0.4400303 2.4407576,-0.4331489 2.4407576,-0.4331489 2.4424627,-0.4230617 2.442736,-0.4128248 2.4427693,-0.3832172 2.4427693,-0.3832172 2.4421368,-0.3727997 2.4407576,-0.3624542 2.4407576,-0.3624542 2.4379415,-0.3542803 2.4336821,-0.3467557 2.4281386,-0.3401234 2.4215547,-0.3345162 2.4141941,-0.3299819 2.4061939,-0.3266977 2.3977909,-0.3246695 2.3891735,-0.3239457 2.3891735,-0.3239457 2.3818931,-0.3244958 2.3747418,-0.3259646 2.3678718,-0.328435 2.3613498,-0.3317177 2.355344,-0.3358675 2.3498947,-0.340727 2.3452851,-0.3463877 2.3414689,-0.3526115 2.3414689,-0.3526115 2.338164,-0.3617966 2.335968,-0.3713171 2.3245855,-0.4247432 2.3245855,-0.4247432 2.3223031,-0.4345925 2.3193657,-0.444265 2.3153839,-0.4535594 2.3102166,-0.4622458 2.3102166,-0.4622458 2.3039347,-0.4704223 2.2965637,-0.477634 2.2883382,-0.4838512 2.2794234,-0.4890342 2.2699627,-0.4931367 2.2601053,-0.4961641 2.249954,-0.4979752 2.2396656,-0.4986709 2.2396656,-0.4986709 2.2312963,-0.4981396 2.222988,-0.4969981 2.2148392,-0.4950203 2.2068999,-0.4923187 2.1993047,-0.4887647 2.1921027,-0.4844692 2.1853804,-0.4794562 2.1792094,-0.4737774 2.1736002,-0.4675444 2.1686531,-0.4607723 2.1643403,-0.4535813 2.1608072,-0.4459756 2.1580489,-0.4380565 2.1559897,-0.4299265 2.1537176,-0.4133189z" transform="matrix(1,0,0,-1,1.3504744,1.0736121)" fill="rgb(255,255,255)" stroke="rgb(0,0,0)" stroke-width="0.0010cm" stroke-linecap="round" stroke-linejoin="round" /><path d="M2.1743304,-0.5635462 L2.4600119,-0.5635462 2.4600119,-0.5635462 2.4673428,-0.5637697 2.4744526,-0.565486 2.4744526,-0.565486 2.4779675,-0.5685242 2.4804549,-0.5724624 2.4820802,-0.576818 2.4826428,-0.5814354 2.4826428,-0.5814354 2.4819026,-0.5865528 2.4799776,-0.5913468 2.4768365,-0.5954611 2.4725846,-0.5983907 2.4725846,-0.5983907 2.4695622,-0.5994175 2.4663832,-0.5997389 2.4599892,-0.5997558 2.1758679,-0.5998276 2.1758679,-0.5998276 2.1679657,-0.599587 2.164058,-0.5989858 2.1604214,-0.5974567 2.1604214,-0.5974567 2.1570494,-0.5942492 2.1544218,-0.5904121 2.1527944,-0.5860542 2.1522312,-0.5814354 2.1522312,-0.5814354 2.1524323,-0.5773647 2.1535461,-0.573446 2.1556094,-0.569942 2.1586734,-0.5672543 2.1623042,-0.5654127 2.1662233,-0.5642838 2.1743304,-0.5635462z" transform="matrix(1,0,0,-1,1.3504744,1.0736121)" fill="rgb(255,255,255)" stroke="rgb(0,0,0)" stroke-width="0.0010cm" stroke-linecap="round" stroke-linejoin="round" /><path d="M2.1521594,-0.8490867 L2.1522312,-0.7810187 2.1522312,-0.7810187 2.1526141,-0.7694839 2.1540045,-0.7580277 2.1565328,-0.7467675 2.1601328,-0.7358026 2.1649806,-0.7253302 2.1709426,-0.7154492 2.1778672,-0.7062173 2.1857106,-0.6977513 2.1857106,-0.6977513 2.1989764,-0.6859577 2.213531,-0.6757934 2.2291315,-0.6673313 2.2456373,-0.6607967 2.2627599,-0.6561234 2.2802571,-0.6531101 2.2979303,-0.6514686 2.3156768,-0.6509807 2.3156768,-0.6509807 2.3412785,-0.6517666 2.3540242,-0.6530483 2.3666658,-0.6551111 2.3791041,-0.6581699 2.3912388,-0.6622684 2.4030615,-0.6671985 2.4144626,-0.6730369 2.4144626,-0.6730369 2.4289035,-0.6815887 2.4424264,-0.691524 2.4546202,-0.7030489 2.4600898,-0.7094156 2.4650254,-0.7162043 2.46934,-0.7234031 2.4730828,-0.7309159 2.4761981,-0.7387094 2.4786362,-0.7467407 2.4817632,-0.7632237 2.4826428,-0.7799808 2.4826428,-0.8501329 2.4826428,-0.8501329 2.4824588,-0.8560185 2.4815338,-0.8618315 2.4793665,-0.8673 2.4776574,-0.8697108 2.4754835,-0.8716929 2.4701682,-0.8742176 2.46441,-0.8754469 2.4526501,-0.8756377 2.1779514,-0.8757095 2.1779514,-0.8757095 2.1725692,-0.8755667 2.1672666,-0.8746538 2.1622783,-0.8726361 2.1580577,-0.8693058 2.1550414,-0.8648525 2.1532365,-0.859783 2.1521594,-0.8490867z" transform="matrix(1,0,0,-1,1.3504744,1.0736121)" fill="rgb(255,255,255)" stroke="rgb(0,0,0)" stroke-width="0.0010cm" stroke-linecap="round" stroke-linejoin="round" /><path d="M0.084767,0.634241 L0.1681062,0.634241 0.1681062,0.7484015 0.1681062,0.7484015 0.1688258,0.7577824 0.1701215,0.7623142 0.1722669,0.7665059 0.175456,0.7699672 0.1795416,0.7723017 0.184092,0.773511 0.1887973,0.7737625 0.1887973,0.7737625 0.1936894,0.773546 0.1983812,0.7721588 0.2024263,0.7694077 0.205412,0.7655389 0.2072962,0.7610162 0.208397,0.7562434 0.2089138,0.7464715 0.2089138,0.634241 0.3336353,0.634241 0.3336353,0.7925857 0.3336353,0.7925857 0.33374,0.7993989 0.3340785,0.8027897 0.335144,0.8060205 0.335144,0.8060205 0.3380796,0.8115094 0.342527,0.8158563 0.3481834,0.8184384 0.3543264,0.8194554 0.3543264,0.8194554 0.3594338,0.8192053 0.3642778,0.8175765 0.3682903,0.8144268 0.3711489,0.8101847 0.3729471,0.8054003 0.3739647,0.8003823 0.3744428,0.7901719 0.3744428,0.6194411 0.3744428,0.6194411 0.373718,0.6082453 0.3719966,0.6029005 0.3687646,0.5983211 0.3640279,0.5953285 0.3586042,0.5938465 0.3530197,0.5933023 0.3474002,0.5934334 0.0705417,0.5933616 0.0705417,0.5933616 0.0649048,0.5934184 0.0593215,0.5941516 0.053955,0.5958737 0.0493565,0.5991061 0.0463263,0.6038468 0.0447102,0.6092419 0.0439594,0.620476 0.0440312,0.7921546 0.0440312,0.7921546 0.0447336,0.8014041 0.0459397,0.8058977 0.0479861,0.8100603 0.0510578,0.8135452 0.0550388,0.8159242 0.0595084,0.8171827 0.0641475,0.8174438 0.0641475,0.8174438 0.0690579,0.8171637 0.073766,0.8157493 0.0778688,0.8130568 0.0809535,0.809226 0.0829865,0.8047541 0.0841812,0.7999764 0.084767,0.7901719 0.084767,0.634241z" transform="matrix(1,0,0,-1,1.3504744,1.0736121)" fill="rgb(255,255,255)" stroke="rgb(0,0,0)" stroke-width="0.0010cm" stroke-linecap="round" stroke-linejoin="round" /><path d="M0.3382333,0.353761 L0.3382333,0.5195776 0.3382333,0.5195776 0.3382843,0.525338 0.3392391,0.5310008 0.3392391,0.5310008 0.3416939,0.536008 0.3456761,0.5399215 0.3506199,0.5425051 0.3561225,0.5434298 0.3561225,0.5434298 0.3617832,0.5423768 0.3669034,0.5397627 0.3709035,0.5356315 0.3735089,0.5304979 0.3735089,0.5304979 0.3743595,0.5270009 0.3744459,0.5233843 0.3744428,0.5161477 0.3744428,0.3402543 0.3744428,0.3402543 0.374182,0.3353954 0.3732333,0.3306275 0.3713492,0.3261428 0.3683136,0.32235 0.3642749,0.3196493 0.3596709,0.3180737 0.3548538,0.3174331 0.349988,0.3175515 0.0661592,0.3174797 0.0661592,0.3174797 0.0581347,0.3184746 0.0542751,0.3197012 0.0506805,0.3215709 0.0477379,0.3243366 0.0455664,0.3277545 0.0443799,0.3316227 0.0440312,0.3356563 0.0440312,0.3356563 0.044372,0.3397093 0.0454825,0.3436195 0.0475728,0.3471081 0.0505464,0.3498648 0.0541854,0.3516939 0.0580723,0.3528864 0.0661506,0.353761 0.3382333,0.353761z" transform="matrix(1,0,0,-1,1.3504744,1.0736121)" fill="rgb(255,255,255)" stroke="rgb(0,0,0)" stroke-width="0.0010cm" stroke-linecap="round" stroke-linejoin="round" /><path d="M0.0439594,0.0620823 L0.0440312,0.1737912 0.0440312,0.1737912 0.0455755,0.1907064 0.0474054,0.1990023 0.0499056,0.2071251 0.0532482,0.2149342 0.0573379,0.2223831 0.062163,0.2293758 0.0676779,0.2358394 0.0737984,0.2417329 0.0804929,0.2469645 0.0877105,0.2514471 0.0953696,0.2551247 0.1033726,0.2579774 0.111632,0.2599724 0.1200397,0.261196 0.12852,0.2617286 0.12852,0.2617286 0.1384058,0.2613142 0.1481594,0.259656 0.1576249,0.2567777 0.1666096,0.2526367 0.1749181,0.2472639 0.1825104,0.2409202 0.1892762,0.233701 0.1953351,0.2258783 0.1953351,0.2258783 0.2032025,0.2336863 0.2116357,0.240874 0.2206555,0.247319 0.2303418,0.2526991 0.2406087,0.2568724 0.2513111,0.2597469 0.262283,0.2613082 0.273358,0.2617286 0.273358,0.2617286 0.2891304,0.2605591 0.3045865,0.2572058 0.3120608,0.2546108 0.3193045,0.2514277 0.3262897,0.2477108 0.3329257,0.2434022 0.3391945,0.2385743 0.3450642,0.2332687 0.3504816,0.2275021 0.3553662,0.2212776 0.3597377,0.2146828 0.3635381,0.2077427 0.3695574,0.1931173 0.3695574,0.1931173 0.3721731,0.1836807 0.3737306,0.174014 0.3744428,0.1544491 0.3744428,0.0625763 0.3744428,0.0625763 0.3745029,0.0571078 0.3738342,0.0516858 0.3720726,0.0465085 0.3688876,0.0420773 0.3644575,0.038889 0.3592779,0.037137 0.3538485,0.036536 0.3483836,0.036756 0.0691048,0.0367124 0.0691048,0.0367124 0.0638891,0.03679 0.0587291,0.0375645 0.0538808,0.0394739 0.0496797,0.0425593 0.0466767,0.0468187 0.0448734,0.0517097 0.0440946,0.0568674 0.0439594,0.0620823z" transform="matrix(1,0,0,-1,1.3504744,1.0736121)" fill="rgb(255,255,255)" stroke="rgb(0,0,0)" stroke-width="0.0010cm" stroke-linecap="round" stroke-linejoin="round" /><path d="M0.3192665,-0.0688198 L0.3192665,-0.2177983 0.3604332,-0.2337093 0.3604332,-0.2337093 0.3661999,-0.2369344 0.3708917,-0.241575 0.3736685,-0.2475591 0.3744428,-0.2541131 0.3744428,-0.2541131 0.3741282,-0.2580617 0.3731882,-0.2619067 0.3716449,-0.2655549 0.3694035,-0.2688187 0.3665655,-0.2715799 0.3632379,-0.2737252 0.3594782,-0.2749667 0.3555478,-0.2754508 0.3555478,-0.2754508 0.3517291,-0.2751146 0.3480415,-0.2740465 0.3408279,-0.2714306 0.0596932,-0.1651699 0.0596932,-0.1651699 0.0534456,-0.1621525 0.0481265,-0.157722 0.0461323,-0.1548839 0.0447313,-0.1517089 0.0440388,-0.1483087 0.0440312,-0.144838 0.0440312,-0.144838 0.0441867,-0.1406347 0.0450563,-0.1365177 0.0467898,-0.1326971 0.0495292,-0.1295033 0.0565189,-0.1248528 0.0642138,-0.1214589 0.3442682,-0.0142252 0.3442682,-0.0142252 0.3498468,-0.0128772 0.3555478,-0.0122135 0.3555478,-0.0122135 0.3594729,-0.0127107 0.3632026,-0.0140271 0.3665287,-0.016168 0.3693437,-0.0189479 0.3715656,-0.0222205 0.373154,-0.0258457 0.37413,-0.0296778 0.3744428,-0.0336231 0.3744428,-0.0336231 0.3743592,-0.0372065 0.3736445,-0.0407173 0.3721257,-0.043962 0.3700049,-0.0468543 0.3644454,-0.0513443 0.3579804,-0.0544185 0.3192665,-0.0688198z" transform="matrix(1,0,0,-1,1.3504744,1.0736121)" fill="rgb(255,255,255)" stroke="rgb(0,0,0)" stroke-width="0.0010cm" stroke-linecap="round" stroke-linejoin="round" /><path d="M0.2847593,-0.3675553 L0.0704698,-0.367627 0.0704698,-0.367627 0.0607455,-0.36699 0.0559834,-0.3659284 0.0515331,-0.3639501 0.0478463,-0.3607697 0.0454414,-0.3565396 0.0442887,-0.3518048 0.0440312,-0.3469358 0.0440312,-0.3469358 0.04415,-0.3423387 0.0452396,-0.3378747 0.0475147,-0.3338848 0.0508848,-0.3307657 0.0549983,-0.3287187 0.0594412,-0.3275188 0.0685935,-0.3267477 0.3513808,-0.3268195 0.3513808,-0.3268195 0.3599137,-0.3278456 0.3640135,-0.3291636 0.3677668,-0.3312599 0.3708596,-0.3342486 0.3729649,-0.3379962 0.3741097,-0.3421424 0.3744428,-0.3464329 0.3744428,-0.3464329 0.373628,-0.3528717 0.3707526,-0.3587128 0.3664858,-0.3636009 0.3613181,-0.3675553 0.133143,-0.5152669 0.3508779,-0.5152669 0.3508779,-0.5152669 0.3596658,-0.5164337 0.3638366,-0.5179369 0.3676624,-0.5201918 0.3707366,-0.5233796 0.3728885,-0.5272578 0.3740523,-0.531538 0.3744428,-0.535958 0.3744428,-0.535958 0.3737524,-0.5413418 0.3718792,-0.5464292 0.3686592,-0.5507946 0.3643846,-0.5541346 0.3643846,-0.5541346 0.3603827,-0.5554067 0.3562127,-0.5559246 0.3478077,-0.5560745 0.0696077,-0.5561463 0.0696077,-0.5561463 0.0628081,-0.5560676 0.056101,-0.5551405 0.056101,-0.5551405 0.051036,-0.5523572 0.0472827,-0.5479387 0.0448484,-0.5426952 0.0440312,-0.5369639 0.0440312,-0.5369639 0.0449014,-0.5303656 0.0480982,-0.5245208 0.0527678,-0.5197765 0.0580854,-0.5157564 0.2847593,-0.3675553z" transform="matrix(1,0,0,-1,1.3504744,1.0736121)" fill="rgb(255,255,255)" stroke="rgb(0,0,0)" stroke-width="0.0010cm" stroke-linecap="round" stroke-linejoin="round" /><path d="M0.084767,-0.7911488 L0.1681062,-0.7911488 0.1681062,-0.6769883 0.1681062,-0.6769883 0.1688258,-0.6676074 0.1701215,-0.6630755 0.1722669,-0.6588839 0.175456,-0.6554226 0.1795416,-0.653088 0.184092,-0.6518788 0.1887973,-0.6516273 0.1887973,-0.6516273 0.1936894,-0.6518437 0.1983812,-0.653231 0.2024263,-0.655982 0.205412,-0.6598509 0.2072962,-0.6643735 0.208397,-0.6691464 0.2089138,-0.6789183 0.2089138,-0.7911488 0.3336353,-0.7911488 0.3336353,-0.6328041 0.3336353,-0.6328041 0.33374,-0.6259908 0.3340785,-0.6226001 0.335144,-0.6193692 0.335144,-0.6193692 0.3380796,-0.6138803 0.342527,-0.6095334 0.3481834,-0.6069514 0.3543264,-0.6059343 0.3543264,-0.6059343 0.3594338,-0.6061844 0.3642778,-0.6078133 0.3682903,-0.6109629 0.3711489,-0.615205 0.3729471,-0.6199894 0.3739647,-0.6250074 0.3744428,-0.6352179 0.3744428,-0.8059487 0.3744428,-0.8059487 0.373718,-0.8171445 0.3719966,-0.8224893 0.3687646,-0.8270687 0.3640279,-0.8300613 0.3586042,-0.8315432 0.3530197,-0.8320874 0.3474002,-0.8319564 0.0705417,-0.8320282 0.0705417,-0.8320282 0.0649048,-0.8319714 0.0593215,-0.8312382 0.053955,-0.8295161 0.0493565,-0.8262837 0.0463263,-0.8215429 0.0447102,-0.8161478 0.0439594,-0.8049138 0.0440312,-0.6332351 0.0440312,-0.6332351 0.0447336,-0.6239856 0.0459397,-0.6194921 0.0479861,-0.6153295 0.0510578,-0.6118446 0.0550388,-0.6094655 0.0595084,-0.6082071 0.0641475,-0.607946 0.0641475,-0.607946 0.0690579,-0.6082261 0.073766,-0.6096405 0.0778688,-0.6123329 0.0809535,-0.6161638 0.0829865,-0.6206357 0.0841812,-0.6254133 0.084767,-0.6352179 0.084767,-0.7911488z" transform="matrix(1,0,0,-1,1.3504744,1.0736121)" fill="rgb(255,255,255)" stroke="rgb(0,0,0)" stroke-width="0.0010cm" stroke-linecap="round" stroke-linejoin="round" /></svg>