<?xml version="1.0" encoding="utf-8"?>
<!-- Generator: Fusion 360, Shaper Origin Export Add-In, Version 1.6.10  -->
<svg xmlns="http://www.w3.org/2000/svg" xmlns:xlink="http://www.w3.org/1999/xlink" xmlns:shaper="http://www.shapertools.com/namespaces/shaper" shaper:fusionaddin="version:1.6.10" width="3.4925cm" height="3.175cm" version="1.1" x="0cm" y="0cm" viewBox="0 0 3.4925 3.175" enable-background="new 0 0 3.4925 3.175" xml:space="preserve"><path d="M3.01625,1.3335 A0.254,0.254 0 0,1 2.76225,1.5875 L-0.22225,1.5875 A0.254,0.254 90 0,1 -0.47625,1.3335 L-0.47625,-1.3335 A0.254,0.254 180 0,1 -0.22225,-1.5875 L2.76225,-1.5875 A0.254,0.254 270 0,1 3.01625,-1.3335 L3.01625,1.3335z" transform="matrix(1,0,0,-1,0.47625,1.5875)" fill="rgb(0,0,0)" shaper:cutDepth="0.000127" stroke-linecap="round" stroke-linejoin="round" /><path d="M1.6425068,1.2754288 L1.6425068,1.2754288 1.6526657,1.2854204 1.6634706,1.2947072 1.6750855,1.302961 1.6875239,1.3099083 1.7007189,1.3152804 1.7144786,1.3189746 1.7285839,1.3209816 1.7428219,1.321522 1.7428219,1.321522 1.7529872,1.321111 1.763103,1.3200321 1.7731111,1.3182074 1.7829732,1.3157074 1.7925816,1.3123677 1.801913,1.3083141 1.8108765,1.3035034 1.8194069,1.2979601 1.8274675,1.2917536 1.8350144,1.2849319 1.84198,1.2775175 1.8482605,1.2695145 1.8538812,1.2610352 1.8587675,1.2521121 1.8629543,1.2428406 1.8665069,1.2333075 1.8665069,1.2333075 1.8698712,1.221174 1.871863,1.2087439 1.8727088,1.1961825 1.8728805,1.1835912 1.8728805,1.0654691 1.8728805,1.0654691 1.8729682,1.058446 1.8720308,1.0514981 1.8697577,1.0448509 1.8656841,1.0391517 1.8600069,1.0350424 1.8533621,1.0327767 1.8463925,1.0319908 1.8393758,1.0322715 1.4802107,1.0322155 1.4802107,1.0322155 1.4735052,1.0323152 1.4668712,1.0333109 1.4606378,1.0357655 1.4552365,1.039732 1.4513757,1.0452078 1.4490541,1.0514957 1.448063,1.058127 1.4479732,1.064834 1.4479731,1.2084597 1.4479731,1.2084597 1.4486173,1.2193651 1.4499588,1.2302078 1.4523114,1.240874 1.455526,1.2513175 1.4598236,1.2613578 1.4650818,1.270935 1.4712855,1.2799256 1.4783761,1.288236 1.4862453,1.2958133 1.4948525,1.3025397 1.5041323,1.308303 1.5139798,1.3130313 1.5242693,1.3166991 1.5348886,1.3192641 1.5456984,1.3208372 1.5566016,1.321522 1.5566016,1.321522 1.5693119,1.3209892 1.5818523,1.3188573 1.5940223,1.3151566 1.6055741,1.3098325 1.6162564,1.3029246 1.6260178,1.2947684 1.6347168,1.2854866 1.6425068,1.2754288z M1.5566016,1.2690552 L1.5566016,1.2690552 1.5471825,1.268268 1.5380298,1.2659185 1.5294013,1.2620625 1.5215872,1.256747 1.5147108,1.2502633 1.5091498,1.2426221 1.5049588,1.2341532 1.5022874,1.2250865 1.5022874,1.2250865 1.5010142,1.219607 1.5005166,1.2140004 1.5004401,1.2027456 1.5004401,1.0897347 1.6135023,1.0897347 1.6135023,1.2039335 1.6135023,1.2039335 1.6126938,1.2206243 1.6110938,1.2288377 1.6078676,1.2365405 1.6078676,1.2365405 1.6039046,1.2434949 1.5991086,1.2499025 1.5934145,1.2555274 1.5869506,1.2602478 1.5799092,1.2640533 1.5724233,1.2668853 1.5645879,1.2685187 1.5566016,1.2690552z M1.7434685,1.2690552 L1.7434685,1.2690552 1.7315434,1.2680783 1.7198951,1.265351 1.708802,1.2608671 1.6985243,1.2547439 1.6891441,1.2473131 1.68116,1.2384063 1.6746015,1.228399 1.6698487,1.2174197 1.6698487,1.2174197 1.6676196,1.2104739 1.6664007,1.2032808 1.6659692,1.188699 1.6659692,1.0852653 1.8204137,1.0852653 1.8204137,1.1828729 1.8204137,1.1828729 1.8201134,1.1951996 1.8189186,1.2074727 1.8161292,1.2194851 1.8112689,1.2308135 1.8112689,1.2308135 1.8054473,1.2391298 1.7985969,1.2466213 1.7908194,1.2531448 1.7822731,1.2586237 1.7731504,1.263077 1.7635629,1.2664131 1.7535943,1.2683314 1.7434685,1.2690552z" transform="matrix(1,0,0,-1,0.47625,1.5875)" fill="rgb(139,139,139)" fill-rule="nonzero" shaper:cutDepth="0.00005" stroke-linecap="round" stroke-linejoin="round" /><path d="M-0.1713544,0.3218211 L0.192137,0.3217288 0.192137,0.3217288 0.2031253,0.3204284 0.2083947,0.318719 0.2132222,0.3160074 0.2171919,0.3121539 0.2199743,0.3073692 0.2214508,0.3020336 0.2218805,0.2965114 0.2218805,0.2965114 0.2207493,0.2882499 0.2192445,0.2843489 0.2171342,0.2807209 0.2115983,0.2744822 0.2050058,0.2693541 -0.0883621,0.0794392 0.1914904,0.0794392 0.1914904,0.0794392 0.2028078,0.077929 0.2081921,0.0760204 0.2131295,0.0731342 0.2170964,0.0690343 0.2198742,0.0640421 0.2213767,0.0585297 0.2218805,0.0528363 0.2218805,0.0528363 0.2209891,0.0459012 0.2185731,0.039347 0.2143626,0.0337701 0.2088562,0.0294664 0.2088562,0.0294664 0.2037335,0.0278358 0.1983955,0.0271676 0.1876353,0.0269723 -0.1701427,0.02688 -0.1701427,0.02688 -0.1788851,0.0269811 -0.1832526,0.0272001 -0.1875085,0.0281732 -0.1875085,0.0281732 -0.1940166,0.0317473 -0.1966468,0.0343638 -0.1988355,0.0374232 -0.201889,0.0441941 -0.2030269,0.0515431 -0.2030269,0.0515431 -0.2018198,0.0600291 -0.2001442,0.0639954 -0.1977762,0.0675855 -0.1917187,0.0736529 -0.1848647,0.0788098 0.1065732,0.2693541 -0.1690343,0.269262 -0.1690343,0.269262 -0.1815333,0.2700949 -0.187658,0.2714586 -0.1933834,0.2739886 -0.1981225,0.2780796 -0.201214,0.283518 -0.2026958,0.2896052 -0.2030269,0.2958648 -0.2030269,0.2958648 -0.2028732,0.3017852 -0.2014665,0.3075335 -0.1985212,0.3126588 -0.1941445,0.3166479 -0.1888723,0.3193159 -0.1831404,0.3208411 -0.1713544,0.3218211z" transform="matrix(1,0,0,-1,0.47625,1.5875)" fill="rgb(139,139,139)" fill-rule="nonzero" shaper:cutDepth="0.00005" stroke-linecap="round" stroke-linejoin="round" /><path d="M-0.054999,1.264529 L-0.054999,1.264529 -0.0472828,1.263392 -0.0435792,1.2621511 -0.0401358,1.2602897 -0.0371056,1.257807 -0.0345991,1.2548099 -0.0309824,1.2479022 -0.0309824,1.2479022 -0.0298506,1.2427367 -0.0293106,1.2374661 -0.0290426,1.2268867 -0.0290426,1.0851442 0.1493261,1.0851442 0.1493261,1.0851442 0.1581772,1.0850062 0.1625848,1.08458 0.1667842,1.0832044 0.1667842,1.0832044 0.1705186,1.0818015 0.1739885,1.0798368 0.1769124,1.0771212 0.1793939,1.0739981 0.1813386,1.0704946 0.1826642,1.0667206 0.1837805,1.0588184 0.1837805,1.0588184 0.1826436,1.0513869 0.1798072,1.044435 0.1776303,1.0413474 0.1749916,1.0386699 0.168724,1.0345248 0.168724,1.0345248 0.1640273,1.0331505 0.1591437,1.0327203 0.1493438,1.0326773 -0.205564,1.032585 -0.205564,1.032585 -0.2131168,1.0330552 -0.2205596,1.0344258 -0.2275695,1.0372626 -0.2336618,1.0417423 -0.2361029,1.044643 -0.2380292,1.0479072 -0.2404334,1.0550833 -0.2413651,1.0625854 -0.2411268,1.0701526 -0.2411269,1.2868828 -0.2411269,1.2868828 -0.2398801,1.2989072 -0.2382729,1.3047484 -0.2355691,1.3101498 -0.2316619,1.3147722 -0.2266538,1.3181516 -0.2209087,1.3200419 -0.2148934,1.3206907 -0.2148934,1.3206907 -0.2088251,1.320159 -0.2030297,1.3182913 -0.1978862,1.3150499 -0.1939659,1.3103908 -0.1913469,1.3048965 -0.1897168,1.2990216 -0.1888724,1.2929944 -0.1886599,1.2869038 -0.1886599,1.0851442 -0.0815095,1.0851442 -0.0815095,1.2287814 -0.0815095,1.2287814 -0.0806759,1.241526 -0.0791895,1.2477509 -0.0766566,1.253615 -0.072746,1.2586685 -0.0674893,1.2622859 -0.0613809,1.2641582 -0.054999,1.264529z" transform="matrix(1,0,0,-1,0.47625,1.5875)" fill="rgb(139,139,139)" fill-rule="nonzero" shaper:cutDepth="0.00005" stroke-linecap="round" stroke-linejoin="round" /><path d="M2.3554805,1.1744671 L2.3554805,1.1744671 2.3545276,1.1678731 2.3519673,1.1617319 2.3479659,1.1563933 2.3424562,1.1526675 2.3424562,1.1526675 2.3385928,1.151352 2.334529,1.1509354 2.3263544,1.1509124 1.9609633,1.1508201 1.9609633,1.1508201 1.9508033,1.1511313 1.945779,1.1519022 1.9411035,1.1538683 1.9411035,1.1538683 1.936768,1.1579923 1.9333897,1.1629257 1.9312973,1.1685287 1.9305731,1.1744671 1.9305731,1.1744671 1.9309251,1.1797003 1.9322759,1.1847648 1.9350024,1.1892436 1.9389061,1.1927256 1.9436072,1.1950667 1.9486379,1.1965387 1.9590789,1.1974675 2.3262912,1.1974675 2.3262912,1.1974675 2.335761,1.1971723 2.3404433,1.1964288 2.3449502,1.1949735 2.3449502,1.1949735 2.3494122,1.191024 2.352593,1.1859669 2.3546714,1.1803782 2.3554805,1.1744671z" transform="matrix(1,0,0,-1,0.47625,1.5875)" fill="rgb(139,139,139)" fill-rule="nonzero" shaper:cutDepth="0.00005" stroke-linecap="round" stroke-linejoin="round" /><path d="M0.7794035,1.2948267 L0.7794035,1.2948267 0.789793,1.3004131 0.8006858,1.3049209 0.8120316,1.3081764 0.8237416,1.3095138 0.8237416,1.3095138 0.8290418,1.3090409 0.83421,1.307789 0.8390744,1.3056311 0.8433426,1.3024598 0.8468446,1.2984556 0.8493792,1.2937798 0.8508497,1.2886688 0.8513606,1.2833727 0.8513606,1.2833727 0.8512617,1.2787746 0.8503307,1.274272 0.848365,1.2701151 0.8455555,1.2664779 0.8420679,1.2634784 0.8381375,1.2610897 0.829561,1.2577859 0.829561,1.2577859 0.8184609,1.2546544 0.8078507,1.2501432 0.7981846,1.2438558 0.789911,1.2358291 0.7864329,1.2312185 0.7834871,1.2262585 0.7792354,1.2155383 0.7768705,1.2042575 0.7762482,1.1927396 0.7762482,1.1895472 0.7768171,1.1575632 0.7768171,1.1575632 0.7781521,1.1459161 0.7811925,1.1346028 0.7861974,1.1240005 0.7894835,1.1191495 0.7932602,1.114656 0.7974474,1.1105342 0.8020391,1.1068897 0.807043,1.1038414 0.8123716,1.1013674 0.817918,1.0994278 0.8236205,1.0980911 0.835288,1.0969677 0.835288,1.0969677 0.8434676,1.0975484 0.8514968,1.0991991 0.8592474,1.101877 0.8665344,1.1056336 0.873201,1.1104066 0.8791132,1.1160861 0.8840353,1.1226428 0.8879396,1.1298518 0.8879396,1.1298518 0.8912793,1.1409316 0.8937998,1.1522319 0.9078918,1.2212069 0.9078918,1.2212069 0.9106033,1.2315426 0.9139485,1.2416909 0.9181043,1.2515346 0.922992,1.2610371 0.9286761,1.2700841 0.9351277,1.2786026 0.9423724,1.2864554 0.9502528,1.2936722 0.9587501,1.3001496 0.9677731,1.3058732 0.9773336,1.3106449 0.9872561,1.3146074 0.9975202,1.317579 1.0079862,1.3197316 1.018594,1.3210148 1.0292675,1.321522 1.0292675,1.321522 1.0413986,1.3208656 1.0534274,1.3191759 1.0652554,1.3164033 1.0767548,1.3124887 1.0877556,1.3073374 1.0980958,1.3009629 1.1076312,1.2934374 1.1163033,1.2849312 1.1240579,1.2755798 1.1307573,1.2654495 1.1363621,1.2546678 1.14097,1.2434332 1.1443538,1.2317619 1.1468163,1.2198676 1.1482763,1.2078071 1.1489805,1.1956792 1.1489805,1.1541455 1.1489805,1.1541455 1.1483766,1.1406689 1.1468413,1.1272679 1.1443424,1.1140099 1.1406671,1.101032 1.1406671,1.101032 1.1330417,1.0864142 1.1285052,1.079529 1.1234124,1.0730323 1.1178336,1.0669526 1.1118121,1.0613176 1.0986236,1.0514229 1.0842226,1.0433964 1.0687955,1.0375788 1.0608208,1.0354378 1.0527221,1.033916 1.0362877,1.032585 1.0362877,1.032585 1.0298423,1.0329791 1.0234794,1.0340692 1.0173677,1.0361489 1.0116843,1.0392121 1.0067209,1.0433413 1.0029805,1.0485925 1.0007009,1.0546322 0.9998935,1.0610353 0.9998935,1.0610353 1.0004424,1.066088 1.0019742,1.0709331 1.0046124,1.0752763 1.0080401,1.0790272 1.0121578,1.0820061 1.0168,1.0840753 1.0217463,1.0852424 1.0268005,1.0857831 1.0318539,1.0856984 1.0318539,1.0856984 1.0375809,1.0851442 1.0375809,1.0851442 1.0470874,1.0862079 1.0563079,1.0887571 1.064969,1.0928187 1.0729397,1.0981102 1.0801327,1.1044181 1.0863968,1.1116485 1.0913978,1.1198035 1.0950358,1.128651 1.0950358,1.128651 1.0964763,1.1350751 1.0972251,1.1416209 1.0976718,1.154782 1.0976221,1.192849 1.0976221,1.192849 1.096809,1.2062428 1.0950358,1.2195442 1.0950358,1.2195442 1.0914158,1.230056 1.0860037,1.2397668 1.078813,1.2482458 1.070353,1.2554612 1.060887,1.2612918 1.0506001,1.2655158 1.0397945,1.2681243 1.0287133,1.2690552 1.0287133,1.2690552 1.0193541,1.2683481 1.0101607,1.2664601 1.0013288,1.2632849 0.9929448,1.2590647 0.985221,1.2537333 0.9782624,1.2474356 0.9722855,1.2401994 0.9673788,1.2321991 0.9673788,1.2321991 0.9632069,1.2203759 0.9603986,1.2081491 0.9456716,1.1394584 0.9456716,1.1394584 0.9428261,1.1267686 0.9389651,1.1143576 0.9339061,1.1023724 0.9271973,1.0912407 0.9271973,1.0912407 0.9191206,1.0807282 0.9096435,1.071456 0.8990679,1.0634623 0.887606,1.0567985 0.8754422,1.0515239 0.8627685,1.0476315 0.8497168,1.045303 0.8364889,1.0444085 0.8364889,1.0444085 0.8257294,1.0450915 0.8150484,1.0465588 0.8045722,1.0491013 0.7943655,1.0525739 0.7846011,1.0571425 0.7753419,1.0626642 0.7666994,1.0691083 0.7587654,1.0764083 0.7515542,1.084421 0.7451904,1.0931252 0.7396594,1.1023758 0.7351762,1.1121835 0.7315471,1.1223323 0.7289073,1.1327878 0.7270846,1.143412 0.7260766,1.1541467 0.7240732,1.1952936 0.7240731,1.1990378 0.7240731,1.1990378 0.7250006,1.2134785 0.7278645,1.2276627 0.7324791,1.2413762 0.7388949,1.2543474 0.7469251,1.2663846 0.7564736,1.2772585 0.7673971,1.2867472 0.7794035,1.2948267z" transform="matrix(1,0,0,-1,0.47625,1.5875)" fill="rgb(139,139,139)" fill-rule="nonzero" shaper:cutDepth="0.00005" stroke-linecap="round" stroke-linejoin="round" /><path d="M0.0080413,-0.0448 L0.0080413,-0.0448 0.0319003,-0.0453647 0.0556941,-0.047149 0.0793276,-0.050493 0.1026121,-0.0556997 0.1253279,-0.0630254 0.1363543,-0.0675863 0.1470665,-0.0728477 0.1574144,-0.0788119 0.1672924,-0.0855173 0.1765525,-0.0930283 0.1853939,-0.1010541 0.1853939,-0.1010541 0.1934069,-0.1104462 0.2004922,-0.1205565 0.2066031,-0.1312842 0.2117289,-0.1425156 0.2159441,-0.1541203 0.2190939,-0.1660569 0.2210801,-0.1782425 0.2218805,-0.1905617 0.2218805,-0.1905617 0.2205993,-0.2059652 0.2175776,-0.2211246 0.2127901,-0.235822 0.2065823,-0.2499787 0.1990294,-0.263466 0.1901952,-0.2761495 0.1800987,-0.2878552 0.1686747,-0.2982665 0.1686747,-0.2982665 0.1500954,-0.3099388 0.1402621,-0.3148241 0.1301684,-0.3191528 0.1094257,-0.3263131 0.0881231,-0.3316092 0.0664998,-0.3353755 0.0446901,-0.3378659 0.0227824,-0.3392017 0.0008363,-0.3396488 0.0008363,-0.3396488 -0.0214702,-0.3390354 -0.0437142,-0.337281 -0.0657899,-0.334021 -0.0875817,-0.3292221 -0.1089066,-0.3226481 -0.119288,-0.3185584 -0.1294174,-0.3138774 -0.1392677,-0.3086164 -0.1487491,-0.3027258 -0.1663555,-0.2890294 -0.1663555,-0.2890294 -0.1754858,-0.2789781 -0.1836262,-0.2681096 -0.190752,-0.2565502 -0.1968412,-0.2444125 -0.2017881,-0.2317666 -0.2056062,-0.2187356 -0.2080304,-0.2053744 -0.2089377,-0.1918266 -0.2089377,-0.1918266 -0.2083395,-0.18038 -0.2066348,-0.1690441 -0.2039238,-0.1579072 -0.200272,-0.1470412 -0.1957808,-0.1364949 -0.1904635,-0.1263396 -0.1843472,-0.1166451 -0.1775324,-0.1074277 -0.1775324,-0.1074277 -0.1689833,-0.0981278 -0.1595515,-0.0897195 -0.1494444,-0.0821406 -0.1387414,-0.0754278 -0.127566,-0.0695337 -0.1159991,-0.064451 -0.1041428,-0.0600849 -0.0920662,-0.0563709 -0.0674244,-0.0507966 -0.0424175,-0.0471986 -0.0172228,-0.0452842 0.0080413,-0.0448z M0.0022219,-0.2870896 L0.0022219,-0.2870896 0.03643,-0.2859038 0.0534664,-0.2842254 0.0703819,-0.2816142 0.0870728,-0.2778089 0.1033232,-0.2724535 0.1189479,-0.2654492 0.1334813,-0.2564224 0.1334813,-0.2564224 0.1409229,-0.2504228 0.147683,-0.2436668 0.1537012,-0.2362396 0.1588791,-0.2282061 0.1631833,-0.2196707 0.1664791,-0.2107 0.1685821,-0.2013756 0.1694137,-0.1918549 0.1694137,-0.1918549 0.1687687,-0.1835181 0.1670275,-0.1753353 0.1644699,-0.1673751 0.1610733,-0.1597301 0.1570745,-0.152385 0.1524102,-0.1454423 0.1471102,-0.1389725 0.1412405,-0.1330145 0.1412405,-0.1330145 0.1266848,-0.1224612 0.1188311,-0.1180654 0.1106745,-0.1142659 0.0937692,-0.1081285 0.0763534,-0.1036372 0.0586349,-0.1005374 0.0407526,-0.0985961 0.0227919,-0.0976266 0.0048083,-0.0972668 0.0048083,-0.0972668 -0.013988,-0.0975971 -0.0327369,-0.0988958 -0.0513745,-0.1013682 -0.0697851,-0.1051554 -0.0877499,-0.1106869 -0.104935,-0.1182879 -0.1131177,-0.1229298 -0.12091,-0.1281994 -0.1281352,-0.1341954 -0.1349493,-0.1406813 -0.1349493,-0.1406813 -0.1435221,-0.1519235 -0.1470939,-0.1580257 -0.1501099,-0.1644341 -0.1546784,-0.1778049 -0.1559389,-0.1847598 -0.1564716,-0.1918083 -0.1564718,-0.1918549 -0.1564718,-0.1918549 -0.1558214,-0.1999054 -0.1542302,-0.2078254 -0.1518199,-0.2155352 -0.1487739,-0.2230169 -0.1450885,-0.2302053 -0.1408096,-0.2370569 -0.1359411,-0.243503 -0.1304231,-0.2494022 -0.1304231,-0.2494022 -0.1237072,-0.2551157 -0.1166167,-0.2603312 -0.1090427,-0.2648492 -0.101153,-0.2687864 -0.0847256,-0.2751447 -0.0677467,-0.2798659 -0.0504591,-0.2832721 -0.032976,-0.2854827 -0.0153938,-0.2866417 0.0022219,-0.2870896z" transform="matrix(1,0,0,-1,0.47625,1.5875)" fill="rgb(139,139,139)" fill-rule="nonzero" shaper:cutDepth="0.00005" stroke-linecap="round" stroke-linejoin="round" /><path d="M0.3205429,1.3209678 L0.3205429,1.3209678 0.3257713,1.3204681 0.3308304,1.319067 0.335532,1.3167279 0.3396611,1.3134846 0.3431037,1.3095196 0.3457178,1.3049665 0.3472658,1.2999492 0.3478847,1.2947344 0.3478847,1.2947344 0.3476607,1.2902129 0.3467921,1.285813 0.3449481,1.2816846 0.3423449,1.2780034 0.3359573,1.2716607 0.3289486,1.2660069 0.3289486,1.2660069 0.3216681,1.2596733 0.3148623,1.252832 0.3088279,1.2453024 0.3036263,1.237175 0.2993862,1.2285063 0.2963643,1.2193449 0.2945397,1.2098687 0.29394,1.2002387 0.29394,1.2002387 0.2954169,1.1867429 0.2988312,1.1736017 0.3040446,1.1610638 0.3109454,1.1493766 0.3192955,1.1386656 0.3287807,1.1289516 0.3391364,1.1201656 0.3501816,1.1122663 0.3618123,1.1052567 0.3739445,1.0991544 0.3865262,1.0940495 0.3994544,1.0898845 0.4126484,1.086685 0.4260394,1.084407 0.4395341,1.0829148 0.4530955,1.0821883 0.4530955,1.0821883 0.4701397,1.0830406 0.4870303,1.0854811 0.5036437,1.0893836 0.5198846,1.094626 0.5356308,1.1012068 0.5507627,1.1090971 0.5651519,1.1182729 0.5786279,1.1287434 0.5786279,1.1287434 0.5863029,1.1358565 0.5932892,1.1436416 0.5995708,1.1520124 0.6048215,1.1610596 0.6089169,1.170688 0.6117804,1.18075 0.6134419,1.19108 0.6139137,1.2015319 0.6139137,1.2015319 0.6133231,1.2121909 0.6109763,1.2226096 0.607088,1.2325513 0.6018707,1.241869 0.5955506,1.2504751 0.5883695,1.2583816 0.5805372,1.2656388 0.5722543,1.2723806 0.5722543,1.2723806 0.5668311,1.2768883 0.5624264,1.2823883 0.5600084,1.2890014 0.5594147,1.2960276 0.5594147,1.2960276 0.5599357,1.3011891 0.5613171,1.3061885 0.5638082,1.3107368 0.5672323,1.3146328 0.5713846,1.3177397 0.5760887,1.3199282 0.5811252,1.3211625 0.5862947,1.3216144 0.5862947,1.3216144 0.5913428,1.3210511 0.59614,1.3195246 0.6048093,1.3142601 0.6201949,1.301108 0.6201949,1.301108 0.6303345,1.2907484 0.6395642,1.2795726 0.6476557,1.2675451 0.654373,1.2547014 0.6596554,1.2412032 0.6633562,1.2271888 0.6655701,1.212864 0.6663805,1.1983912 0.6663805,1.1983912 0.6654277,1.1809411 0.6641439,1.1722958 0.6622449,1.1637574 0.6568388,1.147139 0.649372,1.1313409 0.639879,1.116666 0.6288188,1.1031339 0.6164087,1.0908298 0.6030139,1.0796019 0.6030139,1.0796019 0.5862624,1.0679492 0.5685413,1.0578309 0.5500064,1.0492951 0.5308526,1.0422568 0.5111844,1.0368172 0.4911698,1.0328395 0.4708961,1.0305174 0.4505091,1.0296291 0.4505091,1.0296291 0.4303216,1.030589 0.4103057,1.0333902 0.3906177,1.0379542 0.371381,1.0441534 0.3526924,1.0518479 0.3346669,1.0609891 0.3174473,1.0715699 0.3010525,1.0833891 0.3010525,1.0833891 0.2881503,1.09468 0.276353,1.1071161 0.2659043,1.1207087 0.257087,1.1354102 0.2502306,1.1511212 0.2453032,1.1675407 0.2424699,1.1844476 0.241474,1.2015622 0.241474,1.2015622 0.2423809,1.2171776 0.2452733,1.2325525 0.250028,1.2474507 0.2566651,1.2616195 0.2648363,1.2749539 0.2744028,1.2873368 0.285016,1.2988248 0.2965264,1.3094214 0.2965264,1.3094214 0.3074519,1.317603 0.3137637,1.3202008 0.3205429,1.3209678z" transform="matrix(1,0,0,-1,0.47625,1.5875)" fill="rgb(139,139,139)" fill-rule="nonzero" shaper:cutDepth="0.00005" stroke-linecap="round" stroke-linejoin="round" /><path d="M2.8380805,1.1740976 L2.8380805,1.1740976 2.8367831,1.1658014 2.8352413,1.161908 2.8331039,1.1582636 2.8305359,1.1549373 2.8273999,1.1521552 2.8238185,1.1499656 2.8198834,1.1485108 2.8198834,1.1485108 2.8112146,1.1478855 2.8025178,1.1479565 2.4656401,1.1479565 2.46564,1.0616819 2.46564,1.0616819 2.4644577,1.0493911 2.4627499,1.043439 2.4598564,1.0379934 2.4557618,1.0333494 2.4504626,1.0301954 2.4445522,1.0283901 2.4383905,1.0278741 2.4383905,1.0278741 2.4320112,1.0284014 2.4259903,1.0305423 2.4210315,1.0345841 2.417504,1.0399152 2.4152903,1.0459232 2.4139323,1.0521845 2.4131732,1.0649541 2.4131731,1.2878065 2.4131731,1.2878065 2.4134701,1.2939148 2.4143706,1.2999569 2.4161155,1.3058223 2.4189903,1.3112065 2.4231105,1.3157248 2.4283865,1.3187928 2.4342366,1.3205557 2.4403303,1.3210602 2.4403303,1.3210602 2.4464815,1.3205709 2.45231,1.3185457 2.4572963,1.3149356 2.4609824,1.3099832 2.4633858,1.3043047 2.4647667,1.2982839 2.4656401,1.2859797 2.4656401,1.2004234 2.8056582,1.2004234 2.8056582,1.2004234 2.8151977,1.200178 2.8199041,1.1994008 2.8244096,1.197837 2.8244096,1.197837 2.8302608,1.1936512 2.834676,1.1879721 2.8372051,1.1812432 2.8380805,1.1740976z" transform="matrix(1,0,0,-1,0.47625,1.5875)" fill="rgb(139,139,139)" fill-rule="nonzero" shaper:cutDepth="0.00005" stroke-linecap="round" stroke-linejoin="round" /><path d="M0.47625,0 a0.79375,0.79375 0 1,1 1.5875,0 a0.79375,0.79375 0 1,1 -1.5875,0z" transform="matrix(1,0,0,-1,0.47625,1.5875)" fill="rgb(255,255,255)" stroke="rgb(0,0,0)" stroke-width="0.0010cm" stroke-linecap="round" stroke-linejoin="round" shaper:cutDepth="0.000127" /></svg>