<?xml version="1.0" encoding="utf-8"?>
<!-- Generator: Fusion 360, Shaper Origin Export Add-In, Version 1.6.10  -->
<svg xmlns="http://www.w3.org/2000/svg" xmlns:xlink="http://www.w3.org/1999/xlink" xmlns:shaper="http://www.shapertools.com/namespaces/shaper" shaper:fusionaddin="version:1.6.10" width="5.715cm" height="2.54cm" version="1.1" x="0cm" y="0cm" viewBox="0 0 5.715 2.54" enable-background="new 0 0 5.715 2.54" xml:space="preserve"><path d="M2.8575,1.27 L-2.8575,1.27 -2.8575,-1.27 2.8575,-1.27 2.8575,1.27z" transform="matrix(1,0,0,-1,2.8575,1.27)" fill="rgb(0,0,0)" shaper:cutDepth="0.000127" stroke-linecap="round" stroke-linejoin="round" /><path d="M1.5198742,-0.2071057 L1.5198742,-0.2071057 1.5384312,-0.2075449 1.5569376,-0.2089327 1.5753191,-0.2115335 1.5934293,-0.2155832 1.6110971,-0.221281 1.628005,-0.2289205 1.6360533,-0.2335593 1.6437362,-0.2387747 1.6578152,-0.2508588 1.6578152,-0.2508588 1.6640475,-0.2581639 1.6695583,-0.2660274 1.6743112,-0.2743711 1.678298,-0.2831067 1.6815764,-0.2921326 1.6840263,-0.3014166 1.6855711,-0.3108942 1.6861936,-0.3204759 1.6861936,-0.3204759 1.6851971,-0.3324564 1.6828469,-0.344247 1.6791233,-0.3556784 1.674295,-0.3666891 1.6684205,-0.3771793 1.6615495,-0.3870442 1.6536967,-0.3961486 1.6448114,-0.4042463 1.6448114,-0.4042463 1.6303608,-0.4133247 1.614862,-0.4204912 1.5987288,-0.4260603 1.5821601,-0.4301795 1.5653419,-0.4331088 1.5483788,-0.4350458 1.5313395,-0.4360848 1.5142704,-0.4364325 1.5142704,-0.4364325 1.4969208,-0.4359554 1.4796199,-0.4345909 1.46245,-0.4320554 1.4455008,-0.4283229 1.4289147,-0.4232097 1.4129619,-0.4163881 1.3979262,-0.4077146 1.3842323,-0.3970619 1.3842323,-0.3970619 1.3771309,-0.3892442 1.3707996,-0.3807909 1.3652572,-0.3718003 1.3605212,-0.3623599 1.3566736,-0.3525242 1.3537039,-0.3423889 1.3518185,-0.3319969 1.3511128,-0.3214597 1.3511128,-0.3214597 1.3515781,-0.3125568 1.3529039,-0.30374 1.3550125,-0.2950779 1.3578528,-0.2866266 1.361346,-0.2784239 1.3654816,-0.2705253 1.3702387,-0.2629852 1.3755391,-0.2558161 1.3755391,-0.2558161 1.3821885,-0.2485828 1.3895243,-0.242043 1.3973854,-0.2361483 1.4057099,-0.2309273 1.4144019,-0.226343 1.4233984,-0.2223898 1.4420128,-0.2161053 1.4611787,-0.2117697 1.4806285,-0.2089712 1.5002244,-0.2074823 1.5198742,-0.2071057z M1.515348,-0.3955531 L1.515348,-0.3955531 1.5419543,-0.3946308 1.5552049,-0.3933254 1.5683614,-0.3912945 1.5813432,-0.3883348 1.5939824,-0.3841695 1.6061349,-0.3787218 1.6174387,-0.3717008 1.6174387,-0.3717008 1.6232266,-0.3670345 1.6284844,-0.3617798 1.6331653,-0.3560031 1.6371926,-0.3497549 1.6405403,-0.3431162 1.6431036,-0.336139 1.6447393,-0.3288867 1.6453861,-0.3214817 1.6453861,-0.3214817 1.6448844,-0.3149975 1.6435301,-0.3086331 1.6415409,-0.3024419 1.6388992,-0.2964958 1.635789,-0.2907829 1.6321612,-0.285383 1.6234736,-0.2757169 1.6234736,-0.2757169 1.6121525,-0.2675088 1.5997,-0.2611347 1.5865515,-0.2563611 1.5730059,-0.2528679 1.5592248,-0.250457 1.5453164,-0.2489471 1.5173597,-0.2479132 1.5173597,-0.2479132 1.5027403,-0.2481701 1.4881579,-0.2491802 1.473662,-0.2511031 1.4593426,-0.2540488 1.44537,-0.258351 1.4320038,-0.264263 1.4195788,-0.2719719 1.4086593,-0.28168 1.4086593,-0.28168 1.4019916,-0.2904239 1.3968678,-0.3001544 1.3933145,-0.3105539 1.3919198,-0.3214454 1.3919196,-0.3214817 1.3919196,-0.3214817 1.3924255,-0.3277432 1.3936631,-0.3339032 1.3979069,-0.3457188 1.4041014,-0.3566388 1.4078879,-0.3616524 1.4121797,-0.3662407 1.4121797,-0.3662407 1.422918,-0.374741 1.4349454,-0.3813173 1.4477222,-0.3862626 1.460928,-0.3899347 1.474374,-0.3925839 1.4879719,-0.3943033 1.515348,-0.3955531z" transform="matrix(1,0,0,-1,2.8575,1.27)" fill="rgb(139,139,139)" fill-rule="nonzero" shaper:cutDepth="0.00005" stroke-linecap="round" stroke-linejoin="round" /><path d="M0.3978015,-0.2012863 L0.3978015,-0.2012863 0.4034644,-0.2023421 0.4086081,-0.2049194 0.4125796,-0.2090828 0.4151878,-0.2142183 0.4151878,-0.2142183 0.4160391,-0.2177155 0.4161866,-0.2213314 0.4161936,-0.2285685 0.4161936,-0.4044618 0.4161936,-0.4044618 0.4159335,-0.4093183 0.4149845,-0.4140824 0.4131068,-0.4185684 0.4100341,-0.4223271 0.4060096,-0.4250444 0.401418,-0.4266451 0.3966012,-0.4272778 0.3917388,-0.4271647 0.1078381,-0.4272364 0.1078381,-0.4272364 0.0998178,-0.4262403 0.0959538,-0.4250223 0.0923854,-0.4231185 0.0894215,-0.4203688 0.0872437,-0.4169596 0.0860586,-0.4130921 0.0857101,-0.4090598 0.0857101,-0.4090598 0.0860521,-0.4049995 0.0871668,-0.4010824 0.0892729,-0.3975977 0.0922805,-0.3948574 0.0959062,-0.3929984 0.0998081,-0.391819 0.1079014,-0.3909551 0.3799841,-0.3909551 0.3799841,-0.2251386 0.3799841,-0.2251386 0.379996,-0.219378 0.3809181,-0.2137154 0.3809181,-0.2137154 0.3833729,-0.2087081 0.3873551,-0.2047946 0.3922989,-0.202211 0.3978015,-0.2012863z" transform="matrix(1,0,0,-1,2.8575,1.27)" fill="rgb(139,139,139)" fill-rule="nonzero" shaper:cutDepth="0.00005" stroke-linecap="round" stroke-linejoin="round" /><path d="M-1.0395237,-0.2652277 L-1.0395237,-0.2652277 -1.0346314,-0.2654442 -1.0299394,-0.2668316 -1.0258942,-0.2695829 -1.0229088,-0.2734521 -1.0210236,-0.2779751 -1.0199276,-0.2827483 -1.0193354,-0.2925187 -1.0193354,-0.4047492 -0.8946139,-0.4047492 -0.8946139,-0.2464045 -0.8946139,-0.2464045 -0.8945837,-0.239591 -0.8942422,-0.2362004 -0.893177,-0.2329696 -0.893177,-0.2329696 -0.8902414,-0.2274807 -0.8857941,-0.2231338 -0.8801376,-0.2205518 -0.8739946,-0.2195347 -0.8739946,-0.2195347 -0.868885,-0.219785 -0.8640424,-0.2214179 -0.8600028,-0.2245481 -0.8571499,-0.2287849 -0.8553811,-0.2335897 -0.854358,-0.238604 -0.8538064,-0.2488183 -0.8538064,-0.4195491 -0.8538064,-0.4195491 -0.8538629,-0.4251606 -0.8545823,-0.4307211 -0.8563119,-0.4360582 -0.8595262,-0.4406401 -0.8642473,-0.4436431 -0.8696608,-0.4451338 -0.8752371,-0.4456858 -0.880849,-0.4455568 -1.1577794,-0.4456286 -1.1577794,-0.4456286 -1.163416,-0.4455718 -1.1689991,-0.4448387 -1.1743654,-0.4431168 -1.1789639,-0.4398848 -1.1819938,-0.4351444 -1.1836132,-0.4297496 -1.1842898,-0.4185142 -1.1842899,-0.2468356 -1.1842899,-0.2468356 -1.1835709,-0.2375854 -1.182344,-0.2331141 -1.1803122,-0.2289343 -1.1772399,-0.2254718 -1.173275,-0.2230648 -1.1688069,-0.221818 -1.1641735,-0.2215464 -1.1641735,-0.2215464 -1.1592612,-0.2218268 -1.1545525,-0.2232436 -1.1504343,-0.2259253 -1.1473376,-0.2297377 -1.1453425,-0.2342371 -1.1441412,-0.2390101 -1.1434822,-0.2488183 -1.1434822,-0.4047492 -1.060143,-0.4047492 -1.060143,-0.2905887 -1.060143,-0.2905887 -1.0594256,-0.2812209 -1.0581357,-0.2766929 -1.0559932,-0.2725095 -1.0528448,-0.2690161 -1.0487675,-0.2666835 -1.0442227,-0.2654782 -1.0395237,-0.2652277z" transform="matrix(1,0,0,-1,2.8575,1.27)" fill="rgb(139,139,139)" fill-rule="nonzero" shaper:cutDepth="0.00005" stroke-linecap="round" stroke-linejoin="round" /><path d="M-0.8766865,-0.7122426 L-1.1543308,-0.7123144 -1.1543308,-0.7123144 -1.1609998,-0.7122602 -1.1676099,-0.7113887 -1.1738798,-0.7091352 -1.1766964,-0.707329 -1.1790765,-0.7049945 -1.1821703,-0.6991011 -1.1836974,-0.6926029 -1.184327,-0.685972 -1.1842898,-0.6792998 -1.1842899,-0.5984413 -1.1842899,-0.5984413 -1.1832827,-0.5780294 -1.1813714,-0.5679885 -1.1783986,-0.5582085 -1.1783986,-0.5582085 -1.1724294,-0.5450242 -1.168751,-0.5387852 -1.1645581,-0.5328805 -1.1599339,-0.5273069 -1.1548376,-0.5221611 -1.1434988,-0.5131651 -1.137364,-0.5093171 -1.1309264,-0.5059978 -1.1242748,-0.5031359 -1.1173934,-0.5008744 -1.1103841,-0.4990578 -1.1032442,-0.4978365 -1.0888089,-0.4967817 -1.0888089,-0.4967817 -1.0727547,-0.4981413 -1.0648442,-0.4996954 -1.057072,-0.5018347 -1.0495148,-0.5046403 -1.0422375,-0.5081082 -1.0352878,-0.5121926 -1.028666,-0.5167902 -1.022436,-0.521906 -1.016684,-0.5275538 -1.0114477,-0.5336825 -1.0067309,-0.5402197 -1.0026527,-0.547173 -0.999231,-0.554472 -0.99419,-0.5697754 -0.99419,-0.5697754 -0.9928032,-0.5774838 -0.992116,-0.5852879 -0.9917472,-0.6009491 -0.9917472,-0.671435 -0.8796703,-0.671435 -0.8796703,-0.671435 -0.8701608,-0.6720466 -0.8655239,-0.6731152 -0.8611465,-0.6750179 -0.8575394,-0.6781017 -0.855188,-0.6822403 -0.854049,-0.686864 -0.8538064,-0.6916232 -0.8538064,-0.6916232 -0.8540469,-0.696025 -0.8550892,-0.7003038 -0.8570328,-0.7042556 -0.8600459,-0.7074693 -0.8637786,-0.7098022 -0.8679421,-0.7112532 -0.8766865,-0.7122426z M-1.1434822,-0.5999421 L-1.1434822,-0.671435 -1.0325548,-0.671435 -1.0325548,-0.5969325 -1.0325548,-0.5969325 -1.0335006,-0.5854969 -1.0361048,-0.5743262 -1.0408096,-0.5638657 -1.0439215,-0.5590432 -1.0475936,-0.5546323 -1.0516781,-0.5505983 -1.0562149,-0.5470832 -1.0611186,-0.5441001 -1.0663428,-0.5417224 -1.0773798,-0.5386081 -1.0888089,-0.5375892 -1.0888089,-0.5375892 -1.1004517,-0.5386719 -1.1116644,-0.5419635 -1.116888,-0.5445967 -1.121743,-0.5478596 -1.1261754,-0.551677 -1.1301021,-0.5560123 -1.1335181,-0.5607621 -1.1364179,-0.5658431 -1.1404985,-0.5767969 -1.1427482,-0.5882691 -1.1434822,-0.5999421z" transform="matrix(1,0,0,-1,2.8575,1.27)" fill="rgb(139,139,139)" fill-rule="nonzero" shaper:cutDepth="0.00005" stroke-linecap="round" stroke-linejoin="round" /><path d="M0.2498742,-0.4875856 L0.2498742,-0.4875856 0.2684312,-0.4880248 0.2869376,-0.4894126 0.3053191,-0.4920135 0.3234293,-0.4960631 0.3410971,-0.5017609 0.358005,-0.5094004 0.3660533,-0.5140393 0.3737362,-0.5192546 0.3878152,-0.5313387 0.3878152,-0.5313387 0.3940475,-0.5386438 0.3995583,-0.5465073 0.4043112,-0.5548511 0.408298,-0.5635866 0.4115764,-0.5726125 0.4140263,-0.5818965 0.4155711,-0.5913742 0.4161936,-0.6009558 0.4161936,-0.6009558 0.4151971,-0.6129363 0.4128469,-0.624727 0.4091233,-0.6361583 0.404295,-0.647169 0.3984205,-0.6576592 0.3915495,-0.6675241 0.3836967,-0.6766285 0.3748114,-0.6847262 0.3748114,-0.6847262 0.3603608,-0.6938046 0.344862,-0.7009711 0.3287288,-0.7065402 0.3121601,-0.7106594 0.2953419,-0.7135887 0.2783788,-0.7155257 0.2613395,-0.7165647 0.2442704,-0.7169124 0.2442704,-0.7169124 0.2269208,-0.7164354 0.2096199,-0.7150708 0.19245,-0.7125353 0.1755008,-0.7088028 0.1589147,-0.7036897 0.1429619,-0.696868 0.1279262,-0.6881946 0.1142323,-0.6775418 0.1142323,-0.6775418 0.1071309,-0.6697241 0.1007996,-0.6612708 0.0952572,-0.6522802 0.0905212,-0.6428398 0.0866736,-0.6330041 0.0837039,-0.6228688 0.0818185,-0.6124768 0.0811128,-0.6019396 0.0811128,-0.6019396 0.0815781,-0.5930367 0.0829039,-0.5842199 0.0850125,-0.5755579 0.0878528,-0.5671065 0.091346,-0.5589039 0.0954816,-0.5510053 0.1002387,-0.5434651 0.1055391,-0.536296 0.1055391,-0.536296 0.1121885,-0.5290627 0.1195243,-0.5225229 0.1273854,-0.5166283 0.1357099,-0.5114072 0.1444019,-0.5068229 0.1533984,-0.5028697 0.1720128,-0.4965852 0.1911787,-0.4922496 0.2106285,-0.4894512 0.2302244,-0.4879622 0.2498742,-0.4875856z M0.245348,-0.676033 L0.245348,-0.676033 0.2719543,-0.6751107 0.2852049,-0.6738053 0.2983614,-0.6717744 0.3113432,-0.6688147 0.3239824,-0.6646495 0.3361349,-0.6592017 0.3474387,-0.6521808 0.3474387,-0.6521808 0.3532266,-0.6475145 0.3584844,-0.6422598 0.3631653,-0.6364831 0.3671926,-0.6302348 0.3705403,-0.6235961 0.3731036,-0.616619 0.3747393,-0.6093666 0.3753861,-0.6019616 0.3753861,-0.6019616 0.3748844,-0.5954775 0.3735301,-0.5891131 0.3715409,-0.5829218 0.3688992,-0.5769757 0.365789,-0.5712628 0.3621612,-0.5658629 0.3534736,-0.5561969 0.3534736,-0.5561969 0.3421525,-0.5479888 0.3297,-0.5416146 0.3165515,-0.5368411 0.3030059,-0.5333478 0.2892248,-0.5309369 0.2753164,-0.529427 0.2473597,-0.5283931 0.2473597,-0.5283931 0.2327403,-0.52865 0.2181579,-0.5296601 0.203662,-0.531583 0.1893426,-0.5345287 0.17537,-0.5388309 0.1620038,-0.5447429 0.1495788,-0.5524518 0.1386593,-0.5621599 0.1386593,-0.5621599 0.1319916,-0.5709038 0.1268678,-0.5806343 0.1233145,-0.5910338 0.1219198,-0.6019254 0.1219196,-0.6019616 0.1219196,-0.6019616 0.1224255,-0.6082232 0.1236631,-0.6143831 0.1279069,-0.6261987 0.1341014,-0.6371187 0.1378879,-0.6421324 0.1421797,-0.6467206 0.1421797,-0.6467206 0.152918,-0.655221 0.1649454,-0.6617972 0.1777222,-0.6667426 0.190928,-0.6704146 0.204374,-0.6730639 0.2179719,-0.6747832 0.245348,-0.676033z" transform="matrix(1,0,0,-1,2.8575,1.27)" fill="rgb(139,139,139)" fill-rule="nonzero" shaper:cutDepth="0.00005" stroke-linecap="round" stroke-linejoin="round" /><path d="M1.6678015,-0.4863643 L1.6678015,-0.4863643 1.6734644,-0.48742 1.6786081,-0.4899973 1.6825796,-0.4941608 1.6851878,-0.4992962 1.6851878,-0.4992962 1.6860391,-0.5027935 1.6861866,-0.5064094 1.6861936,-0.5136464 1.6861936,-0.6895398 1.6861936,-0.6895398 1.6859335,-0.6943963 1.6849845,-0.6991603 1.6831068,-0.7036464 1.6800341,-0.707405 1.6760096,-0.7101224 1.671418,-0.711723 1.6666012,-0.7123557 1.6617388,-0.7122426 1.3778381,-0.7123144 1.3778381,-0.7123144 1.3698178,-0.7113182 1.3659538,-0.7101003 1.3623854,-0.7081965 1.3594215,-0.7054468 1.3572437,-0.7020376 1.3560586,-0.69817 1.3557101,-0.6941378 1.3557101,-0.6941378 1.3560521,-0.6900774 1.3571668,-0.6861604 1.3592729,-0.6826757 1.3622805,-0.6799354 1.3659062,-0.6780764 1.3698081,-0.6768969 1.3779014,-0.676033 1.6499841,-0.676033 1.6499841,-0.5102165 1.6499841,-0.5102165 1.649996,-0.504456 1.6509181,-0.4987933 1.6509181,-0.4987933 1.6533729,-0.4937861 1.6573551,-0.4898726 1.6622989,-0.487289 1.6678015,-0.4863643z" transform="matrix(1,0,0,-1,2.8575,1.27)" fill="rgb(139,139,139)" fill-rule="nonzero" shaper:cutDepth="0.00005" stroke-linecap="round" stroke-linejoin="round" /><path d="M1.3987448,0.0526112 L1.3987448,0.0526112 1.4068255,0.0569562 1.4152978,0.0604623 1.4241222,0.0629943 1.4332301,0.0640345 1.4332301,0.0640345 1.4373524,0.0636667 1.4413721,0.062693 1.4451555,0.0610146 1.4484753,0.0585481 1.451199,0.0554337 1.4531704,0.0517969 1.4543141,0.0478217 1.4547115,0.0437026 1.4547115,0.0437026 1.4546346,0.0401262 1.4539105,0.0366243 1.4523816,0.0333911 1.4501964,0.0305621 1.4444268,0.0263713 1.4377562,0.0238017 1.4377562,0.0238017 1.4291229,0.0213661 1.4208705,0.0178574 1.4133524,0.0129672 1.4069173,0.0067242 1.401921,-0.0007196 1.3986141,-0.0090576 1.3967747,-0.0178315 1.3962907,-0.0267898 1.3962907,-0.0292728 1.3967332,-0.0541493 1.3967332,-0.0541493 1.3977716,-0.0632081 1.4001363,-0.0720074 1.404029,-0.0802536 1.4095222,-0.0875215 1.4163503,-0.093562 1.4243867,-0.0978571 1.4331358,-0.1004054 1.4422106,-0.1012791 1.4422106,-0.1012791 1.4485725,-0.1008275 1.4548174,-0.0995436 1.4608456,-0.0974608 1.4665133,-0.094539 1.4716984,-0.0908267 1.4762968,-0.0864092 1.4801251,-0.0813096 1.4831618,-0.0757026 1.4831618,-0.0757026 1.4857594,-0.067085 1.4877197,-0.0582958 1.4986802,-0.0046486 1.4986802,-0.0046486 1.5033909,0.0112834 1.5066232,0.0189396 1.5104248,0.0263304 1.5148458,0.0333669 1.5198636,0.0399924 1.5254984,0.0461002 1.5316276,0.0517133 1.5382367,0.0567512 1.5452545,0.061203 1.5526905,0.0649142 1.560408,0.0679962 1.5683912,0.0703075 1.5765314,0.0719817 1.5847819,0.0729797 1.5930835,0.0733742 1.5930835,0.0733742 1.6025188,0.0728637 1.6118745,0.0715495 1.6210741,0.069393 1.6300181,0.0663484 1.6385743,0.0623418 1.6466166,0.0573838 1.6540331,0.0515306 1.660778,0.0449147 1.6668094,0.0376414 1.67202,0.0297623 1.6763793,0.0213765 1.6799632,0.0126385 1.6825951,0.0035608 1.6845104,-0.0056903 1.6861936,-0.0245035 1.6861936,-0.0568075 1.6861936,-0.0568075 1.6857239,-0.0672893 1.6845298,-0.0777123 1.6825862,-0.0880241 1.6797277,-0.098118 1.6797277,-0.098118 1.6737968,-0.1094874 1.6663073,-0.1198955 1.6572849,-0.129007 1.6470271,-0.1367028 1.6358264,-0.1429457 1.6238275,-0.1474705 1.6113259,-0.1503194 1.5985437,-0.1513546 1.5985437,-0.1513546 1.5885817,-0.1502001 1.5838281,-0.1485826 1.5794077,-0.1462001 1.5755473,-0.1429886 1.572638,-0.1389043 1.5708651,-0.1342068 1.570237,-0.1292265 1.570237,-0.1292265 1.570664,-0.1252967 1.5718554,-0.1215283 1.5739073,-0.1181502 1.5765733,-0.1152329 1.579776,-0.1129159 1.5833866,-0.1113065 1.5911648,-0.1099782 1.5950951,-0.1100441 1.5950951,-0.1100441 1.5995495,-0.1104752 1.5995495,-0.1104752 1.6069434,-0.1096479 1.6141149,-0.1076652 1.6208514,-0.1045061 1.6270508,-0.1003905 1.6326453,-0.0954844 1.6375174,-0.0898607 1.6414071,-0.083518 1.6442366,-0.0766365 1.6442366,-0.0766365 1.6459394,-0.0665489 1.6462868,-0.0563124 1.6462482,-0.0267048 1.6462482,-0.0267048 1.6456158,-0.0162873 1.6442366,-0.0059418 1.6442366,-0.0059418 1.6414211,0.002234 1.6372116,0.0097869 1.6316189,0.0163817 1.6250389,0.0219936 1.6176765,0.0265285 1.6096755,0.0298139 1.6012711,0.0318427 1.5926524,0.0325667 1.5926524,0.0325667 1.5853731,0.0320168 1.5782226,0.0305483 1.5713534,0.0280787 1.5648325,0.0247963 1.5588251,0.0206497 1.5534129,0.0157515 1.5487642,0.0101233 1.5449479,0.0039009 1.5449479,0.0039009 1.541703,-0.005295 1.5395188,-0.0148047 1.5280645,-0.0682308 1.5280645,-0.0682308 1.5258513,-0.0781006 1.5228483,-0.0877537 1.5189136,-0.0970755 1.5136956,-0.1057335 1.5136956,-0.1057335 1.5074137,-0.1139099 1.5000427,-0.1211216 1.4918172,-0.1273389 1.4829023,-0.1325218 1.4734416,-0.1366243 1.4635843,-0.1396517 1.453433,-0.1414628 1.4431446,-0.1421585 1.4431446,-0.1421585 1.4347761,-0.1416273 1.4264686,-0.140486 1.4183205,-0.1385086 1.410382,-0.1358076 1.4027874,-0.1322543 1.3955858,-0.1279596 1.3888639,-0.1229476 1.382693,-0.1172698 1.3770843,-0.1110377 1.3721347,-0.1042677 1.3678327,-0.0970728 1.3643458,-0.0894446 1.3615232,-0.0815511 1.35947,-0.073419 1.3580524,-0.0651558 1.3572684,-0.0568065 1.3557102,-0.0248034 1.3557101,-0.0218912 1.3557101,-0.0218912 1.3564315,-0.0106596 1.358659,0.0003725 1.3622481,0.0110386 1.3672381,0.0211274 1.3734839,0.0304895 1.3809105,0.0389471 1.3894066,0.0463272 1.3987448,0.0526112z" transform="matrix(1,0,0,-1,2.8575,1.27)" fill="rgb(139,139,139)" fill-rule="nonzero" shaper:cutDepth="0.00005" stroke-linecap="round" stroke-linejoin="round" /><path d="M0.2491558,0.0733742 L0.2491558,0.0733742 0.274758,0.0725941 0.2875031,0.0713085 0.3001446,0.0692435 0.3125829,0.0661851 0.3247177,0.0620866 0.3365404,0.0571564 0.3479416,0.0513181 0.3479416,0.0513181 0.3623857,0.0427662 0.3759322,0.0328554 0.388099,0.0212995 0.3935728,0.0149358 0.398508,0.0081449 0.4028224,0.0009448 0.4065664,-0.006569 0.4096789,-0.0143648 0.412185,-0.0223766 0.4140288,-0.0305661 0.415243,-0.0388728 0.4161936,-0.0556259 0.4161936,-0.125778 0.4161936,-0.125778 0.4160078,-0.1316572 0.415094,-0.1374693 0.4128713,-0.1429072 0.4111632,-0.1453175 0.4090049,-0.1473091 0.4037,-0.1498457 0.3979499,-0.1510842 0.3862009,-0.1512828 0.1114304,-0.1513546 0.1114304,-0.1513546 0.1060486,-0.1512118 0.1007464,-0.1502991 0.0957584,-0.1482818 0.0915379,-0.1449522 0.0885218,-0.1404996 0.0867139,-0.1354308 0.0858959,-0.1301121 0.0857102,-0.1247318 0.0857101,-0.0566638 0.0857101,-0.0566638 0.0860928,-0.0451298 0.0874842,-0.0336749 0.0900077,-0.022414 0.0936733,-0.0114726 0.0984619,-0.0009734 0.1044227,0.0089072 0.1113467,0.0181383 0.1191895,0.0266036 0.1191895,0.0266036 0.1324553,0.0383971 0.1470098,0.0485614 0.1626102,0.0570233 0.1791157,0.0635586 0.1962388,0.0682287 0.2137374,0.0712349 0.2314092,0.0728875 0.2491558,0.0733742z M0.3598677,-0.0078098 L0.3598677,-0.0078098 0.3533238,-0.0009141 0.3461884,0.0053689 0.3385289,0.010999 0.3304208,0.0159641 0.3219834,0.0203441 0.3132412,0.0240814 0.3042494,0.0271673 0.2950642,0.0296211 0.2950642,0.0296211 0.2861186,0.0316408 0.2769839,0.0324485 0.2586392,0.0325667 0.2586392,0.0325667 0.2231817,0.0322545 0.2143337,0.0317046 0.2055933,0.0302356 0.1970727,0.0277961 0.1888066,0.024592 0.1888066,0.024592 0.180236,0.0207618 0.171941,0.0163682 0.1639937,0.0113712 0.1564488,0.0057861 0.149397,-0.0004105 0.1429178,-0.0072009 0.1371681,-0.0146236 0.1324807,-0.0227534 0.1324807,-0.0227534 0.1291729,-0.0303938 0.1273038,-0.0385037 0.1265178,-0.0551273 0.1265178,-0.1104752 0.3753861,-0.1104752 0.3753861,-0.055658 0.3753861,-0.055658 0.3748437,-0.0427563 0.3725067,-0.0300668 0.3703851,-0.0239727 0.3675419,-0.0181749 0.3639581,-0.0128054 0.3598677,-0.0078098z" transform="matrix(1,0,0,-1,2.8575,1.27)" fill="rgb(139,139,139)" fill-rule="nonzero" shaper:cutDepth="0.00005" stroke-linecap="round" stroke-linejoin="round" /><path d="M-1.1596557,0.0596519 L-0.8769402,0.0595801 -0.8769402,0.0595801 -0.8683938,0.0585688 -0.8642954,0.0572392 -0.8605406,0.0551302 -0.8574531,0.052133 -0.855289,0.0484116 -0.8541406,0.0442617 -0.8538064,0.0399667 -0.8538064,0.0399667 -0.8546862,0.033541 -0.8574979,0.0276851 -0.8618036,0.0228328 -0.8669311,0.0188443 -1.0951062,-0.1288673 -0.8774431,-0.1288673 -0.8774431,-0.1288673 -0.8686407,-0.1300419 -0.8644529,-0.1315264 -0.8606127,-0.1337712 -0.8575273,-0.13696 -0.8553669,-0.1408429 -0.8541982,-0.1451303 -0.8538064,-0.1495584 -0.8538064,-0.1495584 -0.8544997,-0.1549524 -0.8563788,-0.1600501 -0.8596537,-0.1643877 -0.8639364,-0.167735 -0.8639364,-0.167735 -0.8679207,-0.1690033 -0.8720725,-0.169523 -0.8804415,-0.1696749 -1.1587133,-0.1697467 -1.1587133,-0.1697467 -1.165513,-0.169668 -1.17222,-0.1687409 -1.17222,-0.1687409 -1.1772819,-0.165961 -1.1810299,-0.1615464 -1.1834049,-0.1562802 -1.1842899,-0.1505643 -1.1842899,-0.1505643 -1.1833511,-0.1439641 -1.1820478,-0.1408791 -1.180206,-0.1380868 -1.1754946,-0.1333677 -1.1701638,-0.1293568 -0.9434899,0.0188443 -1.1578512,0.0187726 -1.1578512,0.0187726 -1.1675727,0.0194205 -1.1723363,0.0204811 -1.1767894,0.0224489 -1.1804754,0.0256308 -1.1828799,0.0298606 -1.1840324,0.0345951 -1.1842899,0.0394638 -1.1842899,0.0394638 -1.1841703,0.0440685 -1.1830763,0.0485393 -1.1807855,0.0525257 -1.1773814,0.0556284 -1.1732808,0.0577035 -1.1688227,0.0588897 -1.1596557,0.0596519z" transform="matrix(1,0,0,-1,2.8575,1.27)" fill="rgb(139,139,139)" fill-rule="nonzero" shaper:cutDepth="0.00005" stroke-linecap="round" stroke-linejoin="round" /><path d="M-1.0201258,-0.7680655 L-1.0201258,-0.7680655 -1.0015688,-0.7685047 -0.9830624,-0.7698925 -0.9646809,-0.7724934 -0.9465707,-0.7765431 -0.9289029,-0.7822408 -0.911995,-0.7898804 -0.9039467,-0.7945192 -0.8962638,-0.7997345 -0.8821848,-0.8118187 -0.8821848,-0.8118187 -0.8759525,-0.8191237 -0.8704417,-0.8269872 -0.8656888,-0.835331 -0.861702,-0.8440665 -0.8584236,-0.8530924 -0.8559737,-0.8623764 -0.8544289,-0.8718541 -0.8538064,-0.8814357 -0.8538064,-0.8814357 -0.8548029,-0.8934162 -0.8571531,-0.9052069 -0.8608767,-0.9166382 -0.865705,-0.9276489 -0.8715795,-0.9381391 -0.8784505,-0.948004 -0.8863033,-0.9571085 -0.8951886,-0.9652061 -0.8951886,-0.9652061 -0.9096392,-0.9742846 -0.925138,-0.981451 -0.9412712,-0.9870201 -0.9578399,-0.9911393 -0.9746581,-0.9940686 -0.9916212,-0.9960057 -1.0086605,-0.9970446 -1.0257296,-0.9973923 -1.0257296,-0.9973923 -1.0430792,-0.9969153 -1.0603801,-0.9955507 -1.07755,-0.9930152 -1.0944992,-0.9892827 -1.1110853,-0.9841696 -1.1270381,-0.9773479 -1.1420738,-0.9686745 -1.1557677,-0.9580217 -1.1557677,-0.9580217 -1.1628691,-0.9502041 -1.1692004,-0.9417507 -1.1747428,-0.9327601 -1.1794788,-0.9233197 -1.1833264,-0.913484 -1.1862961,-0.9033487 -1.1881815,-0.8929567 -1.1888872,-0.8824196 -1.1888872,-0.8824196 -1.1884219,-0.8735166 -1.1870961,-0.8646998 -1.1849875,-0.8560378 -1.1821472,-0.8475864 -1.178654,-0.8393838 -1.1745184,-0.8314852 -1.1697613,-0.823945 -1.1644609,-0.8167759 -1.1644609,-0.8167759 -1.1578115,-0.8095427 -1.1504757,-0.8030029 -1.1426146,-0.7971082 -1.1342901,-0.7918871 -1.1255981,-0.7873029 -1.1166016,-0.7833496 -1.0979872,-0.7770651 -1.0788213,-0.7727295 -1.0593715,-0.7699311 -1.0397756,-0.7684421 -1.0201258,-0.7680655z M-1.024652,-0.956513 L-1.024652,-0.956513 -0.9980457,-0.9555907 -0.9847951,-0.9542852 -0.9716386,-0.9522544 -0.9586568,-0.9492946 -0.9460176,-0.9451294 -0.9338651,-0.9396816 -0.9225613,-0.9326607 -0.9225613,-0.9326607 -0.9167734,-0.9279944 -0.9115156,-0.9227397 -0.9068347,-0.916963 -0.9028074,-0.9107147 -0.8994597,-0.9040761 -0.8968964,-0.8970989 -0.8952607,-0.8898465 -0.8946139,-0.8824416 -0.8946139,-0.8824416 -0.8951156,-0.8759574 -0.8964699,-0.869593 -0.8984591,-0.8634017 -0.9011008,-0.8574556 -0.904211,-0.8517428 -0.9078388,-0.8463428 -0.9165264,-0.8366768 -0.9165264,-0.8366768 -0.9278475,-0.8284687 -0.9403,-0.8220945 -0.9534485,-0.817321 -0.9669941,-0.8138278 -0.9807752,-0.8114168 -0.9946836,-0.8099069 -1.0226403,-0.8088731 -1.0226403,-0.8088731 -1.0372597,-0.8091299 -1.0518421,-0.8101401 -1.066338,-0.812063 -1.0806574,-0.8150086 -1.09463,-0.8193109 -1.1079962,-0.8252228 -1.1204212,-0.8329317 -1.1313407,-0.8426398 -1.1313407,-0.8426398 -1.1380084,-0.8513838 -1.1431322,-0.8611142 -1.1466855,-0.8715138 -1.1480802,-0.8824053 -1.1480804,-0.8824416 -1.1480804,-0.8824416 -1.1475745,-0.8887031 -1.1463369,-0.894863 -1.1420931,-0.9066786 -1.1358986,-0.9175986 -1.1321121,-0.9226123 -1.1278203,-0.9272005 -1.1278203,-0.9272005 -1.117082,-0.9357009 -1.1050546,-0.9422771 -1.0922778,-0.9472225 -1.079072,-0.9508946 -1.065626,-0.9535438 -1.0520281,-0.9552631 -1.024652,-0.956513z" transform="matrix(1,0,0,-1,2.8575,1.27)" fill="rgb(139,139,139)" fill-rule="nonzero" shaper:cutDepth="0.00005" stroke-linecap="round" stroke-linejoin="round" /><path d="M0.106545,-0.804275 L0.106545,-0.804275 0.1025823,-0.8043732 0.0986661,-0.8037791 0.0949827,-0.8023197 0.0917241,-0.8000666 0.089082,-0.7971148 0.0871869,-0.7936361 0.0861018,-0.7898265 0.0857101,-0.7858829 0.0857101,-0.7858829 0.0859176,-0.7816996 0.0870607,-0.777672 0.0892795,-0.77413 0.0925007,-0.7714546 0.0962944,-0.7696881 0.1003586,-0.7686649 0.1087022,-0.7679937 0.3919821,-0.7680655 0.3919821,-0.7680655 0.4007755,-0.7685523 0.4050734,-0.7694903 0.4091385,-0.7711981 0.4125536,-0.7739561 0.4148034,-0.777734 0.4159247,-0.7819902 0.4161936,-0.7863858 0.4161936,-0.7863858 0.4153568,-0.7919291 0.4131478,-0.797071 0.4091832,-0.8010227 0.404052,-0.8032692 0.404052,-0.8032692 0.3978383,-0.8041997 0.3915309,-0.8042033 0.2506646,-0.8042033 0.2506646,-0.961111 0.3934909,-0.961111 0.3934909,-0.961111 0.4018014,-0.9617046 0.4058292,-0.9627755 0.4095989,-0.9645596 0.4127843,-0.9672403 0.4149289,-0.9708065 0.4159881,-0.9748364 0.4161936,-0.9790002 0.4161936,-0.9790002 0.4160004,-0.9832116 0.4149767,-0.9872986 0.4129245,-0.9909711 0.4097908,-0.9937899 0.4060084,-0.9956327 0.4019276,-0.9967207 0.393536,-0.9973206 0.1097061,-0.9973923 0.1097061,-0.9973923 0.1034838,-0.9973063 0.0973489,-0.9963865 0.0973489,-0.9963865 0.0924831,-0.993886 0.0887364,-0.9899027 0.086494,-0.9849234 0.0857101,-0.9795031 0.0857101,-0.9795031 0.0859894,-0.9753131 0.0872042,-0.9712943 0.089376,-0.9677111 0.0925498,-0.9649599 0.0963124,-0.963109 0.1003591,-0.9619665 0.1087022,-0.961111 0.2144551,-0.961111 0.2144551,-0.8042033 0.1076167,-0.8042033 0.106545,-0.804275z" transform="matrix(1,0,0,-1,2.8575,1.27)" fill="rgb(139,139,139)" fill-rule="nonzero" shaper:cutDepth="0.00005" stroke-linecap="round" stroke-linejoin="round" /><path d="M1.4172088,-0.7707956 L1.4172088,-0.7707956 1.4212754,-0.7711843 1.4252102,-0.772274 1.428867,-0.7740933 1.4320785,-0.7766158 1.4347561,-0.7796998 1.4367893,-0.7832411 1.4379933,-0.7871434 1.4384747,-0.7911994 1.4384747,-0.7911994 1.4376249,-0.7981382 1.4361906,-0.8013492 1.4341659,-0.8042124 1.4291978,-0.8091456 1.4237466,-0.8135429 1.4237466,-0.8135429 1.4127905,-0.8237901 1.4080972,-0.8296464 1.4040514,-0.8359678 1.4007536,-0.8427101 1.3984032,-0.8498357 1.3969841,-0.857206 1.3965177,-0.864696 1.3965177,-0.864696 1.3976664,-0.8751927 1.400322,-0.8854137 1.4043768,-0.8951654 1.4097441,-0.9042554 1.4162386,-0.9125862 1.423616,-0.9201416 1.4316704,-0.9269751 1.4402611,-0.933119 1.4493073,-0.9385709 1.4587434,-0.9433171 1.4685292,-0.9472876 1.4785844,-0.950527 1.4888464,-0.9530155 1.4992617,-0.9547873 1.5203053,-0.956513 1.5203053,-0.956513 1.5335619,-0.9558501 1.546699,-0.9539519 1.5596206,-0.9509166 1.5722523,-0.9468392 1.5844994,-0.9417208 1.5962687,-0.9355839 1.6074603,-0.9284471 1.6179416,-0.9203035 1.6179416,-0.9203035 1.623911,-0.9147711 1.6293448,-0.9087159 1.6342305,-0.9022053 1.6383144,-0.8951687 1.6414997,-0.8876799 1.6437269,-0.8798539 1.6450192,-0.8718195 1.6453861,-0.8636902 1.6453861,-0.8636902 1.6449268,-0.8553998 1.6431015,-0.8472964 1.6400772,-0.839564 1.6360193,-0.8323169 1.6311037,-0.8256232 1.6255184,-0.8194737 1.6129844,-0.8085857 1.6129844,-0.8085857 1.6087663,-0.8050796 1.6053405,-0.8008019 1.6034598,-0.7956583 1.602998,-0.7901935 1.602998,-0.7901935 1.6034032,-0.7861791 1.6044776,-0.7822906 1.6064152,-0.778753 1.6090783,-0.7757228 1.6123079,-0.7733064 1.6159667,-0.7716041 1.619884,-0.7706442 1.6239047,-0.7702927 1.6239047,-0.7702927 1.627831,-0.7707308 1.6315621,-0.7719181 1.6383049,-0.7760127 1.6502715,-0.7862421 1.6502715,-0.7862421 1.6581578,-0.7942996 1.6653365,-0.8029918 1.6716299,-0.8123466 1.6768545,-0.8223361 1.680963,-0.8328348 1.6838414,-0.8437348 1.6855633,-0.8548763 1.6861936,-0.8661329 1.6861936,-0.8661329 1.6854526,-0.8797052 1.6829771,-0.8930704 1.6787723,-0.9059957 1.6729648,-0.9182832 1.6655813,-0.929697 1.656979,-0.940222 1.6473266,-0.9497918 1.6369085,-0.9585246 1.6369085,-0.9585246 1.6238795,-0.9675878 1.6100965,-0.9754576 1.5956804,-0.9820966 1.5807831,-0.9875708 1.5654856,-0.9918016 1.5499186,-0.9948954 1.5341502,-0.9967015 1.5182936,-0.9973923 1.5182936,-0.9973923 1.5025923,-0.9966458 1.4870244,-0.9944671 1.4717115,-0.9909173 1.4567496,-0.9860957 1.442214,-0.9801111 1.4281941,-0.9730012 1.4148011,-0.9647718 1.4020497,-0.955579 1.4020497,-0.955579 1.3920146,-0.9467972 1.3828389,-0.9371247 1.3747121,-0.9265527 1.3678543,-0.9151182 1.3625215,-0.9028985 1.3586891,-0.8901278 1.3564854,-0.876978 1.3557108,-0.8636666 1.3557108,-0.8636666 1.3564162,-0.8515213 1.3586658,-0.839563 1.3623639,-0.8279756 1.3675261,-0.8169554 1.3738815,-0.8065842 1.3813221,-0.796953 1.3895768,-0.7880179 1.3985293,-0.7797761 1.3985293,-0.7797761 1.4070269,-0.7734127 1.4119361,-0.7713921 1.4172088,-0.7707956z" transform="matrix(1,0,0,-1,2.8575,1.27)" fill="rgb(139,139,139)" fill-rule="nonzero" shaper:cutDepth="0.00005" stroke-linecap="round" stroke-linejoin="round" /><path d="M1.5004763,0.3049282 L1.5004763,0.3049282 1.5053686,0.3047117 1.5100606,0.3033243 1.5141058,0.300573 1.5170912,0.2967038 1.5189764,0.2921808 1.5200724,0.2874076 1.5206646,0.2776372 1.5206646,0.1654067 1.6453861,0.1654067 1.6453861,0.3237514 1.6453861,0.3237514 1.6454163,0.3305649 1.6457578,0.3339556 1.646823,0.3371863 1.646823,0.3371863 1.6497586,0.3426752 1.6542059,0.3470221 1.6598624,0.3496041 1.6660054,0.3506212 1.6660054,0.3506212 1.671115,0.3503709 1.6759576,0.348738 1.6799972,0.3456078 1.6828501,0.341371 1.6846189,0.3365662 1.685642,0.3315519 1.6861936,0.3213376 1.6861936,0.1506068 1.6861936,0.1506068 1.6861371,0.1449953 1.6854177,0.1394348 1.6836881,0.1340977 1.6804738,0.1295158 1.6757527,0.1265128 1.6703392,0.1250221 1.6647629,0.1244701 1.659151,0.1245991 1.3822206,0.1245273 1.3822206,0.1245273 1.376584,0.1245841 1.3710009,0.1253172 1.3656346,0.1270391 1.3610361,0.1302711 1.3580062,0.1350115 1.3563868,0.1404063 1.3557102,0.1516417 1.3557101,0.3233204 1.3557101,0.3233204 1.3564291,0.3325705 1.357656,0.3370418 1.3596878,0.3412216 1.3627601,0.3446841 1.366725,0.3470911 1.3711931,0.3483379 1.3758265,0.3486095 1.3758265,0.3486095 1.3807388,0.3483291 1.3854475,0.3469123 1.3895657,0.3442306 1.3926624,0.3404182 1.3946575,0.3359188 1.3958588,0.3311458 1.3965178,0.3213376 1.3965178,0.1654067 1.479857,0.1654067 1.479857,0.2795672 1.479857,0.2795672 1.4805744,0.288935 1.4818643,0.293463 1.4840068,0.2976464 1.4871552,0.3011398 1.4912325,0.3034724 1.4957773,0.3046777 1.5004763,0.3049282z" transform="matrix(1,0,0,-1,2.8575,1.27)" fill="rgb(139,139,139)" fill-rule="nonzero" shaper:cutDepth="0.00005" stroke-linecap="round" stroke-linejoin="round" /><path d="M-2.3613353,0.3453758 L-2.3613353,0.3453758 -2.3374762,0.3448111 -2.3136824,0.3430268 -2.2900489,0.3396828 -2.2667645,0.3344761 -2.2440486,0.3271504 -2.2330222,0.3225895 -2.22231,0.3173281 -2.2119622,0.311364 -2.2020842,0.3046585 -2.192824,0.2971475 -2.1839826,0.2891218 -2.1839826,0.2891218 -2.1759696,0.2797296 -2.1688843,0.2696193 -2.1627734,0.2588916 -2.1576476,0.2476602 -2.1534325,0.2360555 -2.1502826,0.2241189 -2.1482964,0.2119334 -2.147496,0.1996141 -2.147496,0.1996141 -2.1487773,0.1842106 -2.151799,0.1690512 -2.1565864,0.1543538 -2.1627942,0.1401971 -2.1703471,0.1267098 -2.1791814,0.1140263 -2.1892778,0.1023206 -2.2007018,0.0919093 -2.2007018,0.0919093 -2.2192811,0.080237 -2.2291144,0.0753518 -2.2392081,0.071023 -2.2599508,0.0638627 -2.2812534,0.0585666 -2.3028768,0.0548003 -2.3246865,0.0523099 -2.3465942,0.0509741 -2.3685402,0.050527 -2.3685402,0.050527 -2.3908468,0.0511404 -2.4130908,0.0528948 -2.4351664,0.0561548 -2.4569582,0.0609537 -2.4782832,0.0675277 -2.4886645,0.0716174 -2.4987939,0.0762985 -2.5086442,0.0815594 -2.5181256,0.08745 -2.535732,0.1011464 -2.535732,0.1011464 -2.5448624,0.1111977 -2.5530027,0.1220663 -2.5601285,0.1336256 -2.5662177,0.1457633 -2.5711647,0.1584092 -2.5749828,0.1714402 -2.5774069,0.1848014 -2.5783143,0.1983492 -2.5783143,0.1983492 -2.577716,0.2097958 -2.5760113,0.2211317 -2.5733004,0.2322686 -2.5696485,0.2431347 -2.5651573,0.2536809 -2.55984,0.2638362 -2.5537238,0.2735308 -2.5469089,0.2827481 -2.5469089,0.2827481 -2.5383598,0.292048 -2.528928,0.3004564 -2.5188209,0.3080352 -2.508118,0.314748 -2.4969425,0.3206421 -2.4853756,0.3257248 -2.4735193,0.3300909 -2.4614428,0.3338049 -2.436801,0.3393792 -2.411794,0.3429772 -2.3865994,0.3448916 -2.3613353,0.3453758z M-2.3671547,0.1030862 L-2.3671547,0.1030862 -2.3329466,0.104272 -2.3159101,0.1059504 -2.2989946,0.1085616 -2.2823038,0.1123669 -2.2660534,0.1177223 -2.2504287,0.1247266 -2.2358952,0.1337535 -2.2358952,0.1337535 -2.2284536,0.139753 -2.2216936,0.146509 -2.2156753,0.1539362 -2.2104974,0.1619697 -2.2061932,0.1705051 -2.2028975,0.1794758 -2.2007945,0.1888002 -2.1999628,0.1983209 -2.1999628,0.1983209 -2.2006078,0.2066577 -2.2023491,0.2148405 -2.2049067,0.2228007 -2.2083032,0.2304457 -2.212302,0.2377908 -2.2169663,0.2447335 -2.2222664,0.2512034 -2.228136,0.2571613 -2.228136,0.2571613 -2.2426917,0.2677146 -2.2505454,0.2721104 -2.2587021,0.2759099 -2.2756073,0.2820474 -2.2930232,0.2865386 -2.3107417,0.2896384 -2.3286239,0.2915797 -2.3465846,0.2925492 -2.3645683,0.292909 -2.3645683,0.292909 -2.3833646,0.2925788 -2.4021134,0.29128 -2.420751,0.2888077 -2.4391616,0.2850204 -2.4571264,0.2794889 -2.4743116,0.2718879 -2.4824942,0.2672461 -2.4902865,0.2619764 -2.4975117,0.2559804 -2.5043258,0.2494945 -2.5043258,0.2494945 -2.5128986,0.2382524 -2.5164705,0.2321501 -2.5194864,0.2257417 -2.524055,0.2123709 -2.5253155,0.205416 -2.5258481,0.1983675 -2.5258483,0.1983209 -2.5258483,0.1983209 -2.5251979,0.1902704 -2.5236067,0.1823504 -2.5211964,0.1746406 -2.5181504,0.1671589 -2.514465,0.1599705 -2.5101861,0.1531189 -2.5053176,0.1466728 -2.4997996,0.1407737 -2.4997996,0.1407737 -2.4930838,0.1350601 -2.4859932,0.1298446 -2.4784193,0.1253266 -2.4705295,0.1213895 -2.4541022,0.1150311 -2.4371232,0.1103099 -2.4198356,0.1069037 -2.4023526,0.1046931 -2.3847704,0.1035341 -2.3671547,0.1030862z" transform="matrix(1,0,0,-1,2.8575,1.27)" fill="rgb(139,139,139)" fill-rule="nonzero" shaper:cutDepth="0.00005" stroke-linecap="round" stroke-linejoin="round" /><path d="M-2.4933337,-0.7813677 L-2.4933337,-0.7813677 -2.4881052,-0.7818674 -2.4830461,-0.7832685 -2.4783445,-0.7856076 -2.4742154,-0.7888508 -2.4707728,-0.7928159 -2.4681587,-0.797369 -2.4666107,-0.8023863 -2.4659918,-0.8076011 -2.4659918,-0.8076011 -2.4662158,-0.8121226 -2.4670844,-0.8165225 -2.4689285,-0.8206509 -2.4715316,-0.8243321 -2.4779193,-0.8306748 -2.4849279,-0.8363286 -2.4849279,-0.8363286 -2.4922084,-0.8426622 -2.4990143,-0.8495035 -2.5050486,-0.8570331 -2.5102503,-0.8651605 -2.5144903,-0.8738292 -2.5175123,-0.8829906 -2.5193369,-0.8924668 -2.5199366,-0.9020968 -2.5199366,-0.9020968 -2.5184596,-0.9155926 -2.5150453,-0.9287338 -2.509832,-0.9412717 -2.5029312,-0.9529589 -2.494581,-0.9636699 -2.4850958,-0.9733839 -2.4747401,-0.9821699 -2.463695,-0.9900692 -2.4520642,-0.9970788 -2.439932,-1.0031811 -2.4273503,-1.008286 -2.4144221,-1.012451 -2.4012282,-1.0156505 -2.3878371,-1.0179285 -2.3743424,-1.0194207 -2.360781,-1.0201472 -2.360781,-1.0201472 -2.3437368,-1.0192949 -2.3268462,-1.0168544 -2.3102328,-1.0129519 -2.293992,-1.0077094 -2.2782457,-1.0011287 -2.2631138,-0.9932384 -2.2487246,-0.9840625 -2.2352486,-0.9735921 -2.2352486,-0.9735921 -2.2275736,-0.966479 -2.2205874,-0.9586939 -2.2143057,-0.9503231 -2.209055,-0.9412759 -2.2049596,-0.9316475 -2.2020962,-0.9215855 -2.2004346,-0.9112555 -2.1999628,-0.9008036 -2.1999628,-0.9008036 -2.2005534,-0.8901446 -2.2029002,-0.8797259 -2.2067885,-0.8697842 -2.2120058,-0.8604665 -2.2183259,-0.8518604 -2.2255071,-0.8439538 -2.2333393,-0.8366967 -2.2416222,-0.8299549 -2.2416222,-0.8299549 -2.2470454,-0.8254471 -2.2514501,-0.8199472 -2.2538681,-0.813334 -2.2544618,-0.8063079 -2.2544618,-0.8063079 -2.2539408,-0.8011464 -2.2525595,-0.796147 -2.2500683,-0.7915987 -2.2466443,-0.7877027 -2.242492,-0.7845958 -2.2377878,-0.7824073 -2.2327513,-0.781173 -2.2275818,-0.7807211 -2.2275818,-0.7807211 -2.2225337,-0.7812844 -2.2177366,-0.7828109 -2.2090673,-0.7880753 -2.1936816,-0.8012275 -2.1936816,-0.8012275 -2.1835421,-0.8115871 -2.1743123,-0.8227629 -2.1662209,-0.8347904 -2.1595035,-0.8476341 -2.1542211,-0.8611323 -2.1505203,-0.8751467 -2.1483065,-0.8894715 -2.147496,-0.9039442 -2.147496,-0.9039442 -2.1484488,-0.9213944 -2.1497327,-0.9300397 -2.1516316,-0.9385781 -2.1570377,-0.9551965 -2.1645046,-0.9709946 -2.1739976,-0.9856695 -2.1850577,-0.9992016 -2.1974679,-1.0115057 -2.2108626,-1.0227336 -2.2108626,-1.0227336 -2.2276141,-1.0343863 -2.2453352,-1.0445046 -2.2638702,-1.0530404 -2.2830239,-1.0600786 -2.3026921,-1.0655183 -2.3227068,-1.069496 -2.3429804,-1.0718181 -2.3633674,-1.0727064 -2.3633674,-1.0727064 -2.3835549,-1.0717465 -2.4035708,-1.0689453 -2.4232588,-1.0643813 -2.4424955,-1.0581821 -2.4611841,-1.0504876 -2.4792097,-1.0413464 -2.4964292,-1.0307656 -2.512824,-1.0189464 -2.512824,-1.0189464 -2.5257262,-1.0076555 -2.5375235,-0.9952194 -2.5479723,-0.9816268 -2.5567895,-0.9669253 -2.563646,-0.9512142 -2.5685733,-0.9347948 -2.5714067,-0.9178879 -2.5724025,-0.9007733 -2.5724025,-0.9007733 -2.5714956,-0.8851579 -2.5686032,-0.869783 -2.5638485,-0.8548848 -2.5572114,-0.840716 -2.5490402,-0.8273816 -2.5394737,-0.8149987 -2.5288605,-0.8035107 -2.5173502,-0.7929141 -2.5173502,-0.7929141 -2.5064247,-0.7847325 -2.5001128,-0.7821347 -2.4933337,-0.7813677z" transform="matrix(1,0,0,-1,2.8575,1.27)" fill="rgb(139,139,139)" fill-rule="nonzero" shaper:cutDepth="0.00005" stroke-linecap="round" stroke-linejoin="round" /><path d="M-2.1769133,0.4171481 L-2.5338846,0.4170558 -2.5338846,0.4170558 -2.5424589,0.4171254 -2.5509578,0.418246 -2.559019,0.4211434 -2.5626404,0.4234655 -2.5657005,0.4264671 -2.5680301,0.4300813 -2.5696782,0.4340444 -2.5716417,0.4423991 -2.5724512,0.4509246 -2.5724033,0.4595032 -2.5724034,0.5634641 -2.5724034,0.5634641 -2.572132,0.5766045 -2.5711085,0.589708 -2.568651,0.6026177 -2.5648289,0.615192 -2.5648289,0.615192 -2.5613328,0.6238225 -2.5571541,0.6321432 -2.5524249,0.6401647 -2.547034,0.6477565 -2.5410885,0.6549226 -2.5345362,0.6615386 -2.5274673,0.6675989 -2.5199577,0.6731049 -2.5120701,0.6780524 -2.5037932,0.68232 -2.4952412,0.6859996 -2.4863937,0.6889072 -2.4773817,0.6912428 -2.4682019,0.6928131 -2.4589485,0.6938409 -2.4496421,0.6941693 -2.4496421,0.6941693 -2.4392889,0.6936743 -2.429001,0.6924212 -2.4188303,0.6904232 -2.4088375,0.6876726 -2.3991212,0.6840654 -2.3897646,0.6796066 -2.3808293,0.6743553 -2.3723155,0.6684441 -2.3643056,0.6618666 -2.3569101,0.6546051 -2.3501777,0.6467254 -2.3441133,0.6383204 -2.3388698,0.6293804 -2.3344706,0.619996 -2.3308784,0.610274 -2.3279893,0.6003202 -2.3279893,0.6003202 -2.3262062,0.5904095 -2.3253227,0.5803756 -2.3248486,0.5602398 -2.3248486,0.469615 -2.1807496,0.469615 -2.1807496,0.469615 -2.1685231,0.4688287 -2.1625614,0.4674548 -2.1569334,0.4650085 -2.1522956,0.4610436 -2.1492725,0.4557225 -2.147808,0.4497778 -2.147496,0.4436587 -2.147496,0.4436587 -2.1478053,0.4379993 -2.1491454,0.432498 -2.1516443,0.4274172 -2.1555183,0.4232853 -2.1603174,0.4202857 -2.1656706,0.4184202 -2.1712554,0.4174748 -2.1769133,0.4171481z M-2.5199364,0.5615344 L-2.5199364,0.469615 -2.3773155,0.469615 -2.3773155,0.5654039 -2.3773155,0.5654039 -2.3785315,0.5801068 -2.3798895,0.587362 -2.3818797,0.5944693 -2.3846168,0.6013213 -2.3879288,0.6079185 -2.3919297,0.6141187 -2.396651,0.6197899 -2.4019026,0.6249765 -2.4077355,0.629496 -2.4140404,0.6333314 -2.4207572,0.6363883 -2.4277617,0.6387143 -2.4349476,0.6403925 -2.4496421,0.6417025 -2.4496421,0.6417025 -2.4646115,0.6403104 -2.4719225,0.6385453 -2.4790277,0.6360783 -2.4857438,0.6326928 -2.4919859,0.6284978 -2.4976847,0.6235896 -2.5027333,0.6180156 -2.5071254,0.6119088 -2.5108536,0.605376 -2.513794,0.5984554 -2.5161002,0.5912926 -2.517846,0.5839791 -2.5189927,0.5765426 -2.5199364,0.5615344z" transform="matrix(1,0,0,-1,2.8575,1.27)" fill="rgb(139,139,139)" fill-rule="nonzero" shaper:cutDepth="0.00005" stroke-linecap="round" stroke-linejoin="round" /><path d="M-2.5407309,-0.015149 L-2.1772395,-0.0152412 -2.1772395,-0.0152412 -2.1662513,-0.0165416 -2.1609819,-0.018251 -2.1561543,-0.0209626 -2.1521846,-0.0248161 -2.1494022,-0.0296008 -2.1479258,-0.0349364 -2.147496,-0.0404586 -2.147496,-0.0404586 -2.1486272,-0.0487201 -2.1501321,-0.0526211 -2.1522423,-0.0562491 -2.1577782,-0.0624878 -2.1643707,-0.0676159 -2.4577387,-0.2575308 -2.1778861,-0.2575308 -2.1778861,-0.2575308 -2.1665687,-0.2590411 -2.1611844,-0.2609496 -2.1562471,-0.2638358 -2.1522801,-0.2679357 -2.1495024,-0.272928 -2.1479998,-0.2784403 -2.147496,-0.2841337 -2.147496,-0.2841337 -2.1483874,-0.2910688 -2.1508034,-0.297623 -2.155014,-0.3031999 -2.1605203,-0.3075036 -2.1605203,-0.3075036 -2.1656431,-0.3091342 -2.170981,-0.3098024 -2.1817412,-0.3099977 -2.5395192,-0.31009 -2.5395192,-0.31009 -2.5482616,-0.3099889 -2.5526291,-0.3097699 -2.556885,-0.3087968 -2.556885,-0.3087968 -2.5633931,-0.3052227 -2.5660234,-0.3026063 -2.568212,-0.2995468 -2.5712656,-0.2927759 -2.5724034,-0.2854269 -2.5724034,-0.2854269 -2.5711963,-0.2769409 -2.5695207,-0.2729746 -2.5671527,-0.2693845 -2.5610952,-0.2633171 -2.5542413,-0.2581602 -2.2628034,-0.0676159 -2.5384108,-0.0677081 -2.5384108,-0.0677081 -2.5509098,-0.0668751 -2.5570345,-0.0655114 -2.56276,-0.0629814 -2.567499,-0.0588904 -2.5705905,-0.0534521 -2.5720723,-0.0473648 -2.5724034,-0.0411052 -2.5724034,-0.0411052 -2.5722497,-0.0351848 -2.570843,-0.0294366 -2.5678977,-0.0243112 -2.563521,-0.0203221 -2.5582489,-0.0176541 -2.552517,-0.016129 -2.5407309,-0.015149z" transform="matrix(1,0,0,-1,2.8575,1.27)" fill="rgb(139,139,139)" fill-rule="nonzero" shaper:cutDepth="0.00005" stroke-linecap="round" stroke-linejoin="round" /><path d="M-2.147496,-0.684378 L-2.147496,-0.684378 -2.1479024,-0.6894611 -2.14911,-0.6944125 -2.1511721,-0.699076 -2.1540638,-0.7032735 -2.1576731,-0.7068741 -2.1619863,-0.7095896 -2.166819,-0.7112076 -2.171882,-0.7118122 -2.171882,-0.7118122 -2.1767697,-0.7113756 -2.1814896,-0.7100115 -2.1907152,-0.7066434 -2.5522665,-0.5700225 -2.5522665,-0.5700225 -2.5602991,-0.5661429 -2.5639357,-0.5635574 -2.567138,-0.5604466 -2.5697019,-0.5567976 -2.5715032,-0.5527154 -2.5723935,-0.5483438 -2.5724034,-0.5438814 -2.5724034,-0.5438814 -2.5722022,-0.5384666 -2.5710791,-0.5331635 -2.5688389,-0.528245 -2.5653032,-0.5241363 -2.5609947,-0.5208567 -2.5562917,-0.5181551 -2.5463619,-0.5138226 -2.1863843,-0.3759507 -2.1863843,-0.3759507 -2.1792118,-0.3742175 -2.171882,-0.3733643 -2.171882,-0.3733643 -2.1668315,-0.3740046 -2.1620194,-0.3756617 -2.1577619,-0.3784528 -2.1541414,-0.3820288 -2.1512735,-0.3862373 -2.1491642,-0.390869 -2.1479914,-0.3958239 -2.147496,-0.4008909 -2.147496,-0.4008909 -2.1476054,-0.4054909 -2.1486134,-0.4099796 -2.1505284,-0.4141635 -2.1532135,-0.4178971 -2.1565886,-0.4210249 -2.1603795,-0.4236388 -2.168662,-0.4276278 -2.218437,-0.4461437 -2.218437,-0.6376876 -2.1656008,-0.6581446 -2.1656008,-0.6581446 -2.1581731,-0.6622987 -2.1549169,-0.6650508 -2.1520829,-0.6682368 -2.1499681,-0.6719363 -2.1484956,-0.6759371 -2.1476619,-0.6801173 -2.147496,-0.684378z M-2.4703511,-0.5425541 L-2.2709039,-0.6178947 -2.2709039,-0.4672135 -2.4703511,-0.5425541z" transform="matrix(1,0,0,-1,2.8575,1.27)" fill="rgb(139,139,139)" fill-rule="nonzero" shaper:cutDepth="0.00005" stroke-linecap="round" stroke-linejoin="round" /><path d="M-2.5478327,1.0500754 L-2.5478327,1.0500754 -2.5404052,1.0489066 -2.5336075,1.0456416 -2.5336075,1.0456416 -2.5277891,1.0424658 -2.5258561,1.0411889 -2.3158003,0.9307319 -2.1792717,0.9307319 -2.1792717,0.9307319 -2.1687771,0.9304734 -2.1635759,0.9297434 -2.1585806,0.9281455 -2.1585806,0.9281455 -2.1533091,0.9239141 -2.1498786,0.9180299 -2.1479285,0.9115517 -2.147496,0.9047756 -2.147496,0.9047756 -2.1477217,0.899038 -2.1489597,0.8934338 -2.1515724,0.8883267 -2.1555044,0.8841487 -2.1603945,0.8811532 -2.1658534,0.8793636 -2.1715291,0.8785109 -2.1772665,0.878265 -2.3158003,0.878265 -2.5284334,0.7646156 -2.5310211,0.763263 -2.5310211,0.763263 -2.5387966,0.7593662 -2.5428542,0.7578199 -2.5471861,0.7575359 -2.5471861,0.7575359 -2.5523023,0.7581708 -2.5571891,0.7598093 -2.5615683,0.7625287 -2.5653534,0.7660285 -2.5684067,0.7701819 -2.5705832,0.7748562 -2.5719032,0.7798381 -2.5724034,0.7849702 -2.5724034,0.7849702 -2.5722413,0.7895997 -2.5710834,0.7940897 -2.5690865,0.7982688 -2.5663419,0.8020037 -2.5594874,0.8082292 -2.5516298,0.8131401 -2.3802346,0.9041837 -2.5542986,0.9964078 -2.5542986,0.9964078 -2.5614751,1.0009061 -2.5675332,1.0067853 -2.5698928,1.0103451 -2.5715559,1.0142409 -2.5722778,1.0183784 -2.5724034,1.0226412 -2.5724034,1.0226412 -2.5719296,1.0277417 -2.5707741,1.0327321 -2.5686712,1.0374012 -2.5657941,1.0416384 -2.5621657,1.0452556 -2.557773,1.0478825 -2.5529268,1.0495375 -2.5478327,1.0500754z" transform="matrix(1,0,0,-1,2.8575,1.27)" fill="rgb(139,139,139)" fill-rule="nonzero" shaper:cutDepth="0.00005" stroke-linecap="round" stroke-linejoin="round" /></svg>