<?xml version="1.0" encoding="utf-8"?>
<!-- Generator: Fusion 360, Shaper Origin Export Add-In, Version 1.6.10  -->
<svg xmlns="http://www.w3.org/2000/svg" xmlns:xlink="http://www.w3.org/1999/xlink" xmlns:shaper="http://www.shapertools.com/namespaces/shaper" shaper:fusionaddin="version:1.6.10" width="3.175cm" height="4.318cm" version="1.1" x="0cm" y="0cm" viewBox="0 0 3.175 4.318" enable-background="new 0 0 3.175 4.318" xml:space="preserve"><g id="Body_Plate"><path d="M0,4.318 L0,0 3.175,0 3.175,4.318 0,4.318z" transform="matrix(1,0,0,-1,-0,4.318)" fill="rgb(0,0,0)" shaper:cutDepth="0.0015875" stroke-linecap="round" stroke-linejoin="round" /><path d="M1.3189979,2.5355273 L1.3189979,2.3372103 1.3189979,2.3372103 1.3192643,2.3065527 1.3217454,2.2760169 1.3217454,2.2760169 1.3250976,2.2655504 1.329698,2.2558678 1.3363917,2.2474996 1.3443495,2.2399251 1.3443495,2.2399251 1.3557255,2.2336957 1.3615652,2.2310965 1.367586,2.2291132 1.3801786,2.2270192 1.3931794,2.2263128 1.3931794,2.2263128 1.4058215,2.2268642 1.4180701,2.2287631 1.4239269,2.2306289 1.4295996,2.2331245 1.4406356,2.239176 1.4406356,2.239176 1.4474832,2.2458444 1.4532349,2.2531741 1.4571228,2.2616281 1.4598678,2.2707717 1.4598678,2.2707717 1.4626487,2.3017989 1.4631149,2.3329643 1.4631149,2.5355273 1.5370466,2.5355273 1.5370466,2.3432049 1.5370466,2.3432049 1.5369735,2.3198083 1.5362145,2.2964625 1.5341428,2.273214 1.5310521,2.2500409 1.5310521,2.2500409 1.527489,2.2375977 1.5228788,2.2256633 1.5164708,2.2146024 1.5089475,2.2040834 1.5089475,2.2040834 1.4994203,2.1948452 1.4891921,2.1866078 1.4778487,2.1799627 1.4658623,2.1742357 1.4658623,2.1742357 1.4486531,2.1690753 1.4312084,2.1653192 1.4134143,2.1636455 1.3954273,2.1631211 1.3954273,2.1631211 1.3751016,2.1635272 1.3549937,2.1652377 1.3450886,2.1669848 1.3352905,2.1693724 1.3158758,2.175235 1.3158758,2.175235 1.3038923,2.1813872 1.2925825,2.188446 1.2824428,2.1970799 1.2730403,2.206706 1.2730403,2.206706 1.2662733,2.2160516 1.2603495,2.2258236 1.2558775,2.2363299 1.2523094,2.2472934 1.2523094,2.2472934 1.2487545,2.2703715 1.2462747,2.2935424 1.2452751,2.3168409 1.2450662,2.3402076 1.2450662,2.5355273 1.3189979,2.5355273z" transform="matrix(1,0,0,-1,-0,4.318)" fill="rgb(118,118,118)" fill-rule="nonzero" shaper:cutDepth="0.0003" stroke-linecap="round" stroke-linejoin="round" /><path d="M1.9866315,2.4441117 L1.9866315,2.4441117 1.9936221,2.457703 2.0014505,2.4707255 2.0106713,2.4828031 2.020725,2.4943153 2.020725,2.4943153 2.0314127,2.5042115 2.042713,2.513223 2.0550612,2.5207212 2.0680563,2.5272849 2.0680563,2.5272849 2.0872664,2.533674 2.1067714,2.5384987 2.1267433,2.5408466 2.1469834,2.5417716 2.1469834,2.5417716 2.1651334,2.5404286 2.1830397,2.5384729 2.2004586,2.5352916 2.2171463,2.5302721 2.2251429,2.5268894 2.2329083,2.5229252 2.2478764,2.5135823 2.262315,2.5029079 2.2764888,2.4915679 2.2764888,2.4915679 2.287767,2.4760068 2.298347,2.460192 2.3075305,2.4438698 2.3113803,2.4354391 2.3146236,2.426788 2.3193653,2.4088518 2.322281,2.3902521 2.3239793,2.37121 2.325069,2.3519468 2.325069,2.3519468 2.3239801,2.3328134 2.3222879,2.3138988 2.3193888,2.2954218 2.3146795,2.2776012 2.31146,2.2690044 2.3076403,2.2606253 2.2985328,2.2443993 2.2880436,2.2286743 2.2768636,2.2131998 2.2768636,2.2131998 2.2627709,2.2018814 2.248413,2.1912283 2.2335245,2.1819055 2.2257983,2.1779508 2.2178405,2.1745772 2.2012297,2.1695727 2.1838872,2.1664029 2.1660569,2.1644562 2.1479826,2.1631211 2.1479826,2.1631211 2.1297999,2.164417 2.1118584,2.1663237 2.0943994,2.1694525 2.0776641,2.1744142 2.0696406,2.1777666 2.0618481,2.181704 2.0468253,2.1910026 2.0323315,2.2016414 2.0181024,2.2129502 2.0181024,2.2129502 2.0069579,2.2282339 1.9964978,2.243768 1.9874067,2.2598027 1.9835884,2.2680861 1.9803653,2.2765872 1.9756426,2.2942199 1.9727247,2.3125126 1.97101,2.3312455 1.9698969,2.3501984 1.9698969,2.3501984 1.9708155,2.3742853 1.971803,2.3862303 1.9734244,2.3980571 1.9758656,2.4097312 1.9790437,2.4212679 1.9866315,2.4441117z M2.0748,2.2584082 L2.0748,2.2584082 2.0905531,2.2447741 2.0988547,2.2389185 2.1076664,2.2342168 2.1170967,2.2309146 2.1270295,2.2287491 2.1477327,2.2263128 2.1477327,2.2263128 2.1683331,2.2287025 2.1782169,2.23084 2.1876011,2.2341087 2.1963686,2.2387737 2.204626,2.2445937 2.2202907,2.2581584 2.2202907,2.2581584 2.233556,2.2800736 2.2390395,2.2913974 2.2431554,2.3031571 2.2458189,2.3153797 2.2473746,2.3279554 2.2486396,2.3536952 2.2486396,2.3536952 2.2474444,2.3789797 2.2459445,2.3913362 2.2433618,2.4033499 2.2393576,2.4149136 2.2340068,2.4260509 2.22104,2.4476084 2.22104,2.4476084 2.2051478,2.4610156 2.196778,2.4667336 2.1879,2.471269 2.1784193,2.4744023 2.1684576,2.4764165 2.1477327,2.4785799 2.1477327,2.4785799 2.1268887,2.4763563 2.1168727,2.474304 2.1073441,2.4711231 2.0984243,2.4665323 2.0900157,2.4607574 2.0740509,2.4472338 2.0740509,2.4472338 2.0609372,2.4255472 2.0555206,2.4143409 2.0514604,2.402703 2.0488368,2.3906079 2.0473083,2.3781643 2.0460765,2.3526961 2.0460765,2.3526961 2.04744,2.3272329 2.0490491,2.3148029 2.0517712,2.3027346 2.0559476,2.2911391 2.0614758,2.279983 2.0748,2.2584082z" transform="matrix(1,0,0,-1,-0,4.318)" fill="rgb(118,118,118)" fill-rule="nonzero" shaper:cutDepth="0.0003" stroke-linecap="round" stroke-linejoin="round" /><path d="M2.4093661,1.6900579 L2.4093661,1.6900579 2.4108319,1.681588 2.4132072,1.6735212 2.4172277,1.6661836 2.4223542,1.6593363 2.4223542,1.6593363 2.4285756,1.6549267 2.4351984,1.6515985 2.4424563,1.6499809 2.4500787,1.6493453 2.4500787,1.6493453 2.4609984,1.6511567 2.4661629,1.6526228 2.4709731,1.6547611 2.4753708,1.657682 2.4794429,1.6612205 2.4870446,1.6693269 2.4870446,1.6693269 2.4957127,1.689049 2.4992534,1.6991208 2.5019069,1.7094282 2.5037611,1.719948 2.5050159,1.730627 2.5065265,1.7522504 2.5065265,1.7522504 2.4923879,1.7393618 2.4849098,1.7338014 2.4769413,1.7293016 2.4683696,1.7261059 2.4593014,1.7239838 2.4403377,1.7215287 2.4403377,1.7215287 2.4192308,1.7242943 2.4091031,1.7266381 2.3994863,1.7301351 2.3904832,1.7350173 2.3819746,1.7410157 2.3657815,1.754873 2.3657815,1.754873 2.3520143,1.7743726 2.346175,1.7845097 2.3415883,1.7951112 2.3384588,1.806253 2.336479,1.8178211 2.3344355,1.8416678 2.3344355,1.8416678 2.3365807,1.866437 2.3386659,1.8784381 2.3419665,1.8899788 2.3468086,1.9009357 2.352978,1.9113899 2.3675299,1.9314601 2.3675299,1.9314601 2.3860872,1.9461278 2.3958017,1.9523978 2.406039,1.9573913 2.4169011,1.9608597 2.4282646,1.9631042 2.451827,1.9655534 2.451827,1.9655534 2.4781599,1.9621698 2.4907327,1.9592175 2.5025933,1.9547525 2.5135844,1.9484414 2.5238651,1.9406217 2.5432427,1.9224683 2.5432427,1.9224683 2.5522769,1.9060259 2.5606557,1.8894005 2.5677235,1.8724091 2.5728662,1.8548804 2.5760842,1.8368144 2.5778497,1.8183429 2.5789597,1.7807242 2.5789597,1.7807242 2.5777499,1.7422118 2.575889,1.7233118 2.5725208,1.7048394 2.5671572,1.686933 2.5598099,1.6695892 2.5511142,1.652628 2.5417442,1.635858 2.5417442,1.635858 2.5211082,1.6169547 2.5101742,1.6088388 2.498501,1.6023259 2.4859321,1.5977552 2.4726364,1.5947608 2.4448335,1.5913989 2.4448335,1.5913989 2.4260042,1.5927965 2.4168306,1.5942028 2.4079462,1.5964581 2.3994317,1.5997989 2.3912405,1.6040889 2.3753977,1.6142527 2.3753977,1.6142527 2.3626625,1.6291497 2.3570615,1.6369922 2.3523777,1.6453062 2.3487169,1.654146 2.3458478,1.6633928 2.341429,1.6825647 2.4093661,1.6900579z M2.4846716,1.8886246 L2.4846716,1.8886246 2.4770926,1.8961708 2.4730654,1.8994727 2.4687531,1.9022091 2.4640776,1.9042252 2.459087,1.9056166 2.4485803,1.9073571 2.4485803,1.9073571 2.4392636,1.9061203 2.430622,1.903455 2.4230964,1.8984284 2.416235,1.8919963 2.416235,1.8919963 2.4099785,1.8802736 2.4074363,1.8742466 2.4055832,1.8680249 2.4037816,1.855043 2.4033718,1.8416678 2.4033718,1.8416678 2.4038947,1.8277767 2.4059067,1.8143222 2.407929,1.8078929 2.4106682,1.8016738 2.4173589,1.789591 2.4173589,1.789591 2.4247831,1.7826477 2.4287182,1.7796484 2.4329209,1.7772158 2.4374539,1.7754827 2.4422599,1.7743277 2.4523268,1.7729813 2.4523268,1.7729813 2.4621002,1.7742911 2.4667717,1.7754083 2.4711852,1.7770802 2.4791381,1.7823025 2.4864202,1.7889666 2.4864202,1.7889666 2.4928704,1.7997635 2.4955431,1.8053364 2.4975576,1.811117 2.4996383,1.8232933 2.5002823,1.8359231 2.5002823,1.8359231 2.4994899,1.8500738 2.4985946,1.8569926 2.4971005,1.8637237 2.4948272,1.8702104 2.4918403,1.8764734 2.4846716,1.8886246z" transform="matrix(1,0,0,-1,-0,4.318)" fill="rgb(118,118,118)" fill-rule="nonzero" shaper:cutDepth="0.0003" stroke-linecap="round" stroke-linejoin="round" /><path d="M1.2009819,1.9590594 L1.4410102,1.9590594 1.4410102,1.9081065 1.4410102,1.9081065 1.423872,1.8886077 1.4079302,1.8682344 1.3937597,1.8465663 1.380566,1.8241841 1.380566,1.8241841 1.3662858,1.796154 1.3534124,1.7675568 1.3428751,1.7380181 1.3337343,1.7079164 1.3337343,1.7079164 1.3273666,1.680746 1.3222492,1.653401 1.3193449,1.625747 1.317874,1.5978929 1.2501864,1.5978929 1.2501864,1.5978929 1.2534873,1.6375147 1.2559263,1.6571678 1.2593115,1.6766316 1.2638199,1.6958707 1.2692256,1.7149302 1.2815324,1.7527501 1.2815324,1.7527501 1.2974887,1.7901683 1.3061088,1.8085168 1.3154992,1.8264327 1.3258444,1.8438121 1.3369834,1.8607457 1.3605845,1.8938696 1.2009819,1.8938696 1.2009819,1.9590594z" transform="matrix(1,0,0,-1,-0,4.318)" fill="rgb(118,118,118)" fill-rule="nonzero" shaper:cutDepth="0.0003" stroke-linecap="round" stroke-linejoin="round" /><path d="M1.8358957,1.7032956 L1.8358957,1.7032956 1.8379587,1.6923147 1.8412173,1.6818791 1.8466035,1.6724137 1.8533796,1.6635822 1.8533796,1.6635822 1.8610388,1.6577533 1.8692228,1.6532365 1.8782761,1.6508928 1.8878478,1.649845 1.8878478,1.649845 1.8982542,1.6511624 1.9032419,1.6523011 1.9079711,1.6540158 1.9123861,1.6564303 1.9165457,1.659414 1.924439,1.6663298 1.924439,1.6663298 1.9310947,1.6764219 1.9338962,1.681651 1.9360671,1.6870994 1.938425,1.6986862 1.9393002,1.7107886 1.9393002,1.7107886 1.9384608,1.7222391 1.9362013,1.7331882 1.9341216,1.7383274 1.9314381,1.7432536 1.9250634,1.7527501 1.9250634,1.7527501 1.9175454,1.7592373 1.9093974,1.7643055 1.9001913,1.7669909 1.8903455,1.7682356 1.8903455,1.7682356 1.874067,1.7666885 1.8581252,1.7629904 1.865868,1.8201877 1.865868,1.8201877 1.8775706,1.8205298 1.8888454,1.822276 1.8941931,1.8240999 1.8993465,1.8265608 1.9093279,1.8325512 1.9093279,1.8325512 1.915799,1.8400717 1.9185614,1.8440387 1.9207561,1.8482536 1.9232552,1.8575093 1.924314,1.8673941 1.924314,1.8673941 1.9236157,1.8755498 1.9218369,1.8832903 1.9181758,1.8903073 1.9133242,1.896867 1.9133242,1.896867 1.9068252,1.9017011 1.8998711,1.9053582 1.8921942,1.9071458 1.8841012,1.9078569 1.8841012,1.9078569 1.8755436,1.9068896 1.8674638,1.9047489 1.8601818,1.9006479 1.8533796,1.8953683 1.8533796,1.8953683 1.8472946,1.887229 1.8424949,1.8785223 1.8396481,1.8689533 1.8378938,1.8589019 1.7732036,1.8698918 1.7732036,1.8698918 1.776532,1.8838536 1.7807658,1.8974592 1.7866244,1.9104254 1.7935598,1.9229678 1.7935598,1.9229678 1.8015704,1.9325591 1.8104063,1.941155 1.8205761,1.9481417 1.8315247,1.954189 1.8315247,1.954189 1.8447256,1.9591211 1.8581735,1.9628866 1.8720202,1.9647689 1.8860993,1.9655534 1.8860993,1.9655534 1.9092824,1.9633402 1.9204666,1.9612321 1.9311621,1.9579223 1.9412408,1.9530963 1.9507937,1.9469773 1.9690228,1.932584 1.9690228,1.932584 1.97962,1.9190811 1.9842216,1.9120397 1.9879866,1.9046502 1.990705,1.8968253 1.9925424,1.8886339 1.9947491,1.8716401 1.9947491,1.8716401 1.9924536,1.8592073 1.9895828,1.847152 1.9855613,1.8358519 1.9798172,1.8256822 1.9721332,1.8167855 1.962942,1.808878 1.9527461,1.8016298 1.9420477,1.7947113 1.9420477,1.7947113 1.9564751,1.7902063 1.9633783,1.7874405 1.969909,1.7840589 1.9759765,1.7799115 1.9816577,1.7751256 1.9923762,1.7644891 1.9923762,1.7644891 2.0005321,1.7514773 2.0040116,1.7447692 2.0067731,1.7378186 2.0086824,1.7305801 2.0099111,1.7231117 2.0112338,1.7077915 2.0112338,1.7077915 2.0084385,1.684679 2.0060134,1.673562 2.0023554,1.6629721 1.9971969,1.6530237 1.9908159,1.6435979 1.9760163,1.6256174 1.9760163,1.6256174 1.9564898,1.611026 1.9463131,1.604785 1.9356404,1.5998095 1.9243738,1.596349 1.9126301,1.5941059 1.8883473,1.5916487 1.8883473,1.5916487 1.8658854,1.5935664 1.8549626,1.5953941 1.8444098,1.5982645 1.8343236,1.6024507 1.8246356,1.6077592 1.8059233,1.6202473 1.8059233,1.6202473 1.7914378,1.6363912 1.7850582,1.6449052 1.7797145,1.6539497 1.7756115,1.6636295 1.7725062,1.6738203 1.7679584,1.6950533 1.8358957,1.7032956z" transform="matrix(1,0,0,-1,-0,4.318)" fill="rgb(118,118,118)" fill-rule="nonzero" shaper:cutDepth="0.0003" stroke-linecap="round" stroke-linejoin="round" /><path d="M2.2570069,1.9275886 L2.2570069,1.9275886 2.2661029,1.9101841 2.2745309,1.8926016 2.2816229,1.8746629 2.286758,1.8562026 2.2899545,1.8372255 2.2916896,1.8178588 2.2927239,1.7784762 2.2927239,1.7784762 2.2916461,1.7390201 2.2898843,1.7196189 2.2866551,1.7006101 2.2814804,1.6821213 2.2743504,1.6641552 2.2658872,1.6465455 2.2567573,1.6291141 2.2567573,1.6291141 2.2392073,1.6128453 2.2298774,1.605915 2.2198818,1.6004294 2.2090999,1.5966499 2.1976922,1.5942284 2.1738338,1.5916487 2.1738338,1.5916487 2.1488836,1.5947963 2.1369872,1.59758 2.1257852,1.6018155 2.1154362,1.6078344 2.1057888,1.61532 2.0876632,1.6327357 2.0876632,1.6327357 2.0791036,1.6499132 2.0712032,1.667258 2.0646211,1.6849371 2.0599458,1.7030999 2.0570952,1.7217254 2.0556161,1.7406989 2.0549436,1.7792255 2.0549436,1.7792255 2.0560359,1.8185579 2.0578035,1.8378968 2.0610368,1.856843 2.0662129,1.8752685 2.0733383,1.8931717 2.0817921,1.9107189 2.0909102,1.9280881 2.0909102,1.9280881 2.1084602,1.9443571 2.1177901,1.9512874 2.1277857,1.956773 2.1385676,1.9605525 2.1499753,1.962974 2.1738338,1.9655534 2.1738338,1.9655534 2.1978047,1.962902 2.2092591,1.9604331 2.2200762,1.9565925 2.2300947,1.9510331 2.2394397,1.9440238 2.2570069,1.9275886z M2.1511047,1.8992397 L2.1511047,1.8992397 2.1456485,1.8928522 2.1411538,1.8859265 2.1380192,1.8782396 2.1356189,1.8701417 2.1356189,1.8701417 2.1319097,1.8473971 2.1294093,1.8245431 2.1284807,1.8015469 2.1283755,1.7784762 2.1283755,1.7784762 2.1284097,1.7562038 2.1292015,1.7339966 2.1314535,1.7119148 2.1348696,1.689933 2.1348696,1.689933 2.1374314,1.6810799 2.1407403,1.6726323 2.14546,1.6649501 2.1512294,1.6578376 2.1512294,1.6578376 2.1563936,1.654463 2.1618236,1.6518398 2.1676961,1.6504674 2.1738338,1.649845 2.1738338,1.649845 2.1800111,1.650486 2.1859178,1.6518859 2.1913748,1.6545469 2.1965628,1.6579625 2.1965628,1.6579625 2.202019,1.66435 2.2065136,1.6712756 2.2096482,1.6789626 2.2120485,1.6870605 2.2120485,1.6870605 2.2157651,1.7097412 2.2182663,1.7325324 2.2191916,1.7554668 2.2192917,1.7784762 2.2192917,1.7784762 2.2192575,1.8007485 2.2184657,1.8229557 2.2162137,1.8450375 2.2127976,1.8670193 2.2127976,1.8670193 2.2102261,1.8758942 2.2069115,1.8843679 2.2021949,1.8920847 2.1964378,1.8992397 2.1964378,1.8992397 2.1912867,1.9026616 2.1858631,1.9053244 2.1799849,1.906721 2.1738338,1.9073571 2.1738338,1.9073571 2.1676566,1.906716 2.1617499,1.9053161 2.1562928,1.9026551 2.1511047,1.8992397z" transform="matrix(1,0,0,-1,-0,4.318)" fill="rgb(118,118,118)" fill-rule="nonzero" shaper:cutDepth="0.0003" stroke-linecap="round" stroke-linejoin="round" /><path d="M1.5566535,1.6992993 L1.5566535,1.6992993 1.5588153,1.6888073 1.5621772,1.6788935 1.5676248,1.6699846 1.5743871,1.661709 1.5743871,1.661709 1.5819454,1.6559366 1.5900079,1.6514098 1.5989225,1.6489878 1.6083558,1.6478469 1.6083558,1.6478469 1.6190687,1.6493421 1.6241816,1.650603 1.6290022,1.6524798 1.6334728,1.6550943 1.637662,1.6583018 1.6455714,1.6657054 1.6455714,1.6657054 1.652743,1.6781352 1.6556999,1.6845421 1.6579097,1.6911771 1.6593327,1.6980523 1.660157,1.7051102 1.6608074,1.7195307 1.6608074,1.7195307 1.6601296,1.7331696 1.659299,1.7398313 1.6578782,1.7463037 1.6556841,1.7525281 1.6527623,1.758519 1.6456963,1.7701089 1.6456963,1.7701089 1.6371743,1.7773506 1.6326864,1.7804481 1.627926,1.7829175 1.6228396,1.7846352 1.6174912,1.7857486 1.6063576,1.7869684 1.6063576,1.7869684 1.5907896,1.7844944 1.5833626,1.782513 1.5763637,1.7796392 1.5698591,1.7757348 1.5637429,1.7710207 1.5521576,1.7602431 1.4952102,1.7684855 1.531177,1.9590594 1.7167557,1.9590594 1.7167557,1.8933701 1.5843779,1.8933701 1.5733881,1.8311776 1.5733881,1.8311776 1.5849077,1.8360476 1.5966799,1.8398757 1.6088808,1.8419364 1.6213437,1.8429166 1.6213437,1.8429166 1.6436328,1.8402456 1.6543515,1.8379167 1.6645593,1.8343955 1.6741437,1.8294198 1.6832189,1.823256 1.7005206,1.8089482 1.7005206,1.8089482 1.7147364,1.789207 1.7207733,1.7789323 1.7255254,1.7681728 1.7287766,1.756847 1.7308408,1.7450734 1.7329907,1.7207796 1.7329907,1.7207796 1.7309936,1.699123 1.7292216,1.6885471 1.7265214,1.6782741 1.7226796,1.6683735 1.7178972,1.6587798 1.7067649,1.640104 1.7067649,1.640104 1.696645,1.6294376 1.6862314,1.619366 1.6752309,1.610484 1.6633498,1.6033861 1.65041,1.5984336 1.6366164,1.595211 1.6222537,1.5931415 1.6076064,1.5916487 1.6076064,1.5916487 1.5852045,1.5933532 1.5742887,1.5950443 1.5637149,1.5977423 1.5535771,1.6017236 1.5438183,1.6068201 1.5249329,1.6188735 1.5249329,1.6188735 1.5105578,1.6346193 1.5042091,1.6429358 1.4988667,1.6517846 1.494718,1.6612646 1.491522,1.6712485 1.4867181,1.6920561 1.5566535,1.6992993z" transform="matrix(1,0,0,-1,-0,4.318)" fill="rgb(118,118,118)" fill-rule="nonzero" shaper:cutDepth="0.0003" stroke-linecap="round" stroke-linejoin="round" /><path d="M1.0860879,1.8668946 L1.0860879,1.8668946 1.0846354,1.8754278 1.0822683,1.8835582 1.0782435,1.8909585 1.0730999,1.8978659 1.0730999,1.8978659 1.0669999,1.9022418 1.060503,1.9055619 1.0533722,1.9071966 1.045875,1.9078569 1.045875,1.9078569 1.0348039,1.9060793 1.0295616,1.9046267 1.024671,1.9024978 1.020193,1.8995756 1.0160419,1.8960248 1.0082847,1.8878752 1.0082847,1.8878752 0.9995821,1.8681015 0.9960383,1.8580015 0.9933972,1.8476633 0.9915687,1.8371106 0.9903497,1.8263971 0.9889275,1.804702 0.9889275,1.804702 1.0027802,1.8176271 1.0101197,1.8232138 1.0179551,1.8277494 1.0264035,1.8309858 1.0353594,1.8331462 1.0541174,1.8356735 1.0541174,1.8356735 1.0754302,1.83294 1.085659,1.8306044 1.0953748,1.8271063 1.1044712,1.822205 1.1130668,1.8161687 1.1294229,1.8022043 1.1294229,1.8022043 1.1431492,1.782788 1.1489777,1.7726954 1.1535653,1.7621416 1.1567034,1.7510492 1.1586954,1.7395307 1.160769,1.715784 1.160769,1.715784 1.1586672,1.6909297 1.1566039,1.6788838 1.1533259,1.6672954 1.1485032,1.6562888 1.1423446,1.6457853 1.1277994,1.6256174 1.1277994,1.6256174 1.1091459,1.6109515 1.0993826,1.6046905 1.0890954,1.5997157 1.078185,1.596271 1.0667761,1.5940503 1.0431275,1.5916487 1.0431275,1.5916487 1.0168582,1.595049 1.0043175,1.598008 0.9924896,1.6024777 0.9815305,1.6087887 0.9712804,1.6166023 0.9519617,1.6347338 0.9519617,1.6347338 0.9429398,1.6511141 0.9345709,1.6676771 0.9275079,1.6846055 0.9223637,1.7020709 0.9191414,1.7200741 0.9173698,1.7384834 0.9162446,1.7759785 0.9162446,1.7759785 0.9174467,1.8145528 0.9193046,1.8334839 0.9226705,1.8519877 0.9280335,1.8699258 0.9353833,1.887301 0.9440841,1.9042935 0.9534603,1.9210946 0.9534603,1.9210946 0.9740371,1.9399765 0.9849404,1.9480866 0.9965816,1.9545994 1.0091179,1.9591746 1.0223816,1.9621755 1.0501211,1.9655534 1.0501211,1.9655534 1.0688757,1.9640135 1.0780063,1.9625315 1.0868409,1.960195 1.0953008,1.9567773 1.1034397,1.9524331 1.1191823,1.9422001 1.1191823,1.9422001 1.1321282,1.9274827 1.1378443,1.9197245 1.1426536,1.9114876 1.1464331,1.902707 1.1494097,1.8935027 1.1540251,1.8743877 1.0860879,1.8668946z M1.0106575,1.6684529 L1.0106575,1.6684529 1.018233,1.6609789 1.0222533,1.6577054 1.0265527,1.6549881 1.0312084,1.6529806 1.0361745,1.6515915 1.0466243,1.649845 1.0466243,1.649845 1.0559482,1.6510708 1.0646103,1.6537137 1.0721781,1.6586998 1.0790943,1.6650809 1.0790943,1.6650809 1.0854033,1.6766897 1.0879684,1.6826635 1.08984,1.6888364 1.0916629,1.701734 1.0920823,1.7150349 1.0920823,1.7150349 1.0915676,1.7289879 1.0895612,1.7425051 1.0875397,1.7489661 1.0847978,1.7552166 1.0780952,1.7673616 1.0780952,1.7673616 1.070671,1.7743048 1.0667359,1.7773041 1.0625332,1.7797366 1.0580003,1.7814697 1.0531943,1.7826247 1.0431275,1.7839712 1.0431275,1.7839712 1.0333462,1.7826726 1.0286666,1.7815645 1.0242403,1.7799059 1.0162455,1.774724 1.0089091,1.7681107 1.0089091,1.7681107 1.0023982,1.7573658 0.9997008,1.751815 0.9976683,1.7460519 0.9955701,1.7338971 0.994922,1.7212791 0.994922,1.7212791 0.9957095,1.7070786 0.9966073,1.7001377 0.9981101,1.6933878 1.0004009,1.6868868 1.0034155,1.6806145 1.0106575,1.6684529z" transform="matrix(1,0,0,-1,-0,4.318)" fill="rgb(118,118,118)" fill-rule="nonzero" shaper:cutDepth="0.0003" stroke-linecap="round" stroke-linejoin="round" /><path d="M0.6521135,1.8270563 L0.6521135,1.8270563 0.6468774,1.8374744 0.642815,1.8482224 0.6407005,1.8595179 0.6397499,1.8711406 0.6397499,1.8711406 0.6418743,1.8902023 0.6437852,1.8993718 0.6467145,1.9081076 0.6509039,1.9163069 0.6561382,1.9240612 0.6683485,1.9388282 0.6683485,1.9388282 0.6867685,1.9510087 0.6963247,1.9560996 0.7062949,1.9599956 0.716722,1.9625722 0.7275017,1.9641313 0.7496485,1.9655534 0.7496485,1.9655534 0.7717219,1.9640984 0.7824659,1.9625261 0.7928586,1.95994 0.8027968,1.9560421 0.8123256,1.9509626 0.8306986,1.9388282 0.8306986,1.9388282 0.8430006,1.9240908 0.8482766,1.9163466 0.8525026,1.9081518 0.8554607,1.8994127 0.8573928,1.8902333 0.859547,1.8711406 0.859547,1.8711406 0.8585816,1.8591162 0.8563534,1.847464 0.851985,1.836443 0.8463092,1.8258075 0.8463092,1.8258075 0.8385487,1.8163418 0.829931,1.8079198 0.8199204,1.8011933 0.8090936,1.7954606 0.8090936,1.7954606 0.8225439,1.7889237 0.8289594,1.7852586 0.8350035,1.7811175 0.8405779,1.7763747 0.8457505,1.7711171 0.8554258,1.7597436 0.8554258,1.7597436 0.8622527,1.7470413 0.8651704,1.7405433 0.8674934,1.7338691 0.8701493,1.7199312 0.8712862,1.7055434 0.8712862,1.7055434 0.8690657,1.6825906 0.8669777,1.6715053 0.8637166,1.6608894 0.8589808,1.6508636 0.8529953,1.6413377 0.838941,1.6231195 0.838941,1.6231195 0.8197299,1.6091302 0.8097179,1.6032061 0.7992185,1.598566 0.7881552,1.5954111 0.7766484,1.5934246 0.7528955,1.5913989 0.7528955,1.5913989 0.7305276,1.5930937 0.7196038,1.5947441 0.708992,1.5973582 0.6987764,1.6011952 0.6889019,1.606086 0.6697222,1.6176247 0.6697222,1.6176247 0.6528318,1.635536 0.6456147,1.6450668 0.6398714,1.6552879 0.6358863,1.6663324 0.6333107,1.678037 0.6305084,1.7025463 0.6305084,1.7025463 0.631627,1.7168855 0.6341374,1.7308474 0.6389847,1.7441758 0.6452448,1.757121 0.6452448,1.757121 0.654665,1.7693231 0.6597628,1.7749617 0.6653254,1.7800458 0.671426,1.7844883 0.6779496,1.7884261 0.6917019,1.7954606 0.6917019,1.7954606 0.6800911,1.8012538 0.669377,1.8081488 0.6602398,1.8169815 0.6521135,1.8270563z M0.7145559,1.6640817 L0.7145559,1.6640817 0.7225973,1.6572148 0.7268283,1.6542609 0.7313117,1.6518827 0.7361026,1.650206 0.7411446,1.6491016 0.7516466,1.6478469 0.7516466,1.6478469 0.7618247,1.6490291 0.7667127,1.6500813 0.7713594,1.6516867 0.7757089,1.6539735 0.7798133,1.6568225 0.7876134,1.6634573 0.7876134,1.6634573 0.7941604,1.6737276 0.7968867,1.679046 0.7989595,1.6845833 0.8011341,1.6963179 0.8018503,1.7085408 0.8018503,1.7085408 0.8009465,1.7198587 0.7986133,1.7306592 0.7964949,1.735715 0.7937818,1.7405556 0.7873636,1.7498776 0.7873636,1.7498776 0.7793659,1.7565382 0.7751638,1.7593941 0.770718,1.7616809 0.7659779,1.7632808 0.761,1.7643253 0.7506475,1.7654883 0.7506475,1.7654883 0.7394794,1.7643669 0.734156,1.7632607 0.7291455,1.7615001 0.7245333,1.7589064 0.7202662,1.7555906 0.7123079,1.7477545 0.7123079,1.7477545 0.7070504,1.7388236 0.7029299,1.7295224 0.7007287,1.7195963 0.6996946,1.7092902 0.6996946,1.7092902 0.7005148,1.6969897 0.7028347,1.6852065 0.7050029,1.6796625 0.7078236,1.6743435 0.7145559,1.6640817z M0.7180526,1.8334254 L0.7180526,1.8334254 0.7250952,1.8282517 0.7326217,1.8243429 0.7409147,1.8224386 0.7496485,1.8216864 0.7496485,1.8216864 0.7584849,1.8224444 0.766876,1.8243675 0.7744922,1.8283186 0.781619,1.8335504 0.781619,1.8335504 0.786975,1.8408667 0.7909835,1.8486942 0.7928923,1.8573184 0.7936079,1.8663952 0.7936079,1.8663952 0.7928428,1.8751441 0.7909147,1.8834439 0.7869659,1.8909633 0.7817438,1.8979909 0.7817438,1.8979909 0.7747768,1.9031956 0.7673204,1.9071404 0.7590841,1.9090772 0.7503977,1.909855 0.7503977,1.909855 0.7414836,1.9090966 0.7330221,1.9071583 0.72535,1.9031632 0.7181775,1.8978659 0.7181775,1.8978659 0.7129149,1.8908147 0.708928,1.8832685 0.7069724,1.8749343 0.7061886,1.8661453 0.7061886,1.8661453 0.7068861,1.8571087 0.7087676,1.8485192 0.7127376,1.8407184 0.7180526,1.8334254z" transform="matrix(1,0,0,-1,-0,4.318)" fill="rgb(118,118,118)" fill-rule="nonzero" shaper:cutDepth="0.0003" stroke-linecap="round" stroke-linejoin="round" /><path d="M1.6159737,2.5355273 L1.6879073,2.5355273 1.837769,2.2910031 1.837769,2.5355273 1.9064555,2.5355273 1.9064555,2.1693653 1.832274,2.1693653 1.6846603,2.4081449 1.6846603,2.1693653 1.6159737,2.1693653 1.6159737,2.5355273z" transform="matrix(1,0,0,-1,-0,4.318)" fill="rgb(118,118,118)" fill-rule="nonzero" shaper:cutDepth="0.0003" stroke-linecap="round" stroke-linejoin="round" /><path d="M1.0507455,2.5355273 L1.0507455,2.5355273 1.0832298,2.5349466 1.1155607,2.5319056 1.1155607,2.5319056 1.1256814,2.5295548 1.1354963,2.5264343 1.1447936,2.5220114 1.1537755,2.5167946 1.1537755,2.5167946 1.1619813,2.5102353 1.1695326,2.503072 1.1760171,2.4949243 1.1818745,2.4861979 1.1818745,2.4861979 1.1866958,2.476022 1.1904054,2.4655516 1.192296,2.4545991 1.193114,2.4433624 1.193114,2.4433624 1.192038,2.4308585 1.1896601,2.4187372 1.1851091,2.4072546 1.1792519,2.396156 1.1792519,2.396156 1.1714883,2.3861975 1.1628302,2.377281 1.1526888,2.3700925 1.1416616,2.3639358 1.1416616,2.3639358 1.1563851,2.3584673 1.1634394,2.3552644 1.1701248,2.3514989 1.1763422,2.34702 1.1821567,2.3419268 1.193114,2.3307164 1.193114,2.3307164 1.2008357,2.3179791 1.204139,2.3114268 1.2067731,2.3046541 1.2086058,2.2976174 1.2097942,2.2903686 1.2110975,2.2755174 1.2110975,2.2755174 1.2101438,2.2629094 1.2081159,2.2505565 1.2043223,2.2386227 1.1994832,2.2269372 1.1994832,2.2269372 1.1932007,2.2161161 1.1860309,2.2060448 1.1773566,2.1972449 1.1677625,2.189222 1.1677625,2.189222 1.1561515,2.1826877 1.1440969,2.1773955 1.1313412,2.1740662 1.1181833,2.171863 1.1181833,2.171863 1.0736255,2.1698322 1.0290155,2.1693653 0.9043806,2.1693653 0.9043806,2.5355273 1.0507455,2.5355273z M0.9783124,2.2310583 L1.0467492,2.2310583 1.0467492,2.2310583 1.0721523,2.2312503 1.0974524,2.2333063 1.0974524,2.2333063 1.1050281,2.235386 1.1121397,2.2383116 1.1184626,2.2426745 1.1243026,2.2479178 1.1243026,2.2479178 1.128936,2.2549847 1.1324022,2.2624558 1.1340512,2.2705562 1.1346681,2.279014 1.1346681,2.279014 1.1341486,2.2864411 1.132847,2.2936388 1.130188,2.3004387 1.1266754,2.3069884 1.1266754,2.3069884 1.1218481,2.3124658 1.1164893,2.3172183 1.1102779,2.3208079 1.1035718,2.3237229 1.1035718,2.3237229 1.087334,2.3266073 1.0709935,2.3284382 1.0545315,2.3290224 1.0380073,2.328968 0.9783124,2.328968 0.9783124,2.2310583z M0.9783124,2.3899117 L1.0267676,2.3899117 1.0267676,2.3899117 1.0536336,2.3900025 1.0804681,2.3911605 1.0804681,2.3911605 1.0887086,2.3927141 1.0965414,2.3951707 1.1036578,2.3992141 1.1103156,2.4042734 1.1103156,2.4042734 1.1150743,2.4106277 1.118685,2.4174291 1.1204626,2.4249443 1.1211805,2.4328721 1.1211805,2.4328721 1.1205898,2.4403846 1.1190768,2.4475743 1.115955,2.4542012 1.1118141,2.4604716 1.1118141,2.4604716 1.1057216,2.4655031 1.0991267,2.4694858 1.0917621,2.4718619 1.0839648,2.4733347 1.0839648,2.4733347 1.0523832,2.4745129 1.0207732,2.4745835 0.9783124,2.4745835 0.9783124,2.3899117z" transform="matrix(1,0,0,-1,-0,4.318)" fill="rgb(118,118,118)" fill-rule="nonzero" shaper:cutDepth="0.0003" stroke-linecap="round" stroke-linejoin="round" /><path d="M0.483235,3.6195 a0.215265,0.215265 0 1,1 0.43053,0 a0.215265,0.215265 0 1,1 -0.43053,0z" transform="matrix(1,0,0,-1,-0,4.318)" fill="rgb(255,255,255)" stroke="rgb(0,0,0)" stroke-width="0.0010cm" stroke-linecap="round" stroke-linejoin="round" shaper:cutDepth="0.0015875" /><path d="M2.261235,0.6985 a0.215265,0.215265 0 1,1 0.43053,0 a0.215265,0.215265 0 1,1 -0.43053,0z" transform="matrix(1,0,0,-1,-0,4.318)" fill="rgb(255,255,255)" stroke="rgb(0,0,0)" stroke-width="0.0010cm" stroke-linecap="round" stroke-linejoin="round" shaper:cutDepth="0.0015875" /></g></svg>