<?xml version="1.0" encoding="utf-8"?>
<!-- Generator: Fusion 360, Shaper Origin Export Add-In, Version 1.6.10  -->
<svg xmlns="http://www.w3.org/2000/svg" xmlns:xlink="http://www.w3.org/1999/xlink" xmlns:shaper="http://www.shapertools.com/namespaces/shaper" shaper:fusionaddin="version:1.6.10" width="3.4925cm" height="3.175cm" version="1.1" x="0cm" y="0cm" viewBox="0 0 3.4925 3.175" enable-background="new 0 0 3.4925 3.175" xml:space="preserve"><path d="M3.01625,1.3335 A0.254,0.254 0 0,1 2.76225,1.5875 L-0.22225,1.5875 A0.254,0.254 90 0,1 -0.47625,1.3335 L-0.47625,-1.3335 A0.254,0.254 180 0,1 -0.22225,-1.5875 L2.76225,-1.5875 A0.254,0.254 270 0,1 3.01625,-1.3335 L3.01625,1.3335z" transform="matrix(1,0,0,-1,0.47625,1.5875)" fill="rgb(0,0,0)" shaper:cutDepth="0.000127" stroke-linecap="round" stroke-linejoin="round" /><path d="M0.47625,0 a0.79375,0.79375 0 1,1 1.5875,0 a0.79375,0.79375 0 1,1 -1.5875,0z" transform="matrix(1,0,0,-1,0.47625,1.5875)" fill="rgb(255,255,255)" stroke="rgb(0,0,0)" stroke-width="0.0010cm" stroke-linecap="round" stroke-linejoin="round" shaper:cutDepth="0.000127" /></svg>