<?xml version="1.0" encoding="utf-8"?>
<!-- Generator: Fusion 360, Shaper Origin Export Add-In, Version 1.6.10  -->
<svg xmlns="http://www.w3.org/2000/svg" xmlns:xlink="http://www.w3.org/1999/xlink" xmlns:shaper="http://www.shapertools.com/namespaces/shaper" shaper:fusionaddin="version:1.6.10" width="53.3146cm" height="106.6799995cm" version="1.1" x="0cm" y="0cm" viewBox="0 0 53.3146 106.6799995" enable-background="new 0 0 53.3146 106.6799995" xml:space="preserve"><g id="Body_Body1"><path d="M-26.6573,0 L-26.6573,106.6799995 26.6573,106.6799995 26.6573,0 -26.6573,0z" transform="matrix(1,0,0,-1,26.6573,106.6799995)" fill="rgb(0,0,0)" shaper:cutDepth="0.01905" stroke-linecap="round" stroke-linejoin="round" /><path d="M3.3535874,48.93945 a0.4564126,0.4564126 0 1,1 0.9128252,0 a0.4564126,0.4564126 0 1,1 -0.9128252,0z" transform="matrix(1,0,0,-1,26.6573,106.6799995)" fill="rgb(255,255,255)" stroke="rgb(0,0,0)" stroke-width="0.0010cm" stroke-linecap="round" stroke-linejoin="round" shaper:cutDepth="0.01905" /><path d="M-0.4564126,51.79695 a0.4564126,0.4564126 0 1,1 0.9128252,0 a0.4564126,0.4564126 0 1,1 -0.9128252,0z" transform="matrix(1,0,0,-1,26.6573,106.6799995)" fill="rgb(255,255,255)" stroke="rgb(0,0,0)" stroke-width="0.0010cm" stroke-linecap="round" stroke-linejoin="round" shaper:cutDepth="0.01905" /><path d="M-4.2664126,48.93945 a0.4564126,0.4564126 0 1,1 0.9128252,0 a0.4564126,0.4564126 0 1,1 -0.9128252,0z" transform="matrix(1,0,0,-1,26.6573,106.6799995)" fill="rgb(255,255,255)" stroke="rgb(0,0,0)" stroke-width="0.0010cm" stroke-linecap="round" stroke-linejoin="round" shaper:cutDepth="0.01905" /><path d="M11.2910874,53.2257 a0.4564126,0.4564126 0 1,1 0.9128252,0 a0.4564126,0.4564126 0 1,1 -0.9128252,0z" transform="matrix(1,0,0,-1,26.6573,106.6799995)" fill="rgb(255,255,255)" stroke="rgb(0,0,0)" stroke-width="0.0010cm" stroke-linecap="round" stroke-linejoin="round" shaper:cutDepth="0.01905" /><path d="M11.2910874,47.5107 a0.4564126,0.4564126 0 1,1 0.9128252,0 a0.4564126,0.4564126 0 1,1 -0.9128252,0z" transform="matrix(1,0,0,-1,26.6573,106.6799995)" fill="rgb(255,255,255)" stroke="rgb(0,0,0)" stroke-width="0.0010cm" stroke-linecap="round" stroke-linejoin="round" shaper:cutDepth="0.01905" /><path d="M-12.2039126,53.2257 a0.4564126,0.4564126 0 1,1 0.9128252,0 a0.4564126,0.4564126 0 1,1 -0.9128252,0z" transform="matrix(1,0,0,-1,26.6573,106.6799995)" fill="rgb(255,255,255)" stroke="rgb(0,0,0)" stroke-width="0.0010cm" stroke-linecap="round" stroke-linejoin="round" shaper:cutDepth="0.01905" /><path d="M25.0846374,24.4349995 a0.2976626,0.2976626 0 1,1 0.5953252,0 a0.2976626,0.2976626 0 1,1 -0.5953252,0z" transform="matrix(1,0,0,-1,26.6573,106.6799995)" fill="rgb(255,255,255)" stroke="rgb(0,0,0)" stroke-width="0.0010cm" stroke-linecap="round" stroke-linejoin="round" shaper:cutDepth="0.01905" /><path d="M25.0846374,25.4349995 a0.2976626,0.2976626 0 1,1 0.5953252,0 a0.2976626,0.2976626 0 1,1 -0.5953252,0z" transform="matrix(1,0,0,-1,26.6573,106.6799995)" fill="rgb(255,255,255)" stroke="rgb(0,0,0)" stroke-width="0.0010cm" stroke-linecap="round" stroke-linejoin="round" shaper:cutDepth="0.01905" /><path d="M23.4971374,30.13329 a0.2976626,0.2976626 0 1,1 0.5953252,0 a0.2976626,0.2976626 0 1,1 -0.5953252,0z" transform="matrix(1,0,0,-1,26.6573,106.6799995)" fill="rgb(255,255,255)" stroke="rgb(0,0,0)" stroke-width="0.0010cm" stroke-linecap="round" stroke-linejoin="round" shaper:cutDepth="0.01905" /><path d="M21.9146374,50.680731 a0.2976626,0.2976626 0 1,1 0.5953252,0 a0.2976626,0.2976626 0 1,1 -0.5953252,0z" transform="matrix(1,0,0,-1,26.6573,106.6799995)" fill="rgb(255,255,255)" stroke="rgb(0,0,0)" stroke-width="0.0010cm" stroke-linecap="round" stroke-linejoin="round" shaper:cutDepth="0.01905" /><path d="M20.9423,101.9174995 a0.3175,0.3175 0 1,1 0.635,0 a0.3175,0.3175 0 1,1 -0.635,0z" transform="matrix(1,0,0,-1,26.6573,106.6799995)" fill="rgb(255,255,255)" stroke="rgb(0,0,0)" stroke-width="0.0010cm" stroke-linecap="round" stroke-linejoin="round" shaper:cutDepth="0.01905" /><path d="M20.9423,96.2024995 a0.3175,0.3175 0 1,1 0.635,0 a0.3175,0.3175 0 1,1 -0.635,0z" transform="matrix(1,0,0,-1,26.6573,106.6799995)" fill="rgb(255,255,255)" stroke="rgb(0,0,0)" stroke-width="0.0010cm" stroke-linecap="round" stroke-linejoin="round" shaper:cutDepth="0.01905" /><path d="M18.4023,96.2024995 a0.3175,0.3175 0 1,1 0.635,0 a0.3175,0.3175 0 1,1 -0.635,0z" transform="matrix(1,0,0,-1,26.6573,106.6799995)" fill="rgb(255,255,255)" stroke="rgb(0,0,0)" stroke-width="0.0010cm" stroke-linecap="round" stroke-linejoin="round" shaper:cutDepth="0.01905" /><path d="M18.4023,101.9174995 a0.3175,0.3175 0 1,1 0.635,0 a0.3175,0.3175 0 1,1 -0.635,0z" transform="matrix(1,0,0,-1,26.6573,106.6799995)" fill="rgb(255,255,255)" stroke="rgb(0,0,0)" stroke-width="0.0010cm" stroke-linecap="round" stroke-linejoin="round" shaper:cutDepth="0.01905" /><path d="M23.7998,66.2990805 a0.3175,0.3175 0 1,1 0.635,0 a0.3175,0.3175 0 1,1 -0.635,0z" transform="matrix(1,0,0,-1,26.6573,106.6799995)" fill="rgb(255,255,255)" stroke="rgb(0,0,0)" stroke-width="0.0010cm" stroke-linecap="round" stroke-linejoin="round" shaper:cutDepth="0.01905" /><path d="M23.7998,60.5840805 a0.3175,0.3175 0 1,1 0.635,0 a0.3175,0.3175 0 1,1 -0.635,0z" transform="matrix(1,0,0,-1,26.6573,106.6799995)" fill="rgb(255,255,255)" stroke="rgb(0,0,0)" stroke-width="0.0010cm" stroke-linecap="round" stroke-linejoin="round" shaper:cutDepth="0.01905" /><path d="M20.9423,60.5840805 a0.3175,0.3175 0 1,1 0.635,0 a0.3175,0.3175 0 1,1 -0.635,0z" transform="matrix(1,0,0,-1,26.6573,106.6799995)" fill="rgb(255,255,255)" stroke="rgb(0,0,0)" stroke-width="0.0010cm" stroke-linecap="round" stroke-linejoin="round" shaper:cutDepth="0.01905" /><path d="M20.9423,66.2990805 a0.3175,0.3175 0 1,1 0.635,0 a0.3175,0.3175 0 1,1 -0.635,0z" transform="matrix(1,0,0,-1,26.6573,106.6799995)" fill="rgb(255,255,255)" stroke="rgb(0,0,0)" stroke-width="0.0010cm" stroke-linecap="round" stroke-linejoin="round" shaper:cutDepth="0.01905" /><path d="M20.9423,40.8990805 a0.3175,0.3175 0 1,1 0.635,0 a0.3175,0.3175 0 1,1 -0.635,0z" transform="matrix(1,0,0,-1,26.6573,106.6799995)" fill="rgb(255,255,255)" stroke="rgb(0,0,0)" stroke-width="0.0010cm" stroke-linecap="round" stroke-linejoin="round" shaper:cutDepth="0.01905" /><path d="M23.7998,40.8990805 a0.3175,0.3175 0 1,1 0.635,0 a0.3175,0.3175 0 1,1 -0.635,0z" transform="matrix(1,0,0,-1,26.6573,106.6799995)" fill="rgb(255,255,255)" stroke="rgb(0,0,0)" stroke-width="0.0010cm" stroke-linecap="round" stroke-linejoin="round" shaper:cutDepth="0.01905" /><path d="M23.7998,35.1840805 a0.3175,0.3175 0 1,1 0.635,0 a0.3175,0.3175 0 1,1 -0.635,0z" transform="matrix(1,0,0,-1,26.6573,106.6799995)" fill="rgb(255,255,255)" stroke="rgb(0,0,0)" stroke-width="0.0010cm" stroke-linecap="round" stroke-linejoin="round" shaper:cutDepth="0.01905" /><path d="M20.9423,35.1840805 a0.3175,0.3175 0 1,1 0.635,0 a0.3175,0.3175 0 1,1 -0.635,0z" transform="matrix(1,0,0,-1,26.6573,106.6799995)" fill="rgb(255,255,255)" stroke="rgb(0,0,0)" stroke-width="0.0010cm" stroke-linecap="round" stroke-linejoin="round" shaper:cutDepth="0.01905" /><path d="M20.9423,9.2075 a0.3175,0.3175 0 1,1 0.635,0 a0.3175,0.3175 0 1,1 -0.635,0z" transform="matrix(1,0,0,-1,26.6573,106.6799995)" fill="rgb(255,255,255)" stroke="rgb(0,0,0)" stroke-width="0.0010cm" stroke-linecap="round" stroke-linejoin="round" shaper:cutDepth="0.01905" /><path d="M18.4023,9.2075 a0.3175,0.3175 0 1,1 0.635,0 a0.3175,0.3175 0 1,1 -0.635,0z" transform="matrix(1,0,0,-1,26.6573,106.6799995)" fill="rgb(255,255,255)" stroke="rgb(0,0,0)" stroke-width="0.0010cm" stroke-linecap="round" stroke-linejoin="round" shaper:cutDepth="0.01905" /><path d="M18.4023,3.4925 a0.3175,0.3175 0 1,1 0.635,0 a0.3175,0.3175 0 1,1 -0.635,0z" transform="matrix(1,0,0,-1,26.6573,106.6799995)" fill="rgb(255,255,255)" stroke="rgb(0,0,0)" stroke-width="0.0010cm" stroke-linecap="round" stroke-linejoin="round" shaper:cutDepth="0.01905" /><path d="M20.9423,3.4925 a0.3175,0.3175 0 1,1 0.635,0 a0.3175,0.3175 0 1,1 -0.635,0z" transform="matrix(1,0,0,-1,26.6573,106.6799995)" fill="rgb(255,255,255)" stroke="rgb(0,0,0)" stroke-width="0.0010cm" stroke-linecap="round" stroke-linejoin="round" shaper:cutDepth="0.01905" /><path d="M-21.5773,3.4925 a0.3175,0.3175 0 1,1 0.635,0 a0.3175,0.3175 0 1,1 -0.635,0z" transform="matrix(1,0,0,-1,26.6573,106.6799995)" fill="rgb(255,255,255)" stroke="rgb(0,0,0)" stroke-width="0.0010cm" stroke-linecap="round" stroke-linejoin="round" shaper:cutDepth="0.01905" /><path d="M-19.0373,3.4925 a0.3175,0.3175 0 1,1 0.635,0 a0.3175,0.3175 0 1,1 -0.635,0z" transform="matrix(1,0,0,-1,26.6573,106.6799995)" fill="rgb(255,255,255)" stroke="rgb(0,0,0)" stroke-width="0.0010cm" stroke-linecap="round" stroke-linejoin="round" shaper:cutDepth="0.01905" /><path d="M-19.0373,9.2075 a0.3175,0.3175 0 1,1 0.635,0 a0.3175,0.3175 0 1,1 -0.635,0z" transform="matrix(1,0,0,-1,26.6573,106.6799995)" fill="rgb(255,255,255)" stroke="rgb(0,0,0)" stroke-width="0.0010cm" stroke-linecap="round" stroke-linejoin="round" shaper:cutDepth="0.01905" /><path d="M-21.5773,9.2075 a0.3175,0.3175 0 1,1 0.635,0 a0.3175,0.3175 0 1,1 -0.635,0z" transform="matrix(1,0,0,-1,26.6573,106.6799995)" fill="rgb(255,255,255)" stroke="rgb(0,0,0)" stroke-width="0.0010cm" stroke-linecap="round" stroke-linejoin="round" shaper:cutDepth="0.01905" /><path d="M-21.5773,35.1840805 a0.3175,0.3175 0 1,1 0.635,0 a0.3175,0.3175 0 1,1 -0.635,0z" transform="matrix(1,0,0,-1,26.6573,106.6799995)" fill="rgb(255,255,255)" stroke="rgb(0,0,0)" stroke-width="0.0010cm" stroke-linecap="round" stroke-linejoin="round" shaper:cutDepth="0.01905" /><path d="M-24.4348,35.1840805 a0.3175,0.3175 0 1,1 0.635,0 a0.3175,0.3175 0 1,1 -0.635,0z" transform="matrix(1,0,0,-1,26.6573,106.6799995)" fill="rgb(255,255,255)" stroke="rgb(0,0,0)" stroke-width="0.0010cm" stroke-linecap="round" stroke-linejoin="round" shaper:cutDepth="0.01905" /><path d="M-24.4348,40.8990805 a0.3175,0.3175 0 1,1 0.635,0 a0.3175,0.3175 0 1,1 -0.635,0z" transform="matrix(1,0,0,-1,26.6573,106.6799995)" fill="rgb(255,255,255)" stroke="rgb(0,0,0)" stroke-width="0.0010cm" stroke-linecap="round" stroke-linejoin="round" shaper:cutDepth="0.01905" /><path d="M-21.5773,40.8990805 a0.3175,0.3175 0 1,1 0.635,0 a0.3175,0.3175 0 1,1 -0.635,0z" transform="matrix(1,0,0,-1,26.6573,106.6799995)" fill="rgb(255,255,255)" stroke="rgb(0,0,0)" stroke-width="0.0010cm" stroke-linecap="round" stroke-linejoin="round" shaper:cutDepth="0.01905" /><path d="M-21.5773,66.2990805 a0.3175,0.3175 0 1,1 0.635,0 a0.3175,0.3175 0 1,1 -0.635,0z" transform="matrix(1,0,0,-1,26.6573,106.6799995)" fill="rgb(255,255,255)" stroke="rgb(0,0,0)" stroke-width="0.0010cm" stroke-linecap="round" stroke-linejoin="round" shaper:cutDepth="0.01905" /><path d="M-21.5773,60.5840805 a0.3175,0.3175 0 1,1 0.635,0 a0.3175,0.3175 0 1,1 -0.635,0z" transform="matrix(1,0,0,-1,26.6573,106.6799995)" fill="rgb(255,255,255)" stroke="rgb(0,0,0)" stroke-width="0.0010cm" stroke-linecap="round" stroke-linejoin="round" shaper:cutDepth="0.01905" /><path d="M-24.4348,60.5840805 a0.3175,0.3175 0 1,1 0.635,0 a0.3175,0.3175 0 1,1 -0.635,0z" transform="matrix(1,0,0,-1,26.6573,106.6799995)" fill="rgb(255,255,255)" stroke="rgb(0,0,0)" stroke-width="0.0010cm" stroke-linecap="round" stroke-linejoin="round" shaper:cutDepth="0.01905" /><path d="M-24.4348,66.2990805 a0.3175,0.3175 0 1,1 0.635,0 a0.3175,0.3175 0 1,1 -0.635,0z" transform="matrix(1,0,0,-1,26.6573,106.6799995)" fill="rgb(255,255,255)" stroke="rgb(0,0,0)" stroke-width="0.0010cm" stroke-linecap="round" stroke-linejoin="round" shaper:cutDepth="0.01905" /><path d="M-19.0373,101.9174995 a0.3175,0.3175 0 1,1 0.635,0 a0.3175,0.3175 0 1,1 -0.635,0z" transform="matrix(1,0,0,-1,26.6573,106.6799995)" fill="rgb(255,255,255)" stroke="rgb(0,0,0)" stroke-width="0.0010cm" stroke-linecap="round" stroke-linejoin="round" shaper:cutDepth="0.01905" /><path d="M-19.0373,96.2024995 a0.3175,0.3175 0 1,1 0.635,0 a0.3175,0.3175 0 1,1 -0.635,0z" transform="matrix(1,0,0,-1,26.6573,106.6799995)" fill="rgb(255,255,255)" stroke="rgb(0,0,0)" stroke-width="0.0010cm" stroke-linecap="round" stroke-linejoin="round" shaper:cutDepth="0.01905" /><path d="M-21.5773,96.2024995 a0.3175,0.3175 0 1,1 0.635,0 a0.3175,0.3175 0 1,1 -0.635,0z" transform="matrix(1,0,0,-1,26.6573,106.6799995)" fill="rgb(255,255,255)" stroke="rgb(0,0,0)" stroke-width="0.0010cm" stroke-linecap="round" stroke-linejoin="round" shaper:cutDepth="0.01905" /><path d="M-21.5773,101.9174995 a0.3175,0.3175 0 1,1 0.635,0 a0.3175,0.3175 0 1,1 -0.635,0z" transform="matrix(1,0,0,-1,26.6573,106.6799995)" fill="rgb(255,255,255)" stroke="rgb(0,0,0)" stroke-width="0.0010cm" stroke-linecap="round" stroke-linejoin="round" shaper:cutDepth="0.01905" /><path d="M16.3710874,18.9915805 a0.2976626,0.2976626 0 1,1 0.5953252,0 a0.2976626,0.2976626 0 1,1 -0.5953252,0z" transform="matrix(1,0,0,-1,26.6573,106.6799995)" fill="rgb(255,255,255)" stroke="rgb(0,0,0)" stroke-width="0.0010cm" stroke-linecap="round" stroke-linejoin="round" shaper:cutDepth="0.01905" /><path d="M16.3710874,30.4215805 a0.2976626,0.2976626 0 1,1 0.5953252,0 a0.2976626,0.2976626 0 1,1 -0.5953252,0z" transform="matrix(1,0,0,-1,26.6573,106.6799995)" fill="rgb(255,255,255)" stroke="rgb(0,0,0)" stroke-width="0.0010cm" stroke-linecap="round" stroke-linejoin="round" shaper:cutDepth="0.01905" /><path d="M16.3710874,41.8515805 a0.2976626,0.2976626 0 1,1 0.5953252,0 a0.2976626,0.2976626 0 1,1 -0.5953252,0z" transform="matrix(1,0,0,-1,26.6573,106.6799995)" fill="rgb(255,255,255)" stroke="rgb(0,0,0)" stroke-width="0.0010cm" stroke-linecap="round" stroke-linejoin="round" shaper:cutDepth="0.01905" /><path d="M16.3710874,53.2815805 a0.2976626,0.2976626 0 1,1 0.5953252,0 a0.2976626,0.2976626 0 1,1 -0.5953252,0z" transform="matrix(1,0,0,-1,26.6573,106.6799995)" fill="rgb(255,255,255)" stroke="rgb(0,0,0)" stroke-width="0.0010cm" stroke-linecap="round" stroke-linejoin="round" shaper:cutDepth="0.01905" /><path d="M16.3710874,64.7115805 a0.2976626,0.2976626 0 1,1 0.5953252,0 a0.2976626,0.2976626 0 1,1 -0.5953252,0z" transform="matrix(1,0,0,-1,26.6573,106.6799995)" fill="rgb(255,255,255)" stroke="rgb(0,0,0)" stroke-width="0.0010cm" stroke-linecap="round" stroke-linejoin="round" shaper:cutDepth="0.01905" /><path d="M-16.9664126,18.9915805 a0.2976626,0.2976626 0 1,1 0.5953252,0 a0.2976626,0.2976626 0 1,1 -0.5953252,0z" transform="matrix(1,0,0,-1,26.6573,106.6799995)" fill="rgb(255,255,255)" stroke="rgb(0,0,0)" stroke-width="0.0010cm" stroke-linecap="round" stroke-linejoin="round" shaper:cutDepth="0.01905" /><path d="M-16.9664126,30.4215805 a0.2976626,0.2976626 0 1,1 0.5953252,0 a0.2976626,0.2976626 0 1,1 -0.5953252,0z" transform="matrix(1,0,0,-1,26.6573,106.6799995)" fill="rgb(255,255,255)" stroke="rgb(0,0,0)" stroke-width="0.0010cm" stroke-linecap="round" stroke-linejoin="round" shaper:cutDepth="0.01905" /><path d="M-16.9664126,41.8515805 a0.2976626,0.2976626 0 1,1 0.5953252,0 a0.2976626,0.2976626 0 1,1 -0.5953252,0z" transform="matrix(1,0,0,-1,26.6573,106.6799995)" fill="rgb(255,255,255)" stroke="rgb(0,0,0)" stroke-width="0.0010cm" stroke-linecap="round" stroke-linejoin="round" shaper:cutDepth="0.01905" /><path d="M-16.9664126,53.2815805 a0.2976626,0.2976626 0 1,1 0.5953252,0 a0.2976626,0.2976626 0 1,1 -0.5953252,0z" transform="matrix(1,0,0,-1,26.6573,106.6799995)" fill="rgb(255,255,255)" stroke="rgb(0,0,0)" stroke-width="0.0010cm" stroke-linecap="round" stroke-linejoin="round" shaper:cutDepth="0.01905" /><path d="M-16.9664126,64.7115805 a0.2976626,0.2976626 0 1,1 0.5953252,0 a0.2976626,0.2976626 0 1,1 -0.5953252,0z" transform="matrix(1,0,0,-1,26.6573,106.6799995)" fill="rgb(255,255,255)" stroke="rgb(0,0,0)" stroke-width="0.0010cm" stroke-linecap="round" stroke-linejoin="round" shaper:cutDepth="0.01905" /><path d="M10.5435874,3.7282 a0.4564126,0.4564126 0 1,1 0.9128252,0 a0.4564126,0.4564126 0 1,1 -0.9128252,0z" transform="matrix(1,0,0,-1,26.6573,106.6799995)" fill="rgb(255,255,255)" stroke="rgb(0,0,0)" stroke-width="0.0010cm" stroke-linecap="round" stroke-linejoin="round" shaper:cutDepth="0.01905" /><path d="M10.5435874,15.7282 a0.4564126,0.4564126 0 1,1 0.9128252,0 a0.4564126,0.4564126 0 1,1 -0.9128252,0z" transform="matrix(1,0,0,-1,26.6573,106.6799995)" fill="rgb(255,255,255)" stroke="rgb(0,0,0)" stroke-width="0.0010cm" stroke-linecap="round" stroke-linejoin="round" shaper:cutDepth="0.01905" /><path d="M-11.4564126,15.7282 a0.4564126,0.4564126 0 1,1 0.9128252,0 a0.4564126,0.4564126 0 1,1 -0.9128252,0z" transform="matrix(1,0,0,-1,26.6573,106.6799995)" fill="rgb(255,255,255)" stroke="rgb(0,0,0)" stroke-width="0.0010cm" stroke-linecap="round" stroke-linejoin="round" shaper:cutDepth="0.01905" /><path d="M-11.4564126,3.7282 a0.4564126,0.4564126 0 1,1 0.9128252,0 a0.4564126,0.4564126 0 1,1 -0.9128252,0z" transform="matrix(1,0,0,-1,26.6573,106.6799995)" fill="rgb(255,255,255)" stroke="rgb(0,0,0)" stroke-width="0.0010cm" stroke-linecap="round" stroke-linejoin="round" shaper:cutDepth="0.01905" /><path d="M-5.4564126,27.7282 a0.4564126,0.4564126 0 1,1 0.9128252,0 a0.4564126,0.4564126 0 1,1 -0.9128252,0z" transform="matrix(1,0,0,-1,26.6573,106.6799995)" fill="rgb(255,255,255)" stroke="rgb(0,0,0)" stroke-width="0.0010cm" stroke-linecap="round" stroke-linejoin="round" shaper:cutDepth="0.01905" /><path d="M4.5435874,27.7282 a0.4564126,0.4564126 0 1,1 0.9128252,0 a0.4564126,0.4564126 0 1,1 -0.9128252,0z" transform="matrix(1,0,0,-1,26.6573,106.6799995)" fill="rgb(255,255,255)" stroke="rgb(0,0,0)" stroke-width="0.0010cm" stroke-linecap="round" stroke-linejoin="round" shaper:cutDepth="0.01905" /><path d="M-12.2039126,47.5107 a0.4564126,0.4564126 0 1,1 0.9128252,0 a0.4564126,0.4564126 0 1,1 -0.9128252,0z" transform="matrix(1,0,0,-1,26.6573,106.6799995)" fill="rgb(255,255,255)" stroke="rgb(0,0,0)" stroke-width="0.0010cm" stroke-linecap="round" stroke-linejoin="round" shaper:cutDepth="0.01905" /><path d="M23.64105,75.0211892 a0.15875,0.15875 0 1,1 0.3175,0 a0.15875,0.15875 0 1,1 -0.3175,0z" transform="matrix(1,0,0,-1,26.6573,106.6799995)" fill="rgb(255,255,255)" stroke="rgb(0,0,0)" stroke-width="0.0010cm" stroke-linecap="round" stroke-linejoin="round" shaper:cutDepth="0.01905" /><path d="M25.54605,105.7274995 a0.15875,0.15875 0 1,1 0.3175,0 a0.15875,0.15875 0 1,1 -0.3175,0z" transform="matrix(1,0,0,-1,26.6573,106.6799995)" fill="rgb(255,255,255)" stroke="rgb(0,0,0)" stroke-width="0.0010cm" stroke-linecap="round" stroke-linejoin="round" shaper:cutDepth="0.01905" /><path d="M21.73605,105.7274995 a0.15875,0.15875 0 1,1 0.3175,0 a0.15875,0.15875 0 1,1 -0.3175,0z" transform="matrix(1,0,0,-1,26.6573,106.6799995)" fill="rgb(255,255,255)" stroke="rgb(0,0,0)" stroke-width="0.0010cm" stroke-linecap="round" stroke-linejoin="round" shaper:cutDepth="0.01905" /><path d="M1.74625,105.7274995 a0.15875,0.15875 0 1,1 0.3175,0 a0.15875,0.15875 0 1,1 -0.3175,0z" transform="matrix(1,0,0,-1,26.6573,106.6799995)" fill="rgb(255,255,255)" stroke="rgb(0,0,0)" stroke-width="0.0010cm" stroke-linecap="round" stroke-linejoin="round" shaper:cutDepth="0.01905" /><path d="M23.64105,100.3299995 a0.15875,0.15875 0 1,1 0.3175,0 a0.15875,0.15875 0 1,1 -0.3175,0z" transform="matrix(1,0,0,-1,26.6573,106.6799995)" fill="rgb(255,255,255)" stroke="rgb(0,0,0)" stroke-width="0.0010cm" stroke-linecap="round" stroke-linejoin="round" shaper:cutDepth="0.01905" /><path d="M23.64105,87.6755943 a0.15875,0.15875 0 1,1 0.3175,0 a0.15875,0.15875 0 1,1 -0.3175,0z" transform="matrix(1,0,0,-1,26.6573,106.6799995)" fill="rgb(255,255,255)" stroke="rgb(0,0,0)" stroke-width="0.0010cm" stroke-linecap="round" stroke-linejoin="round" shaper:cutDepth="0.01905" /><path d="M-23.95855,87.6755943 a0.15875,0.15875 0 1,1 0.3175,0 a0.15875,0.15875 0 1,1 -0.3175,0z" transform="matrix(1,0,0,-1,26.6573,106.6799995)" fill="rgb(255,255,255)" stroke="rgb(0,0,0)" stroke-width="0.0010cm" stroke-linecap="round" stroke-linejoin="round" shaper:cutDepth="0.01905" /><path d="M-23.95855,100.3299995 a0.15875,0.15875 0 1,1 0.3175,0 a0.15875,0.15875 0 1,1 -0.3175,0z" transform="matrix(1,0,0,-1,26.6573,106.6799995)" fill="rgb(255,255,255)" stroke="rgb(0,0,0)" stroke-width="0.0010cm" stroke-linecap="round" stroke-linejoin="round" shaper:cutDepth="0.01905" /><path d="M-2.06375,105.7274995 a0.15875,0.15875 0 1,1 0.3175,0 a0.15875,0.15875 0 1,1 -0.3175,0z" transform="matrix(1,0,0,-1,26.6573,106.6799995)" fill="rgb(255,255,255)" stroke="rgb(0,0,0)" stroke-width="0.0010cm" stroke-linecap="round" stroke-linejoin="round" shaper:cutDepth="0.01905" /><path d="M-22.05355,105.7274995 a0.15875,0.15875 0 1,1 0.3175,0 a0.15875,0.15875 0 1,1 -0.3175,0z" transform="matrix(1,0,0,-1,26.6573,106.6799995)" fill="rgb(255,255,255)" stroke="rgb(0,0,0)" stroke-width="0.0010cm" stroke-linecap="round" stroke-linejoin="round" shaper:cutDepth="0.01905" /><path d="M-25.86355,105.7274995 a0.15875,0.15875 0 1,1 0.3175,0 a0.15875,0.15875 0 1,1 -0.3175,0z" transform="matrix(1,0,0,-1,26.6573,106.6799995)" fill="rgb(255,255,255)" stroke="rgb(0,0,0)" stroke-width="0.0010cm" stroke-linecap="round" stroke-linejoin="round" shaper:cutDepth="0.01905" /><path d="M-23.95855,75.0211892 a0.15875,0.15875 0 1,1 0.3175,0 a0.15875,0.15875 0 1,1 -0.3175,0z" transform="matrix(1,0,0,-1,26.6573,106.6799995)" fill="rgb(255,255,255)" stroke="rgb(0,0,0)" stroke-width="0.0010cm" stroke-linecap="round" stroke-linejoin="round" shaper:cutDepth="0.01905" /></g></svg>