0
SECTION
2
HEADER
9
$INSUNITS
70
1
9
$ACADVER
1
AC1014
9
$HANDSEED
5
FFFF
0
ENDSEC
0
SECTION
2
TABLES
0
TABLE
2
VPORT
5
8
100
AcDbSymbolTable
0
ENDTAB
0
TABLE
2
LTYPE
5
5
100
AcDbSymbolTable
0
LTYPE
5
14
100
AcDbSymbolTableRecord
100
AcDbLinetypeTableRecord
2
BYBLOCK
70
0
0
LTYPE
5
15
100
AcDbSymbolTableRecord
100
AcDbLinetypeTableRecord
2
BYLAYER
70
0
0
ENDTAB
0
TABLE
2
LAYER
5
2
100
AcDbSymbolTable
70
2
0
LAYER
5
50
100
AcDbSymbolTableRecord
100
AcDbLayerTableRecord
2
0
70
0
6
CONTINUOUS
0
ENDTAB
0
TABLE
2
STYLE
5
3
100
AcDbSymbolTable
70
1
0
STYLE
5
11
100
AcDbSymbolTableRecord
100
AcDbTextStyleTableRecord
2
STANDARD
70
0
0
ENDTAB
0
TABLE
2
VIEW
5
6
100
AcDbSymbolTable
70
0
0
ENDTAB
0
TABLE
2
UCS
5
7
100
AcDbSymbolTable
70
0
0
ENDTAB
0
TABLE
2
APPID
5
9
100
AcDbSymbolTable
70
2
0
APPID
5
12
100
AcDbSymbolTableRecord
100
AcDbRegAppTableRecord
2
ACAD
70
0
0
ENDTAB
0
TABLE
2
DIMSTYLE
5
A
100
AcDbSymbolTable
70
1
0
ENDTAB
0
TABLE
2
BLOCK_RECORD
5
1
100
AcDbSymbolTable
70
1
0
BLOCK_RECORD
5
1F
100
AcDbSymbolTableRecord
100
AcDbBlockTableRecord
2
*MODEL_SPACE
0
BLOCK_RECORD
5
1B
100
AcDbSymbolTableRecord
100
AcDbBlockTableRecord
2
*PAPER_SPACE
0
ENDTAB
0
ENDSEC
0
SECTION
2
BLOCKS
0
BLOCK
5
20
100
AcDbEntity
100
AcDbBlockBegin
2
*MODEL_SPACE
0
ENDBLK
5
21
100
AcDbEntity
100
AcDbBlockEnd
0
BLOCK
5
1C
100
AcDbEntity
100
AcDbBlockBegin
2
*PAPER_SPACE
0
ENDBLK
5
1D
100
AcDbEntity
100
AcDbBlockEnd
0
ENDSEC
0
SECTION
2
ENTITIES
0
LWPOLYLINE
5
100
100
AcDbEntity
8
0
100
AcDbPolyline
90
33
70
1
43
0.0
10
0.029031516882363221
20
3.492565201154989
42
0.40479499678987191
10
0.14999920746459469
20
3.6175001222823258
10
0.1499991049206027
20
4.5434387136251875
42
-0.37637332944033602
10
0.17608331492875509
20
4.573182061125058
10
1.4969723593992705
20
4.7470805937590477
42
-0.52439887318870071
10
1.5300967288921585
20
4.7104918935869105
10
1.2419145532866014
20
3.4808416963829152
42
0.12839576625546506
10
1.2444595305762682
20
3.3798230055549858
10
1.4383229943326494
20
2.7071171179221025
42
0.33422581864519485
10
1.6305018803832401
20
2.5625001095021376
10
2.5999993861790895
20
2.562500109502138
42
0.41421356237309503
10
2.7999993861790893
20
2.7625001095021382
10
2.7999993861790902
20
3.170000109502138
42
-0.41421356237309503
10
2.8299993861790895
20
3.2000001095021373
10
4.0792216345417787
20
3.2000001095021373
42
0.32576849249048473
10
4.2696217902630798
20
3.338780989112307
10
4.8591855741697776
20
5.1724080577253302
42
-0.28993980274967668
10
4.8838298117613688
20
5.1929685355080686
10
6.5910834743369886
20
5.4177327442013814
42
-0.45309410530175043
10
6.6249992601035883
20
5.3879893983601681
10
6.6249992601035927
20
3.2009274178557074
42
-0.19891233046028448
10
6.6162124665526694
20
3.17971421743359
10
6.0585780214781328
20
2.6220796139274327
42
0.19891234891997492
10
5.9999993978053139
20
2.4806582635743126
10
5.999999745937969
20
0.03000095971239327
42
-0.41421354156932583
10
5.9699997501996771
20
9.5758154065647118e-07
10
1.0749997501997401
20
2.5781836551927774e-07
42
0.41421352076560675
10
0.87499978372943088
20
-0.19999973778674832
10
0.87499984097302097
20
-0.28249976832897084
42
-0.41421356237310303
10
0.8449997924616518
20
-0.31249982110204511
10
0.029999792509254008
20
-0.31249988623616082
42
-0.41421356260546677
10
-2.0962159899364169e-07
20
-0.2824998883432126
10
-7.6987496302568082e-07
20
3.4625807757224467
42
-0.40479501617961205
0
LWPOLYLINE
5
101
100
AcDbEntity
8
0
100
AcDbPolyline
90
14
70
1
43
0.0
10
5.5285660093445994
20
4.8419610215804809
42
0.073567904650133006
10
5.5468571041367412
20
4.842222962311455
10
5.905841757893703
20
4.9005944507272217
42
0.36775221088018678
10
5.9583108956072506
20
4.962284253788912
10
5.9583108956072506
20
5.1229084056019287
42
0.39305040403471403
10
5.9003563926311999
20
5.1852428941039221
10
5.7630569851703664
20
5.1952549125386831
42
0.11890282183579472
10
5.7341385070670841
20
5.1904722076172742
10
5.5398658366122264
20
5.1081984043284967
42
-0.1189028218357919
10
5.510947358508945
20
5.1034156994070878
10
5.1944545133788376
20
5.1264946933992235
42
0.43569823044978667
10
5.1274090163548873
20
5.0641602048972283
10
5.1274090163548856
20
4.9501683954392028
42
0.37590196397720715
10
5.1816487838491989
20
4.8882166516465331
0
LWPOLYLINE
5
102
100
AcDbEntity
8
0
100
AcDbPolyline
90
8
70
1
43
0.0
10
5.9719731910912763
20
4.4196008847116435
42
0.41504713214961841
10
6.0346510124925681
20
4.4821006317475272
10
6.0346510124925681
20
4.6618719687879508
42
0.41421356237308521
10
5.9721510124925663
20
4.7243719687879544
10
5.8666188721617383
20
4.7243719687879517
42
0.41421356237309503
10
5.8041188721617365
20
4.6618719687879508
10
5.8041188721617241
20
4.4824008869319831
42
0.41338048363210556
10
5.866441050760427
20
4.4199011398960995
0
LWPOLYLINE
5
103
100
AcDbEntity
8
0
100
AcDbPolyline
90
14
70
1
43
0.0
10
2.1392450803065159
20
0.70403692645609628
10
2.126682457463406
20
0.71005080134571619
42
-0.28872505168980811
10
2.0911691093227387
20
0.76642429353329711
10
2.0911691093227396
20
0.93026788817614725
42
-0.41421356237309503
10
2.1536691093227391
20
0.99276788817614725
10
2.2683747614452385
20
0.99276788817614703
42
-0.11208396033759478
10
2.2953614133045699
20
0.98664138036372806
10
2.5955465703395157
20
0.84293922511520825
42
-0.29717027373631805
10
2.63102967445931
20
0.78462161669950836
10
2.6266384689262412
20
0.64352020818425448
42
-0.41421356237310147
10
2.5622245967189952
20
0.58299456843324826
10
2.3934297868365464
20
0.58824761807257187
42
-0.10421523173831318
10
2.3683872512053341
20
0.59434388186411713
10
2.2118148042836445
20
0.66929694848946608
42
-7.3926596664246542
0
LWPOLYLINE
5
104
100
AcDbEntity
8
0
100
AcDbPolyline
90
16
70
1
43
0.0
10
2.4819069746375781
20
0.11003076785442879
42
0.4142135623730972
10
2.5444069746375781
20
0.17253076785442936
10
2.5444069746375781
20
0.29320559498985371
42
0.41421356237309503
10
2.4819069746375781
20
0.35570559498985366
10
1.8824831259936783
20
0.35570559498985321
42
-0.41421356237309304
10
1.8199831259936781
20
0.4182055949898536
10
1.8199831259936785
20
0.58457110214856822
42
0.41421356237309664
10
1.7574831259936783
20
0.647071102148568
10
1.3089565544400004
20
0.647071102148568
42
0.41421356237309587
10
1.2464565544400006
20
0.58457110214856811
10
1.2464565544400006
20
0.45809639826446846
42
-0.41421356237309503
10
1.1839565544400004
20
0.39559639826446835
10
0.98807827691194228
20
0.39559639826446852
42
0.42361268667771967
10
0.9256102414936096
20
0.33109776098523619
10
0.93074746811762277
20
0.17053213057519759
42
0.40487649394822539
10
0.99321550353595589
20
0.11003076785442903
0
LWPOLYLINE
5
105
100
AcDbEntity
8
0
100
AcDbPolyline
90
8
70
1
43
0.0
10
0.4966089220087454
20
2.7752242773939311
42
0.41421356237309503
10
0.55910892200874629
20
2.7127242773939302
10
1.1553934173274736
20
2.7127242773939297
42
0.41421356237309503
10
1.2178934173274742
20
2.7752242773939306
10
1.2178934173274742
20
2.94256635409387
42
0.41421356237309503
10
1.1553934173274736
20
3.0050663540938705
10
0.5591089220087464
20
3.0050663540938709
42
0.41421356237309503
10
0.49660892200874573
20
2.94256635409387
0
LWPOLYLINE
5
106
100
AcDbEntity
8
0
100
AcDbPolyline
90
8
70
1
43
0.0
10
0.47557190812375116
20
3.126320186329393
42
0.41421356237309503
10
0.53807190812375116
20
3.063820186329393
10
0.67398491711527331
20
3.063820186329393
42
0.41421356237309503
10
0.73648491711527386
20
3.1263201863293939
10
0.73648491711527397
20
3.2489529627228144
42
0.41421356237309503
10
0.67398491711527331
20
3.3114529627228158
10
0.53807190812375116
20
3.3114529627228158
42
0.41421356237309503
10
0.47557190812375089
20
3.2489529627228149
0
LWPOLYLINE
5
107
100
AcDbEntity
8
0
100
AcDbPolyline
90
14
70
1
43
0.0
10
0.56314746062474585
20
3.6815466784340938
42
0.41421356237309748
10
0.62564746062474652
20
3.6190466784340938
10
1.0663697595993282
20
3.6190466784340938
42
0.41421356237309748
10
1.1288697595993287
20
3.6815466784340938
10
1.1288697595993289
20
4.0809448580793326
42
-0.2154470163687392
10
1.1500651320956443
20
4.1278509104263588
10
1.233574490566528
20
4.2013877520943028
42
0.21544701636873995
10
1.2547698630628441
20
4.248293804441329
10
1.2547698630628445
20
4.3658620276605502
42
0.41421356237309837
10
1.1922698630628437
20
4.4283620276605493
10
1.0202860678651284
20
4.4283620276605493
42
0.24250904236076801
10
0.96938717145558251
20
4.4021325714156454
10
0.57474856421520026
20
3.8483314008359168
42
0.15603111148898416
10
0.56314746062474597
20
3.8120608570808203
0
LWPOLYLINE
5
108
100
AcDbEntity
8
0
100
AcDbPolyline
90
8
70
1
43
0.0
10
0.47240462833058938
20
2.4398605793246215
42
0.41421356237309503
10
0.5349046283305896
20
2.3773605793246215
10
1.0868177175319766
20
2.3773605793246215
42
0.41421356237309503
10
1.1493177175319769
20
2.4398605793246215
10
1.1493177175319769
20
2.6163140551343913
42
0.41421356237309503
10
1.0868177175319766
20
2.6788140551343917
10
0.53490462833058949
20
2.6788140551343917
42
0.41421356237309503
10
0.47240462833058922
20
2.6163140551343913
0
LWPOLYLINE
5
109
100
AcDbEntity
8
0
100
AcDbPolyline
90
8
70
1
43
0.0
10
3.1043708716056471
20
1.3650724768140536
42
0.41421356237309342
10
3.1668708716056515
20
1.3025724768140494
10
3.6936581994857747
20
1.3025724768140543
42
0.41421356237309342
10
3.7561581994857747
20
1.3650724768140536
10
3.7561581994857738
20
1.4643863109659772
42
0.41421356237309587
10
3.6936581994857747
20
1.5268863109659767
10
3.1668708716056417
20
1.5268863109659818
42
0.41421356237304996
10
3.1043708716056426
20
1.4643863109659772
0
LWPOLYLINE
5
110
100
AcDbEntity
8
0
100
AcDbPolyline
90
12
70
1
43
0.0
10
3.6368342776300002
20
2.1026830366239944
42
0.17797165559586864
10
3.5963554815999434
20
2.1175624835827169
10
3.3573926785162742
20
2.1175624835827165
42
0.13506406247000924
10
3.3254197907869565
20
2.108765225135159
10
2.9669139523800632
20
1.8953223618784527
42
0.26435979433083018
10
2.9363868401093822
20
1.8416196203260087
10
2.9363868401093818
20
1.71001563696077
42
0.41421356237309342
10
2.9988868401093822
20
1.6475156369607695
10
3.8602270256951643
20
1.6475156369607702
42
0.41421356237309503
10
3.9227270256951647
20
1.7100156369607704
10
3.9227270256951647
20
1.8307643238719757
42
0.22002224663148981
10
3.9007058217252211
20
1.8783848769132538
0
LWPOLYLINE
5
111
100
AcDbEntity
8
0
100
AcDbPolyline
90
8
70
1
43
0.0
10
2.8567408518914532
20
0.88334677615088297
42
0.41421356237309503
10
2.9192408518914537
20
0.82084677615088275
10
3.1043708716056515
20
0.82084677615088275
42
0.41421356237309748
10
3.1668708716056515
20
0.88334677615088342
10
3.1668708716056515
20
1.0093301810228152
42
0.41421356237309503
10
3.1043708716056515
20
1.0718301810228152
10
2.9192408518914537
20
1.0718301810228155
42
0.41421356237309503
10
2.8567408518914532
20
1.0093301810228152
0
LWPOLYLINE
5
112
100
AcDbEntity
8
0
100
AcDbPolyline
90
8
70
1
43
0.0
10
4.2944565490394933
20
0.89192537691064477
42
0.41421356237309587
10
4.3569565490394933
20
0.82942537691064466
10
4.5493560028171984
20
0.82942537691064477
42
0.41421356237309503
10
4.6118560028171984
20
0.89192537691064488
10
4.6118560028171984
20
1.0179087817825765
42
0.41421356237309503
10
4.5493560028171984
20
1.0804087817825765
10
4.3569565490394924
20
1.0804087817825765
42
0.41421356237309837
10
4.2944565490394924
20
1.0179087817825763
0
LWPOLYLINE
5
113
100
AcDbEntity
8
0
100
AcDbPolyline
90
16
70
1
43
0.0
10
5.2820049745731712
20
3.4509758884083017
42
0.18523556227508095
10
5.3257537980751515
20
3.4341923315821412
10
5.7843032891800314
20
3.4341923315821425
42
0.27117862530734166
10
5.8413403313455765
20
3.4675822042996098
10
5.9825647644189548
20
3.7191382257115633
42
0.12859085780519147
10
5.9909383905725839
20
3.7511590213132795
10
5.990938390572583
20
3.9169929102797711
42
0.14659409685365815
10
5.9801612525659671
20
3.9529614089355127
10
5.8094418883962113
20
4.2122716917076941
42
0.25229951999095807
10
5.7548083580836407
20
4.2417138613711396
10
5.2910471428660744
20
4.2417138613711387
42
0.21266113196060873
10
5.2424200313730491
20
4.2200520165539332
10
5.0155758192141464
20
3.9679131494207618
42
0.1852355622750852
10
4.9987922623879859
20
3.9241643259187819
10
4.9987922623879859
20
3.7349149973024676
42
0.21266113196059977
10
5.0204541072051887
20
3.6862878858094423
0
LWPOLYLINE
5
114
100
AcDbEntity
8
0
100
AcDbPolyline
90
8
70
1
43
0.0
10
4.7284156392169496
20
3.0640352672430549
42
0.41504713214962502
10
4.7910934606182405
20
3.1265350142789368
10
4.7910934606182405
20
3.3114701562080597
42
0.41421356237309837
10
4.7285934606182405
20
3.3739701562080588
10
4.6230613202874133
20
3.3739701562080602
42
0.41421356237309503
10
4.5605613202874133
20
3.3114701562080597
10
4.5605613202874071
20
3.1268352694633936
42
0.41338048363215468
10
4.6228834988861127
20
3.0643355224275117
0
LWPOLYLINE
5
115
100
AcDbEntity
8
0
100
AcDbPolyline
90
8
70
1
43
0.0
10
1.2547698630628443
20
2.3191002769502078
42
0.41421356237309503
10
1.3172698630628445
20
2.2566002769502074
10
2.1940335879651576
20
2.2566002769502074
42
0.41421356237309503
10
2.2565335879651585
20
2.3191002769502078
10
2.256533587965158
20
2.441733053343631
42
0.41421356237309503
10
2.1940335879651576
20
2.5042330533436314
10
1.3172698630628445
20
2.5042330533436314
42
0.41421356237309503
10
1.2547698630628441
20
2.441733053343631
0
LWPOLYLINE
5
116
100
AcDbEntity
8
0
100
AcDbPolyline
90
8
70
1
43
0.0
10
3.3327112880082854
20
2.9071778686396059
42
0.41421356237309503
10
3.3952112880082863
20
2.8446778686396055
10
3.504679207003595
20
2.8446778686396059
42
0.41421356237309503
10
3.5671792070035946
20
2.9071778686396059
10
3.5671792070035946
20
3.0330844978227778
42
0.41421356237309503
10
3.504679207003595
20
3.0955844978227778
10
3.3952112880082863
20
3.0955844978227782
42
0.41421356237309503
10
3.3327112880082854
20
3.0330844978227778
0
LWPOLYLINE
5
117
100
AcDbEntity
8
0
100
AcDbPolyline
90
8
70
1
43
0.0
10
2.9265381357358216
20
2.4175171113072111
42
0.41421356237309503
10
2.989038135735822
20
2.3550171113072107
10
3.0985060547311303
20
2.3550171113072107
42
0.41421356237309503
10
3.1610060547311303
20
2.4175171113072111
10
3.1610060547311303
20
2.5434237404903826
42
0.41421356237309503
10
3.0985060547311303
20
2.6059237404903826
10
2.989038135735822
20
2.605923740490383
42
0.41421356237309503
10
2.9265381357358216
20
2.5434237404903826
0
LWPOLYLINE
5
118
100
AcDbEntity
8
0
100
AcDbPolyline
90
22
70
1
43
0.0
10
4.4138397017653093
20
1.7725156369607697
42
0.41421356237285584
10
4.4763397017652835
20
1.7100156369607444
10
5.3298761909981032
20
1.71001563696077
42
0.41421356237309503
10
5.3923761909981032
20
1.7725156369607697
10
5.3923761909981023
20
1.870912435713036
42
-0.41421356237310486
10
5.4548761909981032
20
1.9334124357130364
10
5.6183400726356592
20
1.9334124357130369
42
0.41421356237309997
10
5.68084007263566
20
1.9959124357130369
10
5.68084007263566
20
2.6727037587204698
42
0.41421356237309837
10
5.6183400726356592
20
2.7352037587204698
10
5.4704235080811587
20
2.7352037587204707
42
-0.41421356237310158
10
5.4079235080811578
20
2.7977037587204703
10
5.4079235080811578
20
2.9201389006495924
42
0.41421356237309503
10
5.3454235080811578
20
2.9826389006495919
10
5.2426038729706965
20
2.9826389006495919
42
0.41421356237309503
10
5.1801038729706965
20
2.9201389006495924
10
5.1801038729706965
20
2.5045505678370952
42
-0.41421356237309997
10
5.1176038729706965
20
2.4420505678370952
10
4.7497277805217344
20
2.4420505678370952
42
0.2505483407077182
10
4.6977529092869315
20
2.4142617009232632
10
4.424364830530493
20
2.0049028316746149
42
0.14827696139626481
10
4.4138397017652835
20
1.9701916985884214
0
LWPOLYLINE
5
119
100
AcDbEntity
8
0
100
AcDbPolyline
90
8
70
1
43
0.0
10
5.1588353977854373
20
3.0617872001393951
42
0.41504713214962174
10
5.2215132191867246
20
3.1242869471752748
10
5.2215132191867246
20
3.3092524513574846
42
0.41421356237310158
10
5.1590132191867255
20
3.3717524513574824
10
5.0428095110715416
20
3.3717524513574837
42
0.41421356237309503
10
4.9803095110715425
20
3.3092524513574837
10
4.980309511071531
20
3.124617564612818
42
0.41338048363211044
10
5.0426316896702312
20
3.062117817576937
0
LWPOLYLINE
5
120
100
AcDbEntity
8
0
100
AcDbPolyline
90
8
70
1
43
0.0
10
4.2943157604584066
20
2.7262987234043767
42
0.41421356237309837
10
4.3568157604584066
20
2.6637987234043763
10
4.541945780172604
20
2.6637987234043763
42
0.41421356237309503
10
4.604445780172604
20
2.7262987234043758
10
4.604445780172604
20
2.8522821282763084
42
0.41421356237309503
10
4.541945780172604
20
2.9147821282763084
10
4.3568157604584066
20
2.9147821282763084
42
0.41421356237309503
10
4.2943157604584066
20
2.8522821282763084
0
LWPOLYLINE
5
121
100
AcDbEntity
8
0
100
AcDbPolyline
90
8
70
1
43
0.0
10
3.7336131184819283
20
0.89699867148295698
42
0.41421356237309587
10
3.7961131184819283
20
0.83449867148295709
10
3.9055810374772362
20
0.83449867148295687
42
0.41421356237309503
10
3.9680810374772366
20
0.89699867148295698
10
3.9680810374772362
20
1.0229053006661288
42
0.41421356237309503
10
3.9055810374772362
20
1.0854053006661293
10
3.7961131184819283
20
1.0854053006661284
42
0.41421356237309342
10
3.7336131184819292
20
1.0229053006661293
0
LWPOLYLINE
5
122
100
AcDbEntity
8
0
100
AcDbPolyline
90
8
70
1
43
0.0
10
3.0907135823933674
20
0.2065993893942854
42
0.41421356237309503
10
3.190713582393367
20
0.1065993893942854
10
3.6640504137462764
20
0.1065993893942854
42
0.41421356237309503
10
3.7640504137462765
20
0.2065993893942854
10
3.7640504137462765
20
0.54707110214856836
42
0.41421356237309503
10
3.6640504137462764
20
0.64707110214856833
10
3.190713582393367
20
0.64707110214856822
42
0.41421356237309503
10
3.0907135823933674
20
0.54707110214856824
0
LWPOLYLINE
5
123
100
AcDbEntity
8
0
100
AcDbPolyline
90
8
70
1
43
0.0
10
4.3569565490394933
20
1.3580253334793326
42
0.41421356237309503
10
4.4194565490394924
20
1.2955253334793329
10
5.2454564355277435
20
1.2955253334793329
42
0.41421356237309503
10
5.3079564355277435
20
1.3580253334793326
10
5.3079564355277435
20
1.5218295609056709
42
0.41421356237309503
10
5.2454564355277435
20
1.5843295609056707
10
4.4194565490394924
20
1.5843295609056711
42
0.41421356237309503
10
4.3569565490394924
20
1.5218295609056709
0
LWPOLYLINE
5
124
100
AcDbEntity
8
0
100
AcDbPolyline
90
8
70
1
43
0.0
10
5.1734555890858491
20
0.88460417871111519
42
0.41421356237309503
10
5.2359555890858491
20
0.82210417871111552
10
5.3454235080811578
20
0.82210417871111552
42
0.41421356237309503
10
5.4079235080811578
20
0.88460417871111519
10
5.4079235080811578
20
1.010510807894287
42
0.41421356237308848
10
5.3454235080811596
20
1.0730108078942864
10
5.2359555890858491
20
1.0730108078942866
42
0.41421356237309587
10
5.17345558908585
20
1.0105108078942868
0
LWPOLYLINE
5
125
100
AcDbEntity
8
0
100
AcDbPolyline
90
8
70
1
43
0.0
10
0.35497680682156091
20
2.0916043770213668
42
0.41421356237309503
10
0.41747680682156113
20
2.0291043770213668
10
1.0494110818475522
20
2.0291043770213664
42
0.41421356237309503
10
1.1119110818475526
20
2.0916043770213668
10
1.1119110818475526
20
2.21423715341479
42
0.41421356237309503
10
1.0494110818475522
20
2.2767371534147904
10
0.41747680682156113
20
2.2767371534147904
42
0.41421356237309503
10
0.35497680682156091
20
2.21423715341479
0
LWPOLYLINE
5
126
100
AcDbEntity
8
0
100
AcDbPolyline
90
8
70
1
43
0.0
10
0.33780089439262861
20
3.2356642734523766
42
0.41421356237309503
10
0.2753008943926285
20
3.2981642734523766
10
0.15295707343222259
20
3.2981642734523771
42
0.41421356237309503
10
0.090457073432222423
20
3.2356642734523766
10
0.090457073432222396
20
2.4262542831575105
42
0.41421356237309503
10
0.1529570734322227
20
2.3637542831575105
10
0.27530089439262861
20
2.36375428315751
42
0.41421356237309503
10
0.3378008943926285
20
2.4262542831575096
0
LWPOLYLINE
5
127
100
AcDbEntity
8
0
100
AcDbPolyline
90
8
70
1
43
0.0
10
0.88033965720789775
20
3.1297285094198228
42
0.41421356237309503
10
0.94283965720789775
20
3.0672285094198233
10
1.0759319850211333
20
3.0672285094198237
42
0.41421356237309503
10
1.138431985021134
20
3.1297285094198242
10
1.138431985021134
20
3.2523612858132451
42
0.41421356237309503
10
1.0759319850211333
20
3.3148612858132456
10
0.94283965720789775
20
3.3148612858132456
42
0.41421356237309503
10
0.88033965720789764
20
3.2523612858132456
0
LWPOLYLINE
5
128
100
AcDbEntity
8
0
100
AcDbPolyline
90
15
70
1
43
0.0
10
0.89536835004934934
20
0.67516304769928848
10
0.84894400257559477
20
0.67516304769928848
42
0.19666047558973926
10
0.80513457973066371
20
0.65723865167718232
10
0.79214057458042553
20
0.64446799205003968
42
-0.19666047558973909
10
0.74833115173549447
20
0.62654359602793364
10
0.59185513627591047
20
0.62654359602793364
42
-0.41421356237309503
10
0.52935513627591058
20
0.68904359602793352
10
0.52935513627591047
20
0.86642257028589109
42
-0.36426175803717253
10
0.58106550276142666
20
0.92798419639033325
10
0.6977694554666759
20
0.94843838123017166
42
-0.043403057283584338
10
0.70855908898115971
20
0.9493767551257295
10
1.0251231613598009
20
0.94937675512572972
42
-0.41421356237309503
10
1.0876231613598009
20
0.88687675512572972
10
1.0876231613598009
20
0.73766304769928837
42
-0.2408842218632308
10
1.0617055673615265
20
0.68698783116176509
42
-3.3319247080967611
0
LWPOLYLINE
5
129
100
AcDbEntity
8
0
100
AcDbPolyline
90
12
70
1
43
0.0
10
0.86929841212897052
20
1.4531682830120121
42
0.031343022916732147
10
0.86880818324638698
20
1.4609809833112444
42
12.733242497068959
10
0.84559887523079513
20
1.5021659774790372
42
0.16902567583389161
10
0.80679841212897041
20
1.5156682830120118
10
0.70670657254712133
20
1.5156682830120121
42
0.028692969279560759
10
0.69955102284547022
20
1.5152573167334928
10
0.29550332074879931
20
1.4686921949897735
42
0.38099249085509607
10
0.2401588704504504
20
1.4066031612682928
10
0.24015887045045048
20
1.3138502669499021
42
0.4142135623730957
10
0.30265887045045053
20
1.2513502669499024
10
0.80679841212897041
20
1.2513502669499021
42
0.41421356237309587
10
0.86929841212897052
20
1.3138502669499021
0
LWPOLYLINE
5
130
100
AcDbEntity
8
0
100
AcDbPolyline
90
8
70
1
43
0.0
10
3.9451090799357731
20
2.3366157895715718
42
0.41504713214962502
10
4.0077869013370631
20
2.3991155366074537
10
4.0077869013370639
20
2.6514677334228947
42
0.41421356237309503
10
3.9452869013370639
20
2.7139677334228942
10
3.7991187091030767
20
2.7139677334228942
42
0.41421356237309503
10
3.7366187091030776
20
2.6514677334228947
10
3.7366187091030771
20
2.3995314076149343
42
0.41338048363220709
10
3.7989408877017867
20
2.3370316605790529
0
LWPOLYLINE
5
131
100
AcDbEntity
8
0
100
AcDbPolyline
90
8
70
1
43
0.0
10
5.1841558869696023
20
4.4280617724760933
42
0.41504713214961186
10
5.2468337083708905
20
4.490561519511977
10
5.2468337083708905
20
4.6241029029850171
42
0.41421356237309176
10
5.1843337083708914
20
4.6866029029850171
10
5.0788015680400624
20
4.6866029029850163
42
0.41421356237309503
10
5.0163015680400624
20
4.6241029029850171
10
5.0163015680400624
20
4.4908617746964321
42
0.41338048363220709
10
5.0786237466387743
20
4.4283620276605493
0
LWPOLYLINE
5
132
100
AcDbEntity
8
0
100
AcDbPolyline
90
16
70
1
43
0.0
10
4.1212096066656692
20
0.17253076785442895
42
0.41421356237309503
10
4.1837096066656692
20
0.11003076785442883
10
5.5887556982943511
20
0.1100307678544291
42
0.41421356237309503
10
5.6512556982943511
20
0.17253076785442895
10
5.6512556982943511
20
0.28481295098153581
42
0.19020622316052554
10
5.6344076199750006
20
0.32749962392361204
10
5.3751894035267611
20
0.60472454917254614
42
0.087788070032166612
10
5.3577703033067179
20
0.61779769861517109
10
5.2761054556936857
20
0.65914698854581977
42
0.13966329816255527
10
5.2424815471908017
20
0.66565422149941567
10
4.5377549738834837
20
0.60463893376716216
42
0.38913828317248134
10
4.4806460609257783
20
0.54237187842888734
10
4.4806460609257961
20
0.45809639826452458
42
-0.41421356237309503
10
4.4181460609257961
20
0.39559639826452447
10
4.1837096066656692
20
0.3955963982645247
42
0.41421356237309442
10
4.1212096066656692
20
0.33309639826452486
0
CIRCLE
5
133
100
AcDbEntity
8
0
100
AcDbCircle
10
-6.3749992601035697
20
5.1371274775633085
30
-4.3709567898628207e-17
40
0.084749999999999132
210
0
220
0
230
-1
0
CIRCLE
5
134
100
AcDbEntity
8
0
100
AcDbCircle
10
-2.8075467895447184
20
0.34106323398628846
30
-4.3709567898628207e-17
40
0.059842520000000052
210
0
220
0
230
-1
0
CIRCLE
5
135
100
AcDbEntity
8
0
100
AcDbCircle
10
-3.9886491517494429
20
2.0733466985532174
30
-4.3709567898628207e-17
40
0.059842520000000073
210
0
220
0
230
-1
0
CIRCLE
5
136
100
AcDbEntity
8
0
100
AcDbCircle
10
-2.8075467895447184
20
2.0733466985532178
30
-4.3709567898628207e-17
40
0.059842520000000073
210
0
220
0
230
-1
0
CIRCLE
5
137
100
AcDbEntity
8
0
100
AcDbCircle
10
-3.9886491517494429
20
0.34106323398628846
30
-4.3709567898628207e-17
40
0.059842519685038981
210
0
220
0
230
-1
0
CIRCLE
5
138
100
AcDbEntity
8
0
100
AcDbCircle
10
-1.5499995470584511
20
1.7550002338011477
30
-2.1854783949314103e-17
40
0.062499999999999938
210
0
220
0
230
-1
0
CIRCLE
5
139
100
AcDbEntity
8
0
100
AcDbCircle
10
-2.1124995470584498
20
1.5550002338011439
30
0
40
0.15141749999999998
210
0
220
0
230
-1
0
CIRCLE
5
140
100
AcDbEntity
8
0
100
AcDbCircle
10
-1.5499995470584524
20
1.4300002338011417
30
0
40
0.18750000000000017
210
0
220
0
230
-1
0
CIRCLE
5
141
100
AcDbEntity
8
0
100
AcDbCircle
10
-4.8899996152456628
20
3.1875009529646574
30
0
40
0.062499999999999417
210
0
220
0
230
-1
0
CIRCLE
5
142
100
AcDbEntity
8
0
100
AcDbCircle
10
-4.8899996152456628
20
0.95000096184320515
30
0
40
0.24999999999999981
210
0
220
0
230
-1
0
CIRCLE
5
143
100
AcDbEntity
8
0
100
AcDbCircle
10
-3.4499997501996122
20
0.95000096184322236
30
0
40
0.24999999999999981
210
0
220
0
230
-1
0
CIRCLE
5
144
100
AcDbEntity
8
0
100
AcDbCircle
10
-3.4499997501996829
20
2.480000961843186
30
0
40
0.24999999999999986
210
0
220
0
230
-1
0
CIRCLE
5
145
100
AcDbEntity
8
0
100
AcDbCircle
10
-4.8899996152456282
20
2.8125009529646574
30
0
40
0.24999999999999975
210
0
220
0
230
-1
0
CIRCLE
5
146
100
AcDbEntity
8
0
100
AcDbCircle
10
-5.5249992601036517
20
4.5500001095021005
30
0
40
0.24999999999999975
210
0
220
0
230
-1
0
CIRCLE
5
147
100
AcDbEntity
8
0
100
AcDbCircle
10
-0.43749977150827568
20
-0.14999989049786172
30
-4.3709567898628207e-17
40
0.084749999999999548
210
0
220
0
230
-1
0
CIRCLE
5
148
100
AcDbEntity
8
0
100
AcDbCircle
10
-0.7249997058069626
20
0.31250023380187819
30
-4.3709567898628207e-17
40
0.084749999999999548
210
0
220
0
230
-1
0
CIRCLE
5
149
100
AcDbEntity
8
0
100
AcDbCircle
10
-4.0624996649655891
20
0.60000068660808914
30
-4.3709567898628207e-17
40
0.084749999999999687
210
0
220
0
230
-1
0
CIRCLE
5
150
100
AcDbEntity
8
0
100
AcDbCircle
10
-5.6499997945925085
20
1.7500009121233679
30
-4.3709567898628207e-17
40
0.084749999999999132
210
0
220
0
230
-1
0
CIRCLE
5
151
100
AcDbEntity
8
0
100
AcDbCircle
10
-6.249999794592509
20
4.3750009618432477
30
-4.3709567898628207e-17
40
0.084749999999999132
210
0
220
0
230
-1
0
CIRCLE
5
152
100
AcDbEntity
8
0
100
AcDbCircle
10
-0.72499926507557355
20
3.4150002338018779
30
-4.3709567898628207e-17
40
0.084749999999999548
210
0
220
0
230
-1
0
CIRCLE
5
153
100
AcDbEntity
8
0
100
AcDbCircle
10
-2.6249994254379194
20
2.3125001095021376
30
-4.3709567898628207e-17
40
0.084749999999999687
210
0
220
0
230
-1
0
CIRCLE
5
154
100
AcDbEntity
8
0
100
AcDbCircle
10
-0.39999975019973166
20
4.3505049494645585
30
-4.3709567898628207e-17
40
0.084749999999999548
210
0
220
0
230
-1
0
CIRCLE
5
155
100
AcDbEntity
8
0
100
AcDbCircle
10
-5.7499996347783693
20
0.81250092632902526
30
-4.3709567898628207e-17
40
0.084749999999999132
210
0
220
0
230
-1
0
LWPOLYLINE
5
156
100
AcDbEntity
8
0
100
AcDbPolyline
90
8
70
1
43
0.0
10
5.5632783003785296
20
1.3378556328531741
10
5.6932783003785294
20
1.3378556328531741
42
-0.41421356237309503
10
5.7532783003785299
20
1.2778556328531741
10
5.7532783003785299
20
1.0978556328531741
42
-0.41421356237309503
10
5.6932783003785294
20
1.0378556328531741
10
5.5632783003785296
20
1.0378556328531741
42
-0.41421356237309503
10
5.5032783003785299
20
1.0978556328531741
10
5.5032783003785299
20
1.2778556328531741
42
-0.41421356237309503
0
ENDSEC
0
SECTION
2
OBJECTS
0
DICTIONARY
5
C
100
AcDbDictionary
3
ACAD_GROUP
350
D
3
ACAD_MLINESTYLE
350
17
0
DICTIONARY
5
D
100
AcDbDictionary
0
DICTIONARY
5
1A
330
C
100
AcDbDictionary
0
DICTIONARY
5
17
100
AcDbDictionary
0
ENDSEC
0
EOF
