<?xml version="1.0" encoding="utf-8"?>
<!-- Generator: Fusion 360, Shaper Origin Export Add-In, Version 1.6.10  -->
<svg xmlns="http://www.w3.org/2000/svg" xmlns:xlink="http://www.w3.org/1999/xlink" xmlns:shaper="http://www.shapertools.com/namespaces/shaper" shaper:fusionaddin="version:1.6.10" width="14.605cm" height="5.715cm" version="1.1" x="0cm" y="0cm" viewBox="0 0 14.605 5.715" enable-background="new 0 0 14.605 5.715" xml:space="preserve"><path d="M-9.7335857,-2.8575 L-9.7335857,2.8575 4.8714143,2.8575 4.8714143,-2.8575 -9.7335857,-2.8575z" transform="matrix(1,0,0,-1,9.7335857,2.8575)" fill="rgb(0,0,0)" shaper:cutDepth="0.003175" stroke-linecap="round" stroke-linejoin="round" /><path d="M1.0868143,0.4445 a0.6096,0.6096 0 1,1 1.2192,0 a0.6096,0.6096 0 1,1 -1.2192,0z" transform="matrix(1,0,0,-1,9.7335857,2.8575)" fill="rgb(255,255,255)" stroke="rgb(0,0,0)" stroke-width="0.0010cm" stroke-linecap="round" stroke-linejoin="round" shaper:cutDepth="0.003175" /><path d="M-8.4933745,0.4677018 L-8.6275492,0.4677018 A0.15875,0.15875 90 0,1 -8.7862992,0.3089518 L-8.7862992,-0.4667228 A0.15875,0.15875 0 0,0 -8.9450492,-0.6254728 L-9.295373,-0.6254728 A0.15875,0.15875 270 0,0 -9.454123,-0.4667228 L-9.454123,0.5101068 A0.15875,0.15875 180 0,0 -9.295373,0.6688568 L-8.8064918,0.6688568 A0.15875,0.15875 270 0,1 -8.6844582,0.7260717 L-8.6570534,0.7590092 A0.15875,0.15875 140.2386846 0,0 -8.5350198,0.8162242 L-8.4933745,0.8162242 A0.15875,0.15875 90 0,0 -8.3346245,0.6574742 L-8.3346245,0.6264518 A0.15875,0.15875 0 0,0 -8.4933745,0.4677018z" transform="matrix(1,0,0,-1,9.7335857,2.8575)" fill="rgb(255,255,255)" stroke="rgb(0,0,0)" stroke-width="0.0010cm" stroke-linecap="round" stroke-linejoin="round" shaper:cutDepth="0.003175" /><path d="M-5.9542049,1.3194808 A0.15875,0.15875 90 0,1 -6.1129549,1.1607308 L-6.1129549,0.5302679 A0.15875,0.15875 180 0,1 -5.9542049,0.3715179 L-4.3257285,0.3715179 A0.2465804,0.2465804 270 0,1 -4.079148,0.6180983 L-4.079148,1.1607308 A0.15875,0.15875 0 0,1 -4.237898,1.3194808 L-5.9542049,1.3194808z" transform="matrix(1,0,0,-1,9.7335857,2.8575)" fill="rgb(255,255,255)" stroke="rgb(0,0,0)" stroke-width="0.0010cm" stroke-linecap="round" stroke-linejoin="round" shaper:cutDepth="0.003175" /><path d="M-6.8199803,2.3601105 A0.15875,0.15875 90 0,1 -6.9787303,2.2013605 L-6.9787303,1.5693767 A0.15875,0.15875 180 0,1 -6.8199803,1.4106267 L-5.1930248,1.4106267 A0.2481013,0.2481013 270 0,1 -4.9449234,1.658728 L-4.9449234,2.2013605 A0.15875,0.15875 0 0,1 -5.1036734,2.3601105 L-6.8199803,2.3601105z" transform="matrix(1,0,0,-1,9.7335857,2.8575)" fill="rgb(255,255,255)" stroke="rgb(0,0,0)" stroke-width="0.0010cm" stroke-linecap="round" stroke-linejoin="round" shaper:cutDepth="0.003175" /><path d="M3.4408091,0.9164819 A0.15875,0.15875 0 0,1 3.2820591,1.0752319 L2.9580189,1.0752319 A0.15875,0.15875 90 0,1 2.7992689,0.9164819 L2.7992689,0.503143 A0.15875,0.15875 180 0,1 2.9580189,0.344393 L3.2820591,0.344393 A0.15875,0.15875 270 0,1 3.4408091,0.503143 L3.4408091,0.9164819z" transform="matrix(1,0,0,-1,9.7335857,2.8575)" fill="rgb(255,255,255)" stroke="rgb(0,0,0)" stroke-width="0.0010cm" stroke-linecap="round" stroke-linejoin="round" shaper:cutDepth="0.003175" /><path d="M0.5544787,0.1670859 A0.15875,0.15875 270 0,1 0.7132287,0.3258359 L0.7132287,0.8815886 A0.15875,0.15875 0 0,1 0.5544787,1.0403386 L0.2114541,1.0403386 A0.15875,0.15875 90 0,1 0.0527041,0.8815886 L0.0527041,0.3258359 A0.15875,0.15875 180 0,1 0.2114541,0.1670859 L0.5544787,0.1670859z" transform="matrix(1,0,0,-1,9.7335857,2.8575)" fill="rgb(255,255,255)" stroke="rgb(0,0,0)" stroke-width="0.0010cm" stroke-linecap="round" stroke-linejoin="round" shaper:cutDepth="0.003175" /><path d="M-5.5414649,-2.2726907 A0.15875,0.15875 259.6315446 0,1 -5.5128935,-2.275283 L-4.2206868,-2.275283 A0.15875,0.15875 270 0,1 -4.0619368,-2.116533 L-4.0619368,-1.5921737 A0.15875,0.15875 0 0,1 -4.2206868,-1.4334237 L-4.8912951,-1.4334237 A0.15875,0.15875 90 0,1 -4.9418153,-1.441677 L-5.7336571,-1.7074905 A0.15875,0.15875 108.5563942 0,1 -5.8418869,-1.8579872 L-5.8418869,-2.0853843 A0.15875,0.15875 180 0,1 -5.7117083,-2.2415421 L-5.5414649,-2.2726907z" transform="matrix(1,0,0,-1,9.7335857,2.8575)" fill="rgb(255,255,255)" stroke="rgb(0,0,0)" stroke-width="0.0010cm" stroke-linecap="round" stroke-linejoin="round" shaper:cutDepth="0.003175" /><path d="M-4.2719116,-1.1149963 A0.15875,0.15875 270 0,1 -4.1131941,-0.9594613 L-4.1028458,-0.4485879 A0.15875,0.15875 358.8395683 0,1 -4.2583483,-0.2866555 L-5.2779108,-0.2660031 A0.15875,0.15875 88.8395683 0,1 -5.4398432,-0.4215055 L-5.4506099,-0.9530313 A0.15875,0.15875 178.8395683 0,1 -5.2918924,-1.1149963 L-4.2719116,-1.1149963z" transform="matrix(1,0,0,-1,9.7335857,2.8575)" fill="rgb(255,255,255)" stroke="rgb(0,0,0)" stroke-width="0.0010cm" stroke-linecap="round" stroke-linejoin="round" shaper:cutDepth="0.003175" /><path d="M-8.0253868,-0.6481978 L-7.860138,-0.8346277 A0.15875,0.15875 221.5533266 0,1 -7.7413393,-0.8880762 L-6.2446475,-0.8880762 A0.15875,0.15875 90 0,0 -6.0858975,-1.0468262 L-6.0858975,-1.3283103 A0.15875,0.15875 0 0,0 -6.2446475,-1.4870603 L-8.1441856,-1.4870603 A0.15875,0.15875 270 0,0 -8.3029356,-1.3283103 L-8.3029356,-0.7534994 A0.15875,0.15875 180 0,0 -8.0253868,-0.6481978z" transform="matrix(1,0,0,-1,9.7335857,2.8575)" fill="rgb(255,255,255)" stroke="rgb(0,0,0)" stroke-width="0.0010cm" stroke-linecap="round" stroke-linejoin="round" shaper:cutDepth="0.003175" /><path d="M1.852069,1.5087333 L1.852069,1.7647596 A0.15875,0.15875 0 0,1 1.693319,1.9235096 L1.3839875,1.9235096 A0.15875,0.15875 270 0,0 1.2252375,2.0822596 L1.2252375,2.3874717 A0.15875,0.15875 180 0,0 1.3839875,2.5462217 L2.3275309,2.5462217 A0.15875,0.15875 90 0,0 2.4862809,2.3874717 L2.4862809,1.8368751 A0.15875,0.15875 180 0,1 2.6450309,1.6781251 L2.693871,1.6781251 A0.15875,0.15875 90 0,0 2.852621,1.5193751 L2.852621,1.3044543 A0.15875,0.15875 0 0,0 2.693871,1.1457043 L2.2839897,1.1457043 A0.15875,0.15875 270 0,0 2.1889183,1.1773206 L1.9157475,1.3815995 A0.15875,0.15875 233.2106165 0,0 1.852069,1.5087333z" transform="matrix(1,0,0,-1,9.7335857,2.8575)" fill="rgb(255,255,255)" stroke="rgb(0,0,0)" stroke-width="0.0010cm" stroke-linecap="round" stroke-linejoin="round" shaper:cutDepth="0.003175" /><path d="M0.7217468,2.126918 L0.7217468,1.8143283 A0.15875,0.15875 180 0,1 0.8804968,1.6555783 L1.064312,1.6555783 A0.15875,0.15875 90 0,0 1.223062,1.4968283 L1.223062,1.2924011 A0.15875,0.15875 0 0,0 1.064312,1.1336511 L0.6208706,1.1336511 A0.15875,0.15875 270 0,0 0.507854,1.1809165 L-0.1555694,1.8534569 A0.15875,0.15875 224.6090041 0,0 -0.2010887,1.9731832 L-0.1926682,2.1351597 A0.15875,0.15875 177.0240803 0,0 -0.0341323,2.285668 L0.5629968,2.285668 A0.15875,0.15875 90 0,0 0.7217468,2.126918z" transform="matrix(1,0,0,-1,9.7335857,2.8575)" fill="rgb(255,255,255)" stroke="rgb(0,0,0)" stroke-width="0.0010cm" stroke-linecap="round" stroke-linejoin="round" shaper:cutDepth="0.003175" /><path d="M0.2114541,-1.4334237 L0.2114541,-0.8880762 A0.15875,0.15875 0 0,1 0.1746892,-0.7864829 L-0.0353243,-0.5343155 A0.15875,0.15875 219.7886785 0,0 0.0866608,-0.2739722 L0.7441658,-0.2739722 A0.15875,0.15875 90 0,0 0.9029158,-0.4327222 L0.9029158,-0.6925152 A0.15875,0.15875 180 0,1 1.0616658,-0.8512652 L2.3494197,-0.8512652 A0.15875,0.15875 270 0,1 2.5081697,-0.6925152 L2.5081697,-0.287149 A0.15875,0.15875 180 0,0 2.6356028,-0.1315186 L2.6979057,-0.1189817 A0.15875,0.15875 101.3774536 0,0 2.8242524,-0.1474472 L3.1581429,-0.3969624 A0.15875,0.15875 53.2293696 0,0 3.2125276,-0.5777639 L2.8861094,-1.4870603 A0.15875,0.15875 340.2529368 0,0 2.7366949,-1.5921737 L0.3702041,-1.5921737 A0.15875,0.15875 270 0,0 0.2114541,-1.4334237z" transform="matrix(1,0,0,-1,9.7335857,2.8575)" fill="rgb(255,255,255)" stroke="rgb(0,0,0)" stroke-width="0.0010cm" stroke-linecap="round" stroke-linejoin="round" shaper:cutDepth="0.003175" /><path d="M-1.6938507,1.9685 a0.215265,0.215265 0 1,1 0.43053,0 a0.215265,0.215265 0 1,1 -0.43053,0z" transform="matrix(1,0,0,-1,9.7335857,2.8575)" fill="rgb(255,255,255)" stroke="rgb(0,0,0)" stroke-width="0.0010cm" stroke-linecap="round" stroke-linejoin="round" shaper:cutDepth="0.003175" /><path d="M-0.8546494,-1.7918287 a0.215265,0.215265 0 1,1 0.43053,0 a0.215265,0.215265 0 1,1 -0.43053,0z" transform="matrix(1,0,0,-1,9.7335857,2.8575)" fill="rgb(255,255,255)" stroke="rgb(0,0,0)" stroke-width="0.0010cm" stroke-linecap="round" stroke-linejoin="round" shaper:cutDepth="0.003175" /><path d="M3.0686493,-0.0005 a0.215265,0.215265 0 1,1 0.43053,0 a0.215265,0.215265 0 1,1 -0.43053,0z" transform="matrix(1,0,0,-1,9.7335857,2.8575)" fill="rgb(255,255,255)" stroke="rgb(0,0,0)" stroke-width="0.0010cm" stroke-linecap="round" stroke-linejoin="round" shaper:cutDepth="0.003175" /><path d="M0.7611493,1.9685 a0.215265,0.215265 0 1,1 0.43053,0 a0.215265,0.215265 0 1,1 -0.43053,0z" transform="matrix(1,0,0,-1,9.7335857,2.8575)" fill="rgb(255,255,255)" stroke="rgb(0,0,0)" stroke-width="0.0010cm" stroke-linecap="round" stroke-linejoin="round" shaper:cutDepth="0.003175" /><path d="M-2.9073357,0.9525 a0.15875,0.15875 0 1,1 0.3175,0 a0.15875,0.15875 0 1,1 -0.3175,0z" transform="matrix(1,0,0,-1,9.7335857,2.8575)" fill="rgb(255,255,255)" stroke="rgb(0,0,0)" stroke-width="0.0010cm" stroke-linecap="round" stroke-linejoin="round" shaper:cutDepth="0.003175" /><path d="M-3.3835857,-0 a0.635,0.635 0 1,1 1.27,0 a0.635,0.635 0 1,1 -1.27,0z" transform="matrix(1,0,0,-1,9.7335857,2.8575)" fill="rgb(255,255,255)" stroke="rgb(0,0,0)" stroke-width="0.0010cm" stroke-linecap="round" stroke-linejoin="round" shaper:cutDepth="0.003175" /><path d="M-7.8285857,-0 a0.635,0.635 0 1,1 1.27,0 a0.635,0.635 0 1,1 -1.27,0z" transform="matrix(1,0,0,-1,9.7335857,2.8575)" fill="rgb(255,255,255)" stroke="rgb(0,0,0)" stroke-width="0.0010cm" stroke-linecap="round" stroke-linejoin="round" shaper:cutDepth="0.003175" /><path d="M4.1671993,-1.42875 a0.215265,0.215265 0 1,1 0.43053,0 a0.215265,0.215265 0 1,1 -0.43053,0z" transform="matrix(1,0,0,-1,9.7335857,2.8575)" fill="rgb(255,255,255)" stroke="rgb(0,0,0)" stroke-width="0.0010cm" stroke-linecap="round" stroke-linejoin="round" shaper:cutDepth="0.003175" /><path d="M-9.4599007,-1.42875 a0.215265,0.215265 0 1,1 0.43053,0 a0.215265,0.215265 0 1,1 -0.43053,0z" transform="matrix(1,0,0,-1,9.7335857,2.8575)" fill="rgb(255,255,255)" stroke="rgb(0,0,0)" stroke-width="0.0010cm" stroke-linecap="round" stroke-linejoin="round" shaper:cutDepth="0.003175" /><path d="M-9.4599007,1.42875 a0.215265,0.215265 0 1,1 0.43053,0 a0.215265,0.215265 0 1,1 -0.43053,0z" transform="matrix(1,0,0,-1,9.7335857,2.8575)" fill="rgb(255,255,255)" stroke="rgb(0,0,0)" stroke-width="0.0010cm" stroke-linecap="round" stroke-linejoin="round" shaper:cutDepth="0.003175" /><path d="M4.1671993,1.42875 a0.215265,0.215265 0 1,1 0.43053,0 a0.215265,0.215265 0 1,1 -0.43053,0z" transform="matrix(1,0,0,-1,9.7335857,2.8575)" fill="rgb(255,255,255)" stroke="rgb(0,0,0)" stroke-width="0.0010cm" stroke-linecap="round" stroke-linejoin="round" shaper:cutDepth="0.003175" /><path d="M2.7511493,-1.9177 a0.215265,0.215265 0 1,1 0.43053,0 a0.215265,0.215265 0 1,1 -0.43053,0z" transform="matrix(1,0,0,-1,9.7335857,2.8575)" fill="rgb(255,255,255)" stroke="rgb(0,0,0)" stroke-width="0.0010cm" stroke-linecap="round" stroke-linejoin="round" shaper:cutDepth="0.003175" /><path d="M2.7511493,1.9177 a0.215265,0.215265 0 1,1 0.43053,0 a0.215265,0.215265 0 1,1 -0.43053,0z" transform="matrix(1,0,0,-1,9.7335857,2.8575)" fill="rgb(255,255,255)" stroke="rgb(0,0,0)" stroke-width="0.0010cm" stroke-linecap="round" stroke-linejoin="round" shaper:cutDepth="0.003175" /><path d="M-8.0438507,1.9177 a0.215265,0.215265 0 1,1 0.43053,0 a0.215265,0.215265 0 1,1 -0.43053,0z" transform="matrix(1,0,0,-1,9.7335857,2.8575)" fill="rgb(255,255,255)" stroke="rgb(0,0,0)" stroke-width="0.0010cm" stroke-linecap="round" stroke-linejoin="round" shaper:cutDepth="0.003175" /><path d="M-8.0438507,-1.9177 a0.215265,0.215265 0 1,1 0.43053,0 a0.215265,0.215265 0 1,1 -0.43053,0z" transform="matrix(1,0,0,-1,9.7335857,2.8575)" fill="rgb(255,255,255)" stroke="rgb(0,0,0)" stroke-width="0.0010cm" stroke-linecap="round" stroke-linejoin="round" shaper:cutDepth="0.003175" /></svg>