<?xml version="1.0" encoding="utf-8"?>
<!-- Generator: Fusion 360, Shaper Origin Export Add-In, Version 1.6.10  -->
<svg xmlns="http://www.w3.org/2000/svg" xmlns:xlink="http://www.w3.org/1999/xlink" xmlns:shaper="http://www.shapertools.com/namespaces/shaper" shaper:fusionaddin="version:1.6.10" width="8.83285cm" height="10.0359196cm" version="1.1" x="0cm" y="0cm" viewBox="0 0 8.83285 10.0359196" enable-background="new 0 0 8.83285 10.0359196" xml:space="preserve"><path d="M0.8381268,0.7141843 A0.635,0.635 145.7063189 0,0 1.3627387,0.9914032 L1.9200219,0.9914032 A0.635,0.635 270 0,1 2.5550219,1.6264032 L2.5550219,1.8959428 A0.635,0.635 180 0,0 2.9264504,2.4736582 A5.08,5.08 114.523921 0,0 4.5345409,2.9072211 A0.47625,0.47625 275.6539451 0,1 4.6187551,3.8389946 A0.635,0.635 254.0172634 0,0 4.3445881,4.0004356 L3.7211079,4.6239159 A0.635,0.635 45 0,1 3.2720951,4.8099031 L-2.1772037,4.8099031 A0.635,0.635 90 0,1 -2.6262165,4.6239159 L-3.2496983,4.0004341 A0.635,0.635 315 0,0 -3.5238643,3.8389933 A0.47625,0.47625 105.9828292 0,1 -3.7536764,3.0704584 A2.54,2.54 40.7210796 0,0 -3.1387281,1.4134201 L-3.1387281,-3.6521429 A0.635,0.635 180 0,1 -2.6629804,-4.2668491 L1.0001946,-5.2158697 A0.3175,0.3175 255.4756792 0,1 1.3594148,-4.7580725 L0.3151103,-2.8172749 A2.54,2.54 208.2838096 0,0 0.068704,-1.0793805 A5.08,5.08 167.8559053 0,0 0.8381268,0.7141843z" transform="matrix(1,0,0,-1,3.8689792,4.8099031)" fill="rgb(0,0,0)" shaper:cutDepth="0.003175" stroke-linecap="round" stroke-linejoin="round" /><path d="M0.9288208,-4.9085165 a0.151,0.151 0 1,1 0.302,0 a0.151,0.151 0 1,1 -0.302,0z" transform="matrix(1,0,0,-1,3.8689792,4.8099031)" fill="rgb(255,255,255)" stroke="rgb(0,0,0)" stroke-width="0.0010cm" stroke-linecap="round" stroke-linejoin="round" shaper:cutDepth="0.003175" /><path d="M-2.8224781,3.8089032 a0.16,0.16 0 1,1 0.32,0 a0.16,0.16 0 1,1 -0.32,0z" transform="matrix(1,0,0,-1,3.8689792,4.8099031)" fill="rgb(255,255,255)" stroke="rgb(0,0,0)" stroke-width="0.0010cm" stroke-linecap="round" stroke-linejoin="round" shaper:cutDepth="0.003175" /><path d="M-2.8224781,1.5089032 a0.16,0.16 0 1,1 0.32,0 a0.16,0.16 0 1,1 -0.32,0z" transform="matrix(1,0,0,-1,3.8689792,4.8099031)" fill="rgb(255,255,255)" stroke="rgb(0,0,0)" stroke-width="0.0010cm" stroke-linecap="round" stroke-linejoin="round" shaper:cutDepth="0.003175" /><path d="M1.8775219,3.8089032 a0.16,0.16 0 1,1 0.32,0 a0.16,0.16 0 1,1 -0.32,0z" transform="matrix(1,0,0,-1,3.8689792,4.8099031)" fill="rgb(255,255,255)" stroke="rgb(0,0,0)" stroke-width="0.0010cm" stroke-linecap="round" stroke-linejoin="round" shaper:cutDepth="0.003175" /><path d="M2.0375219,3.4914032 L2.0375219,1.8264032 A0.3175,0.3175 90 0,1 1.7200219,1.5089032 L-2.3449781,1.5089032 A0.3175,0.3175 0 0,1 -2.6624781,1.8264032 L-2.6624781,3.4914032 A0.3175,0.3175 270 0,1 -2.3449781,3.8089032 L1.7200219,3.8089032 A0.3175,0.3175 180 0,1 2.0375219,3.4914032z" transform="matrix(1,0,0,-1,3.8689792,4.8099031)" fill="rgb(255,255,255)" stroke="rgb(0,0,0)" stroke-width="0.0010cm" stroke-linecap="round" stroke-linejoin="round" shaper:cutDepth="0.003175" /><path d="M1.8775219,1.5089032 a0.16,0.16 0 1,1 0.32,0 a0.16,0.16 0 1,1 -0.32,0z" transform="matrix(1,0,0,-1,3.8689792,4.8099031)" fill="rgb(255,255,255)" stroke="rgb(0,0,0)" stroke-width="0.0010cm" stroke-linecap="round" stroke-linejoin="round" shaper:cutDepth="0.003175" /><path d="M-3.5767522,3.3811531 a0.184023,0.184023 0 1,1 0.368046,0 a0.184023,0.184023 0 1,1 -0.368046,0z" transform="matrix(1,0,0,-1,3.8689792,4.8099031)" fill="rgb(255,255,255)" stroke="rgb(0,0,0)" stroke-width="0.0010cm" stroke-linecap="round" stroke-linejoin="round" shaper:cutDepth="0.003175" /><path d="M-2.8224781,0.8739032 a0.16,0.16 0 1,1 0.32,0 a0.16,0.16 0 1,1 -0.32,0z" transform="matrix(1,0,0,-1,3.8689792,4.8099031)" fill="rgb(255,255,255)" stroke="rgb(0,0,0)" stroke-width="0.0010cm" stroke-linecap="round" stroke-linejoin="round" shaper:cutDepth="0.003175" /><path d="M-2.8224781,-3.8260968 a0.16,0.16 0 1,1 0.32,0 a0.16,0.16 0 1,1 -0.32,0z" transform="matrix(1,0,0,-1,3.8689792,4.8099031)" fill="rgb(255,255,255)" stroke="rgb(0,0,0)" stroke-width="0.0010cm" stroke-linecap="round" stroke-linejoin="round" shaper:cutDepth="0.003175" /><path d="M-0.5224781,-3.8260968 a0.16,0.16 0 1,1 0.32,0 a0.16,0.16 0 1,1 -0.32,0z" transform="matrix(1,0,0,-1,3.8689792,4.8099031)" fill="rgb(255,255,255)" stroke="rgb(0,0,0)" stroke-width="0.0010cm" stroke-linecap="round" stroke-linejoin="round" shaper:cutDepth="0.003175" /><path d="M-0.5224781,0.8739032 a0.16,0.16 0 1,1 0.32,0 a0.16,0.16 0 1,1 -0.32,0z" transform="matrix(1,0,0,-1,3.8689792,4.8099031)" fill="rgb(255,255,255)" stroke="rgb(0,0,0)" stroke-width="0.0010cm" stroke-linecap="round" stroke-linejoin="round" shaper:cutDepth="0.003175" /><path d="M-2.6624781,0.4248903 A0.15875,0.15875 180 0,0 -2.5566448,0.5745613 A0.3175,0.3175 289.4712206 0,1 -2.3631363,0.7680698 A0.15875,0.15875 160.5287794 0,0 -2.2134653,0.8739032 L-0.8114909,0.8739032 A0.15875,0.15875 90 0,0 -0.66182,0.7680698 A0.3175,0.3175 199.4712206 0,1 -0.4683115,0.5745613 A0.15875,0.15875 70.5287794 0,0 -0.3624781,0.4248903 L-0.3624781,-3.377084 A0.15875,0.15875 0 0,0 -0.4683115,-3.526755 A0.3175,0.3175 109.4712206 0,1 -0.66182,-3.7202635 A0.15875,0.15875 340.5287794 0,0 -0.8114909,-3.8260968 L-2.2134653,-3.8260968 A0.15875,0.15875 270 0,0 -2.3631363,-3.7202635 A0.3175,0.3175 19.4712206 0,1 -2.5566448,-3.526755 A0.15875,0.15875 250.5287794 0,0 -2.6624781,-3.377084 L-2.6624781,0.4248903z" transform="matrix(1,0,0,-1,3.8689792,4.8099031)" fill="rgb(255,255,255)" stroke="rgb(0,0,0)" stroke-width="0.0010cm" stroke-linecap="round" stroke-linejoin="round" shaper:cutDepth="0.003175" /><path d="M4.3035978,3.3811542 a0.184023,0.184023 0 1,1 0.368046,0 a0.184023,0.184023 0 1,1 -0.368046,0z" transform="matrix(1,0,0,-1,3.8689792,4.8099031)" fill="rgb(255,255,255)" stroke="rgb(0,0,0)" stroke-width="0.0010cm" stroke-linecap="round" stroke-linejoin="round" shaper:cutDepth="0.003175" /></svg>