<?xml version="1.0" encoding="utf-8"?>
<!-- Generator: Fusion 360, Shaper Origin Export Add-In, Version 1.6.10  -->
<svg xmlns="http://www.w3.org/2000/svg" xmlns:xlink="http://www.w3.org/1999/xlink" xmlns:shaper="http://www.shapertools.com/namespaces/shaper" shaper:fusionaddin="version:1.6.10" width="6.0748211cm" height="4.6295691cm" version="1.1" x="0cm" y="0cm" viewBox="0 0 6.0748211 4.6295691" enable-background="new 0 0 6.0748211 4.6295691" xml:space="preserve"><path d="M-2.9150975,-3.8840038 A0.3668681,0.3668681 276.0455072 0,0 -3.3032033,-3.4075319 L-2.5802338,-1.144495 -2.5633078,0.3807279 A0.3668681,0.3668681 179.3641924 0,0 -2.1264605,0.7367846 L1.7693724,-0.0204886 A0.3668681,0.3668681 79 0,0 1.9822143,-0.1469677 L2.6815,-0.9934887 A0.3175,0.3175 39.5590925 0,0 2.7542176,-1.1956961 L2.7542176,-3.4956961 A0.3175,0.3175 0 0,0 2.4367176,-3.8131961 L-2.2465165,-3.8131961 -2.9150975,-3.8840038z" transform="matrix(1,0,0,-1,3.3206035,0.743525)" fill="rgb(0,0,0)" shaper:cutDepth="0.003175" stroke-linecap="round" stroke-linejoin="round" /><path d="M2.1192176,-1.3098752 L2.1192176,-3.1781961 -2.2800483,-3.1781961 -2.5732406,-3.2092474 -1.946331,-1.2468973 -1.9319157,0.0520838 1.5538614,-0.6254826 2.1192176,-1.3098752z" transform="matrix(1,0,0,-1,3.3206035,0.743525)" fill="rgb(255,255,255)" stroke="rgb(0,0,0)" stroke-width="0.0010cm" stroke-linecap="round" stroke-linejoin="round" shaper:cutDepth="0.003175" /><path d="M-2.3691822,0.3766569 a0.17272,0.17272 0 1,1 0.34544,0 a0.17272,0.17272 0 1,1 -0.34544,0z" transform="matrix(1,0,0,-1,3.3206035,0.743525)" fill="rgb(255,255,255)" stroke="rgb(0,0,0)" stroke-width="0.0010cm" stroke-linecap="round" stroke-linejoin="round" shaper:cutDepth="0.003175" /><path d="M-3.1264554,-3.519176 a0.17272,0.17272 0 1,1 0.34544,0 a0.17272,0.17272 0 1,1 -0.34544,0z" transform="matrix(1,0,0,-1,3.3206035,0.743525)" fill="rgb(255,255,255)" stroke="rgb(0,0,0)" stroke-width="0.0010cm" stroke-linecap="round" stroke-linejoin="round" shaper:cutDepth="0.003175" /><path d="M-2.4232824,-3.4956961 a0.16,0.16 0 1,1 0.32,0 a0.16,0.16 0 1,1 -0.32,0z" transform="matrix(1,0,0,-1,3.3206035,0.743525)" fill="rgb(255,255,255)" stroke="rgb(0,0,0)" stroke-width="0.0010cm" stroke-linecap="round" stroke-linejoin="round" shaper:cutDepth="0.003175" /><path d="M-2.4232824,-1.1956961 a0.16,0.16 0 1,1 0.32,0 a0.16,0.16 0 1,1 -0.32,0z" transform="matrix(1,0,0,-1,3.3206035,0.743525)" fill="rgb(255,255,255)" stroke="rgb(0,0,0)" stroke-width="0.0010cm" stroke-linecap="round" stroke-linejoin="round" shaper:cutDepth="0.003175" /><path d="M2.2767176,-1.1956961 a0.16,0.16 0 1,1 0.32,0 a0.16,0.16 0 1,1 -0.32,0z" transform="matrix(1,0,0,-1,3.3206035,0.743525)" fill="rgb(255,255,255)" stroke="rgb(0,0,0)" stroke-width="0.0010cm" stroke-linecap="round" stroke-linejoin="round" shaper:cutDepth="0.003175" /><path d="M2.2767176,-3.4956961 a0.16,0.16 0 1,1 0.32,0 a0.16,0.16 0 1,1 -0.32,0z" transform="matrix(1,0,0,-1,3.3206035,0.743525)" fill="rgb(255,255,255)" stroke="rgb(0,0,0)" stroke-width="0.0010cm" stroke-linecap="round" stroke-linejoin="round" shaper:cutDepth="0.003175" /><path d="M1.5266506,-0.3806163 a0.17272,0.17272 0 1,1 0.34544,0 a0.17272,0.17272 0 1,1 -0.34544,0z" transform="matrix(1,0,0,-1,3.3206035,0.743525)" fill="rgb(255,255,255)" stroke="rgb(0,0,0)" stroke-width="0.0010cm" stroke-linecap="round" stroke-linejoin="round" shaper:cutDepth="0.003175" /></svg>