<?xml version="1.0" encoding="utf-8"?>
<!-- Generator: Fusion 360, Shaper Origin Export Add-In, Version 1.6.10  -->
<svg xmlns="http://www.w3.org/2000/svg" xmlns:xlink="http://www.w3.org/1999/xlink" xmlns:shaper="http://www.shapertools.com/namespaces/shaper" shaper:fusionaddin="version:1.6.10" width="8.255cm" height="6.223cm" version="1.1" x="0cm" y="0cm" viewBox="0 0 8.255 6.223" enable-background="new 0 0 8.255 6.223" xml:space="preserve"><path d="M-0.6652516,0.15875 L2.803107,0.15875 A0.3175,0.3175 90 0,0 3.0969357,-0.0384549 L4.1024357,-2.4944549 A0.3175,0.3175 22.2644644 0,0 3.808607,-2.93225 L-3.8114041,-2.93225 A0.3175,0.3175 269.9980074 0,0 -3.9066938,-2.3118903 A1.27,1.27 287.4672133 0,1 -3.017897,-1.1004514 L-3.017897,2.97325 A0.3175,0.3175 180 0,0 -2.3928563,3.0521485 L-1.8954143,1.1131559 A1.27,1.27 194.3887252 0,1 -0.6652516,0.15875z" transform="matrix(1,0,0,-1,4.128893,3.29075)" fill="rgb(0,0,0)" shaper:cutDepth="0.003175" stroke-linecap="round" stroke-linejoin="round" /><path d="M2.2531809,-0.15875 A0.3175,0.3175 90 0,0 2.5281439,-0.3175 A0.3175,0.3175 210 0,1 2.644357,-0.4337131 A0.3175,0.3175 60 0,0 2.803107,-0.7086761 L2.803107,-1.9088239 A0.3175,0.3175 0 0,0 2.644357,-2.1837869 A0.3175,0.3175 120 0,1 2.5281439,-2.3 A0.3175,0.3175 330 0,0 2.2531809,-2.45875 L-1.3469669,-2.45875 A0.3175,0.3175 270 0,0 -1.62193,-2.3 A0.3175,0.3175 30 0,1 -1.738143,-2.1837869 A0.3175,0.3175 240 0,0 -1.896893,-1.9088239 L-1.896893,-0.7086761 A0.3175,0.3175 180 0,0 -1.738143,-0.4337131 A0.3175,0.3175 300 0,1 -1.62193,-0.3175 A0.3175,0.3175 150 0,0 -1.3469669,-0.15875 L2.2531809,-0.15875z" transform="matrix(1,0,0,-1,4.128893,3.29075)" fill="rgb(255,255,255)" stroke="rgb(0,0,0)" stroke-width="0.0010cm" stroke-linecap="round" stroke-linejoin="round" shaper:cutDepth="0.003175" /><path d="M-2.056893,-2.45875 a0.16,0.16 0 1,1 0.32,0 a0.16,0.16 0 1,1 -0.32,0z" transform="matrix(1,0,0,-1,4.128893,3.29075)" fill="rgb(255,255,255)" stroke="rgb(0,0,0)" stroke-width="0.0010cm" stroke-linecap="round" stroke-linejoin="round" shaper:cutDepth="0.003175" /><path d="M-2.056893,-0.15875 a0.16,0.16 0 1,1 0.32,0 a0.16,0.16 0 1,1 -0.32,0z" transform="matrix(1,0,0,-1,4.128893,3.29075)" fill="rgb(255,255,255)" stroke="rgb(0,0,0)" stroke-width="0.0010cm" stroke-linecap="round" stroke-linejoin="round" shaper:cutDepth="0.003175" /><path d="M2.643107,-0.15875 a0.16,0.16 0 1,1 0.32,0 a0.16,0.16 0 1,1 -0.32,0z" transform="matrix(1,0,0,-1,4.128893,3.29075)" fill="rgb(255,255,255)" stroke="rgb(0,0,0)" stroke-width="0.0010cm" stroke-linecap="round" stroke-linejoin="round" shaper:cutDepth="0.003175" /><path d="M2.643107,-2.45875 a0.16,0.16 0 1,1 0.32,0 a0.16,0.16 0 1,1 -0.32,0z" transform="matrix(1,0,0,-1,4.128893,3.29075)" fill="rgb(255,255,255)" stroke="rgb(0,0,0)" stroke-width="0.0010cm" stroke-linecap="round" stroke-linejoin="round" shaper:cutDepth="0.003175" /><path d="M3.638173,-2.61475 a0.170434,0.170434 0 1,1 0.340868,0 a0.170434,0.170434 0 1,1 -0.340868,0z" transform="matrix(1,0,0,-1,4.128893,3.29075)" fill="rgb(255,255,255)" stroke="rgb(0,0,0)" stroke-width="0.0010cm" stroke-linecap="round" stroke-linejoin="round" shaper:cutDepth="0.003175" /><path d="M-2.870831,2.97325 a0.170434,0.170434 0 1,1 0.340868,0 a0.170434,0.170434 0 1,1 -0.340868,0z" transform="matrix(1,0,0,-1,4.128893,3.29075)" fill="rgb(255,255,255)" stroke="rgb(0,0,0)" stroke-width="0.0010cm" stroke-linecap="round" stroke-linejoin="round" shaper:cutDepth="0.003175" /><path d="M-3.995416,-2.61475 a0.184023,0.184023 0 1,1 0.368046,0 a0.184023,0.184023 0 1,1 -0.368046,0z" transform="matrix(1,0,0,-1,4.128893,3.29075)" fill="rgb(255,255,255)" stroke="rgb(0,0,0)" stroke-width="0.0010cm" stroke-linecap="round" stroke-linejoin="round" shaper:cutDepth="0.003175" /></svg>