<?xml version="1.0" encoding="utf-8"?>
<!-- Generator: Fusion 360, Shaper Origin Export Add-In, Version 1.6.10  -->
<svg xmlns="http://www.w3.org/2000/svg" xmlns:xlink="http://www.w3.org/1999/xlink" xmlns:shaper="http://www.shapertools.com/namespaces/shaper" shaper:fusionaddin="version:1.6.10" width="16.51cm" height="5.941181cm" version="1.1" x="0cm" y="0cm" viewBox="0 0 16.51 5.941181" enable-background="new 0 0 16.51 5.941181" xml:space="preserve"><path d="M-7.62,0.4266595 A0.47625,0.47625 0 0,0 -8.09625,-0.0495905 L-8.255,-0.0495905 -8.255,-2.9705905 8.255,-2.9705905 8.255,-0.9068405 6.0325,-0.9068405 A0.9525,0.9525 270 0,0 5.08,0.0456595 L5.08,2.4142095 -7.62,2.9705905 -7.62,0.4266595z" transform="matrix(1,0,0,-1,8.255,2.9705905)" fill="rgb(0,0,0)" shaper:cutDepth="0.003175" stroke-linecap="round" stroke-linejoin="round" /><path d="M2.5616804,-1.6299381 L2.5616804,-2.2377527 A0.15875,0.15875 180 0,1 2.7204304,-2.3965027 L4.3265918,-2.3965027 A0.15875,0.15875 270 0,1 4.4853418,-2.2377527 L4.4853418,-1.6299381 A0.15875,0.15875 0 0,1 4.3265918,-1.4711881 L2.7204304,-1.4711881 A0.15875,0.15875 90 0,1 2.5616804,-1.6299381z" transform="matrix(1,0,0,-1,8.255,2.9705905)" fill="rgb(255,255,255)" stroke="rgb(0,0,0)" stroke-width="0.0010cm" stroke-linecap="round" stroke-linejoin="round" shaper:cutDepth="0.003175" /><path d="M4.1981877,-0.7688766 L4.1981877,-1.0553123 A0.15875,0.15875 180 0,1 4.3569377,-1.2140623 L4.4540518,-1.2140623 A0.15875,0.15875 270 0,1 4.6128018,-1.0553123 L4.6128018,-0.7688766 A0.15875,0.15875 0 0,1 4.4540518,-0.6101266 L4.3569377,-0.6101266 A0.15875,0.15875 90 0,1 4.1981877,-0.7688766z" transform="matrix(1,0,0,-1,8.255,2.9705905)" fill="rgb(255,255,255)" stroke="rgb(0,0,0)" stroke-width="0.0010cm" stroke-linecap="round" stroke-linejoin="round" shaper:cutDepth="0.003175" /><path d="M-4.522581,0.6455811 L-4.522581,0.9091093 A0.15875,0.15875 0 0,1 -4.681331,1.0678593 L-5.0784835,1.0678593 A0.15875,0.15875 270 0,0 -5.121427,1.0737779 L-5.5346818,1.1898967 A0.15875,0.15875 74.3053865 0,1 -5.5776253,1.1958153 L-5.987744,1.1958153 A0.15875,0.15875 90 0,1 -6.146494,1.0370653 L-6.146494,0.5709989 A0.15875,0.15875 180 0,1 -5.987744,0.4122489 L-5.5686596,0.4122489 A0.15875,0.15875 270 0,1 -5.5430015,0.4143362 L-5.1131073,0.4847439 A0.15875,0.15875 99.3012778 0,0 -5.0874492,0.4868311 L-4.681331,0.4868311 A0.15875,0.15875 270 0,1 -4.522581,0.6455811z" transform="matrix(1,0,0,-1,8.255,2.9705905)" fill="rgb(255,255,255)" stroke="rgb(0,0,0)" stroke-width="0.0010cm" stroke-linecap="round" stroke-linejoin="round" shaper:cutDepth="0.003175" /><path d="M-3.6360418,-2.6253414 L-2.9121917,-2.6253414 A0.15875,0.15875 270 0,1 -2.7534417,-2.4665914 L-2.7534417,1.6725686 A0.15875,0.15875 0 0,1 -2.9121917,1.8313186 L-3.4255054,1.8313186 A0.15875,0.15875 90 0,1 -3.5454427,1.7765715 L-4.1870748,1.0366346 A0.15875,0.15875 139.0699911 0,1 -4.2258875,0.9326317 L-4.2258875,-1.9311508 A0.15875,0.15875 180 0,1 -4.1907908,-2.030707 L-3.7596951,-2.5661476 A0.15875,0.15875 218.8383487 0,1 -3.6360418,-2.6253414z" transform="matrix(1,0,0,-1,8.255,2.9705905)" fill="rgb(255,255,255)" stroke="rgb(0,0,0)" stroke-width="0.0010cm" stroke-linecap="round" stroke-linejoin="round" shaper:cutDepth="0.003175" /><path d="M-6.1978092,0.1288111 L-6.5122556,0.1288111 A0.15875,0.15875 90 0,1 -6.6710056,-0.0299389 L-6.6710056,-0.6082393 A0.15875,0.15875 180 0,1 -6.5122556,-0.7669893 L-6.1978092,-0.7669893 A0.15875,0.15875 270 0,1 -6.0390592,-0.6082393 L-6.0390592,-0.0299389 A0.15875,0.15875 0 0,1 -6.1978092,0.1288111z" transform="matrix(1,0,0,-1,8.255,2.9705905)" fill="rgb(255,255,255)" stroke="rgb(0,0,0)" stroke-width="0.0010cm" stroke-linecap="round" stroke-linejoin="round" shaper:cutDepth="0.003175" /><path d="M-5.6597043,-1.6769498 L-5.1105264,-1.6798451 A0.15875,0.15875 269.6979386 0,1 -4.9509395,-1.5210973 L-4.9509395,-1.1641199 A0.15875,0.15875 0 0,1 -5.1096895,-1.0053699 L-5.6588674,-1.0053699 A0.15875,0.15875 90 0,1 -5.8176174,-1.1641199 L-5.8176174,-1.518202 A0.15875,0.15875 180 0,1 -5.6597043,-1.6769498z" transform="matrix(1,0,0,-1,8.255,2.9705905)" fill="rgb(255,255,255)" stroke="rgb(0,0,0)" stroke-width="0.0010cm" stroke-linecap="round" stroke-linejoin="round" shaper:cutDepth="0.003175" /><path d="M1.9057426,0.6455811 L1.5775946,0.6455811 A0.15875,0.15875 90 0,1 1.4188446,0.4868311 L1.4188446,-0.1380402 A0.15875,0.15875 180 0,1 1.5775946,-0.2967902 L1.9057426,-0.2967902 A0.15875,0.15875 270 0,1 2.0644926,-0.1380402 L2.0644926,0.4868311 A0.15875,0.15875 0 0,1 1.9057426,0.6455811z" transform="matrix(1,0,0,-1,8.255,2.9705905)" fill="rgb(255,255,255)" stroke="rgb(0,0,0)" stroke-width="0.0010cm" stroke-linecap="round" stroke-linejoin="round" shaper:cutDepth="0.003175" /><path d="M1.5674999,1.0374852 L1.9235562,1.0374852 A0.15875,0.15875 270 0,1 2.0823062,1.1962352 L2.0823062,1.4646902 A0.15875,0.15875 0 0,1 1.9235562,1.6234402 L1.5674999,1.6234402 A0.15875,0.15875 90 0,1 1.4087499,1.4646902 L1.4087499,1.1962352 A0.15875,0.15875 180 0,1 1.5674999,1.0374852z" transform="matrix(1,0,0,-1,8.255,2.9705905)" fill="rgb(255,255,255)" stroke="rgb(0,0,0)" stroke-width="0.0010cm" stroke-linecap="round" stroke-linejoin="round" shaper:cutDepth="0.003175" /><path d="M-0.3378222,1.1962352 L-0.9262277,1.1962352 A0.15875,0.15875 90 0,1 -1.0849777,1.0374852 L-1.0849777,0.6869173 A0.15875,0.15875 180 0,1 -0.9262277,0.5281673 L-0.3378222,0.5281673 A0.15875,0.15875 270 0,1 -0.1790722,0.6869173 L-0.1790722,1.0374852 A0.15875,0.15875 0 0,1 -0.3378222,1.1962352z" transform="matrix(1,0,0,-1,8.255,2.9705905)" fill="rgb(255,255,255)" stroke="rgb(0,0,0)" stroke-width="0.0010cm" stroke-linecap="round" stroke-linejoin="round" shaper:cutDepth="0.003175" /><path d="M1.5775946,-2.5597363 L1.8444644,-2.5597363 A0.15875,0.15875 270 0,1 2.0032144,-2.4009863 L2.0032144,-1.2111503 A0.15875,0.15875 0 0,1 1.8444644,-1.0524003 L1.5775946,-1.0524003 A0.15875,0.15875 90 0,1 1.4188446,-1.2111503 L1.4188446,-2.4009863 A0.15875,0.15875 180 0,1 1.5775946,-2.5597363z" transform="matrix(1,0,0,-1,8.255,2.9705905)" fill="rgb(255,255,255)" stroke="rgb(0,0,0)" stroke-width="0.0010cm" stroke-linecap="round" stroke-linejoin="round" shaper:cutDepth="0.003175" /><path d="M2.5808274,-1.2677391 L2.8948858,-1.2677391 A0.15875,0.15875 270 0,1 3.0536358,-1.1089891 L3.0536358,0.1041845 A0.15875,0.15875 0 0,1 2.8948858,0.2629345 L2.5808274,0.2629345 A0.15875,0.15875 90 0,1 2.4220774,0.1041845 L2.4220774,-1.1089891 A0.15875,0.15875 180 0,1 2.5808274,-1.2677391z" transform="matrix(1,0,0,-1,8.255,2.9705905)" fill="rgb(255,255,255)" stroke="rgb(0,0,0)" stroke-width="0.0010cm" stroke-linecap="round" stroke-linejoin="round" shaper:cutDepth="0.003175" /><path d="M0,0.8394095 a0.635,0.635 0 1,1 1.27,0 a0.635,0.635 0 1,1 -1.27,0z" transform="matrix(1,0,0,-1,8.255,2.9705905)" fill="rgb(255,255,255)" stroke="rgb(0,0,0)" stroke-width="0.0010cm" stroke-linecap="round" stroke-linejoin="round" shaper:cutDepth="0.003175" /><path d="M-5.87375,-0.2718405 a0.635,0.635 0 1,1 1.27,0 a0.635,0.635 0 1,1 -1.27,0z" transform="matrix(1,0,0,-1,8.255,2.9705905)" fill="rgb(255,255,255)" stroke="rgb(0,0,0)" stroke-width="0.0010cm" stroke-linecap="round" stroke-linejoin="round" shaper:cutDepth="0.003175" /><path d="M0.0396875,-1.8021905 a0.5953125,0.5953125 0 1,1 1.190625,0 a0.5953125,0.5953125 0 1,1 -1.190625,0z" transform="matrix(1,0,0,-1,8.255,2.9705905)" fill="rgb(255,255,255)" stroke="rgb(0,0,0)" stroke-width="0.0010cm" stroke-linecap="round" stroke-linejoin="round" shaper:cutDepth="0.003175" /><path d="M1.4088999,0.8394095 a0.1786001,0.1786001 0 1,1 0.3572002,0 a0.1786001,0.1786001 0 1,1 -0.3572002,0z" transform="matrix(1,0,0,-1,8.255,2.9705905)" fill="rgb(255,255,255)" stroke="rgb(0,0,0)" stroke-width="0.0010cm" stroke-linecap="round" stroke-linejoin="round" shaper:cutDepth="0.003175" /><path d="M-4.761865,1.3474095 a0.215265,0.215265 0 1,1 0.43053,0 a0.215265,0.215265 0 1,1 -0.43053,0z" transform="matrix(1,0,0,-1,8.255,2.9705905)" fill="rgb(255,255,255)" stroke="rgb(0,0,0)" stroke-width="0.0010cm" stroke-linecap="round" stroke-linejoin="round" shaper:cutDepth="0.003175" /><path d="M3.594735,-0.9385905 a0.215265,0.215265 0 1,1 0.43053,0 a0.215265,0.215265 0 1,1 -0.43053,0z" transform="matrix(1,0,0,-1,8.255,2.9705905)" fill="rgb(255,255,255)" stroke="rgb(0,0,0)" stroke-width="0.0010cm" stroke-linecap="round" stroke-linejoin="round" shaper:cutDepth="0.003175" /><path d="M4.388485,1.7919095 a0.215265,0.215265 0 1,1 0.43053,0 a0.215265,0.215265 0 1,1 -0.43053,0z" transform="matrix(1,0,0,-1,8.255,2.9705905)" fill="rgb(255,255,255)" stroke="rgb(0,0,0)" stroke-width="0.0010cm" stroke-linecap="round" stroke-linejoin="round" shaper:cutDepth="0.003175" /><path d="M6.515735,-2.3355905 a0.215265,0.215265 0 1,1 0.43053,0 a0.215265,0.215265 0 1,1 -0.43053,0z" transform="matrix(1,0,0,-1,8.255,2.9705905)" fill="rgb(255,255,255)" stroke="rgb(0,0,0)" stroke-width="0.0010cm" stroke-linecap="round" stroke-linejoin="round" shaper:cutDepth="0.003175" /><path d="M-6.819265,2.0840095 a0.215265,0.215265 0 1,1 0.43053,0 a0.215265,0.215265 0 1,1 -0.43053,0z" transform="matrix(1,0,0,-1,8.255,2.9705905)" fill="rgb(255,255,255)" stroke="rgb(0,0,0)" stroke-width="0.0010cm" stroke-linecap="round" stroke-linejoin="round" shaper:cutDepth="0.003175" /><path d="M-6.819265,-2.3355905 a0.215265,0.215265 0 1,1 0.43053,0 a0.215265,0.215265 0 1,1 -0.43053,0z" transform="matrix(1,0,0,-1,8.255,2.9705905)" fill="rgb(255,255,255)" stroke="rgb(0,0,0)" stroke-width="0.0010cm" stroke-linecap="round" stroke-linejoin="round" shaper:cutDepth="0.003175" /></svg>