<?xml version="1.0" encoding="utf-8"?>
<!-- Generator: Fusion 360, Shaper Origin Export Add-In, Version 1.6.10  -->
<svg xmlns="http://www.w3.org/2000/svg" xmlns:xlink="http://www.w3.org/1999/xlink" xmlns:shaper="http://www.shapertools.com/namespaces/shaper" shaper:fusionaddin="version:1.6.10" width="6.50875cm" height="8.89cm" version="1.1" x="0cm" y="0cm" viewBox="0 0 6.50875 8.89" enable-background="new 0 0 6.50875 8.89" xml:space="preserve"><g id="Body_Body1"><path d="M6.50875,-0 L6.50875,8.89 1.74625,8.89 -0,7.14375 -0,0 6.50875,-0z" transform="matrix(1,0,0,-1,0,8.89)" fill="rgb(0,0,0)" shaper:cutDepth="0.003175" stroke-linecap="round" stroke-linejoin="round" /><path d="M5.21335,3.971631 A1.27,1.27 61.314598 0,0 5.3975,3.8488934 A1.27,1.27 51.3178125 1,0 3.81,3.8488934 A1.27,1.27 128.6821875 0,0 3.99415,3.971631 L3.99415,4.2542691 A1.524,1.524 113.5781785 1,1 5.21335,4.2542691 L5.21335,3.971631z" transform="matrix(1,0,0,-1,0,8.89)" fill="rgb(120,120,120)" fill-rule="nonzero" shaper:cutDepth="0.000635" stroke-linecap="round" stroke-linejoin="round" /><path d="M5.856605,5.3091877 a0.163195,0.163195 0 1,1 0.32639,0 a0.163195,0.163195 0 1,1 -0.32639,0z" transform="matrix(1,0,0,-1,0,8.89)" fill="rgb(255,255,255)" stroke="rgb(0,0,0)" stroke-width="0.0010cm" stroke-linecap="round" stroke-linejoin="round" shaper:cutDepth="0.003175" /><path d="M3.024505,5.3091877 a0.163195,0.163195 0 1,1 0.32639,0 a0.163195,0.163195 0 1,1 -0.32639,0z" transform="matrix(1,0,0,-1,0,8.89)" fill="rgb(255,255,255)" stroke="rgb(0,0,0)" stroke-width="0.0010cm" stroke-linecap="round" stroke-linejoin="round" shaper:cutDepth="0.003175" /><path d="M0.668905,5.3091877 a0.163195,0.163195 0 1,1 0.32639,0 a0.163195,0.163195 0 1,1 -0.32639,0z" transform="matrix(1,0,0,-1,0,8.89)" fill="rgb(255,255,255)" stroke="rgb(0,0,0)" stroke-width="0.0010cm" stroke-linecap="round" stroke-linejoin="round" shaper:cutDepth="0.003175" /><path d="M2.6684037,1.2196282 L2.6684037,0.9675187 A0.15875,0.15875 180 0,1 2.8271537,0.8087687 L3.3583422,0.8087687 A0.15875,0.15875 270 0,1 3.5170922,0.9675187 L3.5170922,1.2196282 A0.15875,0.15875 0 0,1 3.3583422,1.3783782 L2.8271537,1.3783782 A0.15875,0.15875 90 0,1 2.6684037,1.2196282z" transform="matrix(1,0,0,-1,0,8.89)" fill="rgb(255,255,255)" stroke="rgb(0,0,0)" stroke-width="0.0010cm" stroke-linecap="round" stroke-linejoin="round" shaper:cutDepth="0.003175" /><path d="M0.987431,2.4510566 L0.7029447,2.4510566 A0.15875,0.15875 90 0,1 0.5441947,2.2923066 L0.5441947,1.785901 A0.15875,0.15875 180 0,1 0.7029447,1.627151 L0.987431,1.627151 A0.15875,0.15875 270 0,1 1.146181,1.785901 L1.146181,2.2923066 A0.15875,0.15875 0 0,1 0.987431,2.4510566z" transform="matrix(1,0,0,-1,0,8.89)" fill="rgb(255,255,255)" stroke="rgb(0,0,0)" stroke-width="0.0010cm" stroke-linecap="round" stroke-linejoin="round" shaper:cutDepth="0.003175" /><path d="M2.6727997,2.4911819 L2.3883134,2.4911819 A0.15875,0.15875 90 0,1 2.2295634,2.3324319 L2.2295634,1.8260262 A0.15875,0.15875 180 0,1 2.3883134,1.6672762 L2.6727997,1.6672762 A0.15875,0.15875 270 0,1 2.8315497,1.8260262 L2.8315497,2.3324319 A0.15875,0.15875 0 0,1 2.6727997,2.4911819z" transform="matrix(1,0,0,-1,0,8.89)" fill="rgb(255,255,255)" stroke="rgb(0,0,0)" stroke-width="0.0010cm" stroke-linecap="round" stroke-linejoin="round" shaper:cutDepth="0.003175" /><path d="M1.3090775,4.89531 L1.3090775,4.5692353 A0.15875,0.15875 180 0,1 1.4678275,4.4104853 L2.5205997,4.4104853 A0.15875,0.15875 90 0,0 2.6598084,4.3280404 L2.7277263,4.2041332 A0.15875,0.15875 208.7286846 0,1 2.8669351,4.1216884 L3.187362,4.1216884 A0.15875,0.15875 270 0,1 3.346112,4.2804384 L3.346112,4.786844 A0.15875,0.15875 0 0,1 3.187362,4.945594 L2.929617,4.945594 A0.15875,0.15875 270 0,0 2.7904083,5.0280388 L2.7389582,5.1219026 A0.15875,0.15875 28.7286846 0,1 2.5997495,5.2043474 L2.0185116,5.2043474 A0.15875,0.15875 90 0,1 1.9062584,5.1578506 L1.8489646,5.1005567 A0.15875,0.15875 315 0,0 1.7367114,5.05406 L1.4678275,5.05406 A0.15875,0.15875 90 0,1 1.3090775,4.89531z" transform="matrix(1,0,0,-1,0,8.89)" fill="rgb(255,255,255)" stroke="rgb(0,0,0)" stroke-width="0.0010cm" stroke-linecap="round" stroke-linejoin="round" shaper:cutDepth="0.003175" /><path d="M2.2935599,3.340581 A0.15875,0.15875 270 0,0 2.1876863,3.3810417 A0.7361094,0.7361094 48.170182 0,1 1.1166941,3.2857347 A0.15875,0.15875 322.0004666 0,0 1.0727113,3.2470077 L0.8978147,3.1430472 A0.15875,0.15875 300.7277247 0,0 0.8167,3.1207595 L0.6681965,3.1207595 A0.15875,0.15875 270 0,0 0.5094465,3.2795095 L0.5094465,3.6853121 A0.15875,0.15875 180 0,0 0.5914955,3.8243032 L1.3482547,4.2419142 A0.15875,0.15875 118.8917277 0,0 1.4249557,4.2616731 L1.8882552,4.2616731 A0.15875,0.15875 90 0,0 1.9527552,4.2479794 L2.725164,3.904524 A0.15875,0.15875 66.0274444 0,0 2.7729172,3.871721 L2.9316197,3.7130184 A0.15875,0.15875 45 0,0 2.9781165,3.6007652 L2.9781165,3.499331 A0.15875,0.15875 0 0,0 2.8193665,3.340581 L2.2935599,3.340581z" transform="matrix(1,0,0,-1,0,8.89)" fill="rgb(255,255,255)" stroke="rgb(0,0,0)" stroke-width="0.0010cm" stroke-linecap="round" stroke-linejoin="round" shaper:cutDepth="0.003175" /><path d="M1.8390292,5.558862 L1.6065832,5.7303019 A0.254,0.254 53.5894638 0,1 1.4558173,5.7798866 L0.8430638,5.7798866 A0.254,0.254 270 0,0 0.7632048,5.7927673 L0.3929494,5.9153963 A0.254,0.254 251.6750723 0,0 0.2188084,6.1565156 L0.2188084,6.7529612 A0.254,0.254 180 0,0 0.2837858,6.922627 L1.848112,8.6652972 A0.15875,0.15875 139.9590406 0,0 1.9696485,8.7219178 L4.398108,8.7219178 A0.15875,0.15875 90 0,0 4.5354793,8.6427334 L5.2346731,7.4355646 A0.15875,0.15875 30.0794815 0,0 5.2560518,7.3559989 L5.2560518,5.7267714 A0.15875,0.15875 0 0,0 5.0973018,5.5680214 L2.5562283,5.5680214 A0.15875,0.15875 90 0,1 2.4661965,5.5400225 L2.4622082,5.5372762 A0.15875,0.15875 304.5502793 0,0 2.3721764,5.5092773 L1.9897952,5.5092773 A0.254,0.254 270 0,0 1.8390292,5.558862z" transform="matrix(1,0,0,-1,0,8.89)" fill="rgb(255,255,255)" stroke="rgb(0,0,0)" stroke-width="0.0010cm" stroke-linecap="round" stroke-linejoin="round" shaper:cutDepth="0.003175" /><path d="M1.51765,1.89484 a0.1651,0.1651 0 1,1 0.3302,0 a0.1651,0.1651 0 1,1 -0.3302,0z" transform="matrix(1,0,0,-1,0,8.89)" fill="rgb(255,255,255)" stroke="rgb(0,0,0)" stroke-width="0.0010cm" stroke-linecap="round" stroke-linejoin="round" shaper:cutDepth="0.003175" /><path d="M1.04775,2.794 a0.635,0.635 0 1,1 1.27,0 a0.635,0.635 0 1,1 -1.27,0z" transform="matrix(1,0,0,-1,0,8.89)" fill="rgb(255,255,255)" stroke="rgb(0,0,0)" stroke-width="0.0010cm" stroke-linecap="round" stroke-linejoin="round" shaper:cutDepth="0.003175" /><path d="M4.27355,5.08 L4.27355,4.3452984 A1.524,1.524 102.5133254 0,1 3.99415,4.2542691 L3.99415,3.971631 A1.27,1.27 118.685402 0,1 3.81,3.8488934 L3.81,2.8575 A0.79375,0.79375 180 0,1 5.3975,2.8575 L5.3975,3.8488934 A1.27,1.27 51.3178125 0,1 5.21335,3.971631 L5.21335,4.2542691 A1.524,1.524 66.4218215 0,1 4.93395,4.3452984 L4.93395,5.08 A0.3302,0.3302 0 0,1 4.27355,5.08z" transform="matrix(1,0,0,-1,0,8.89)" fill="rgb(255,255,255)" stroke="rgb(0,0,0)" stroke-width="0.0010cm" stroke-linecap="round" stroke-linejoin="round" shaper:cutDepth="0.003175" /><path d="M5.658485,0.635 a0.215265,0.215265 0 1,1 0.43053,0 a0.215265,0.215265 0 1,1 -0.43053,0z" transform="matrix(1,0,0,-1,0,8.89)" fill="rgb(255,255,255)" stroke="rgb(0,0,0)" stroke-width="0.0010cm" stroke-linecap="round" stroke-linejoin="round" shaper:cutDepth="0.003175" /><path d="M0.419735,0.635 a0.215265,0.215265 0 1,1 0.43053,0 a0.215265,0.215265 0 1,1 -0.43053,0z" transform="matrix(1,0,0,-1,0,8.89)" fill="rgb(255,255,255)" stroke="rgb(0,0,0)" stroke-width="0.0010cm" stroke-linecap="round" stroke-linejoin="round" shaper:cutDepth="0.003175" /><path d="M2.102485,1.27 a0.215265,0.215265 0 1,1 0.43053,0 a0.215265,0.215265 0 1,1 -0.43053,0z" transform="matrix(1,0,0,-1,0,8.89)" fill="rgb(255,255,255)" stroke="rgb(0,0,0)" stroke-width="0.0010cm" stroke-linecap="round" stroke-linejoin="round" shaper:cutDepth="0.003175" /><path d="M5.499735,6.731 a0.215265,0.215265 0 1,1 0.43053,0 a0.215265,0.215265 0 1,1 -0.43053,0z" transform="matrix(1,0,0,-1,0,8.89)" fill="rgb(255,255,255)" stroke="rgb(0,0,0)" stroke-width="0.0010cm" stroke-linecap="round" stroke-linejoin="round" shaper:cutDepth="0.003175" /><path d="M5.658485,8.255 a0.215265,0.215265 0 1,1 0.43053,0 a0.215265,0.215265 0 1,1 -0.43053,0z" transform="matrix(1,0,0,-1,0,8.89)" fill="rgb(255,255,255)" stroke="rgb(0,0,0)" stroke-width="0.0010cm" stroke-linecap="round" stroke-linejoin="round" shaper:cutDepth="0.003175" /></g></svg>