<?xml version="1.0" encoding="utf-8"?>
<!-- Generator: Fusion 360, Shaper Origin Export Add-In, Version 1.6.10  -->
<svg xmlns="http://www.w3.org/2000/svg" xmlns:xlink="http://www.w3.org/1999/xlink" xmlns:shaper="http://www.shapertools.com/namespaces/shaper" shaper:fusionaddin="version:1.6.10" width="16.66875cm" height="6.5379451cm" version="1.1" x="0cm" y="0cm" viewBox="0 0 16.66875 6.5379451" enable-background="new 0 0 16.66875 6.5379451" xml:space="preserve"><path d="M-7.540625,0.8585275 A0.47625,0.47625 0 0,0 -8.016875,0.3822775 L-8.334375,0.3822775 -8.334375,-3.2689725 8.334375,-3.2689725 8.334375,-0.3479725 5.635625,-0.3479725 A0.47625,0.47625 270 0,0 5.159375,0.1282775 L5.159375,2.7200935 -7.540625,3.2689725 -7.540625,0.8585275z" transform="matrix(1,0,0,-1,8.334375,3.2689725)" fill="rgb(0,0,0)" shaper:cutDepth="0.003175" stroke-linecap="round" stroke-linejoin="round" /><path d="M1.4292306,0.2128993 L1.7357073,0.2128993 A0.15875,0.15875 270 0,1 1.8944573,0.3716493 L1.8944573,0.6503533 A0.15875,0.15875 0 0,1 1.7357073,0.8091033 L1.4292306,0.8091033 A0.15875,0.15875 90 0,1 1.2704806,0.6503533 L1.2704806,0.3716493 A0.15875,0.15875 180 0,1 1.4292306,0.2128993z" transform="matrix(1,0,0,-1,8.334375,3.2689725)" fill="rgb(255,255,255)" stroke="rgb(0,0,0)" stroke-width="0.0010cm" stroke-linecap="round" stroke-linejoin="round" shaper:cutDepth="0.003175" /><path d="M2.4922773,0.1966242 L2.807834,0.1966242 A0.15875,0.15875 270 0,1 2.966584,0.3553742 L2.966584,0.6368141 A0.15875,0.15875 0 0,1 2.807834,0.7955641 L2.4922773,0.7955641 A0.15875,0.15875 90 0,1 2.3335273,0.6368141 L2.3335273,0.3553742 A0.15875,0.15875 180 0,1 2.4922773,0.1966242z" transform="matrix(1,0,0,-1,8.334375,3.2689725)" fill="rgb(255,255,255)" stroke="rgb(0,0,0)" stroke-width="0.0010cm" stroke-linecap="round" stroke-linejoin="round" shaper:cutDepth="0.003175" /><path d="M1.5337523,1.3206198 L1.5337523,1.0194658 A0.15875,0.15875 180 0,1 1.6925023,0.8607158 L2.3213672,0.8607158 A0.15875,0.15875 270 0,1 2.4801172,1.0194658 L2.4801172,1.3206198 A0.15875,0.15875 0 0,1 2.3213672,1.4793698 L1.6925023,1.4793698 A0.15875,0.15875 90 0,1 1.5337523,1.3206198z" transform="matrix(1,0,0,-1,8.334375,3.2689725)" fill="rgb(255,255,255)" stroke="rgb(0,0,0)" stroke-width="0.0010cm" stroke-linecap="round" stroke-linejoin="round" shaper:cutDepth="0.003175" /><path d="M-0.031848,0.9236589 L-0.0404877,0.9236589 A0.15875,0.15875 90 0,1 -0.1992377,0.7649089 L-0.1992377,0.7052345 A0.15875,0.15875 0 0,0 -0.3579877,0.5464845 L-0.6004582,0.5464845 A0.15875,0.15875 270 0,0 -0.7173379,0.5978068 L-0.7660697,0.6508263 A0.15875,0.15875 42.587053 0,1 -0.8829494,0.7021487 L-1.3876392,0.7021487 A0.15875,0.15875 90 0,1 -1.4554606,0.686932 L-1.5875153,0.6245344 A0.15875,0.15875 295.2913639 0,0 -1.6553368,0.6093177 L-1.8737163,0.6093177 A0.15875,0.15875 270 0,0 -2.0324663,0.7680677 L-2.0324663,1.1225982 A0.15875,0.15875 180 0,0 -1.8737163,1.2813482 L-0.031848,1.2813482 A0.15875,0.15875 90 0,0 0.126902,1.1225982 L0.126902,1.0824089 A0.15875,0.15875 0 0,0 -0.031848,0.9236589z" transform="matrix(1,0,0,-1,8.334375,3.2689725)" fill="rgb(255,255,255)" stroke="rgb(0,0,0)" stroke-width="0.0010cm" stroke-linecap="round" stroke-linejoin="round" shaper:cutDepth="0.003175" /><path d="M1.5352181,-1.8086343 L2.8266032,-1.8086343 A0.15875,0.15875 270 0,1 2.9853532,-1.6498843 L2.9853532,-1.3668618 A0.15875,0.15875 0 0,1 2.8266032,-1.2081118 L1.5352181,-1.2081118 A0.15875,0.15875 90 0,1 1.3764681,-1.3668618 L1.3764681,-1.6498843 A0.15875,0.15875 180 0,1 1.5352181,-1.8086343z" transform="matrix(1,0,0,-1,8.334375,3.2689725)" fill="rgb(255,255,255)" stroke="rgb(0,0,0)" stroke-width="0.0010cm" stroke-linecap="round" stroke-linejoin="round" shaper:cutDepth="0.003175" /><path d="M-1.7253495,-1.2588736 L-1.7041921,-1.2770773 A0.15875,0.15875 229.2914585 0,1 -1.6006535,-1.3154889 L-0.5532722,-1.3154889 A0.15875,0.15875 90 0,0 -0.3945222,-1.4742389 L-0.3945222,-1.7093344 A0.15875,0.15875 0 0,0 -0.5532722,-1.8680844 L-1.8596973,-1.8680844 A0.15875,0.15875 270 0,0 -2.0184473,-1.7093344 L-2.0184473,-1.379212 A0.15875,0.15875 180 0,0 -1.8596973,-1.220462 L-1.828888,-1.220462 A0.15875,0.15875 90 0,0 -1.7253495,-1.2588736z" transform="matrix(1,0,0,-1,8.334375,3.2689725)" fill="rgb(255,255,255)" stroke="rgb(0,0,0)" stroke-width="0.0010cm" stroke-linecap="round" stroke-linejoin="round" shaper:cutDepth="0.003175" /><path d="M-2.1524918,1.8078408 L-2.1524918,1.7607979 A0.15875,0.15875 180 0,1 -1.9937418,1.6020479 L-1.6442941,1.6020479 A0.15875,0.15875 270 0,1 -1.4855441,1.7607979 L-1.4855441,1.8078408 A0.15875,0.15875 0 0,1 -1.6442941,1.9665908 L-1.9937418,1.9665908 A0.15875,0.15875 90 0,1 -2.1524918,1.8078408z" transform="matrix(1,0,0,-1,8.334375,3.2689725)" fill="rgb(255,255,255)" stroke="rgb(0,0,0)" stroke-width="0.0010cm" stroke-linecap="round" stroke-linejoin="round" shaper:cutDepth="0.003175" /><path d="M-3.3163185,1.7892271 L-3.3163185,0.3491938 A0.15875,0.15875 180 0,1 -3.1575685,0.1904438 L-2.5578374,0.1904438 A0.15875,0.15875 270 0,1 -2.3990874,0.3491938 L-2.3990874,1.7892271 A0.15875,0.15875 0 0,1 -2.5578374,1.9479771 L-3.1575685,1.9479771 A0.15875,0.15875 90 0,1 -3.3163185,1.7892271z" transform="matrix(1,0,0,-1,8.334375,3.2689725)" fill="rgb(255,255,255)" stroke="rgb(0,0,0)" stroke-width="0.0010cm" stroke-linecap="round" stroke-linejoin="round" shaper:cutDepth="0.003175" /><path d="M-0.5562571,1.5251944 L1.3125596,1.5251944 A0.15875,0.15875 270 0,1 1.4713096,1.6839444 L1.4713096,1.9536135 A0.15875,0.15875 0 0,1 1.3125596,2.1123635 L-0.5562571,2.1123635 A0.15875,0.15875 90 0,1 -0.7150071,1.9536135 L-0.7150071,1.6839444 A0.15875,0.15875 180 0,1 -0.5562571,1.5251944z" transform="matrix(1,0,0,-1,8.334375,3.2689725)" fill="rgb(255,255,255)" stroke="rgb(0,0,0)" stroke-width="0.0010cm" stroke-linecap="round" stroke-linejoin="round" shaper:cutDepth="0.003175" /><path d="M4.46786,1.8110275 a0.215265,0.215265 0 1,1 0.43053,0 a0.215265,0.215265 0 1,1 -0.43053,0z" transform="matrix(1,0,0,-1,8.334375,3.2689725)" fill="rgb(255,255,255)" stroke="rgb(0,0,0)" stroke-width="0.0010cm" stroke-linecap="round" stroke-linejoin="round" shaper:cutDepth="0.003175" /><path d="M6.21411,-2.6339725 a0.215265,0.215265 0 1,1 0.43053,0 a0.215265,0.215265 0 1,1 -0.43053,0z" transform="matrix(1,0,0,-1,8.334375,3.2689725)" fill="rgb(255,255,255)" stroke="rgb(0,0,0)" stroke-width="0.0010cm" stroke-linecap="round" stroke-linejoin="round" shaper:cutDepth="0.003175" /><path d="M-7.12089,-2.6339725 a0.215265,0.215265 0 1,1 0.43053,0 a0.215265,0.215265 0 1,1 -0.43053,0z" transform="matrix(1,0,0,-1,8.334375,3.2689725)" fill="rgb(255,255,255)" stroke="rgb(0,0,0)" stroke-width="0.0010cm" stroke-linecap="round" stroke-linejoin="round" shaper:cutDepth="0.003175" /><path d="M-7.27964,2.1920275 a0.215265,0.215265 0 1,1 0.43053,0 a0.215265,0.215265 0 1,1 -0.43053,0z" transform="matrix(1,0,0,-1,8.334375,3.2689725)" fill="rgb(255,255,255)" stroke="rgb(0,0,0)" stroke-width="0.0010cm" stroke-linecap="round" stroke-linejoin="round" shaper:cutDepth="0.003175" /><path d="M-3.37439,-0.4241725 a0.215265,0.215265 0 1,1 0.43053,0 a0.215265,0.215265 0 1,1 -0.43053,0z" transform="matrix(1,0,0,-1,8.334375,3.2689725)" fill="rgb(255,255,255)" stroke="rgb(0,0,0)" stroke-width="0.0010cm" stroke-linecap="round" stroke-linejoin="round" shaper:cutDepth="0.003175" /><path d="M4.08686,-0.4241725 a0.215265,0.215265 0 1,1 0.43053,0 a0.215265,0.215265 0 1,1 -0.43053,0z" transform="matrix(1,0,0,-1,8.334375,3.2689725)" fill="rgb(255,255,255)" stroke="rgb(0,0,0)" stroke-width="0.0010cm" stroke-linecap="round" stroke-linejoin="round" shaper:cutDepth="0.003175" /><path d="M-1.730375,-0.4749725 a0.635,0.635 0 1,1 1.27,0 a0.635,0.635 0 1,1 -1.27,0z" transform="matrix(1,0,0,-1,8.334375,3.2689725)" fill="rgb(255,255,255)" stroke="rgb(0,0,0)" stroke-width="0.0010cm" stroke-linecap="round" stroke-linejoin="round" shaper:cutDepth="0.003175" /><path d="M1.470025,-0.4749725 a0.635,0.635 0 1,1 1.27,0 a0.635,0.635 0 1,1 -1.27,0z" transform="matrix(1,0,0,-1,8.334375,3.2689725)" fill="rgb(255,255,255)" stroke="rgb(0,0,0)" stroke-width="0.0010cm" stroke-linecap="round" stroke-linejoin="round" shaper:cutDepth="0.003175" /><path d="M-1.2739751,0.4775275 a0.1786001,0.1786001 0 1,1 0.3572002,0 a0.1786001,0.1786001 0 1,1 -0.3572002,0z" transform="matrix(1,0,0,-1,8.334375,3.2689725)" fill="rgb(255,255,255)" stroke="rgb(0,0,0)" stroke-width="0.0010cm" stroke-linecap="round" stroke-linejoin="round" shaper:cutDepth="0.003175" /><path d="M1.9264249,0.4775275 a0.1786001,0.1786001 0 1,1 0.3572002,0 a0.1786001,0.1786001 0 1,1 -0.3572002,0z" transform="matrix(1,0,0,-1,8.334375,3.2689725)" fill="rgb(255,255,255)" stroke="rgb(0,0,0)" stroke-width="0.0010cm" stroke-linecap="round" stroke-linejoin="round" shaper:cutDepth="0.003175" /></svg>