<?xml version="1.0" encoding="utf-8"?>
<!-- Generator: Fusion 360, Shaper Origin Export Add-In, Version 1.6.10  -->
<svg xmlns="http://www.w3.org/2000/svg" xmlns:xlink="http://www.w3.org/1999/xlink" xmlns:shaper="http://www.shapertools.com/namespaces/shaper" shaper:fusionaddin="version:1.6.10" width="16.8275008cm" height="14.5554405cm" version="1.1" x="0cm" y="0cm" viewBox="0 0 16.8275008 14.5554405" enable-background="new 0 0 16.8275008 14.5554405" xml:space="preserve"><path d="M10.7096604,-6.4854124 A0.0762,0.0762 0 0,0 10.6434065,-6.5609605 L7.2883483,-7.0026623 A0.0762,0.0762 277.5 0,0 7.2042124,-6.909727 L7.9361956,-3.7864156 A0.508,0.508 346.8101359 0,1 7.9297314,-3.5298281 L7.4373184,-1.8211551 A0.508,0.508 16.0761575 0,1 6.9491841,-1.4538278 L4.4866604,-1.4538275 A0.508,0.508 89.9999918 0,1 3.9786604,-1.9618274 L3.9786602,-2.9968774 A0.0762,0.0762 0 0,0 3.9024602,-3.0730774 L0.7294357,-3.073077 A0.508,0.508 89.9999918 0,1 0.2458192,-3.4255803 L-1.2516734,-8.0829929 A0.0762,0.0762 342.1759017 0,0 -1.3142698,-8.1352165 L-5.6506942,-8.7061169 A0.0762,0.0762 277.4999918 0,0 -5.7368403,-8.6305688 L-5.7368395,-3.0754314 A0.0762,0.0762 179.9999918 0,0 -5.714521,-3.0215499 L-4.2981293,-1.6051582 A0.508,0.508 315 0,1 -4.1493396,-1.2459479 L-4.1493396,4.9787216 A0.0762,0.0762 179.9999959 0,0 -4.0731396,5.0549216 L8.3601604,5.0549216 A0.508,0.508 270 0,1 8.8681604,5.5629216 L8.8681603,5.7724716 A0.0762001,0.0762001 179.9999959 0,0 8.9443604,5.8486717 L11.0144604,5.8486716 A0.0762,0.0762 89.9999959 0,0 11.0906604,5.7724716 L11.0906605,-3.7400333 A0.0762001,0.0762001 0 0,0 11.0169185,-3.8161938 A0.3174999,0.3174999 91.8485718 0,1 10.7096605,-4.1335284 L10.7096604,-6.4854124z" transform="matrix(1,0,0,-1,5.7368403,5.8486717)" fill="rgb(0,0,0)" shaper:cutDepth="0.003175" stroke-linecap="round" stroke-linejoin="round" /><path d="M-3.5226675,2.2663706 L-3.5226676,1.8091706 A0.1524,0.1524 179.9999918 0,1 -3.3702676,1.6567706 L-3.0400676,1.6567706 A0.1524,0.1524 269.9999918 0,1 -2.8876676,1.8091706 L-2.8876675,2.2663705 A0.1524,0.1524 0 0,1 -3.0400675,2.4187706 L-3.3702675,2.4187706 A0.1524,0.1524 89.9999918 0,1 -3.5226675,2.2663706z" transform="matrix(1,0,0,-1,5.7368403,5.8486717)" fill="rgb(255,255,255)" stroke="rgb(0,0,0)" stroke-width="0.0010cm" stroke-linecap="round" stroke-linejoin="round" shaper:cutDepth="0.003175" /><path d="M-3.7296046,2.9911716 a0.215265,0.215265 0 1,1 0.43053,0 a0.215265,0.215265 0 1,1 -0.43053,0z" transform="matrix(1,0,0,-1,5.7368403,5.8486717)" fill="rgb(255,255,255)" stroke="rgb(0,0,0)" stroke-width="0.0010cm" stroke-linecap="round" stroke-linejoin="round" shaper:cutDepth="0.003175" /><path d="M9.8593939,-5.9953606 a0.215265,0.215265 0 1,1 0.43053,0 a0.215265,0.215265 0 1,1 -0.43053,0z" transform="matrix(1,0,0,-1,5.7368403,5.8486717)" fill="rgb(255,255,255)" stroke="rgb(0,0,0)" stroke-width="0.0010cm" stroke-linecap="round" stroke-linejoin="round" shaper:cutDepth="0.003175" /><path d="M4.2078954,-0.8188275 a0.215265,0.215265 0 1,1 0.43053,0 a0.215265,0.215265 0 1,1 -0.43053,0z" transform="matrix(1,0,0,-1,5.7368403,5.8486717)" fill="rgb(255,255,255)" stroke="rgb(0,0,0)" stroke-width="0.0010cm" stroke-linecap="round" stroke-linejoin="round" shaper:cutDepth="0.003175" /><path d="M9.0338954,-3.6191785 a0.215265,0.215265 0 1,1 0.43053,0 a0.215265,0.215265 0 1,1 -0.43053,0z" transform="matrix(1,0,0,-1,5.7368403,5.8486717)" fill="rgb(255,255,255)" stroke="rgb(0,0,0)" stroke-width="0.0010cm" stroke-linecap="round" stroke-linejoin="round" shaper:cutDepth="0.003175" /><path d="M-4.9996063,-6.0575783 a0.215265,0.215265 0 1,1 0.43053,0 a0.215265,0.215265 0 1,1 -0.43053,0z" transform="matrix(1,0,0,-1,5.7368403,5.8486717)" fill="rgb(255,255,255)" stroke="rgb(0,0,0)" stroke-width="0.0010cm" stroke-linecap="round" stroke-linejoin="round" shaper:cutDepth="0.003175" /><path d="M-3.4756053,0.6099216 a0.215265,0.215265 0 1,1 0.43053,0 a0.215265,0.215265 0 1,1 -0.43053,0z" transform="matrix(1,0,0,-1,5.7368403,5.8486717)" fill="rgb(255,255,255)" stroke="rgb(0,0,0)" stroke-width="0.0010cm" stroke-linecap="round" stroke-linejoin="round" shaper:cutDepth="0.003175" /><path d="M0.5566454,3.5309216 a0.215265,0.215265 0 1,1 0.43053,0 a0.215265,0.215265 0 1,1 -0.43053,0z" transform="matrix(1,0,0,-1,5.7368403,5.8486717)" fill="rgb(255,255,255)" stroke="rgb(0,0,0)" stroke-width="0.0010cm" stroke-linecap="round" stroke-linejoin="round" shaper:cutDepth="0.003175" /><path d="M9.0338954,4.2611715 a0.215265,0.215265 0 1,1 0.43053,0 a0.215265,0.215265 0 1,1 -0.43053,0z" transform="matrix(1,0,0,-1,5.7368403,5.8486717)" fill="rgb(255,255,255)" stroke="rgb(0,0,0)" stroke-width="0.0010cm" stroke-linecap="round" stroke-linejoin="round" shaper:cutDepth="0.003175" /><path d="M9.7641454,5.4359217 a0.215265,0.215265 0 1,1 0.43053,0 a0.215265,0.215265 0 1,1 -0.43053,0z" transform="matrix(1,0,0,-1,5.7368403,5.8486717)" fill="rgb(255,255,255)" stroke="rgb(0,0,0)" stroke-width="0.0010cm" stroke-linecap="round" stroke-linejoin="round" shaper:cutDepth="0.003175" /><path d="M-3.57784,-6.5020764 a0.635,0.635 0 1,1 1.27,0 a0.635,0.635 0 1,1 -1.27,0z" transform="matrix(1,0,0,-1,5.7368403,5.8486717)" fill="rgb(255,255,255)" stroke="rgb(0,0,0)" stroke-width="0.0010cm" stroke-linecap="round" stroke-linejoin="round" shaper:cutDepth="0.003175" /><path d="M-1.9649402,-2.0888288 a0.635,0.635 0 1,1 1.27,0 a0.635,0.635 0 1,1 -1.27,0z" transform="matrix(1,0,0,-1,5.7368403,5.8486717)" fill="rgb(255,255,255)" stroke="rgb(0,0,0)" stroke-width="0.0010cm" stroke-linecap="round" stroke-linejoin="round" shaper:cutDepth="0.003175" /><path d="M1.6926595,-1.2442794 a0.635,0.635 0 1,1 1.27,0 a0.635,0.635 0 1,1 -1.27,0z" transform="matrix(1,0,0,-1,5.7368403,5.8486717)" fill="rgb(255,255,255)" stroke="rgb(0,0,0)" stroke-width="0.0010cm" stroke-linecap="round" stroke-linejoin="round" shaper:cutDepth="0.003175" /><path d="M1.6926601,2.6419206 a0.635,0.635 0 1,1 1.27,0 a0.635,0.635 0 1,1 -1.27,0z" transform="matrix(1,0,0,-1,5.7368403,5.8486717)" fill="rgb(255,255,255)" stroke="rgb(0,0,0)" stroke-width="0.0010cm" stroke-linecap="round" stroke-linejoin="round" shaper:cutDepth="0.003175" /><path d="M-1.9649396,2.6419212 a0.635,0.635 0 1,1 1.27,0 a0.635,0.635 0 1,1 -1.27,0z" transform="matrix(1,0,0,-1,5.7368403,5.8486717)" fill="rgb(255,255,255)" stroke="rgb(0,0,0)" stroke-width="0.0010cm" stroke-linecap="round" stroke-linejoin="round" shaper:cutDepth="0.003175" /><path d="M-1.4886904,-3.0413288 a0.15875,0.15875 0 1,1 0.3175,0 a0.15875,0.15875 0 1,1 -0.3175,0z" transform="matrix(1,0,0,-1,5.7368403,5.8486717)" fill="rgb(255,255,255)" stroke="rgb(0,0,0)" stroke-width="0.0010cm" stroke-linecap="round" stroke-linejoin="round" shaper:cutDepth="0.003175" /><path d="M6.6774104,1.4227218 a0.47625,0.47625 0 1,1 0.9525,0 a0.47625,0.47625 0 1,1 -0.9525,0z" transform="matrix(1,0,0,-1,5.7368403,5.8486717)" fill="rgb(255,255,255)" stroke="rgb(0,0,0)" stroke-width="0.0010cm" stroke-linecap="round" stroke-linejoin="round" shaper:cutDepth="0.003175" /><path d="M5.5096454,1.105222 a0.215265,0.215265 0 1,1 0.43053,0 a0.215265,0.215265 0 1,1 -0.43053,0z" transform="matrix(1,0,0,-1,5.7368403,5.8486717)" fill="rgb(255,255,255)" stroke="rgb(0,0,0)" stroke-width="0.0010cm" stroke-linecap="round" stroke-linejoin="round" shaper:cutDepth="0.003175" /><path d="M8.3671454,1.1052216 a0.215265,0.215265 0 1,1 0.43053,0 a0.215265,0.215265 0 1,1 -0.43053,0z" transform="matrix(1,0,0,-1,5.7368403,5.8486717)" fill="rgb(255,255,255)" stroke="rgb(0,0,0)" stroke-width="0.0010cm" stroke-linecap="round" stroke-linejoin="round" shaper:cutDepth="0.003175" /><path d="M8.3671457,3.6452216 a0.215265,0.215265 0 1,1 0.43053,0 a0.215265,0.215265 0 1,1 -0.43053,0z" transform="matrix(1,0,0,-1,5.7368403,5.8486717)" fill="rgb(255,255,255)" stroke="rgb(0,0,0)" stroke-width="0.0010cm" stroke-linecap="round" stroke-linejoin="round" shaper:cutDepth="0.003175" /><path d="M5.5096457,3.645222 a0.215265,0.215265 0 1,1 0.43053,0 a0.215265,0.215265 0 1,1 -0.43053,0z" transform="matrix(1,0,0,-1,5.7368403,5.8486717)" fill="rgb(255,255,255)" stroke="rgb(0,0,0)" stroke-width="0.0010cm" stroke-linecap="round" stroke-linejoin="round" shaper:cutDepth="0.003175" /><path d="M6.9949103,0.5972218 a0.15875,0.15875 0 1,1 0.3175,0 a0.15875,0.15875 0 1,1 -0.3175,0z" transform="matrix(1,0,0,-1,5.7368403,5.8486717)" fill="rgb(255,255,255)" stroke="rgb(0,0,0)" stroke-width="0.0010cm" stroke-linecap="round" stroke-linejoin="round" shaper:cutDepth="0.003175" /><path d="M10.2326446,-1.1077639 L10.2326443,-3.1636653 A0.15875,0.15875 179.9999919 0,1 10.3913943,-3.3224153 L10.7021476,-3.3224154 A0.15875,0.15875 269.9999918 0,1 10.8608977,-3.1636654 L10.8608979,-1.107764 A0.15875,0.15875 0 0,1 10.702148,-0.949014 L10.3913947,-0.9490139 A0.15875,0.15875 89.9999918 0,1 10.2326446,-1.1077639z" transform="matrix(1,0,0,-1,5.7368403,5.8486717)" fill="rgb(255,255,255)" stroke="rgb(0,0,0)" stroke-width="0.0010cm" stroke-linecap="round" stroke-linejoin="round" shaper:cutDepth="0.003175" /><path d="M7.9573791,-5.6166026 L8.1694929,-5.4298191 A0.15875,0.15875 311.366558 0,1 8.2233291,-5.3106777 L8.2233293,-4.2962063 A0.15875,0.15875 179.9999919 0,0 8.3820793,-4.1374563 L9.5015139,-4.1374565 A0.15875,0.15875 89.9999918 0,0 9.6602639,-4.2962065 L9.6602639,-4.6277125 A0.15875,0.15875 0 0,0 9.630797,-4.7198397 L8.6284148,-6.1264945 A0.15875,0.15875 324.5263268 0,0 8.4991316,-6.1931173 L8.0622927,-6.1931173 A0.15875,0.15875 269.9999918 0,0 7.9035428,-6.0343673 L7.9035428,-5.735744 A0.15875,0.15875 179.9999919 0,0 7.9573791,-5.6166026z" transform="matrix(1,0,0,-1,5.7368403,5.8486717)" fill="rgb(255,255,255)" stroke="rgb(0,0,0)" stroke-width="0.0010cm" stroke-linecap="round" stroke-linejoin="round" shaper:cutDepth="0.003175" /><path d="M10.1890179,-0.5692404 L10.1890179,-0.2577531 A0.15875,0.15875 0 0,1 10.030268,-0.0990031 L8.4251549,-0.0990029 A0.15875,0.15875 89.9999918 0,1 8.2664049,-0.2577529 L8.2664048,-0.5692401 A0.15875,0.15875 179.9999919 0,1 8.4251548,-0.7279901 L10.0302679,-0.7279904 A0.15875,0.15875 269.9999918 0,1 10.1890179,-0.5692404z" transform="matrix(1,0,0,-1,5.7368403,5.8486717)" fill="rgb(255,255,255)" stroke="rgb(0,0,0)" stroke-width="0.0010cm" stroke-linecap="round" stroke-linejoin="round" shaper:cutDepth="0.003175" /><path d="M9.8907511,-1.5905157 L9.8907512,-1.1423239 A0.15875,0.15875 0 0,1 9.7320012,-0.9835738 L8.3301419,-0.9835736 A0.15875,0.15875 89.9999918 0,1 8.1713919,-1.1423236 L8.1713918,-1.5905154 A0.15875,0.15875 179.9999919 0,1 8.3301418,-1.7492655 L9.7320011,-1.7492657 A0.15875,0.15875 269.9999918 0,1 9.8907511,-1.5905157z" transform="matrix(1,0,0,-1,5.7368403,5.8486717)" fill="rgb(255,255,255)" stroke="rgb(0,0,0)" stroke-width="0.0010cm" stroke-linecap="round" stroke-linejoin="round" shaper:cutDepth="0.003175" /><path d="M-2.0499178,2.4882263 L-2.0499177,2.8080291 A0.15875,0.15875 0 0,1 -2.2086677,2.9667791 L-2.4867162,2.9667792 A0.15875,0.15875 89.9999918 0,1 -2.6454662,2.8080292 L-2.6454663,2.4882263 A0.15875,0.15875 179.9999919 0,1 -2.4867163,2.3294763 L-2.2086678,2.3294763 A0.15875,0.15875 269.9999918 0,1 -2.0499178,2.4882263z" transform="matrix(1,0,0,-1,5.7368403,5.8486717)" fill="rgb(255,255,255)" stroke="rgb(0,0,0)" stroke-width="0.0010cm" stroke-linecap="round" stroke-linejoin="round" shaper:cutDepth="0.003175" /><path d="M3.2055573,1.3353817 L3.2055573,1.5876389 A0.15875,0.15875 0 0,1 3.0468073,1.7463889 L1.7087675,1.7463891 A0.15875,0.15875 89.9999918 0,1 1.5500175,1.5876391 L1.5500174,1.335382 A0.15875,0.15875 179.9999919 0,1 1.7087674,1.1766319 L3.0468072,1.1766318 A0.15875,0.15875 269.9999918 0,1 3.2055573,1.3353818z" transform="matrix(1,0,0,-1,5.7368403,5.8486717)" fill="rgb(255,255,255)" stroke="rgb(0,0,0)" stroke-width="0.0010cm" stroke-linecap="round" stroke-linejoin="round" shaper:cutDepth="0.003175" /><path d="M0.0239896,1.1894763 L0.0239897,1.6055391 A0.15875,0.15875 0 0,1 -0.1347603,1.7642891 L-2.2328,1.7642894 A0.15875,0.15875 89.9999918 0,1 -2.39155,1.6055394 L-2.3915501,1.1894767 A0.15875,0.15875 179.9999919 0,1 -2.2328001,1.0307267 L-0.1347604,1.0307264 A0.15875,0.15875 269.9999918 0,1 0.0239896,1.1894764z" transform="matrix(1,0,0,-1,5.7368403,5.8486717)" fill="rgb(255,255,255)" stroke="rgb(0,0,0)" stroke-width="0.0010cm" stroke-linecap="round" stroke-linejoin="round" shaper:cutDepth="0.003175" /><path d="M1.1828663,0.2838257 L1.8531,-0.2858918 A0.15875,0.15875 229.6345291 0,1 1.9559161,-0.3236856 L2.5628816,-0.3236857 A0.15875,0.15875 269.9999918 0,1 2.6440928,-0.3013406 L3.5546977,0.2408041 A0.15875,0.15875 300.768202 0,1 3.6322366,0.3772091 L3.6322366,0.7114832 A0.15875,0.15875 0 0,1 3.4734866,0.8702332 L1.2856826,0.8702335 A0.15875,0.15875 89.9999918 0,1 1.1269325,0.7114835 L1.1269325,0.4047819 A0.15875,0.15875 179.9999919 0,1 1.1828663,0.2838257z" transform="matrix(1,0,0,-1,5.7368403,5.8486717)" fill="rgb(255,255,255)" stroke="rgb(0,0,0)" stroke-width="0.0010cm" stroke-linecap="round" stroke-linejoin="round" shaper:cutDepth="0.003175" /><path d="M3.2402471,3.6653624 L3.2402472,4.5301605 A0.254,0.254 0 0,1 2.9862473,4.7841605 L1.7839717,4.7841607 A0.254,0.254 89.9999918 0,1 1.5299717,4.5301608 L1.5299715,3.6653626 A0.254,0.254 179.9999918 0,1 1.7839715,3.4113626 L2.9862471,3.4113624 A0.254,0.254 269.9999918 0,1 3.2402471,3.6653624z" transform="matrix(1,0,0,-1,5.7368403,5.8486717)" fill="rgb(255,255,255)" stroke="rgb(0,0,0)" stroke-width="0.0010cm" stroke-linecap="round" stroke-linejoin="round" shaper:cutDepth="0.003175" /><path d="M3.8345377,2.4912242 L3.8345377,2.8112221 A0.15875,0.15875 0 0,1 3.6757877,2.9699721 L3.2055575,2.9699722 A0.15875,0.15875 89.9999918 0,1 3.0468075,2.8112222 L3.0468074,2.4912243 A0.15875,0.15875 179.9999919 0,1 3.2055574,2.3324743 L3.6757876,2.3324742 A0.15875,0.15875 269.9999918 0,1 3.8345377,2.4912242z" transform="matrix(1,0,0,-1,5.7368403,5.8486717)" fill="rgb(255,255,255)" stroke="rgb(0,0,0)" stroke-width="0.0010cm" stroke-linecap="round" stroke-linejoin="round" shaper:cutDepth="0.003175" /><path d="M1.6072821,2.4567437 L1.6072821,2.7765466 A0.15875,0.15875 0 0,1 1.4485322,2.9352966 L1.1704837,2.9352966 A0.15875,0.15875 89.9999918 0,1 1.0117336,2.7765467 L1.0117336,2.4567438 A0.15875,0.15875 179.9999919 0,1 1.1704836,2.2979938 L1.4485321,2.2979938 A0.15875,0.15875 269.9999918 0,1 1.6072821,2.4567438z" transform="matrix(1,0,0,-1,5.7368403,5.8486717)" fill="rgb(255,255,255)" stroke="rgb(0,0,0)" stroke-width="0.0010cm" stroke-linecap="round" stroke-linejoin="round" shaper:cutDepth="0.003175" /><path d="M0.1827398,2.4694351 L0.1827398,2.7894329 A0.15875,0.15875 0 0,1 0.0239899,2.948183 L-0.4647048,2.948183 A0.15875,0.15875 89.9999918 0,1 -0.6234548,2.7894331 L-0.6234548,2.4694352 A0.15875,0.15875 179.9999919 0,1 -0.4647048,2.3106852 L0.0239898,2.3106851 A0.15875,0.15875 269.9999918 0,1 0.1827398,2.4694351z" transform="matrix(1,0,0,-1,5.7368403,5.8486717)" fill="rgb(255,255,255)" stroke="rgb(0,0,0)" stroke-width="0.0010cm" stroke-linecap="round" stroke-linejoin="round" shaper:cutDepth="0.003175" /><path d="M0.1830967,-2.1898732 L0.1830968,-1.8698754 A0.15875,0.15875 0 0,1 0.0243468,-1.7111253 L-0.4458835,-1.7111253 A0.15875,0.15875 89.9999918 0,1 -0.6046335,-1.8698752 L-0.6046335,-2.1898731 A0.15875,0.15875 179.9999919 0,1 -0.4458835,-2.3486231 L0.0243467,-2.3486232 A0.15875,0.15875 269.9999918 0,1 0.1830967,-2.1898732z" transform="matrix(1,0,0,-1,5.7368403,5.8486717)" fill="rgb(255,255,255)" stroke="rgb(0,0,0)" stroke-width="0.0010cm" stroke-linecap="round" stroke-linejoin="round" shaper:cutDepth="0.003175" /><path d="M-1.661295,-4.3082476 L-2.3256341,-3.710555 A0.1661431,0.1661431 48.0229211 0,1 -2.4367561,-3.6679248 L-3.6014718,-3.6679246 A0.1661431,0.1661431 89.9999918 0,1 -3.7463459,-3.7527348 L-4.1050561,-4.3916871 A0.1661431,0.1661431 150.6899847 0,1 -4.1263251,-4.4730199 L-4.1263251,-4.894238 A0.1661431,0.1661431 179.9999918 0,1 -4.0989512,-4.985598 L-3.6653241,-5.6442462 A0.1661431,0.1661431 213.3592764 0,1 -3.526555,-5.7190293 L-2.3486015,-5.7190294 A0.1661431,0.1661431 269.9999918 0,1 -2.2250886,-5.6640084 L-1.6489042,-5.0235757 A0.1661431,0.1661431 318.0229211 0,1 -1.606274,-4.9124537 L-1.6062739,-4.4317604 A0.1661431,0.1661431 0 0,1 -1.661295,-4.3082476z" transform="matrix(1,0,0,-1,5.7368403,5.8486717)" fill="rgb(255,255,255)" stroke="rgb(0,0,0)" stroke-width="0.0010cm" stroke-linecap="round" stroke-linejoin="round" shaper:cutDepth="0.003175" /><path d="M-1.7176258,-2.7228556 L-2.0127832,-2.7220158 A0.15875,0.15875 89.8369769 0,1 -2.1719849,-2.8807651 L-2.171985,-3.3505775 A0.15875,0.15875 179.9999919 0,1 -2.013235,-3.5093275 L-1.7180776,-3.5093276 A0.15875,0.15875 269.9999918 0,1 -1.5593276,-3.3505776 L-1.5593275,-2.881605 A0.15875,0.15875 0 0,1 -1.7176258,-2.7228556z" transform="matrix(1,0,0,-1,5.7368403,5.8486717)" fill="rgb(255,255,255)" stroke="rgb(0,0,0)" stroke-width="0.0010cm" stroke-linecap="round" stroke-linejoin="round" shaper:cutDepth="0.003175" /><path d="M-0.6514654,-2.7284887 L-0.919517,-2.727726 A0.15875,0.15875 89.8369769 0,1 -1.0787187,-2.8864754 L-1.0787188,-3.3562106 A0.15875,0.15875 179.9999919 0,1 -0.9199688,-3.5149606 L-0.6519172,-3.5149607 A0.15875,0.15875 269.9999918 0,1 -0.4931672,-3.3562107 L-0.4931671,-2.8872381 A0.15875,0.15875 0 0,1 -0.6514654,-2.7284887z" transform="matrix(1,0,0,-1,5.7368403,5.8486717)" fill="rgb(255,255,255)" stroke="rgb(0,0,0)" stroke-width="0.0010cm" stroke-linecap="round" stroke-linejoin="round" shaper:cutDepth="0.003175" /><path d="M-0.9736497,-1.1478849 L-1.9080549,-1.1478847 A0.15875,0.15875 89.9999918 0,1 -2.066805,-1.3066347 L-2.0668051,-2.3622291 A0.15875,0.15875 0 0,0 -2.2255551,-2.5209791 L-2.486717,-2.520979 A0.15875,0.15875 269.9999918 0,0 -2.645467,-2.362229 L-2.6454669,-2.0512437 A0.15875,0.15875 0 0,1 -2.8042169,-1.8924937 L-3.179925,-1.8924937 A0.15875,0.15875 269.9999918 0,0 -3.338675,-1.7337436 L-3.3386747,-0.0146937 A0.15875,0.15875 179.9999919 0,0 -3.1799247,0.1440563 L-2.7647264,0.1440562 A0.15875,0.15875 269.9999918 0,1 -2.6059764,0.3028062 L-2.6059764,0.5527341 A0.15875,0.15875 179.9999919 0,0 -2.4472264,0.7114841 L-0.2792437,0.7114837 A0.15875,0.15875 89.9999918 0,0 -0.1204937,0.5527337 L-0.1204938,0.0506365 A0.15875,0.15875 0 0,0 -0.1472276,-0.0375297 L-0.8416335,-1.0773012 A0.15875,0.15875 326.2632285 0,0 -0.9736497,-1.1478849z" transform="matrix(1,0,0,-1,5.7368403,5.8486717)" fill="rgb(255,255,255)" stroke="rgb(0,0,0)" stroke-width="0.0010cm" stroke-linecap="round" stroke-linejoin="round" shaper:cutDepth="0.003175" /><path d="M7.9035435,-1.1470797 L7.9035435,-0.8355924 A0.15875,0.15875 0 0,1 7.7447935,-0.6768424 L5.5178137,-0.6768421 A0.15875,0.15875 89.9999918 0,1 5.3590636,-0.835592 L5.3590636,-1.1470793 A0.15875,0.15875 179.9999919 0,1 5.5178136,-1.3058293 L7.7447934,-1.3058296 A0.15875,0.15875 269.9999918 0,1 7.9035435,-1.1470796z" transform="matrix(1,0,0,-1,5.7368403,5.8486717)" fill="rgb(255,255,255)" stroke="rgb(0,0,0)" stroke-width="0.0010cm" stroke-linecap="round" stroke-linejoin="round" shaper:cutDepth="0.003175" /><path d="M3.657252,-1.4053734 L3.6572521,-1.0855706 A0.15875,0.15875 0 0,1 3.4985021,-0.9268205 L3.2204536,-0.9268205 A0.15875,0.15875 89.9999918 0,1 3.0617035,-1.0855705 L3.0617035,-1.4053733 A0.15875,0.15875 179.9999919 0,1 3.2204535,-1.5641233 L3.498502,-1.5641234 A0.15875,0.15875 269.9999918 0,1 3.657252,-1.4053734z" transform="matrix(1,0,0,-1,5.7368403,5.8486717)" fill="rgb(255,255,255)" stroke="rgb(0,0,0)" stroke-width="0.0010cm" stroke-linecap="round" stroke-linejoin="round" shaper:cutDepth="0.003175" /><path d="M2.625572,-2.6491116 L2.6255721,-2.3293087 A0.15875,0.15875 0 0,1 2.4668221,-2.1705587 L2.1887736,-2.1705587 A0.15875,0.15875 89.9999918 0,1 2.0300236,-2.3293087 L2.0300235,-2.6491115 A0.15875,0.15875 179.9999919 0,1 2.1887735,-2.8078615 L2.466822,-2.8078616 A0.15875,0.15875 269.9999918 0,1 2.625572,-2.6491116z" transform="matrix(1,0,0,-1,5.7368403,5.8486717)" fill="rgb(255,255,255)" stroke="rgb(0,0,0)" stroke-width="0.0010cm" stroke-linecap="round" stroke-linejoin="round" shaper:cutDepth="0.003175" /><path d="M3.8074908,4.1886222 a0.152,0.152 0 1,1 0.304,0 a0.152,0.152 0 1,1 -0.304,0z" transform="matrix(1,0,0,-1,5.7368403,5.8486717)" fill="rgb(255,255,255)" stroke="rgb(0,0,0)" stroke-width="0.0010cm" stroke-linecap="round" stroke-linejoin="round" shaper:cutDepth="0.003175" /><path d="M0.8074902,-0.2113773 a0.152,0.152 0 1,1 0.304,0 a0.152,0.152 0 1,1 -0.304,0z" transform="matrix(1,0,0,-1,5.7368403,5.8486717)" fill="rgb(255,255,255)" stroke="rgb(0,0,0)" stroke-width="0.0010cm" stroke-linecap="round" stroke-linejoin="round" shaper:cutDepth="0.003175" /><path d="M3.8074902,-0.2113778 a0.152,0.152 0 1,1 0.304,0 a0.152,0.152 0 1,1 -0.304,0z" transform="matrix(1,0,0,-1,5.7368403,5.8486717)" fill="rgb(255,255,255)" stroke="rgb(0,0,0)" stroke-width="0.0010cm" stroke-linecap="round" stroke-linejoin="round" shaper:cutDepth="0.003175" /><path d="M0.8074908,4.1886227 a0.152,0.152 0 1,1 0.304,0 a0.152,0.152 0 1,1 -0.304,0z" transform="matrix(1,0,0,-1,5.7368403,5.8486717)" fill="rgb(255,255,255)" stroke="rgb(0,0,0)" stroke-width="0.0010cm" stroke-linecap="round" stroke-linejoin="round" shaper:cutDepth="0.003175" /><path d="M9.882706,-3.1974185 L9.882706,-2.8859313 A0.15875,0.15875 0 0,1 9.723956,-2.7271812 L9.378737,-2.7271812 A0.15875,0.15875 89.9999918 0,1 9.219987,-2.8859312 L9.2199869,-3.1974184 A0.15875,0.15875 179.9999919 0,1 9.3787369,-3.3561684 L9.7239559,-3.3561685 A0.15875,0.15875 269.9999918 0,1 9.882706,-3.1974185z" transform="matrix(1,0,0,-1,5.7368403,5.8486717)" fill="rgb(255,255,255)" stroke="rgb(0,0,0)" stroke-width="0.0010cm" stroke-linecap="round" stroke-linejoin="round" shaper:cutDepth="0.003175" /><path d="M8.8545959,-3.2060755 L8.8545959,-2.8945883 A0.15875,0.15875 0 0,1 8.695846,-2.7358382 L8.3577914,-2.7358382 A0.15875,0.15875 89.9999918 0,1 8.1990414,-2.8945882 L8.1990414,-3.2060754 A0.15875,0.15875 179.9999919 0,1 8.3577914,-3.3648254 L8.6958459,-3.3648255 A0.15875,0.15875 269.9999918 0,1 8.8545959,-3.2060755z" transform="matrix(1,0,0,-1,5.7368403,5.8486717)" fill="rgb(255,255,255)" stroke="rgb(0,0,0)" stroke-width="0.0010cm" stroke-linecap="round" stroke-linejoin="round" shaper:cutDepth="0.003175" /><path d="M9.8292721,-2.4191965 L9.8292721,-1.9941476 A0.15875,0.15875 0 0,1 9.6705221,-1.8353976 L8.1559595,-1.8353974 A0.15875,0.15875 89.9999918 0,1 7.9972095,-1.9941474 L7.9972094,-2.4191963 A0.15875,0.15875 179.9999919 0,1 8.1559594,-2.5779463 L9.670522,-2.5779465 A0.15875,0.15875 269.9999918 0,1 9.8292721,-2.4191965z" transform="matrix(1,0,0,-1,5.7368403,5.8486717)" fill="rgb(255,255,255)" stroke="rgb(0,0,0)" stroke-width="0.0010cm" stroke-linecap="round" stroke-linejoin="round" shaper:cutDepth="0.003175" /><path d="M8.4868467,3.3400081 L8.9343418,3.340008 A0.15875,0.15875 269.9999918 0,1 9.0456177,3.385536 L9.0786225,3.4179734 A0.15875,0.15875 134.5033257 0,0 9.1898984,3.4635014 L9.5873475,3.4635013 A0.15875,0.15875 89.9999918 0,0 9.7460975,3.3047513 L9.7460974,2.8542087 A0.15875,0.15875 0 0,0 9.6147531,2.6978422 L9.318325,2.6458886 A0.15875,0.15875 279.9410006 0,0 9.2909194,2.6435051 L8.4868466,2.6435053 A0.15875,0.15875 269.9999918 0,0 8.3280966,2.8022553 L8.3280967,3.1812581 A0.15875,0.15875 179.9999919 0,0 8.4868467,3.3400081z" transform="matrix(1,0,0,-1,5.7368403,5.8486717)" fill="rgb(255,255,255)" stroke="rgb(0,0,0)" stroke-width="0.0010cm" stroke-linecap="round" stroke-linejoin="round" shaper:cutDepth="0.003175" /><path d="M8.5809408,4.0501073 L8.08341,4.0501074 A0.15875,0.15875 89.9999918 0,1 7.92466,3.8913574 L7.9246599,3.5701117 A0.15875,0.15875 0 0,0 7.7659099,3.4113617 L6.6266524,3.4113619 A0.15875,0.15875 269.9999918 0,0 6.4679024,3.5701119 L6.4679025,3.9926803 A0.15875,0.15875 0 0,1 6.3091525,4.1514303 L4.786616,4.1514305 A0.15875,0.15875 269.9999918 0,0 4.627866,4.3101806 L4.627866,4.6166946 A0.15875,0.15875 179.9999919 0,0 4.786616,4.7754446 L8.5678924,4.775444 A0.15875,0.15875 89.9999918 0,0 8.7265612,4.6217706 L8.7396097,4.2139339 A0.15875,0.15875 1.8325199 0,0 8.5809408,4.0501073z" transform="matrix(1,0,0,-1,5.7368403,5.8486717)" fill="rgb(255,255,255)" stroke="rgb(0,0,0)" stroke-width="0.0010cm" stroke-linecap="round" stroke-linejoin="round" shaper:cutDepth="0.003175" /><path d="M10.3219058,1.8764923 L9.0413914,1.8764925 A0.15875,0.15875 89.9999918 0,1 8.8826414,1.7177425 L8.8826413,1.3638747 A0.15875,0.15875 179.9999919 0,1 9.0413913,1.2051247 L9.2956246,1.2051247 A0.15875,0.15875 269.9999918 0,1 9.3137996,1.2061685 L10.3400808,1.3244438 A0.15875,0.15875 276.5741322 0,1 10.4806558,1.4821499 L10.4806558,1.7177422 A0.15875,0.15875 0 0,1 10.3219058,1.8764923z" transform="matrix(1,0,0,-1,5.7368403,5.8486717)" fill="rgb(255,255,255)" stroke="rgb(0,0,0)" stroke-width="0.0010cm" stroke-linecap="round" stroke-linejoin="round" shaper:cutDepth="0.003175" /><path d="M4.4979712,2.9138571 L5.2604414,2.5488536 A0.15875,0.15875 244.4190068 0,1 5.3289875,2.5332922 L5.6203399,2.5332922 A0.15875,0.15875 269.9999918 0,1 5.7790899,2.6920422 L5.77909,3.1082049 A0.15875,0.15875 0 0,1 5.6888861,3.2513936 L5.074956,3.5452892 A0.15875,0.15875 64.4190068 0,1 5.0113479,3.5607738 L4.5826091,3.5741166 A0.15875,0.15875 88.2174698 0,1 4.4189979,3.4203815 L4.4078441,3.0619839 A0.15875,0.15875 178.2174698 0,1 4.4979712,2.9138571z" transform="matrix(1,0,0,-1,5.7368403,5.8486717)" fill="rgb(255,255,255)" stroke="rgb(0,0,0)" stroke-width="0.0010cm" stroke-linecap="round" stroke-linejoin="round" shaper:cutDepth="0.003175" /><path d="M1.4413491,-0.8811372 L1.0700819,-0.8800808 A0.15875,0.15875 89.8369769 0,1 0.9108802,-1.0388302 L0.9108801,-1.6798047 A0.15875,0.15875 179.9999919 0,1 1.0696301,-1.8385548 L1.4408973,-1.8385548 A0.15875,0.15875 269.9999918 0,1 1.5996473,-1.6798048 L1.5996474,-1.0398866 A0.15875,0.15875 0 0,1 1.4413491,-0.8811372z" transform="matrix(1,0,0,-1,5.7368403,5.8486717)" fill="rgb(255,255,255)" stroke="rgb(0,0,0)" stroke-width="0.0010cm" stroke-linecap="round" stroke-linejoin="round" shaper:cutDepth="0.003175" /><path d="M-3.8101021,-6.1716249 L-4.0781537,-6.1708622 A0.15875,0.15875 89.8369769 0,1 -4.2373554,-6.3296116 L-4.2373555,-6.7862308 A0.15875,0.15875 179.9999919 0,1 -4.0786055,-6.9449808 L-3.8105539,-6.9449808 A0.15875,0.15875 269.9999918 0,1 -3.6518038,-6.7862308 L-3.6518038,-6.3303743 A0.15875,0.15875 0 0,1 -3.8101021,-6.1716249z" transform="matrix(1,0,0,-1,5.7368403,5.8486717)" fill="rgb(255,255,255)" stroke="rgb(0,0,0)" stroke-width="0.0010cm" stroke-linecap="round" stroke-linejoin="round" shaper:cutDepth="0.003175" /><path d="M-1.8090461,-6.1931159 L-2.0770978,-6.1923532 A0.15875,0.15875 89.8369769 0,1 -2.2362995,-6.3511025 L-2.2362995,-6.6902976 A0.15875,0.15875 179.9999919 0,1 -2.0775495,-6.8490477 L-1.8094979,-6.8490477 A0.15875,0.15875 269.9999918 0,1 -1.6507479,-6.6902977 L-1.6507478,-6.3518652 A0.15875,0.15875 0 0,1 -1.8090461,-6.1931159z" transform="matrix(1,0,0,-1,5.7368403,5.8486717)" fill="rgb(255,255,255)" stroke="rgb(0,0,0)" stroke-width="0.0010cm" stroke-linecap="round" stroke-linejoin="round" shaper:cutDepth="0.003175" /><path d="M-2.1032565,-7.9663728 L-2.9071483,-7.907752 A0.15875,0.15875 85.8293049 0,1 -2.9806013,-7.9199001 L-3.4740539,-8.1288755 A0.15875,0.15875 292.9524813 0,0 -3.5475068,-8.1410235 L-3.8962473,-8.115593 A0.15875,0.15875 265.8293049 0,0 -4.0434517,-7.9572633 L-4.0434517,-7.549278 A0.15875,0.15875 179.9999919 0,0 -3.91018,-7.3925859 L-2.998359,-7.2443225 A0.15875,0.15875 99.2355509 0,0 -2.9518996,-7.2436571 L-2.0707299,-7.3611466 A0.15875,0.15875 82.4053484 0,0 -1.9329609,-7.518504 L-1.9329609,-7.8080432 A0.15875,0.15875 0 0,0 -2.1032565,-7.9663728z" transform="matrix(1,0,0,-1,5.7368403,5.8486717)" fill="rgb(255,255,255)" stroke="rgb(0,0,0)" stroke-width="0.0010cm" stroke-linecap="round" stroke-linejoin="round" shaper:cutDepth="0.003175" /><path d="M0.4640373,4.0501085 L-0.1314313,4.0501086 A0.15875,0.15875 89.9999918 0,1 -0.2901814,3.8913586 L-0.2901814,3.6772989 A0.15875,0.15875 0 0,0 -0.4352381,3.5191406 L-2.2252436,3.364162 A0.15875,0.15875 274.9483256 0,0 -2.3106483,3.3806904 L-2.518077,3.4857176 A0.15875,0.15875 243.1455705 0,0 -2.5623215,3.5189234 L-3.2207357,4.2230748 A0.15875,0.15875 223.0774746 0,0 -3.2635298,4.331499 L-3.2635297,4.6166957 A0.15875,0.15875 179.9999919 0,0 -3.1047797,4.7754457 L0.4640374,4.7754452 A0.15875,0.15875 89.9999918 0,0 0.6227873,4.6166952 L0.6227873,4.2088585 A0.15875,0.15875 0 0,0 0.4640373,4.0501085z" transform="matrix(1,0,0,-1,5.7368403,5.8486717)" fill="rgb(255,255,255)" stroke="rgb(0,0,0)" stroke-width="0.0010cm" stroke-linecap="round" stroke-linejoin="round" shaper:cutDepth="0.003175" /><path d="M-5.3171052,-7.9933796 a0.215265,0.215265 0 1,1 0.43053,0 a0.215265,0.215265 0 1,1 -0.43053,0z" transform="matrix(1,0,0,-1,5.7368403,5.8486717)" fill="rgb(255,255,255)" stroke="rgb(0,0,0)" stroke-width="0.0010cm" stroke-linecap="round" stroke-linejoin="round" shaper:cutDepth="0.003175" /></svg>