<?xml version="1.0" encoding="utf-8"?>
<!-- Generator: Fusion 360, Shaper Origin Export Add-In, Version 1.6.10  -->
<svg xmlns="http://www.w3.org/2000/svg" xmlns:xlink="http://www.w3.org/1999/xlink" xmlns:shaper="http://www.shapertools.com/namespaces/shaper" shaper:fusionaddin="version:1.6.10" width="14.605cm" height="5.715cm" version="1.1" x="0cm" y="0cm" viewBox="0 0 14.605 5.715" enable-background="new 0 0 14.605 5.715" xml:space="preserve"><path d="M3.4925,2.8575 L-11.1125,2.8575 -11.1125,-2.8575 3.4925,-2.8575 3.4925,2.8575z" transform="matrix(1,0,0,-1,11.1125,2.8575)" fill="rgb(0,0,0)" shaper:cutDepth="0.003175" stroke-linecap="round" stroke-linejoin="round" /><path d="M-10.3239636,0.6254728 A0.15875,0.15875 90 0,0 -10.1652136,0.4667228 L-10.1652136,-0.3089518 A0.15875,0.15875 180 0,1 -10.0064636,-0.4677018 L-9.8722889,-0.4677018 A0.15875,0.15875 90 0,0 -9.7135389,-0.6264518 L-9.7135389,-0.6574742 A0.15875,0.15875 0 0,0 -9.8722889,-0.8162242 L-9.9139341,-0.8162242 A0.15875,0.15875 270 0,0 -10.0359677,-0.7590092 L-10.0633726,-0.7260717 A0.15875,0.15875 39.7613154 0,1 -10.1854062,-0.6688568 L-10.6742873,-0.6688568 A0.15875,0.15875 270 0,0 -10.8330373,-0.5101068 L-10.8330373,0.4667228 A0.15875,0.15875 180 0,0 -10.6742873,0.6254728 L-10.3239636,0.6254728z" transform="matrix(1,0,0,-1,11.1125,2.8575)" fill="rgb(255,255,255)" stroke="rgb(0,0,0)" stroke-width="0.0010cm" stroke-linecap="round" stroke-linejoin="round" shaper:cutDepth="0.003175" /><path d="M-5.7046428,-0.3715179 A0.2465804,0.2465804 90 0,0 -5.4580624,-0.6180983 L-5.4580624,-1.1607308 A0.15875,0.15875 0 0,0 -5.6168124,-1.3194808 L-7.3331192,-1.3194808 A0.15875,0.15875 270 0,0 -7.4918692,-1.1607308 L-7.4918692,-0.5302679 A0.15875,0.15875 180 0,0 -7.3331192,-0.3715179 L-5.7046428,-0.3715179z" transform="matrix(1,0,0,-1,11.1125,2.8575)" fill="rgb(255,255,255)" stroke="rgb(0,0,0)" stroke-width="0.0010cm" stroke-linecap="round" stroke-linejoin="round" shaper:cutDepth="0.003175" /><path d="M-6.5719391,-1.4106267 A0.2481013,0.2481013 90 0,0 -6.3238378,-1.658728 L-6.3238378,-2.2013605 A0.15875,0.15875 0 0,0 -6.4825878,-2.3601105 L-8.1988946,-2.3601105 A0.15875,0.15875 270 0,0 -8.3576446,-2.2013605 L-8.3576446,-1.5693767 A0.15875,0.15875 180 0,0 -8.1988946,-1.4106267 L-6.5719391,-1.4106267z" transform="matrix(1,0,0,-1,11.1125,2.8575)" fill="rgb(255,255,255)" stroke="rgb(0,0,0)" stroke-width="0.0010cm" stroke-linecap="round" stroke-linejoin="round" shaper:cutDepth="0.003175" /><path d="M-1.1674602,-1.0403386 A0.15875,0.15875 270 0,0 -1.3262102,-0.8815886 L-1.3262102,-0.3258359 A0.15875,0.15875 180 0,0 -1.1674602,-0.1670859 L-0.8244356,-0.1670859 A0.15875,0.15875 90 0,0 -0.6656856,-0.3258359 L-0.6656856,-0.8815886 A0.15875,0.15875 0 0,0 -0.8244356,-1.0403386 L-1.1674602,-1.0403386z" transform="matrix(1,0,0,-1,11.1125,2.8575)" fill="rgb(255,255,255)" stroke="rgb(0,0,0)" stroke-width="0.0010cm" stroke-linecap="round" stroke-linejoin="round" shaper:cutDepth="0.003175" /><path d="M-5.4408512,1.5921737 A0.15875,0.15875 0 0,0 -5.5996012,1.4334237 L-6.2702094,1.4334237 A0.15875,0.15875 270 0,0 -6.3207297,1.441677 L-7.1125715,1.7074905 A0.15875,0.15875 251.4436058 0,0 -7.2208012,1.8579872 L-7.2208012,2.0853843 A0.15875,0.15875 180 0,0 -7.0906227,2.2415421 L-6.9203792,2.2726907 A0.15875,0.15875 100.3684554 0,0 -6.8918078,2.275283 L-5.5996012,2.275283 A0.15875,0.15875 90 0,0 -5.4408512,2.116533 L-5.4408512,1.5921737z" transform="matrix(1,0,0,-1,11.1125,2.8575)" fill="rgb(255,255,255)" stroke="rgb(0,0,0)" stroke-width="0.0010cm" stroke-linecap="round" stroke-linejoin="round" shaper:cutDepth="0.003175" /><path d="M-6.6568251,0.2660031 A0.15875,0.15875 271.1604317 0,0 -6.8187576,0.4215055 L-6.8295242,0.9530313 A0.15875,0.15875 181.1604317 0,0 -6.6708068,1.1149963 L-5.6508259,1.1149963 A0.15875,0.15875 90 0,0 -5.4921085,0.9594613 L-5.4817602,0.4485879 A0.15875,0.15875 1.1604317 0,0 -5.6372626,0.2866555 L-6.6568251,0.2660031z" transform="matrix(1,0,0,-1,11.1125,2.8575)" fill="rgb(255,255,255)" stroke="rgb(0,0,0)" stroke-width="0.0010cm" stroke-linecap="round" stroke-linejoin="round" shaper:cutDepth="0.003175" /><path d="M-7.4648118,1.0468262 A0.15875,0.15875 0 0,0 -7.6235618,0.8880762 L-9.1202536,0.8880762 A0.15875,0.15875 90 0,1 -9.2390524,0.8346277 L-9.4043012,0.6481978 A0.15875,0.15875 318.4466734 0,0 -9.68185,0.7534994 L-9.68185,1.3283103 A0.15875,0.15875 180 0,0 -9.5231,1.4870603 L-7.6235618,1.4870603 A0.15875,0.15875 90 0,0 -7.4648118,1.3283103 L-7.4648118,1.0468262z" transform="matrix(1,0,0,-1,11.1125,2.8575)" fill="rgb(255,255,255)" stroke="rgb(0,0,0)" stroke-width="0.0010cm" stroke-linecap="round" stroke-linejoin="round" shaper:cutDepth="0.003175" /><path d="M1.2566885,0.1315186 A0.15875,0.15875 258.6225464 0,0 1.1292553,0.287149 L1.1292553,0.6925152 A0.15875,0.15875 0 0,1 0.9705053,0.8512652 L-0.3172485,0.8512652 A0.15875,0.15875 90 0,1 -0.4759985,0.6925152 L-0.4759985,0.4327222 A0.15875,0.15875 0 0,0 -0.6347485,0.2739722 L-1.2922536,0.2739722 A0.15875,0.15875 270 0,0 -1.4142386,0.5343155 L-1.2042251,0.7864829 A0.15875,0.15875 320.2113215 0,1 -1.1674602,0.8880762 L-1.1674602,1.4334237 A0.15875,0.15875 180 0,0 -1.0087102,1.5921737 L1.3577806,1.5921737 A0.15875,0.15875 90 0,0 1.507195,1.4870603 L1.8336132,0.5777639 A0.15875,0.15875 19.7470632 0,0 1.7792286,0.3969624 L1.4453381,0.1474472 A0.15875,0.15875 306.7706304 0,0 1.3189914,0.1189817 L1.2566885,0.1315186z" transform="matrix(1,0,0,-1,11.1125,2.8575)" fill="rgb(255,255,255)" stroke="rgb(0,0,0)" stroke-width="0.0010cm" stroke-linecap="round" stroke-linejoin="round" shaper:cutDepth="0.003175" /><path d="M-4.28625,-0.9525 a0.15875,0.15875 0 1,1 0.3175,0 a0.15875,0.15875 0 1,1 -0.3175,0z" transform="matrix(1,0,0,-1,11.1125,2.8575)" fill="rgb(255,255,255)" stroke="rgb(0,0,0)" stroke-width="0.0010cm" stroke-linecap="round" stroke-linejoin="round" shaper:cutDepth="0.003175" /><path d="M-0.15875,-0.4445 a0.47625,0.47625 0 1,1 0.9525,0 a0.47625,0.47625 0 1,1 -0.9525,0z" transform="matrix(1,0,0,-1,11.1125,2.8575)" fill="rgb(255,255,255)" stroke="rgb(0,0,0)" stroke-width="0.0010cm" stroke-linecap="round" stroke-linejoin="round" shaper:cutDepth="0.003175" /><path d="M-4.7625,0 a0.635,0.635 0 1,1 1.27,0 a0.635,0.635 0 1,1 -1.27,0z" transform="matrix(1,0,0,-1,11.1125,2.8575)" fill="rgb(255,255,255)" stroke="rgb(0,0,0)" stroke-width="0.0010cm" stroke-linecap="round" stroke-linejoin="round" shaper:cutDepth="0.003175" /><path d="M-9.2075,0 a0.635,0.635 0 1,1 1.27,0 a0.635,0.635 0 1,1 -1.27,0z" transform="matrix(1,0,0,-1,11.1125,2.8575)" fill="rgb(255,255,255)" stroke="rgb(0,0,0)" stroke-width="0.0010cm" stroke-linecap="round" stroke-linejoin="round" shaper:cutDepth="0.003175" /><path d="M2.788285,1.42875 a0.215265,0.215265 0 1,1 0.43053,0 a0.215265,0.215265 0 1,1 -0.43053,0z" transform="matrix(1,0,0,-1,11.1125,2.8575)" fill="rgb(255,255,255)" stroke="rgb(0,0,0)" stroke-width="0.0010cm" stroke-linecap="round" stroke-linejoin="round" shaper:cutDepth="0.003175" /><path d="M-10.838815,1.42875 a0.215265,0.215265 0 1,1 0.43053,0 a0.215265,0.215265 0 1,1 -0.43053,0z" transform="matrix(1,0,0,-1,11.1125,2.8575)" fill="rgb(255,255,255)" stroke="rgb(0,0,0)" stroke-width="0.0010cm" stroke-linecap="round" stroke-linejoin="round" shaper:cutDepth="0.003175" /><path d="M-10.838815,-1.42875 a0.215265,0.215265 0 1,1 0.43053,0 a0.215265,0.215265 0 1,1 -0.43053,0z" transform="matrix(1,0,0,-1,11.1125,2.8575)" fill="rgb(255,255,255)" stroke="rgb(0,0,0)" stroke-width="0.0010cm" stroke-linecap="round" stroke-linejoin="round" shaper:cutDepth="0.003175" /><path d="M2.788285,-1.42875 a0.215265,0.215265 0 1,1 0.43053,0 a0.215265,0.215265 0 1,1 -0.43053,0z" transform="matrix(1,0,0,-1,11.1125,2.8575)" fill="rgb(255,255,255)" stroke="rgb(0,0,0)" stroke-width="0.0010cm" stroke-linecap="round" stroke-linejoin="round" shaper:cutDepth="0.003175" /><path d="M1.372235,1.9177 a0.215265,0.215265 0 1,1 0.43053,0 a0.215265,0.215265 0 1,1 -0.43053,0z" transform="matrix(1,0,0,-1,11.1125,2.8575)" fill="rgb(255,255,255)" stroke="rgb(0,0,0)" stroke-width="0.0010cm" stroke-linecap="round" stroke-linejoin="round" shaper:cutDepth="0.003175" /><path d="M1.372235,-1.9177 a0.215265,0.215265 0 1,1 0.43053,0 a0.215265,0.215265 0 1,1 -0.43053,0z" transform="matrix(1,0,0,-1,11.1125,2.8575)" fill="rgb(255,255,255)" stroke="rgb(0,0,0)" stroke-width="0.0010cm" stroke-linecap="round" stroke-linejoin="round" shaper:cutDepth="0.003175" /><path d="M-9.422765,-1.9177 a0.215265,0.215265 0 1,1 0.43053,0 a0.215265,0.215265 0 1,1 -0.43053,0z" transform="matrix(1,0,0,-1,11.1125,2.8575)" fill="rgb(255,255,255)" stroke="rgb(0,0,0)" stroke-width="0.0010cm" stroke-linecap="round" stroke-linejoin="round" shaper:cutDepth="0.003175" /><path d="M-9.422765,1.9177 a0.215265,0.215265 0 1,1 0.43053,0 a0.215265,0.215265 0 1,1 -0.43053,0z" transform="matrix(1,0,0,-1,11.1125,2.8575)" fill="rgb(255,255,255)" stroke="rgb(0,0,0)" stroke-width="0.0010cm" stroke-linecap="round" stroke-linejoin="round" shaper:cutDepth="0.003175" /><path d="M-0.617765,-1.9685 a0.215265,0.215265 0 1,1 0.43053,0 a0.215265,0.215265 0 1,1 -0.43053,0z" transform="matrix(1,0,0,-1,11.1125,2.8575)" fill="rgb(255,255,255)" stroke="rgb(0,0,0)" stroke-width="0.0010cm" stroke-linecap="round" stroke-linejoin="round" shaper:cutDepth="0.003175" /><path d="M-0.0203051,-1.9255512 A0.15875,0.15875 99.1989495 0,0 0.0050731,-1.9235096 L0.3144046,-1.9235096 A0.15875,0.15875 270 0,1 0.4731546,-1.7647596 L0.4731546,-1.5087333 A0.15875,0.15875 180 0,0 0.5368332,-1.3815995 L0.810004,-1.1773206 A0.15875,0.15875 126.7893835 0,0 0.9050754,-1.1457043 L1.3149567,-1.1457043 A0.15875,0.15875 90 0,0 1.4737067,-1.3044543 L1.4737067,-1.5193751 A0.15875,0.15875 0 0,0 1.3149567,-1.6781251 L1.2661166,-1.6781251 A0.15875,0.15875 90 0,1 1.1073666,-1.8368751 L1.1073666,-2.3874717 A0.15875,0.15875 0 0,0 0.9486166,-2.5462217 L0.0050731,-2.5462217 A0.15875,0.15875 270 0,0 -0.1536769,-2.3874717 L-0.1536769,-2.2617653 -0.1536769,-2.0822596 -0.1536769,-2.0822596 -0.1529087,-2.0668616 -0.1506516,-2.0514947 -0.1469717,-2.0366156 -0.1417982,-2.0220707 -0.1352255,-2.0080048 -0.1274441,-1.9948534 -0.1187329,-1.9829198 -0.1094872,-1.9723707 -0.1000064,-1.9632685 -0.0898797,-1.9550574 -0.0791096,-1.9476886 -0.0678207,-1.9412398 -0.0561382,-1.9357873 -0.044209,-1.9313639 -0.0322065,-1.9279568 -0.0203051,-1.9255512z" transform="matrix(1,0,0,-1,11.1125,2.8575)" fill="rgb(255,255,255)" stroke="rgb(0,0,0)" stroke-width="0.0010cm" stroke-linecap="round" stroke-linejoin="round" shaper:cutDepth="0.003175" /><path d="M-0.6901518,-2.2237919 A0.15875,0.15875 322.3939082 0,0 -0.8159175,-2.285668 L-1.4130466,-2.285668 A0.15875,0.15875 270 0,0 -1.5715825,-2.1351597 L-1.5800031,-1.9731832 A0.15875,0.15875 182.9759197 0,0 -1.5344838,-1.8534569 L-0.8710603,-1.1809165 A0.15875,0.15875 135.3909959 0,0 -0.7580437,-1.1336511 L-0.3146023,-1.1336511 A0.15875,0.15875 90 0,0 -0.1558523,-1.2924011 L-0.1558523,-1.4968283 A0.15875,0.15875 0 0,0 -0.2245321,-1.6275529 L-0.2245321,-1.6275529 -0.2339524,-1.6335626 -0.2437849,-1.6389035 -0.2539491,-1.6435343 -0.264618,-1.6474943 -0.2761981,-1.6508437 -0.288519,-1.6534129 -0.301391,-1.6550274 -0.3146023,-1.6555783 -0.4984175,-1.6555783 -0.4984175,-1.6555783 -0.5139627,-1.6563492 -0.5297324,-1.6586995 -0.5453304,-1.6626827 -0.5603982,-1.6682128 -0.5745995,-1.6750646 -0.5877007,-1.6830728 -0.6002157,-1.6925548 -0.6119831,-1.7034294 -0.6226486,-1.7154961 -0.6319338,-1.7284984 -0.6397337,-1.7420528 -0.6459676,-1.7557583 -0.6507555,-1.7697379 -0.6542759,-1.7843498 -0.6564414,-1.7993091 -0.6571675,-1.8143283 -0.6571675,-2.126918 -0.6571675,-2.126918 -0.6578106,-2.1411471 -0.6595702,-2.1544326 -0.6623147,-2.166978 -0.6660771,-2.1792947 -0.670805,-2.1912575 -0.676445,-2.202738 -0.6829325,-2.2136148 -0.6901518,-2.2237919z" transform="matrix(1,0,0,-1,11.1125,2.8575)" fill="rgb(255,255,255)" stroke="rgb(0,0,0)" stroke-width="0.0010cm" stroke-linecap="round" stroke-linejoin="round" shaper:cutDepth="0.003175" /><path d="M1.689735,0.0005 a0.215265,0.215265 0 1,1 0.43053,0 a0.215265,0.215265 0 1,1 -0.43053,0z" transform="matrix(1,0,0,-1,11.1125,2.8575)" fill="rgb(255,255,255)" stroke="rgb(0,0,0)" stroke-width="0.0010cm" stroke-linecap="round" stroke-linejoin="round" shaper:cutDepth="0.003175" /><path d="M1.994742,-0.3734838 A0.15875,0.15875 54.7608574 0,0 2.0618948,-0.503143 L2.0618948,-0.9164819 A0.15875,0.15875 0 0,0 1.9031448,-1.0752319 L1.5791045,-1.0752319 A0.15875,0.15875 270 0,0 1.4203545,-0.9164819 L1.4203545,-0.503143 A0.15875,0.15875 180 0,0 1.5791045,-0.344393 L1.734805,-0.344393 1.9031448,-0.344393 1.9031448,-0.344393 1.9158248,-0.3449172 1.9285812,-0.3464728 1.9411685,-0.3490256 1.9533417,-0.3525397 1.964908,-0.3569179 1.975731,-0.3619787 1.9856755,-0.3675356 1.994742,-0.3734838z" transform="matrix(1,0,0,-1,11.1125,2.8575)" fill="rgb(255,255,255)" stroke="rgb(0,0,0)" stroke-width="0.0010cm" stroke-linecap="round" stroke-linejoin="round" shaper:cutDepth="0.003175" /><path d="M-2.2335638,1.7918287 a0.215265,0.215265 0 1,1 0.43053,0 a0.215265,0.215265 0 1,1 -0.43053,0z" transform="matrix(1,0,0,-1,11.1125,2.8575)" fill="rgb(255,255,255)" stroke="rgb(0,0,0)" stroke-width="0.0010cm" stroke-linecap="round" stroke-linejoin="round" shaper:cutDepth="0.003175" /><path d="M-3.072765,-1.9685 a0.215265,0.215265 0 1,1 0.43053,0 a0.215265,0.215265 0 1,1 -0.43053,0z" transform="matrix(1,0,0,-1,11.1125,2.8575)" fill="rgb(255,255,255)" stroke="rgb(0,0,0)" stroke-width="0.0010cm" stroke-linecap="round" stroke-linejoin="round" shaper:cutDepth="0.003175" /></svg>