<?xml version="1.0" encoding="utf-8"?>
<!-- Generator: Fusion 360, Shaper Origin Export Add-In, Version 1.6.10  -->
<svg xmlns="http://www.w3.org/2000/svg" xmlns:xlink="http://www.w3.org/1999/xlink" xmlns:shaper="http://www.shapertools.com/namespaces/shaper" shaper:fusionaddin="version:1.6.10" width="24.3604324cm" height="25.4591382cm" version="1.1" x="0cm" y="0cm" viewBox="0 0 24.3604324 25.4591382" enable-background="new 0 0 24.3604324 25.4591382" xml:space="preserve"><path d="M-7.3141544,-3.4418241 L-7.3141544,-3.4418241 -7.1133017,-3.929524 -6.9107515,-4.4163938 -6.7065008,-4.9024468 -6.5005466,-5.3876962 -6.292886,-5.8721552 -6.0835158,-6.3558372 -5.8724332,-6.8387554 -5.6596351,-7.3209229 -5.4451403,-7.802307 -5.2289669,-8.2828798 -5.0111068,-8.7626696 -4.7915523,-9.2417049 -4.5702956,-9.7200143 -4.3473286,-10.1976261 -4.1226437,-10.6745688 -3.8962329,-11.150871 6.4249635,-12.1211838 4.8875068,-0.6363423 A0.9525,0.9525 187.6247598 0,0 5.9538547,0.4346596 L11.3020894,-0.2576048 9.4820743,13.3379543 -13.058343,13.3379543 -13.058343,13.3379543 -12.9489913,12.9491666 -12.8386541,12.5605537 -12.7273291,12.1721244 -12.6150141,11.7838872 -12.5017068,11.3958508 -12.3874049,11.0080238 -12.2721062,10.6204148 -12.1558083,10.2330324 -12.038509,9.8458852 -11.920206,9.4589818 -11.8008971,9.0723309 -11.68058,8.685941 -11.5592523,8.2998208 -11.4369119,7.9139789 -11.3135564,7.5284238 -11.1891836,7.1431643 -11.0638085,6.7582583 -10.937466,6.3738153 -10.8101513,5.9898285 -10.6818579,5.6062866 -10.5525798,5.2231784 -10.4223105,4.8404928 -10.2910437,4.4582185 -10.1587733,4.0763444 -10.0254929,3.6948592 -9.8911961,3.3137518 -9.7558768,2.9330109 -9.6195287,2.5526253 -9.4821454,2.1725839 -9.3437206,1.7928755 -9.2042481,1.4134887 -9.0637216,1.0344126 -6.1284747,3.2252417 A0.47625,0.47625 126.7371693 0,0 -5.3929448,2.9975827 L-4.1422342,-0.6624307 A0.47625,0.47625 18.8664745 0,0 -4.3080309,-1.1980936 L-7.3141544,-3.4418241z" transform="matrix(1,0,0,-1,13.058343,13.3379543)" fill="rgb(0,0,0)" shaper:cutDepth="0.00635" stroke-linecap="round" stroke-linejoin="round" /><path d="M0.9995429,-0.3902854 L1.0804743,-0.9948454 3.8212769,-0.6279387 4.6729889,-6.9902488 4.0357361,-7.0755568 3.5996315,-7.646469 3.6849395,-8.2837219 0.2074466,-8.7492481 -1.7816694,-7.2298156 -2.5631512,-1.3921271 -2.0517754,-1.3236701 -1.6051386,-0.7389698 0.9995429,-0.3902854z" transform="matrix(1,0,0,-1,13.058343,13.3379543)" fill="rgb(255,255,255)" stroke="rgb(0,0,0)" stroke-width="0.0010cm" stroke-linecap="round" stroke-linejoin="round" shaper:cutDepth="0.00635" /><path d="M3.8959604,9.7119969 a0.753999,0.753999 0 1,1 1.507998,0 a0.753999,0.753999 0 1,1 -1.507998,0z" transform="matrix(1,0,0,-1,13.058343,13.3379543)" fill="rgb(255,255,255)" stroke="rgb(0,0,0)" stroke-width="0.0010cm" stroke-linecap="round" stroke-linejoin="round" shaper:cutDepth="0.00635" /><path d="M-1.6513642,12.9404957 a0.215265,0.215265 0 1,1 0.43053,0 a0.215265,0.215265 0 1,1 -0.43053,0z" transform="matrix(1,0,0,-1,13.058343,13.3379543)" fill="rgb(255,255,255)" stroke="rgb(0,0,0)" stroke-width="0.0010cm" stroke-linecap="round" stroke-linejoin="round" shaper:cutDepth="0.00635" /><path d="M1.1785505,9.2690596 a0.215265,0.215265 0 1,1 0.43053,0 a0.215265,0.215265 0 1,1 -0.43053,0z" transform="matrix(1,0,0,-1,13.058343,13.3379543)" fill="rgb(255,255,255)" stroke="rgb(0,0,0)" stroke-width="0.0010cm" stroke-linecap="round" stroke-linejoin="round" shaper:cutDepth="0.00635" /><path d="M-1.9896419,11.1047777 a1.9685,1.9685 0 1,1 3.937,0 a1.9685,1.9685 0 1,1 -3.937,0z" transform="matrix(1,0,0,-1,13.058343,13.3379543)" fill="rgb(255,255,255)" stroke="rgb(0,0,0)" stroke-width="0.0010cm" stroke-linecap="round" stroke-linejoin="round" shaper:cutDepth="0.00635" /><path d="M3.9413979,-7.61995 a0.215265,0.215265 0 1,1 0.43053,0 a0.215265,0.215265 0 1,1 -0.43053,0z" transform="matrix(1,0,0,-1,13.058343,13.3379543)" fill="rgb(255,255,255)" stroke="rgb(0,0,0)" stroke-width="0.0010cm" stroke-linecap="round" stroke-linejoin="round" shaper:cutDepth="0.00635" /><path d="M2.9303403,-0.0673238 a0.215265,0.215265 0 1,1 0.43053,0 a0.215265,0.215265 0 1,1 -0.43053,0z" transform="matrix(1,0,0,-1,13.058343,13.3379543)" fill="rgb(255,255,255)" stroke="rgb(0,0,0)" stroke-width="0.0010cm" stroke-linecap="round" stroke-linejoin="round" shaper:cutDepth="0.00635" /><path d="M-2.2620902,-0.7624259 a0.215265,0.215265 0 1,1 0.43053,0 a0.215265,0.215265 0 1,1 -0.43053,0z" transform="matrix(1,0,0,-1,13.058343,13.3379543)" fill="rgb(255,255,255)" stroke="rgb(0,0,0)" stroke-width="0.0010cm" stroke-linecap="round" stroke-linejoin="round" shaper:cutDepth="0.00635" /><path d="M9.4515331,1.1900562 a0.215265,0.215265 0 1,1 0.43053,0 a0.215265,0.215265 0 1,1 -0.43053,0z" transform="matrix(1,0,0,-1,13.058343,13.3379543)" fill="rgb(255,255,255)" stroke="rgb(0,0,0)" stroke-width="0.0010cm" stroke-linecap="round" stroke-linejoin="round" shaper:cutDepth="0.00635" /><path d="M8.0291844,12.5329047 a0.215265,0.215265 0 1,1 0.43053,0 a0.215265,0.215265 0 1,1 -0.43053,0z" transform="matrix(1,0,0,-1,13.058343,13.3379543)" fill="rgb(255,255,255)" stroke="rgb(0,0,0)" stroke-width="0.0010cm" stroke-linecap="round" stroke-linejoin="round" shaper:cutDepth="0.00635" /><path d="M-4.2472901,1.8227781 a0.215265,0.215265 0 1,1 0.43053,0 a0.215265,0.215265 0 1,1 -0.43053,0z" transform="matrix(1,0,0,-1,13.058343,13.3379543)" fill="rgb(255,255,255)" stroke="rgb(0,0,0)" stroke-width="0.0010cm" stroke-linecap="round" stroke-linejoin="round" shaper:cutDepth="0.00635" /><path d="M3.1145009,6.6522742 a0.215265,0.215265 0 1,1 0.43053,0 a0.215265,0.215265 0 1,1 -0.43053,0z" transform="matrix(1,0,0,-1,13.058343,13.3379543)" fill="rgb(255,255,255)" stroke="rgb(0,0,0)" stroke-width="0.0010cm" stroke-linecap="round" stroke-linejoin="round" shaper:cutDepth="0.00635" /><path d="M-7.2782351,12.4995705 a0.215265,0.215265 0 1,1 0.43053,0 a0.215265,0.215265 0 1,1 -0.43053,0z" transform="matrix(1,0,0,-1,13.058343,13.3379543)" fill="rgb(255,255,255)" stroke="rgb(0,0,0)" stroke-width="0.0010cm" stroke-linecap="round" stroke-linejoin="round" shaper:cutDepth="0.00635" /><path d="M10.2165494,0.6475621 a0.245745,0.245745 0 1,1 0.49149,0 a0.245745,0.245745 0 1,1 -0.49149,0z" transform="matrix(1,0,0,-1,13.058343,13.3379543)" fill="rgb(255,255,255)" stroke="rgb(0,0,0)" stroke-width="0.0010cm" stroke-linecap="round" stroke-linejoin="round" shaper:cutDepth="0.00635" /><path d="M-7.6711975,3.3134279 a0.245745,0.245745 0 1,1 0.49149,0 a0.245745,0.245745 0 1,1 -0.49149,0z" transform="matrix(1,0,0,-1,13.058343,13.3379543)" fill="rgb(255,255,255)" stroke="rgb(0,0,0)" stroke-width="0.0010cm" stroke-linecap="round" stroke-linejoin="round" shaper:cutDepth="0.00635" /><path d="M-0.6894229,-10.8376515 a0.245745,0.245745 0 1,1 0.49149,0 a0.245745,0.245745 0 1,1 -0.49149,0z" transform="matrix(1,0,0,-1,13.058343,13.3379543)" fill="rgb(255,255,255)" stroke="rgb(0,0,0)" stroke-width="0.0010cm" stroke-linecap="round" stroke-linejoin="round" shaper:cutDepth="0.00635" /><path d="M4.6621501,8.6105722 a0.135255,0.135255 0 1,1 0.27051,0 a0.135255,0.135255 0 1,1 -0.27051,0z" transform="matrix(1,0,0,-1,13.058343,13.3379543)" fill="rgb(255,255,255)" stroke="rgb(0,0,0)" stroke-width="0.0010cm" stroke-linecap="round" stroke-linejoin="round" shaper:cutDepth="0.00635" /><path d="M-4.6135188,3.8483905 A0.635,0.635 215.4488962 0,0 -4.6458394,4.534718 A0.15875,0.15875 329.9434738 0,1 -4.6449575,4.5362618 A0.15875,0.15875 330.5851757 0,1 -4.6258962,4.6352923 L-5.0514002,7.8138186 A0.15875,0.15875 187.6247598 0,0 -4.9959247,7.9566357 A0.15875,0.15875 309.9191649 0,1 -4.9404492,8.0994528 L-5.0465732,8.892202 A0.15875,0.15875 7.6247598 0,1 -5.2249833,9.0284847 L-5.6590671,8.9703746 A0.15875,0.15875 277.6247598 0,0 -5.8374772,9.1066573 L-5.9430898,9.8955865 A0.15875,0.15875 7.6247598 0,1 -6.1214999,10.0318692 L-6.4071726,9.9936266 A0.635,0.635 277.6247598 0,0 -6.9486024,10.1823127 A0.635,0.635 223.9487715 0,0 -7.1221143,10.6968973 A0.635,0.635 173.3182378 0,0 -6.5756822,11.2523977 L-6.2900095,11.2906402 A0.15875,0.15875 277.6247598 0,1 -6.1537268,11.4690503 L-6.3520852,12.9507922 A0.15875,0.15875 187.6247598 0,0 -6.19572,13.1306029 L-3.3955756,13.1479099 A0.15875,0.15875 90.3541272 0,0 -3.2380498,13.0155323 L-2.7025026,9.8361959 A0.15875,0.15875 189.5614976 0,1 -2.6437303,9.7374967 L-0.9127004,8.3842655 A0.15875,0.15875 231.9835115 0,1 -0.7931233,8.3520887 L1.1559946,8.6223683 A0.15875,0.15875 97.8947269 0,0 1.2760496,8.5898164 L1.4202627,8.4761862 A0.15875,0.15875 231.764264 0,1 1.5395765,8.4435333 L2.0871295,8.5168334 A0.15875,0.15875 97.6247598 0,0 2.2655396,8.3805507 L2.3509,7.7429065 2.574755,6.0707037 A0.15875,0.15875 187.6247598 0,1 2.7531651,5.934421 L3.9352983,6.0926712 A0.15875,0.15875 277.6247598 0,1 4.071581,6.2710813 L3.9393966,7.2585022 A0.15875,0.15875 187.6247598 0,0 4.0759649,7.4369503 L5.8349991,7.6691793 A0.15875,0.15875 277.5207404 0,1 5.9412634,7.7313701 L6.459606,8.4231329 A0.15875,0.15875 323.155529 0,1 6.4911339,8.5258811 L6.4318015,9.7712613 A0.15875,0.15875 182.7276204 0,0 6.557474,9.9341198 L7.1067799,10.0504781 A0.635,0.635 181.5993513 0,0 8.3289534,10.3093685 L9.0354999,10.4590347 A0.15875,0.15875 101.9600457 0,0 9.1393456,10.4457447 L9.5715681,10.2298129 A0.15875,0.15875 63.4539905 0,0 9.6579925,10.1086671 L10.7347695,1.9883669 -2.8437515,0.136415 A0.15875,0.15875 277.7665555 0,0 -3.0225509,0.272645 L-3.4548203,3.5017089 A0.15875,0.15875 7.6247598 0,1 -3.6332304,3.6379916 L-4.011972,3.5872901 A0.635,0.635 277.6247598 0,0 -4.6135188,3.8483905z" transform="matrix(1,0,0,-1,13.058343,13.3379543)" fill="rgb(255,255,255)" stroke="rgb(0,0,0)" stroke-width="0.0010cm" stroke-linecap="round" stroke-linejoin="round" shaper:cutDepth="0.00635" /></svg>